<svg width="410" height="245" viewBox="0 0 410 245" fill="none" xmlns="http://www.w3.org/2000/svg">
<path d="M91.7233 64.576C87.8833 64.576 84.7793 63.808 82.4113 62.272C80.1073 60.736 78.4753 58.592 77.5153 55.84C76.6193 53.088 76.3313 49.856 76.6513 46.144C76.7153 45.376 77.0033 44.992 77.5153 44.992H85.6753C86.2513 44.992 86.5073 45.344 86.4433 46.048C86.1233 49.184 86.4433 51.584 87.4033 53.248C88.3633 54.848 89.8993 55.648 92.0113 55.648C93.9313 55.648 95.3393 55.072 96.2353 53.92C97.1953 52.768 97.6753 50.944 97.6753 48.448C97.6753 46.272 97.3233 44.448 96.6193 42.976C95.9793 41.44 94.8913 40.096 93.3553 38.944L85.2913 32.608C82.4113 30.368 80.2673 27.968 78.8593 25.408C77.4513 22.784 76.7793 19.552 76.8433 15.712C76.9073 10.912 78.1873 7.2 80.6833 4.576C83.1793 1.888 86.8273 0.543999 91.6273 0.543999C97.1313 0.543999 101.163 2.112 103.723 5.248C106.283 8.384 107.307 12.768 106.795 18.4C106.731 19.296 106.443 19.744 105.931 19.744H97.6753C97.0353 19.744 96.7793 19.296 96.9073 18.4C97.1633 15.712 96.8753 13.568 96.0433 11.968C95.2113 10.304 93.8673 9.472 92.0113 9.472C90.4113 9.472 89.1633 9.984 88.2673 11.008C87.3713 12.032 86.8913 13.632 86.8273 15.808C86.8273 17.92 87.2113 19.68 87.9793 21.088C88.8113 22.496 89.9953 23.776 91.5313 24.928L99.3073 30.976C101.419 32.512 103.083 34.112 104.299 35.776C105.515 37.376 106.379 39.2 106.891 41.248C107.467 43.232 107.723 45.6 107.659 48.352C107.659 53.472 106.379 57.472 103.819 60.352C101.259 63.168 97.2273 64.576 91.7233 64.576ZM113.136 64C112.56 64 112.272 63.648 112.272 62.944V2.17599C112.272 1.472 112.56 1.12 113.136 1.12H121.488C122.064 1.12 122.352 1.472 122.352 2.17599V62.944C122.352 63.648 122.064 64 121.488 64H113.136ZM138.999 64C138.423 64 138.135 63.648 138.135 62.944L138.903 2.17599C138.903 1.472 139.223 1.12 139.863 1.12H150.327C150.967 1.12 151.319 1.376 151.383 1.888L160.119 35.584L168.951 1.888C169.015 1.376 169.367 1.12 170.007 1.12H180.471C181.047 1.12 181.335 1.472 181.335 2.17599L182.199 62.944C182.199 63.648 181.911 64 181.335 64H173.175C172.599 64 172.311 63.648 172.311 62.944L172.023 31.84C171.959 29.024 171.959 26.368 172.023 23.872C172.151 21.312 172.279 18.976 172.407 16.864H172.311C171.863 18.848 171.351 20.864 170.775 22.912C170.199 24.896 169.591 26.88 168.951 28.864L161.271 55.168C161.143 55.68 160.823 55.936 160.311 55.936H159.927C159.479 55.936 159.191 55.68 159.063 55.168L151.287 28.864C150.647 26.88 150.039 24.896 149.463 22.912C148.951 20.864 148.471 18.848 148.023 16.864H147.831C148.023 18.976 148.151 21.312 148.215 23.872C148.343 26.368 148.375 29.024 148.311 31.84L148.023 62.944C148.023 63.648 147.735 64 147.159 64H138.999ZM204.591 64.576C198.831 64.576 194.543 62.848 191.727 59.392C188.975 55.872 187.599 50.592 187.599 43.552V2.08C187.599 1.44 187.887 1.12 188.463 1.12H196.815C197.391 1.12 197.679 1.44 197.679 2.08V43.264C197.679 47.616 198.223 50.72 199.311 52.576C200.399 54.432 202.159 55.36 204.591 55.36C207.087 55.36 208.879 54.464 209.967 52.672C211.055 50.816 211.599 47.68 211.599 43.264V2.08C211.599 1.44 211.887 1.12 212.463 1.12H220.815C221.391 1.12 221.679 1.44 221.679 2.08V43.552C221.679 50.592 220.239 55.872 217.359 59.392C214.543 62.848 210.287 64.576 204.591 64.576ZM244.389 64.576C238.693 64.576 234.341 62.912 231.333 59.584C228.389 56.256 226.917 51.296 226.917 44.704V20.512C226.917 13.856 228.389 8.864 231.333 5.536C234.341 2.208 238.693 0.543999 244.389 0.543999C250.021 0.543999 254.341 2.208 257.349 5.536C260.357 8.864 261.861 13.856 261.861 20.512V44.704C261.861 51.296 260.357 56.256 257.349 59.584C254.341 62.912 250.021 64.576 244.389 64.576ZM244.389 55.36C246.885 55.36 248.741 54.496 249.957 52.768C251.237 51.04 251.877 48.192 251.877 44.224V20.992C251.877 16.96 251.237 14.08 249.957 12.352C248.741 10.624 246.885 9.76 244.389 9.76C241.893 9.76 240.005 10.624 238.725 12.352C237.509 14.08 236.901 16.96 236.901 20.992V44.224C236.901 48.192 237.509 51.04 238.725 52.768C240.005 54.496 241.893 55.36 244.389 55.36ZM276.341 64C275.893 64 275.605 63.744 275.477 63.232L263.093 2.272C262.965 1.504 263.221 1.12 263.861 1.12H272.885C273.461 1.12 273.781 1.376 273.845 1.888L280.181 40.192C280.565 42.368 280.885 44.608 281.141 46.912C281.461 49.152 281.781 51.488 282.101 53.92H282.293C282.485 51.488 282.741 49.152 283.061 46.912C283.381 44.608 283.733 42.368 284.117 40.192L290.357 1.984C290.421 1.408 290.741 1.12 291.317 1.12H300.341C300.917 1.12 301.141 1.504 301.013 2.272L288.821 63.136C288.693 63.712 288.405 64 287.957 64H276.341ZM305.055 64C304.415 64 304.095 63.648 304.095 62.944V2.17599C304.095 1.472 304.383 1.12 304.959 1.12H330.496C331.072 1.12 331.36 1.472 331.36 2.17599V9.184C331.36 9.888 331.072 10.24 330.496 10.24H314.175V27.712H329.055C329.631 27.712 329.919 28.064 329.919 28.768V35.392C329.919 36.096 329.631 36.448 329.055 36.448H314.175V54.88H330.496C331.072 54.88 331.36 55.232 331.36 55.936V62.944C331.36 63.648 331.072 64 330.496 64H305.055ZM11.6457 154C11.0697 154 10.7817 153.648 10.7817 152.944V92.176C10.7817 91.472 11.0697 91.12 11.6457 91.12H23.4537C29.4697 91.12 33.8857 92.752 36.7017 96.016C39.5817 99.28 41.0217 104.4 41.0217 111.376C41.0217 117.84 39.5497 122.8 36.6057 126.256C33.7257 129.712 29.4697 131.44 23.8377 131.44H20.8617V152.944C20.8617 153.648 20.5737 154 19.9977 154H11.6457ZM20.8617 122.32H23.4537C26.0777 122.32 27.9657 121.424 29.1177 119.632C30.3337 117.84 30.9417 115.12 30.9417 111.472C30.9417 107.44 30.3337 104.56 29.1177 102.832C27.9657 101.104 26.1417 100.24 23.6457 100.24H20.8617V122.32ZM46.1945 154C45.6185 154 45.3305 153.648 45.3305 152.944V92.176C45.3305 91.472 45.6185 91.12 46.1945 91.12H59.2505C65.3305 91.12 69.7785 92.592 72.5945 95.536C75.4105 98.416 76.8185 102.992 76.8185 109.264C76.8185 113.936 76.1465 117.68 74.8025 120.496C73.5225 123.248 71.6665 125.2 69.2345 126.352L69.1385 126.448L79.1225 152.752C79.3145 153.584 79.0585 154 78.3545 154H69.3305C68.8825 154 68.5625 153.776 68.3705 153.328L59.7305 128.368H55.4105V152.944C55.4105 153.648 55.1225 154 54.5465 154H46.1945ZM55.4105 119.824H59.3465C61.9705 119.824 63.8585 118.992 65.0105 117.328C66.1625 115.664 66.7385 113.136 66.7385 109.744C66.7385 106.416 66.1305 104.016 64.9145 102.544C63.6985 101.008 61.7785 100.24 59.1545 100.24H55.4105V119.824ZM98.7395 154.576C93.0435 154.576 88.6915 152.912 85.6835 149.584C82.7395 146.256 81.2675 141.296 81.2675 134.704V110.512C81.2675 103.856 82.7395 98.864 85.6835 95.536C88.6915 92.208 93.0435 90.544 98.7395 90.544C104.372 90.544 108.692 92.208 111.7 95.536C114.708 98.864 116.212 103.856 116.212 110.512V134.704C116.212 141.296 114.708 146.256 111.7 149.584C108.692 152.912 104.372 154.576 98.7395 154.576ZM98.7395 145.36C101.236 145.36 103.092 144.496 104.308 142.768C105.588 141.04 106.228 138.192 106.228 134.224V110.992C106.228 106.96 105.588 104.08 104.308 102.352C103.092 100.624 101.236 99.76 98.7395 99.76C96.2435 99.76 94.3555 100.624 93.0755 102.352C91.8595 104.08 91.2515 106.96 91.2515 110.992V134.224C91.2515 138.192 91.8595 141.04 93.0755 142.768C94.3555 144.496 96.2435 145.36 98.7395 145.36ZM122.604 154C122.028 154 121.74 153.648 121.74 152.944V92.176C121.74 91.472 122.028 91.12 122.604 91.12H134.412C140.428 91.12 144.844 92.752 147.66 96.016C150.54 99.28 151.98 104.4 151.98 111.376C151.98 117.84 150.508 122.8 147.564 126.256C144.684 129.712 140.428 131.44 134.796 131.44H131.82V152.944C131.82 153.648 131.532 154 130.956 154H122.604ZM131.82 122.32H134.412C137.036 122.32 138.924 121.424 140.076 119.632C141.292 117.84 141.9 115.12 141.9 111.472C141.9 107.44 141.292 104.56 140.076 102.832C138.924 101.104 137.1 100.24 134.604 100.24H131.82V122.32ZM172.993 154.576C167.297 154.576 162.945 152.912 159.937 149.584C156.993 146.256 155.521 141.296 155.521 134.704V110.512C155.521 103.856 156.993 98.864 159.937 95.536C162.945 92.208 167.297 90.544 172.993 90.544C178.625 90.544 182.945 92.208 185.953 95.536C188.961 98.864 190.465 103.856 190.465 110.512V134.704C190.465 141.296 188.961 146.256 185.953 149.584C182.945 152.912 178.625 154.576 172.993 154.576ZM172.993 145.36C175.489 145.36 177.345 144.496 178.561 142.768C179.841 141.04 180.481 138.192 180.481 134.224V110.992C180.481 106.96 179.841 104.08 178.561 102.352C177.345 100.624 175.489 99.76 172.993 99.76C170.497 99.76 168.609 100.624 167.329 102.352C166.113 104.08 165.505 106.96 165.505 110.992V134.224C165.505 138.192 166.113 141.04 167.329 142.768C168.609 144.496 170.497 145.36 172.993 145.36ZM209.914 154.576C205.114 154.576 201.466 152.944 198.97 149.68C196.474 146.416 195.226 141.456 195.226 134.8V111.184C195.226 104.464 196.698 99.344 199.642 95.824C202.65 92.304 206.97 90.544 212.602 90.544C218.362 90.544 222.714 92.368 225.658 96.016C228.602 99.664 229.85 104.624 229.402 110.896C229.338 111.6 229.05 111.952 228.538 111.952L220.186 111.856C219.61 111.856 219.354 111.536 219.418 110.896C219.738 107.376 219.322 104.656 218.17 102.736C217.018 100.752 215.194 99.76 212.698 99.76C210.138 99.76 208.25 100.688 207.034 102.544C205.818 104.4 205.21 107.312 205.21 111.28V134.032C205.21 138.128 205.722 141.04 206.746 142.768C207.834 144.496 209.69 145.36 212.314 145.36C214.746 145.36 216.602 144.4 217.882 142.48C219.162 140.496 219.802 137.52 219.802 133.552V129.232H213.178C212.602 129.232 212.314 128.88 212.314 128.176V122.512C212.314 121.808 212.602 121.456 213.178 121.456H228.73C229.306 121.456 229.594 121.808 229.594 122.512V140.08C229.594 143.152 229.626 145.68 229.69 147.664C229.818 149.584 229.978 151.312 230.17 152.848C230.298 153.616 230.042 154 229.402 154H222.874C222.298 154 221.978 153.712 221.914 153.136C221.786 152.368 221.658 151.472 221.53 150.448C221.466 149.36 221.434 148.048 221.434 146.512H221.242C220.282 149.008 218.906 150.992 217.114 152.464C215.322 153.872 212.922 154.576 209.914 154.576ZM232.808 154C232.168 154 231.912 153.616 232.04 152.848L244.808 91.984C244.936 91.408 245.288 91.12 245.864 91.12H256.712C257.288 91.12 257.64 91.408 257.768 91.984L270.536 152.848C270.664 153.616 270.44 154 269.864 154H260.744C260.232 154 259.912 153.744 259.784 153.232L253.352 114.544C252.968 112.304 252.584 110.096 252.2 107.92C251.88 105.68 251.592 103.472 251.336 101.296H251.144C250.824 103.472 250.504 105.68 250.184 107.92C249.928 110.096 249.608 112.304 249.224 114.544L242.6 153.232C242.536 153.744 242.248 154 241.736 154H232.808ZM243.272 140.176L244.808 131.632H257.48L259.112 140.176H243.272ZM283.723 154C283.147 154 282.859 153.648 282.859 152.944V92.176C282.859 91.472 283.147 91.12 283.723 91.12H292.075C292.651 91.12 292.939 91.472 292.939 92.176V152.944C292.939 153.648 292.651 154 292.075 154H283.723ZM300.37 154C299.666 154 299.314 153.648 299.314 152.944V92.176C299.314 91.472 299.666 91.12 300.37 91.12H312.754C319.73 91.12 324.946 93.264 328.402 97.552C331.922 101.84 333.682 108.4 333.682 117.232V125.776C333.682 135.312 331.954 142.416 328.498 147.088C325.106 151.696 319.986 154 313.138 154H300.37ZM309.394 144.88H312.754C316.658 144.88 319.442 143.376 321.106 140.368C322.834 137.296 323.698 132.528 323.698 126.064V117.232C323.698 111.408 322.802 107.12 321.01 104.368C319.218 101.616 316.37 100.24 312.466 100.24H309.394V144.88ZM339.792 154C339.152 154 338.832 153.648 338.832 152.944V92.176C338.832 91.472 339.12 91.12 339.696 91.12H365.232C365.808 91.12 366.096 91.472 366.096 92.176V99.184C366.096 99.888 365.808 100.24 365.232 100.24H348.912V117.712H363.792C364.368 117.712 364.656 118.064 364.656 118.768V125.392C364.656 126.096 364.368 126.448 363.792 126.448H348.912V144.88H365.232C365.808 144.88 366.096 145.232 366.096 145.936V152.944C366.096 153.648 365.808 154 365.232 154H339.792ZM372.653 154C372.013 154 371.693 153.648 371.693 152.944V92.176C371.693 91.472 371.981 91.12 372.557 91.12H398.093C398.669 91.12 398.957 91.472 398.957 92.176V99.184C398.957 99.888 398.669 100.24 398.093 100.24H381.773V117.712H396.653C397.229 117.712 397.517 118.064 397.517 118.768V125.392C397.517 126.096 397.229 126.448 396.653 126.448H381.773V144.88H398.093C398.669 144.88 398.957 145.232 398.957 145.936V152.944C398.957 153.648 398.669 154 398.093 154H372.653ZM1.193 244C0.552996 244 0.232996 243.648 0.232996 242.944V182.176C0.232996 181.472 0.520996 181.12 1.097 181.12H26.633C27.209 181.12 27.497 181.472 27.497 182.176V189.184C27.497 189.888 27.209 190.24 26.633 190.24H10.313V207.712H25.193C25.769 207.712 26.057 208.064 26.057 208.768V215.392C26.057 216.096 25.769 216.448 25.193 216.448H10.313V234.88H26.633C27.209 234.88 27.497 235.232 27.497 235.936V242.944C27.497 243.648 27.209 244 26.633 244H1.193ZM56.5182 244.576C52.6782 244.576 49.5742 243.808 47.2062 242.272C44.9022 240.736 43.2702 238.592 42.3102 235.84C41.4142 233.088 41.1262 229.856 41.4462 226.144C41.5102 225.376 41.7982 224.992 42.3102 224.992H50.4702C51.0462 224.992 51.3022 225.344 51.2382 226.048C50.9182 229.184 51.2382 231.584 52.1982 233.248C53.1582 234.848 54.6942 235.648 56.8062 235.648C58.7262 235.648 60.1342 235.072 61.0302 233.92C61.9902 232.768 62.4702 230.944 62.4702 228.448C62.4702 226.272 62.1182 224.448 61.4142 222.976C60.7742 221.44 59.6862 220.096 58.1502 218.944L50.0862 212.608C47.2062 210.368 45.0622 207.968 43.6542 205.408C42.2462 202.784 41.5742 199.552 41.6382 195.712C41.7022 190.912 42.9822 187.2 45.4782 184.576C47.9742 181.888 51.6222 180.544 56.4222 180.544C61.9262 180.544 65.9582 182.112 68.5182 185.248C71.0782 188.384 72.1022 192.768 71.5902 198.4C71.5262 199.296 71.2382 199.744 70.7262 199.744H62.4702C61.8302 199.744 61.5742 199.296 61.7022 198.4C61.9582 195.712 61.6702 193.568 60.8382 191.968C60.0062 190.304 58.6622 189.472 56.8062 189.472C55.2062 189.472 53.9582 189.984 53.0622 191.008C52.1662 192.032 51.6862 193.632 51.6222 195.808C51.6222 197.92 52.0062 199.68 52.7742 201.088C53.6062 202.496 54.7902 203.776 56.3262 204.928L64.1022 210.976C66.2142 212.512 67.8782 214.112 69.0942 215.776C70.3102 217.376 71.1742 219.2 71.6862 221.248C72.2622 223.232 72.5182 225.6 72.4542 228.352C72.4542 233.472 71.1742 237.472 68.6142 240.352C66.0542 243.168 62.0222 244.576 56.5182 244.576ZM78.0267 244C77.3867 244 77.0667 243.648 77.0667 242.944V182.176C77.0667 181.472 77.3547 181.12 77.9307 181.12H103.467C104.043 181.12 104.331 181.472 104.331 182.176V189.184C104.331 189.888 104.043 190.24 103.467 190.24H87.1467V207.712H102.027C102.603 207.712 102.891 208.064 102.891 208.768V215.392C102.891 216.096 102.603 216.448 102.027 216.448H87.1467V234.88H103.467C104.043 234.88 104.331 235.232 104.331 235.936V242.944C104.331 243.648 104.043 244 103.467 244H78.0267ZM110.792 244C110.216 244 109.928 243.648 109.928 242.944V182.176C109.928 181.472 110.216 181.12 110.792 181.12H121.832C122.344 181.12 122.664 181.376 122.792 181.888L131.528 213.568C131.976 215.168 132.424 216.96 132.872 218.944C133.384 220.928 133.864 222.944 134.312 224.992C134.824 226.976 135.208 228.736 135.464 230.272H135.656C135.592 228.992 135.496 227.52 135.368 225.856C135.304 224.128 135.208 222.368 135.08 220.576C135.016 218.72 134.952 216.96 134.888 215.296C134.888 213.568 134.888 212.064 134.888 210.784V182.08C134.888 181.44 135.176 181.12 135.752 181.12H143.528C144.104 181.12 144.392 181.44 144.392 182.08V242.944C144.392 243.648 144.104 244 143.528 244H132.584C132.136 244 131.816 243.776 131.624 243.328L122.888 212.32C122.056 209.312 121.32 206.336 120.68 203.392C120.04 200.384 119.464 197.6 118.952 195.04H118.76C118.888 196.896 118.984 199.072 119.048 201.568C119.176 204.064 119.272 206.56 119.336 209.056C119.4 211.488 119.432 213.632 119.432 215.488V242.944C119.432 243.648 119.176 244 118.664 244H110.792ZM159.878 244C159.302 244 159.014 243.648 159.014 242.944V190.24H149.03C148.39 190.24 148.07 189.888 148.07 189.184V182.176C148.07 181.472 148.39 181.12 149.03 181.12H179.078C179.654 181.12 179.942 181.472 179.942 182.176V189.184C179.942 189.888 179.654 190.24 179.078 190.24H169.094V242.944C169.094 243.648 168.774 244 168.134 244H159.878ZM184.483 244C183.907 244 183.619 243.648 183.619 242.944V182.176C183.619 181.472 183.907 181.12 184.483 181.12H192.835C193.411 181.12 193.699 181.472 193.699 182.176V242.944C193.699 243.648 193.411 244 192.835 244H184.483ZM200.266 244C199.69 244 199.402 243.648 199.402 242.944L200.17 182.176C200.17 181.472 200.49 181.12 201.13 181.12H211.594C212.234 181.12 212.586 181.376 212.65 181.888L221.386 215.584L230.218 181.888C230.282 181.376 230.634 181.12 231.274 181.12H241.738C242.314 181.12 242.602 181.472 242.602 182.176L243.466 242.944C243.466 243.648 243.178 244 242.602 244H234.442C233.866 244 233.578 243.648 233.578 242.944L233.29 211.84C233.226 209.024 233.226 206.368 233.29 203.872C233.418 201.312 233.546 198.976 233.674 196.864H233.578C233.13 198.848 232.618 200.864 232.042 202.912C231.466 204.896 230.858 206.88 230.218 208.864L222.538 235.168C222.41 235.68 222.09 235.936 221.578 235.936H221.194C220.746 235.936 220.458 235.68 220.33 235.168L212.554 208.864C211.914 206.88 211.306 204.896 210.73 202.912C210.218 200.864 209.738 198.848 209.29 196.864H209.098C209.29 198.976 209.418 201.312 209.482 203.872C209.61 206.368 209.642 209.024 209.578 211.84L209.29 242.944C209.29 243.648 209.002 244 208.426 244H200.266ZM250.114 244C249.474 244 249.154 243.648 249.154 242.944V182.176C249.154 181.472 249.442 181.12 250.018 181.12H275.554C276.13 181.12 276.418 181.472 276.418 182.176V189.184C276.418 189.888 276.13 190.24 275.554 190.24H259.234V207.712H274.114C274.69 207.712 274.978 208.064 274.978 208.768V215.392C274.978 216.096 274.69 216.448 274.114 216.448H259.234V234.88H275.554C276.13 234.88 276.418 235.232 276.418 235.936V242.944C276.418 243.648 276.13 244 275.554 244H250.114ZM282.88 244C282.304 244 282.016 243.648 282.016 242.944V182.176C282.016 181.472 282.304 181.12 282.88 181.12H293.92C294.432 181.12 294.752 181.376 294.88 181.888L303.616 213.568C304.064 215.168 304.512 216.96 304.96 218.944C305.472 220.928 305.952 222.944 306.4 224.992C306.912 226.976 307.296 228.736 307.552 230.272H307.744C307.68 228.992 307.584 227.52 307.456 225.856C307.392 224.128 307.296 222.368 307.168 220.576C307.104 218.72 307.04 216.96 306.976 215.296C306.976 213.568 306.976 212.064 306.976 210.784V182.08C306.976 181.44 307.264 181.12 307.84 181.12H315.616C316.192 181.12 316.48 181.44 316.48 182.08V242.944C316.48 243.648 316.192 244 315.616 244H304.672C304.224 244 303.904 243.776 303.712 243.328L294.976 212.32C294.144 209.312 293.408 206.336 292.768 203.392C292.128 200.384 291.552 197.6 291.04 195.04H290.848C290.976 196.896 291.072 199.072 291.136 201.568C291.264 204.064 291.36 206.56 291.424 209.056C291.488 211.488 291.52 213.632 291.52 215.488V242.944C291.52 243.648 291.264 244 290.752 244H282.88ZM331.965 244C331.389 244 331.101 243.648 331.101 242.944V190.24H321.117C320.477 190.24 320.157 189.888 320.157 189.184V182.176C320.157 181.472 320.477 181.12 321.117 181.12H351.165C351.741 181.12 352.029 181.472 352.029 182.176V189.184C352.029 189.888 351.741 190.24 351.165 190.24H341.181V242.944C341.181 243.648 340.861 244 340.221 244H331.965ZM356.571 244C355.995 244 355.707 243.648 355.707 242.944V182.176C355.707 181.472 355.995 181.12 356.571 181.12H364.923C365.499 181.12 365.787 181.472 365.787 182.176V242.944C365.787 243.648 365.499 244 364.923 244H356.571ZM383.202 244C382.562 244 382.242 243.648 382.242 242.944V182.176C382.242 181.472 382.53 181.12 383.106 181.12H408.642C409.218 181.12 409.506 181.472 409.506 182.176V189.184C409.506 189.888 409.218 190.24 408.642 190.24H392.322V207.712H407.202C407.778 207.712 408.066 208.064 408.066 208.768V215.392C408.066 216.096 407.778 216.448 407.202 216.448H392.322V234.88H408.642C409.218 234.88 409.506 235.232 409.506 235.936V242.944C409.506 243.648 409.218 244 408.642 244H383.202ZM395.298 175.744C394.658 175.744 394.178 175.488 393.858 174.976L387.426 164.896C387.234 164.512 387.17 164.192 387.234 163.936C387.362 163.68 387.586 163.552 387.906 163.552H395.01C395.33 163.552 395.586 163.648 395.778 163.84C395.97 163.968 396.13 164.128 396.258 164.32L401.538 174.592C401.666 174.912 401.698 175.2 401.634 175.456C401.57 175.648 401.346 175.744 400.962 175.744H395.298Z" fill="white"/>
</svg>
