<svg width="410" height="245" viewBox="0 0 410 245" fill="none" xmlns="http://www.w3.org/2000/svg">
<path d="M91.7233 64.576C87.8833 64.576 84.7793 63.808 82.4113 62.272C80.1073 60.736 78.4753 58.592 77.5153 55.84C76.6193 53.088 76.3313 49.856 76.6513 46.144C76.7153 45.376 77.0033 44.992 77.5153 44.992H85.6753C86.2513 44.992 86.5073 45.344 86.4433 46.048C86.1233 49.184 86.4433 51.584 87.4033 53.248C88.3633 54.848 89.8993 55.648 92.0113 55.648C93.9313 55.648 95.3393 55.072 96.2353 53.92C97.1953 52.768 97.6753 50.944 97.6753 48.448C97.6753 46.272 97.3233 44.448 96.6193 42.976C95.9793 41.44 94.8913 40.096 93.3553 38.944L85.2913 32.608C82.4113 30.368 80.2673 27.968 78.8593 25.408C77.4513 22.784 76.7793 19.552 76.8433 15.712C76.9073 10.912 78.1873 7.2 80.6833 4.576C83.1793 1.888 86.8273 0.543999 91.6273 0.543999C97.1313 0.543999 101.163 2.112 103.723 5.248C106.283 8.384 107.307 12.768 106.795 18.4C106.731 19.296 106.443 19.744 105.931 19.744H97.6753C97.0353 19.744 96.7793 19.296 96.9073 18.4C97.1633 15.712 96.8753 13.568 96.0433 11.968C95.2113 10.304 93.8673 9.472 92.0113 9.472C90.4113 9.472 89.1633 9.984 88.2673 11.008C87.3713 12.032 86.8913 13.632 86.8273 15.808C86.8273 17.92 87.2113 19.68 87.9793 21.088C88.8113 22.496 89.9953 23.776 91.5313 24.928L99.3073 30.976C101.419 32.512 103.083 34.112 104.299 35.776C105.515 37.376 106.379 39.2 106.891 41.248C107.467 43.232 107.723 45.6 107.659 48.352C107.659 53.472 106.379 57.472 103.819 60.352C101.259 63.168 97.2273 64.576 91.7233 64.576ZM113.136 64C112.56 64 112.272 63.648 112.272 62.944V2.17599C112.272 1.472 112.56 1.12 113.136 1.12H121.488C122.064 1.12 122.352 1.472 122.352 2.17599V62.944C122.352 63.648 122.064 64 121.488 64H113.136ZM138.999 64C138.423 64 138.135 63.648 138.135 62.944L138.903 2.17599C138.903 1.472 139.223 1.12 139.863 1.12H150.327C150.967 1.12 151.319 1.376 151.383 1.888L160.119 35.584L168.951 1.888C169.015 1.376 169.367 1.12 170.007 1.12H180.471C181.047 1.12 181.335 1.472 181.335 2.17599L182.199 62.944C182.199 63.648 181.911 64 181.335 64H173.175C172.599 64 172.311 63.648 172.311 62.944L172.023 31.84C171.959 29.024 171.959 26.368 172.023 23.872C172.151 21.312 172.279 18.976 172.407 16.864H172.311C171.863 18.848 171.351 20.864 170.775 22.912C170.199 24.896 169.591 26.88 168.951 28.864L161.271 55.168C161.143 55.68 160.823 55.936 160.311 55.936H159.927C159.479 55.936 159.191 55.68 159.063 55.168L151.287 28.864C150.647 26.88 150.039 24.896 149.463 22.912C148.951 20.864 148.471 18.848 148.023 16.864H147.831C148.023 18.976 148.151 21.312 148.215 23.872C148.343 26.368 148.375 29.024 148.311 31.84L148.023 62.944C148.023 63.648 147.735 64 147.159 64H138.999ZM204.591 64.576C198.831 64.576 194.543 62.848 191.727 59.392C188.975 55.872 187.599 50.592 187.599 43.552V2.08C187.599 1.44 187.887 1.12 188.463 1.12H196.815C197.391 1.12 197.679 1.44 197.679 2.08V43.264C197.679 47.616 198.223 50.72 199.311 52.576C200.399 54.432 202.159 55.36 204.591 55.36C207.087 55.36 208.879 54.464 209.967 52.672C211.055 50.816 211.599 47.68 211.599 43.264V2.08C211.599 1.44 211.887 1.12 212.463 1.12H220.815C221.391 1.12 221.679 1.44 221.679 2.08V43.552C221.679 50.592 220.239 55.872 217.359 59.392C214.543 62.848 210.287 64.576 204.591 64.576ZM244.389 64.576C238.693 64.576 234.341 62.912 231.333 59.584C228.389 56.256 226.917 51.296 226.917 44.704V20.512C226.917 13.856 228.389 8.864 231.333 5.536C234.341 2.208 238.693 0.543999 244.389 0.543999C250.021 0.543999 254.341 2.208 257.349 5.536C260.357 8.864 261.861 13.856 261.861 20.512V44.704C261.861 51.296 260.357 56.256 257.349 59.584C254.341 62.912 250.021 64.576 244.389 64.576ZM244.389 55.36C246.885 55.36 248.741 54.496 249.957 52.768C251.237 51.04 251.877 48.192 251.877 44.224V20.992C251.877 16.96 251.237 14.08 249.957 12.352C248.741 10.624 246.885 9.76 244.389 9.76C241.893 9.76 240.005 10.624 238.725 12.352C237.509 14.08 236.901 16.96 236.901 20.992V44.224C236.901 48.192 237.509 51.04 238.725 52.768C240.005 54.496 241.893 55.36 244.389 55.36ZM276.341 64C275.893 64 275.605 63.744 275.477 63.232L263.093 2.272C262.965 1.504 263.221 1.12 263.861 1.12H272.885C273.461 1.12 273.781 1.376 273.845 1.888L280.181 40.192C280.565 42.368 280.885 44.608 281.141 46.912C281.461 49.152 281.781 51.488 282.101 53.92H282.293C282.485 51.488 282.741 49.152 283.061 46.912C283.381 44.608 283.733 42.368 284.117 40.192L290.357 1.984C290.421 1.408 290.741 1.12 291.317 1.12H300.341C300.917 1.12 301.141 1.504 301.013 2.272L288.821 63.136C288.693 63.712 288.405 64 287.957 64H276.341ZM305.055 64C304.415 64 304.095 63.648 304.095 62.944V2.17599C304.095 1.472 304.383 1.12 304.959 1.12H330.496C331.072 1.12 331.36 1.472 331.36 2.17599V9.184C331.36 9.888 331.072 10.24 330.496 10.24H314.175V27.712H329.055C329.631 27.712 329.919 28.064 329.919 28.768V35.392C329.919 36.096 329.631 36.448 329.055 36.448H314.175V54.88H330.496C331.072 54.88 331.36 55.232 331.36 55.936V62.944C331.36 63.648 331.072 64 330.496 64H305.055ZM14.9739 154C14.3979 154 14.1099 153.648 14.1099 152.944V92.176C14.1099 91.472 14.3979 91.12 14.9739 91.12H26.7819C32.7979 91.12 37.2139 92.752 40.0299 96.016C42.9099 99.28 44.3499 104.4 44.3499 111.376C44.3499 117.84 42.8779 122.8 39.9339 126.256C37.0539 129.712 32.7979 131.44 27.1659 131.44H24.1899V152.944C24.1899 153.648 23.9019 154 23.3259 154H14.9739ZM24.1899 122.32H26.7819C29.4059 122.32 31.2939 121.424 32.4459 119.632C33.6619 117.84 34.2699 115.12 34.2699 111.472C34.2699 107.44 33.6619 104.56 32.4459 102.832C31.2939 101.104 29.4699 100.24 26.9739 100.24H24.1899V122.32ZM49.5226 154C48.9466 154 48.6586 153.648 48.6586 152.944V92.176C48.6586 91.472 48.9466 91.12 49.5226 91.12H62.5786C68.6586 91.12 73.1066 92.592 75.9226 95.536C78.7386 98.416 80.1466 102.992 80.1466 109.264C80.1466 113.936 79.4746 117.68 78.1306 120.496C76.8506 123.248 74.9946 125.2 72.5626 126.352L72.4666 126.448L82.4506 152.752C82.6426 153.584 82.3866 154 81.6826 154H72.6586C72.2106 154 71.8906 153.776 71.6986 153.328L63.0586 128.368H58.7386V152.944C58.7386 153.648 58.4506 154 57.8746 154H49.5226ZM58.7386 119.824H62.6746C65.2986 119.824 67.1866 118.992 68.3386 117.328C69.4906 115.664 70.0666 113.136 70.0666 109.744C70.0666 106.416 69.4586 104.016 68.2426 102.544C67.0266 101.008 65.1066 100.24 62.4826 100.24H58.7386V119.824ZM102.068 154.576C96.3716 154.576 92.0196 152.912 89.0116 149.584C86.0676 146.256 84.5956 141.296 84.5956 134.704V110.512C84.5956 103.856 86.0676 98.864 89.0116 95.536C92.0196 92.208 96.3716 90.544 102.068 90.544C107.7 90.544 112.02 92.208 115.028 95.536C118.036 98.864 119.54 103.856 119.54 110.512V134.704C119.54 141.296 118.036 146.256 115.028 149.584C112.02 152.912 107.7 154.576 102.068 154.576ZM102.068 145.36C104.564 145.36 106.42 144.496 107.636 142.768C108.916 141.04 109.556 138.192 109.556 134.224V110.992C109.556 106.96 108.916 104.08 107.636 102.352C106.42 100.624 104.564 99.76 102.068 99.76C99.5716 99.76 97.6836 100.624 96.4036 102.352C95.1876 104.08 94.5796 106.96 94.5796 110.992V134.224C94.5796 138.192 95.1876 141.04 96.4036 142.768C97.6836 144.496 99.5716 145.36 102.068 145.36ZM125.933 154C125.357 154 125.069 153.648 125.069 152.944V92.176C125.069 91.472 125.357 91.12 125.933 91.12H137.741C143.757 91.12 148.173 92.752 150.989 96.016C153.869 99.28 155.309 104.4 155.309 111.376C155.309 117.84 153.837 122.8 150.893 126.256C148.013 129.712 143.757 131.44 138.125 131.44H135.149V152.944C135.149 153.648 134.861 154 134.285 154H125.933ZM135.149 122.32H137.741C140.365 122.32 142.253 121.424 143.405 119.632C144.621 117.84 145.229 115.12 145.229 111.472C145.229 107.44 144.621 104.56 143.405 102.832C142.253 101.104 140.429 100.24 137.933 100.24H135.149V122.32ZM153.257 154C152.617 154 152.361 153.616 152.489 152.848L165.257 91.984C165.385 91.408 165.737 91.12 166.313 91.12H177.161C177.737 91.12 178.089 91.408 178.217 91.984L190.985 152.848C191.113 153.616 190.889 154 190.313 154H181.193C180.681 154 180.361 153.744 180.233 153.232L173.801 114.544C173.417 112.304 173.033 110.096 172.649 107.92C172.329 105.68 172.041 103.472 171.785 101.296H171.593C171.273 103.472 170.953 105.68 170.633 107.92C170.377 110.096 170.057 112.304 169.673 114.544L163.049 153.232C162.985 153.744 162.697 154 162.185 154H153.257ZM163.721 140.176L165.257 131.632H177.929L179.561 140.176H163.721ZM206.586 154.576C201.786 154.576 198.138 152.944 195.642 149.68C193.146 146.416 191.898 141.456 191.898 134.8V111.184C191.898 104.464 193.37 99.344 196.314 95.824C199.322 92.304 203.642 90.544 209.274 90.544C215.034 90.544 219.386 92.368 222.33 96.016C225.274 99.664 226.522 104.624 226.074 110.896C226.01 111.6 225.722 111.952 225.21 111.952L216.858 111.856C216.282 111.856 216.026 111.536 216.09 110.896C216.41 107.376 215.994 104.656 214.842 102.736C213.69 100.752 211.866 99.76 209.37 99.76C206.81 99.76 204.922 100.688 203.706 102.544C202.49 104.4 201.882 107.312 201.882 111.28V134.032C201.882 138.128 202.394 141.04 203.418 142.768C204.506 144.496 206.362 145.36 208.986 145.36C211.418 145.36 213.274 144.4 214.554 142.48C215.834 140.496 216.474 137.52 216.474 133.552V129.232H209.85C209.274 129.232 208.986 128.88 208.986 128.176V122.512C208.986 121.808 209.274 121.456 209.85 121.456H225.402C225.978 121.456 226.266 121.808 226.266 122.512V140.08C226.266 143.152 226.298 145.68 226.362 147.664C226.49 149.584 226.65 151.312 226.842 152.848C226.97 153.616 226.714 154 226.074 154H219.546C218.97 154 218.65 153.712 218.586 153.136C218.458 152.368 218.33 151.472 218.202 150.448C218.138 149.36 218.106 148.048 218.106 146.512H217.914C216.954 149.008 215.578 150.992 213.786 152.464C211.994 153.872 209.594 154.576 206.586 154.576ZM229.48 154C228.84 154 228.584 153.616 228.712 152.848L241.48 91.984C241.608 91.408 241.96 91.12 242.536 91.12H253.384C253.96 91.12 254.312 91.408 254.44 91.984L267.208 152.848C267.336 153.616 267.112 154 266.536 154H257.416C256.904 154 256.584 153.744 256.456 153.232L250.024 114.544C249.64 112.304 249.256 110.096 248.872 107.92C248.552 105.68 248.264 103.472 248.008 101.296H247.816C247.496 103.472 247.176 105.68 246.856 107.92C246.6 110.096 246.28 112.304 245.896 114.544L239.272 153.232C239.208 153.744 238.92 154 238.408 154H229.48ZM239.944 140.176L241.48 131.632H254.152L255.784 140.176H239.944ZM280.395 154C279.819 154 279.531 153.648 279.531 152.944V92.176C279.531 91.472 279.819 91.12 280.395 91.12H288.747C289.323 91.12 289.611 91.472 289.611 92.176V152.944C289.611 153.648 289.323 154 288.747 154H280.395ZM297.042 154C296.338 154 295.986 153.648 295.986 152.944V92.176C295.986 91.472 296.338 91.12 297.042 91.12H309.426C316.402 91.12 321.618 93.264 325.074 97.552C328.594 101.84 330.354 108.4 330.354 117.232V125.776C330.354 135.312 328.626 142.416 325.17 147.088C321.778 151.696 316.658 154 309.81 154H297.042ZM306.066 144.88H309.426C313.33 144.88 316.114 143.376 317.778 140.368C319.506 137.296 320.37 132.528 320.37 126.064V117.232C320.37 111.408 319.474 107.12 317.682 104.368C315.89 101.616 313.042 100.24 309.138 100.24H306.066V144.88ZM336.464 154C335.824 154 335.504 153.648 335.504 152.944V92.176C335.504 91.472 335.792 91.12 336.368 91.12H361.904C362.48 91.12 362.768 91.472 362.768 92.176V99.184C362.768 99.888 362.48 100.24 361.904 100.24H345.584V117.712H360.464C361.04 117.712 361.328 118.064 361.328 118.768V125.392C361.328 126.096 361.04 126.448 360.464 126.448H345.584V144.88H361.904C362.48 144.88 362.768 145.232 362.768 145.936V152.944C362.768 153.648 362.48 154 361.904 154H336.464ZM369.325 154C368.685 154 368.365 153.648 368.365 152.944V92.176C368.365 91.472 368.653 91.12 369.229 91.12H394.765C395.341 91.12 395.629 91.472 395.629 92.176V99.184C395.629 99.888 395.341 100.24 394.765 100.24H378.445V117.712H393.325C393.901 117.712 394.189 118.064 394.189 118.768V125.392C394.189 126.096 393.901 126.448 393.325 126.448H378.445V144.88H394.765C395.341 144.88 395.629 145.232 395.629 145.936V152.944C395.629 153.648 395.341 154 394.765 154H369.325ZM1.193 244C0.552996 244 0.232996 243.648 0.232996 242.944V182.176C0.232996 181.472 0.520996 181.12 1.097 181.12H26.633C27.209 181.12 27.497 181.472 27.497 182.176V189.184C27.497 189.888 27.209 190.24 26.633 190.24H10.313V207.712H25.193C25.769 207.712 26.057 208.064 26.057 208.768V215.392C26.057 216.096 25.769 216.448 25.193 216.448H10.313V234.88H26.633C27.209 234.88 27.497 235.232 27.497 235.936V242.944C27.497 243.648 27.209 244 26.633 244H1.193ZM56.5182 244.576C52.6782 244.576 49.5742 243.808 47.2062 242.272C44.9022 240.736 43.2702 238.592 42.3102 235.84C41.4142 233.088 41.1262 229.856 41.4462 226.144C41.5102 225.376 41.7982 224.992 42.3102 224.992H50.4702C51.0462 224.992 51.3022 225.344 51.2382 226.048C50.9182 229.184 51.2382 231.584 52.1982 233.248C53.1582 234.848 54.6942 235.648 56.8062 235.648C58.7262 235.648 60.1342 235.072 61.0302 233.92C61.9902 232.768 62.4702 230.944 62.4702 228.448C62.4702 226.272 62.1182 224.448 61.4142 222.976C60.7742 221.44 59.6862 220.096 58.1502 218.944L50.0862 212.608C47.2062 210.368 45.0622 207.968 43.6542 205.408C42.2462 202.784 41.5742 199.552 41.6382 195.712C41.7022 190.912 42.9822 187.2 45.4782 184.576C47.9742 181.888 51.6222 180.544 56.4222 180.544C61.9262 180.544 65.9582 182.112 68.5182 185.248C71.0782 188.384 72.1022 192.768 71.5902 198.4C71.5262 199.296 71.2382 199.744 70.7262 199.744H62.4702C61.8302 199.744 61.5742 199.296 61.7022 198.4C61.9582 195.712 61.6702 193.568 60.8382 191.968C60.0062 190.304 58.6622 189.472 56.8062 189.472C55.2062 189.472 53.9582 189.984 53.0622 191.008C52.1662 192.032 51.6862 193.632 51.6222 195.808C51.6222 197.92 52.0062 199.68 52.7742 201.088C53.6062 202.496 54.7902 203.776 56.3262 204.928L64.1022 210.976C66.2142 212.512 67.8782 214.112 69.0942 215.776C70.3102 217.376 71.1742 219.2 71.6862 221.248C72.2622 223.232 72.5182 225.6 72.4542 228.352C72.4542 233.472 71.1742 237.472 68.6142 240.352C66.0542 243.168 62.0222 244.576 56.5182 244.576ZM78.0267 244C77.3867 244 77.0667 243.648 77.0667 242.944V182.176C77.0667 181.472 77.3547 181.12 77.9307 181.12H103.467C104.043 181.12 104.331 181.472 104.331 182.176V189.184C104.331 189.888 104.043 190.24 103.467 190.24H87.1467V207.712H102.027C102.603 207.712 102.891 208.064 102.891 208.768V215.392C102.891 216.096 102.603 216.448 102.027 216.448H87.1467V234.88H103.467C104.043 234.88 104.331 235.232 104.331 235.936V242.944C104.331 243.648 104.043 244 103.467 244H78.0267ZM110.792 244C110.216 244 109.928 243.648 109.928 242.944V182.176C109.928 181.472 110.216 181.12 110.792 181.12H121.832C122.344 181.12 122.664 181.376 122.792 181.888L131.528 213.568C131.976 215.168 132.424 216.96 132.872 218.944C133.384 220.928 133.864 222.944 134.312 224.992C134.824 226.976 135.208 228.736 135.464 230.272H135.656C135.592 228.992 135.496 227.52 135.368 225.856C135.304 224.128 135.208 222.368 135.08 220.576C135.016 218.72 134.952 216.96 134.888 215.296C134.888 213.568 134.888 212.064 134.888 210.784V182.08C134.888 181.44 135.176 181.12 135.752 181.12H143.528C144.104 181.12 144.392 181.44 144.392 182.08V242.944C144.392 243.648 144.104 244 143.528 244H132.584C132.136 244 131.816 243.776 131.624 243.328L122.888 212.32C122.056 209.312 121.32 206.336 120.68 203.392C120.04 200.384 119.464 197.6 118.952 195.04H118.76C118.888 196.896 118.984 199.072 119.048 201.568C119.176 204.064 119.272 206.56 119.336 209.056C119.4 211.488 119.432 213.632 119.432 215.488V242.944C119.432 243.648 119.176 244 118.664 244H110.792ZM159.878 244C159.302 244 159.014 243.648 159.014 242.944V190.24H149.03C148.39 190.24 148.07 189.888 148.07 189.184V182.176C148.07 181.472 148.39 181.12 149.03 181.12H179.078C179.654 181.12 179.942 181.472 179.942 182.176V189.184C179.942 189.888 179.654 190.24 179.078 190.24H169.094V242.944C169.094 243.648 168.774 244 168.134 244H159.878ZM184.483 244C183.907 244 183.619 243.648 183.619 242.944V182.176C183.619 181.472 183.907 181.12 184.483 181.12H192.835C193.411 181.12 193.699 181.472 193.699 182.176V242.944C193.699 243.648 193.411 244 192.835 244H184.483ZM200.266 244C199.69 244 199.402 243.648 199.402 242.944L200.17 182.176C200.17 181.472 200.49 181.12 201.13 181.12H211.594C212.234 181.12 212.586 181.376 212.65 181.888L221.386 215.584L230.218 181.888C230.282 181.376 230.634 181.12 231.274 181.12H241.738C242.314 181.12 242.602 181.472 242.602 182.176L243.466 242.944C243.466 243.648 243.178 244 242.602 244H234.442C233.866 244 233.578 243.648 233.578 242.944L233.29 211.84C233.226 209.024 233.226 206.368 233.29 203.872C233.418 201.312 233.546 198.976 233.674 196.864H233.578C233.13 198.848 232.618 200.864 232.042 202.912C231.466 204.896 230.858 206.88 230.218 208.864L222.538 235.168C222.41 235.68 222.09 235.936 221.578 235.936H221.194C220.746 235.936 220.458 235.68 220.33 235.168L212.554 208.864C211.914 206.88 211.306 204.896 210.73 202.912C210.218 200.864 209.738 198.848 209.29 196.864H209.098C209.29 198.976 209.418 201.312 209.482 203.872C209.61 206.368 209.642 209.024 209.578 211.84L209.29 242.944C209.29 243.648 209.002 244 208.426 244H200.266ZM250.114 244C249.474 244 249.154 243.648 249.154 242.944V182.176C249.154 181.472 249.442 181.12 250.018 181.12H275.554C276.13 181.12 276.418 181.472 276.418 182.176V189.184C276.418 189.888 276.13 190.24 275.554 190.24H259.234V207.712H274.114C274.69 207.712 274.978 208.064 274.978 208.768V215.392C274.978 216.096 274.69 216.448 274.114 216.448H259.234V234.88H275.554C276.13 234.88 276.418 235.232 276.418 235.936V242.944C276.418 243.648 276.13 244 275.554 244H250.114ZM282.88 244C282.304 244 282.016 243.648 282.016 242.944V182.176C282.016 181.472 282.304 181.12 282.88 181.12H293.92C294.432 181.12 294.752 181.376 294.88 181.888L303.616 213.568C304.064 215.168 304.512 216.96 304.96 218.944C305.472 220.928 305.952 222.944 306.4 224.992C306.912 226.976 307.296 228.736 307.552 230.272H307.744C307.68 228.992 307.584 227.52 307.456 225.856C307.392 224.128 307.296 222.368 307.168 220.576C307.104 218.72 307.04 216.96 306.976 215.296C306.976 213.568 306.976 212.064 306.976 210.784V182.08C306.976 181.44 307.264 181.12 307.84 181.12H315.616C316.192 181.12 316.48 181.44 316.48 182.08V242.944C316.48 243.648 316.192 244 315.616 244H304.672C304.224 244 303.904 243.776 303.712 243.328L294.976 212.32C294.144 209.312 293.408 206.336 292.768 203.392C292.128 200.384 291.552 197.6 291.04 195.04H290.848C290.976 196.896 291.072 199.072 291.136 201.568C291.264 204.064 291.36 206.56 291.424 209.056C291.488 211.488 291.52 213.632 291.52 215.488V242.944C291.52 243.648 291.264 244 290.752 244H282.88ZM331.965 244C331.389 244 331.101 243.648 331.101 242.944V190.24H321.117C320.477 190.24 320.157 189.888 320.157 189.184V182.176C320.157 181.472 320.477 181.12 321.117 181.12H351.165C351.741 181.12 352.029 181.472 352.029 182.176V189.184C352.029 189.888 351.741 190.24 351.165 190.24H341.181V242.944C341.181 243.648 340.861 244 340.221 244H331.965ZM356.571 244C355.995 244 355.707 243.648 355.707 242.944V182.176C355.707 181.472 355.995 181.12 356.571 181.12H364.923C365.499 181.12 365.787 181.472 365.787 182.176V242.944C365.787 243.648 365.499 244 364.923 244H356.571ZM383.202 244C382.562 244 382.242 243.648 382.242 242.944V182.176C382.242 181.472 382.53 181.12 383.106 181.12H408.642C409.218 181.12 409.506 181.472 409.506 182.176V189.184C409.506 189.888 409.218 190.24 408.642 190.24H392.322V207.712H407.202C407.778 207.712 408.066 208.064 408.066 208.768V215.392C408.066 216.096 407.778 216.448 407.202 216.448H392.322V234.88H408.642C409.218 234.88 409.506 235.232 409.506 235.936V242.944C409.506 243.648 409.218 244 408.642 244H383.202ZM395.298 175.744C394.658 175.744 394.178 175.488 393.858 174.976L387.426 164.896C387.234 164.512 387.17 164.192 387.234 163.936C387.362 163.68 387.586 163.552 387.906 163.552H395.01C395.33 163.552 395.586 163.648 395.778 163.84C395.97 163.968 396.13 164.128 396.258 164.32L401.538 174.592C401.666 174.912 401.698 175.2 401.634 175.456C401.57 175.648 401.346 175.744 400.962 175.744H395.298Z" fill="white"/>
</svg>
