<svg width="248" height="248" viewBox="0 0 248 248" fill="none" xmlns="http://www.w3.org/2000/svg">
<g filter="url(#filter0_d_5411_14325)">
<circle cx="124" cy="124" r="74" fill="#CBEDFF"/>
</g>
<path fill-rule="evenodd" clip-rule="evenodd" d="M194.755 145.718C182.818 153.968 168.338 158.801 152.729 158.801C111.86 158.801 78.7294 125.67 78.7294 84.8008C78.7294 77.2352 79.8648 69.9347 81.9744 63.0605C62.6567 76.4129 50 98.717 50 123.977C50 164.846 83.1309 197.977 124 197.977C157.303 197.977 185.468 175.977 194.755 145.718Z" fill="#9B92EE"/>
<circle cx="96.1411" cy="130.095" r="8.81765" fill="#9B92EE" stroke="#9B92EE" stroke-width="5"/>
<circle cx="154.471" cy="88.3061" r="4.35294" fill="#9B92EE"/>
<circle cx="110.071" cy="110.07" r="4.35294" fill="#9B92EE"/>
<circle cx="142.282" cy="121.388" r="4.35294" fill="#9B92EE"/>
<circle cx="121.388" cy="137.93" r="3.48235" fill="#9B92EE"/>
<circle cx="184.071" cy="134.447" r="4.35294" fill="#9B92EE"/>
<defs>
<filter id="filter0_d_5411_14325" x="34.7" y="34.7" width="178.6" height="178.6" filterUnits="userSpaceOnUse" color-interpolation-filters="sRGB">
<feFlood flood-opacity="0" result="BackgroundImageFix"/>
<feColorMatrix in="SourceAlpha" type="matrix" values="0 0 0 0 0 0 0 0 0 0 0 0 0 0 0 0 0 0 127 0" result="hardAlpha"/>
<feOffset/>
<feGaussianBlur stdDeviation="7.65"/>
<feColorMatrix type="matrix" values="0 0 0 0 0.607843 0 0 0 0 0.572549 0 0 0 0 0.933333 0 0 0 1 0"/>
<feBlend mode="normal" in2="BackgroundImageFix" result="effect1_dropShadow_5411_14325"/>
<feBlend mode="normal" in="SourceGraphic" in2="effect1_dropShadow_5411_14325" result="shape"/>
</filter>
</defs>
</svg>
