<svg width="3543" height="102" viewBox="0 0 3543 102" fill="none" xmlns="http://www.w3.org/2000/svg">
<path d="M152.359 101.573L-3.05176e-05 101.573L-2.16378e-05 0.000291856L50.7864 0.000296296L50.7864 50.7867L152.359 50.7867L152.359 101.573Z" fill="#009FE3"/>
<path d="M209.881 100.032V30.5419H227.534V100.032H209.881ZM218.708 22.4161C215.532 22.4161 212.823 21.3887 210.582 19.3339C208.433 17.2791 207.359 14.5705 207.359 11.2081C207.359 7.84564 208.433 5.13703 210.582 3.08222C212.823 1.02741 215.532 0 218.708 0C221.977 0 224.685 1.02741 226.833 3.08222C228.982 5.13703 230.056 7.84564 230.056 11.2081C230.056 14.5705 228.982 17.2791 226.833 19.3339C224.685 21.3887 221.977 22.4161 218.708 22.4161Z" fill="white"/>
<path d="M247.095 100.032V30.5419H264.468V39.6485H266.99C268.11 37.2201 270.212 34.9318 273.294 32.7835C276.376 30.5419 281.046 29.4211 287.304 29.4211C292.722 29.4211 297.438 30.682 301.454 33.2038C305.564 35.6323 308.74 39.0414 310.981 43.4312C313.223 47.7276 314.344 52.7712 314.344 58.5621V100.032H296.691V59.9631C296.691 54.7326 295.383 50.8098 292.768 48.1946C290.246 45.5794 286.604 44.2718 281.84 44.2718C276.423 44.2718 272.22 46.0931 269.231 49.7357C266.242 53.2849 264.748 58.2819 264.748 64.7265V100.032H247.095Z" fill="white"/>
<path d="M366.07 101.993C359.346 101.993 353.228 100.592 347.717 97.7902C342.3 94.9882 338.004 90.9253 334.828 85.6015C331.652 80.2776 330.065 73.833 330.065 66.2676V64.3062C330.065 56.7408 331.652 50.2961 334.828 44.9723C338.004 39.6485 342.3 35.5856 347.717 32.7835C353.228 29.9815 359.346 28.5805 366.07 28.5805C372.702 28.5805 378.399 29.748 383.163 32.083C387.926 34.4181 391.755 37.6404 394.651 41.75C397.64 45.7662 399.601 50.3428 400.535 55.4798L383.443 59.1225C383.069 56.3204 382.229 53.7986 380.921 51.557C379.613 49.3154 377.745 47.5408 375.317 46.2332C372.982 44.9256 370.04 44.2718 366.491 44.2718C362.941 44.2718 359.719 45.0657 356.824 46.6535C354.022 48.1479 351.78 50.4362 350.099 53.5184C348.511 56.5072 347.717 60.1966 347.717 64.5864V65.9874C347.717 70.3772 348.511 74.1132 350.099 77.1954C351.78 80.1843 354.022 82.4726 356.824 84.0604C359.719 85.5548 362.941 86.302 366.491 86.302C371.814 86.302 375.831 84.9477 378.539 82.2391C381.341 79.437 383.116 75.7944 383.863 71.3112L400.955 75.3741C399.741 80.3244 397.64 84.8543 394.651 88.9639C391.755 92.9801 387.926 96.1557 383.163 98.4907C378.399 100.826 372.702 101.993 366.07 101.993Z" fill="white"/>
<path d="M437.093 101.993C432.142 101.993 427.706 101.153 423.783 99.4714C419.86 97.6968 416.731 95.175 414.396 91.906C412.155 88.5436 411.034 84.4807 411.034 79.7172C411.034 74.9538 412.155 70.9843 414.396 67.8087C416.731 64.5397 419.907 62.1113 423.923 60.5235C428.033 58.8423 432.703 58.0017 437.933 58.0017H456.987V54.0788C456.987 50.8098 455.96 48.1479 453.905 46.0931C451.85 43.9449 448.581 42.8708 444.098 42.8708C439.708 42.8708 436.439 43.8982 434.291 45.953C432.142 47.9144 430.741 50.4829 430.088 53.6585L413.836 48.1946C414.957 44.6454 416.731 41.4231 419.16 38.5277C421.682 35.5389 424.997 33.1571 429.107 31.3825C433.31 29.5145 438.4 28.5805 444.378 28.5805C453.531 28.5805 460.77 30.8688 466.093 35.4455C471.417 40.0221 474.079 46.6535 474.079 55.3397V81.2584C474.079 84.0604 475.387 85.4614 478.002 85.4614H483.606V100.032H471.838C468.382 100.032 465.533 99.1912 463.291 97.51C461.05 95.8288 459.929 93.5872 459.929 90.7852V90.6451H457.267C456.894 91.7659 456.053 93.2603 454.745 95.1283C453.438 96.9029 451.383 98.4907 448.581 99.8917C445.779 101.293 441.949 101.993 437.093 101.993ZM440.175 87.703C445.125 87.703 449.141 86.3487 452.223 83.6401C455.399 80.8381 456.987 77.1487 456.987 72.5721V71.1711H439.194C435.925 71.1711 433.357 71.8716 431.489 73.2726C429.621 74.6736 428.687 76.635 428.687 79.1568C428.687 81.6787 429.667 83.7335 431.629 85.3213C433.59 86.9091 436.439 87.703 440.175 87.703Z" fill="white"/>
<path d="M524.826 101.993C515.766 101.993 508.341 100.032 502.55 96.109C496.759 92.1862 493.257 86.5822 492.043 79.297L508.294 75.0939C508.948 78.3629 510.022 80.9315 511.517 82.7995C513.105 84.6675 515.019 86.0218 517.261 86.8624C519.596 87.6096 522.118 87.9832 524.826 87.9832C528.936 87.9832 531.971 87.2827 533.933 85.8817C535.894 84.3873 536.875 82.566 536.875 80.4178C536.875 78.2695 535.941 76.635 534.073 75.5142C532.205 74.3 529.216 73.3193 525.106 72.5721L521.184 71.8716C516.327 70.9376 511.89 69.6767 507.874 68.0889C503.858 66.4077 500.636 64.1194 498.207 61.224C495.779 58.3286 494.565 54.5925 494.565 50.0159C494.565 43.1043 497.086 37.8272 502.13 34.1845C507.174 30.4485 513.805 28.5805 522.024 28.5805C529.776 28.5805 536.221 30.3084 541.358 33.7643C546.495 37.2201 549.858 41.75 551.445 47.354L535.054 52.3976C534.306 48.8484 532.765 46.3266 530.43 44.8322C528.189 43.3378 525.387 42.5906 522.024 42.5906C518.662 42.5906 516.093 43.1977 514.319 44.4119C512.544 45.5327 511.657 47.1205 511.657 49.1753C511.657 51.4169 512.591 53.0981 514.459 54.2189C516.327 55.2463 518.849 56.0402 522.024 56.6006L525.947 57.3012C531.177 58.2352 535.894 59.4961 540.097 61.0839C544.394 62.5783 547.756 64.7732 550.184 67.6686C552.706 70.4706 553.967 74.3 553.967 79.1568C553.967 86.4421 551.305 92.0928 545.981 96.109C540.751 100.032 533.699 101.993 524.826 101.993Z" fill="white"/>
<path d="M594.687 100.032C590.111 100.032 586.375 98.6308 583.479 95.8288C580.677 92.9334 579.276 89.104 579.276 84.3406V45.1124H561.904V30.5419H579.276V8.96644H596.929V30.5419H615.983V45.1124H596.929V81.2584C596.929 84.0604 598.236 85.4614 600.852 85.4614H614.301V100.032H594.687Z" fill="white"/>
<path d="M631.962 100.032V30.5419H649.334V38.3876H651.856C652.883 35.5856 654.565 33.5308 656.9 32.2231C659.328 30.9155 662.13 30.2617 665.306 30.2617H673.712V45.953H665.025C660.542 45.953 656.853 47.1672 653.957 49.5956C651.062 51.9306 649.614 55.5732 649.614 60.5235V100.032H631.962Z" fill="white"/>
<path d="M687.509 100.032V30.5419H705.162V100.032H687.509ZM696.336 22.4161C693.16 22.4161 690.451 21.3887 688.21 19.3339C686.062 17.2791 684.987 14.5705 684.987 11.2081C684.987 7.84564 686.062 5.13703 688.21 3.08222C690.451 1.02741 693.16 0 696.336 0C699.605 0 702.313 1.02741 704.461 3.08222C706.61 5.13703 707.684 7.84564 707.684 11.2081C707.684 14.5705 706.61 17.2791 704.461 19.3339C702.313 21.3887 699.605 22.4161 696.336 22.4161Z" fill="white"/>
<path d="M912.708 0H812.692V49.9109H762.684V99.8217H862.7V49.9109H912.708V0Z" fill="#F1CC02"/>
<path d="M967.708 100.032V30.5419H985.08V38.3876H987.602C988.63 35.5856 990.311 33.5308 992.646 32.2231C995.074 30.9155 997.876 30.2617 1001.05 30.2617H1009.46V45.953H1000.77C996.289 45.953 992.599 47.1672 989.704 49.5956C986.808 51.9306 985.361 55.5732 985.361 60.5235V100.032H967.708Z" fill="white"/>
<path d="M1052.46 101.993C1045.54 101.993 1039.43 100.546 1034.1 97.6501C1028.87 94.6613 1024.76 90.505 1021.77 85.1812C1018.88 79.764 1017.43 73.4127 1017.43 66.1275V64.4463C1017.43 57.161 1018.88 50.8565 1021.77 45.5327C1024.67 40.1155 1028.73 35.9592 1033.96 33.0638C1039.19 30.0749 1045.26 28.5805 1052.18 28.5805C1058.99 28.5805 1064.92 30.1216 1069.97 33.2038C1075.01 36.1927 1078.93 40.3957 1081.74 45.8129C1084.54 51.1367 1085.94 57.3479 1085.94 64.4463V70.4706H1035.36C1035.55 75.234 1037.32 79.1101 1040.69 82.099C1044.05 85.0878 1048.16 86.5822 1053.02 86.5822C1057.97 86.5822 1061.61 85.5081 1063.94 83.3599C1066.28 81.2117 1068.05 78.8299 1069.27 76.2147L1083.7 83.7802C1082.39 86.2086 1080.48 88.8705 1077.95 91.7659C1075.53 94.5679 1072.26 96.9963 1068.15 99.0511C1064.04 101.013 1058.81 101.993 1052.46 101.993ZM1035.5 57.3012H1068.01C1067.63 53.2849 1066 50.0626 1063.1 47.6342C1060.3 45.2058 1056.61 43.9916 1052.04 43.9916C1047.27 43.9916 1043.49 45.2058 1040.69 47.6342C1037.89 50.0626 1036.16 53.2849 1035.5 57.3012Z" fill="white"/>
<path d="M1101.65 100.032V1.96141H1119.3V100.032H1101.65Z" fill="white"/>
<path d="M1160.44 101.993C1155.49 101.993 1151.05 101.153 1147.13 99.4714C1143.21 97.6968 1140.08 95.175 1137.75 91.906C1135.5 88.5436 1134.38 84.4807 1134.38 79.7172C1134.38 74.9538 1135.5 70.9843 1137.75 67.8087C1140.08 64.5397 1143.26 62.1113 1147.27 60.5235C1151.38 58.8423 1156.05 58.0017 1161.28 58.0017H1180.34V54.0788C1180.34 50.8098 1179.31 48.1479 1177.25 46.0931C1175.2 43.9449 1171.93 42.8708 1167.45 42.8708C1163.06 42.8708 1159.79 43.8982 1157.64 45.953C1155.49 47.9144 1154.09 50.4829 1153.44 53.6585L1137.18 48.1946C1138.31 44.6454 1140.08 41.4231 1142.51 38.5277C1145.03 35.5389 1148.35 33.1571 1152.46 31.3825C1156.66 29.5145 1161.75 28.5805 1167.73 28.5805C1176.88 28.5805 1184.12 30.8688 1189.44 35.4455C1194.77 40.0221 1197.43 46.6535 1197.43 55.3397V81.2584C1197.43 84.0604 1198.74 85.4614 1201.35 85.4614H1206.95V100.032H1195.19C1191.73 100.032 1188.88 99.1912 1186.64 97.51C1184.4 95.8288 1183.28 93.5872 1183.28 90.7852V90.6451H1180.62C1180.24 91.7659 1179.4 93.2603 1178.09 95.1283C1176.79 96.9029 1174.73 98.4907 1171.93 99.8917C1169.13 101.293 1165.3 101.993 1160.44 101.993ZM1163.52 87.703C1168.47 87.703 1172.49 86.3487 1175.57 83.6401C1178.75 80.8381 1180.34 77.1487 1180.34 72.5721V71.1711H1162.54C1159.27 71.1711 1156.71 71.8716 1154.84 73.2726C1152.97 74.6736 1152.04 76.635 1152.04 79.1568C1152.04 81.6787 1153.02 83.7335 1154.98 85.3213C1156.94 86.9091 1159.79 87.703 1163.52 87.703Z" fill="white"/>
<path d="M1217.34 100.032V79.0167L1255.45 47.354V45.1124H1218.74V30.5419H1274.78V51.557L1236.67 83.2198V85.4614H1275.9V100.032H1217.34Z" fill="white"/>
<path d="M1292.37 100.032V30.5419H1310.03V100.032H1292.37ZM1301.2 22.4161C1298.03 22.4161 1295.32 21.3887 1293.08 19.3339C1290.93 17.2791 1289.85 14.5705 1289.85 11.2081C1289.85 7.84564 1290.93 5.13703 1293.08 3.08222C1295.32 1.02741 1298.03 0 1301.2 0C1304.47 0 1307.18 1.02741 1309.33 3.08222C1311.48 5.13703 1312.55 7.84564 1312.55 11.2081C1312.55 14.5705 1311.48 17.2791 1309.33 19.3339C1307.18 21.3887 1304.47 22.4161 1301.2 22.4161Z" fill="white"/>
<path d="M1362.65 101.993C1355.74 101.993 1349.53 100.592 1344.02 97.7902C1338.51 94.9882 1334.17 90.9253 1330.99 85.6015C1327.81 80.2776 1326.23 73.8797 1326.23 66.4077V64.1661C1326.23 56.6941 1327.81 50.2961 1330.99 44.9723C1334.17 39.6485 1338.51 35.5856 1344.02 32.7835C1349.53 29.9815 1355.74 28.5805 1362.65 28.5805C1369.56 28.5805 1375.78 29.9815 1381.29 32.7835C1386.8 35.5856 1391.14 39.6485 1394.32 44.9723C1397.49 50.2961 1399.08 56.6941 1399.08 64.1661V66.4077C1399.08 73.8797 1397.49 80.2776 1394.32 85.6015C1391.14 90.9253 1386.8 94.9882 1381.29 97.7902C1375.78 100.592 1369.56 101.993 1362.65 101.993ZM1362.65 86.302C1368.07 86.302 1372.55 84.5741 1376.1 81.1183C1379.65 77.569 1381.43 72.5254 1381.43 65.9874V64.5864C1381.43 58.0484 1379.65 53.0514 1376.1 49.5956C1372.65 46.0464 1368.16 44.2718 1362.65 44.2718C1357.24 44.2718 1352.75 46.0464 1349.2 49.5956C1345.65 53.0514 1343.88 58.0484 1343.88 64.5864V65.9874C1343.88 72.5254 1345.65 77.569 1349.2 81.1183C1352.75 84.5741 1357.24 86.302 1362.65 86.302Z" fill="white"/>
<path d="M1415.37 100.032V30.5419H1432.75V39.6485H1435.27C1436.39 37.2201 1438.49 34.9318 1441.57 32.7835C1444.65 30.5419 1449.32 29.4211 1455.58 29.4211C1461 29.4211 1465.72 30.682 1469.73 33.2038C1473.84 35.6323 1477.02 39.0414 1479.26 43.4312C1481.5 47.7276 1482.62 52.7712 1482.62 58.5621V100.032H1464.97V59.9631C1464.97 54.7326 1463.66 50.8098 1461.05 48.1946C1458.52 45.5794 1454.88 44.2718 1450.12 44.2718C1444.7 44.2718 1440.5 46.0931 1437.51 49.7357C1434.52 53.2849 1433.03 58.2819 1433.03 64.7265V100.032H1415.37Z" fill="white"/>
<path d="M1533.37 101.993C1526.46 101.993 1520.34 100.546 1515.01 97.6501C1509.78 94.6613 1505.67 90.505 1502.69 85.1812C1499.79 79.764 1498.34 73.4127 1498.34 66.1275V64.4463C1498.34 57.161 1499.79 50.8565 1502.69 45.5327C1505.58 40.1155 1509.64 35.9592 1514.87 33.0638C1520.1 30.0749 1526.18 28.5805 1533.09 28.5805C1539.91 28.5805 1545.84 30.1216 1550.88 33.2038C1555.92 36.1927 1559.85 40.3957 1562.65 45.8129C1565.45 51.1367 1566.85 57.3479 1566.85 64.4463V70.4706H1516.28C1516.46 75.234 1518.24 79.1101 1521.6 82.099C1524.96 85.0878 1529.07 86.5822 1533.93 86.5822C1538.88 86.5822 1542.52 85.5081 1544.86 83.3599C1547.19 81.2117 1548.97 78.8299 1550.18 76.2147L1564.61 83.7802C1563.3 86.2086 1561.39 88.8705 1558.87 91.7659C1556.44 94.5679 1553.17 96.9963 1549.06 99.0511C1544.95 101.013 1539.72 101.993 1533.37 101.993ZM1516.42 57.3012H1548.92C1548.54 53.2849 1546.91 50.0626 1544.02 47.6342C1541.21 45.2058 1537.52 43.9916 1532.95 43.9916C1528.18 43.9916 1524.4 45.2058 1521.6 47.6342C1518.8 50.0626 1517.07 53.2849 1516.42 57.3012Z" fill="white"/>
<path d="M1621.85 0H1774.21V101.573H1723.42V50.7865H1621.85V0Z" fill="#6233B7"/>
<path d="M1856.25 101.153C1850.83 101.153 1846.07 99.9384 1841.96 97.51C1837.94 94.9882 1834.81 91.5324 1832.57 87.1426C1830.33 82.7528 1829.21 77.7091 1829.21 72.0117V30.5419H1846.86V70.6107C1846.86 75.8411 1848.12 79.7639 1850.65 82.3792C1853.26 84.9944 1856.95 86.302 1861.71 86.302C1867.13 86.302 1871.33 84.5274 1874.32 80.9782C1877.31 77.3355 1878.81 72.2919 1878.81 65.8473V30.5419H1896.46V100.032H1879.09V90.9253H1876.56C1875.44 93.2603 1873.34 95.5486 1870.26 97.7902C1867.18 100.032 1862.51 101.153 1856.25 101.153Z" fill="white"/>
<path d="M1916.1 100.032V30.5419H1933.48V38.1074H1936C1937.21 35.7724 1939.22 33.7643 1942.02 32.083C1944.82 30.3084 1948.51 29.4211 1953.09 29.4211C1958.04 29.4211 1962.01 30.4018 1965 32.3632C1967.99 34.2312 1970.28 36.7064 1971.86 39.7886H1974.38C1975.97 36.7998 1978.21 34.3247 1981.11 32.3632C1984 30.4018 1988.11 29.4211 1993.44 29.4211C1997.73 29.4211 2001.61 30.3551 2005.07 32.2231C2008.62 33.9978 2011.42 36.7531 2013.47 40.4891C2015.62 44.1317 2016.7 48.755 2016.7 54.359V100.032H1999.04V55.6199C1999.04 51.7905 1998.06 48.9418 1996.1 47.0738C1994.14 45.1124 1991.38 44.1317 1987.83 44.1317C1983.82 44.1317 1980.69 45.4393 1978.45 48.0545C1976.3 50.5763 1975.23 54.2189 1975.23 58.9824V100.032H1957.57V55.6199C1957.57 51.7905 1956.59 48.9418 1954.63 47.0738C1952.67 45.1124 1949.91 44.1317 1946.36 44.1317C1942.35 44.1317 1939.22 45.4393 1936.98 48.0545C1934.83 50.5763 1933.76 54.2189 1933.76 58.9824V100.032H1916.1Z" fill="white"/>
<path d="M2057.26 101.993C2052.31 101.993 2047.87 101.153 2043.95 99.4714C2040.02 97.6968 2036.9 95.175 2034.56 91.906C2032.32 88.5436 2031.2 84.4807 2031.2 79.7172C2031.2 74.9538 2032.32 70.9843 2034.56 67.8087C2036.9 64.5397 2040.07 62.1113 2044.09 60.5235C2048.2 58.8423 2052.87 58.0017 2058.1 58.0017H2077.15V54.0788C2077.15 50.8098 2076.12 48.1479 2074.07 46.0931C2072.01 43.9449 2068.74 42.8708 2064.26 42.8708C2059.87 42.8708 2056.6 43.8982 2054.45 45.953C2052.31 47.9144 2050.91 50.4829 2050.25 53.6585L2034 48.1946C2035.12 44.6454 2036.9 41.4231 2039.32 38.5277C2041.85 35.5389 2045.16 33.1571 2049.27 31.3825C2053.47 29.5145 2058.56 28.5805 2064.54 28.5805C2073.69 28.5805 2080.93 30.8688 2086.26 35.4455C2091.58 40.0221 2094.24 46.6535 2094.24 55.3397V81.2584C2094.24 84.0604 2095.55 85.4614 2098.17 85.4614H2103.77V100.032H2092C2088.55 100.032 2085.7 99.1912 2083.46 97.51C2081.21 95.8288 2080.09 93.5872 2080.09 90.7852V90.6451H2077.43C2077.06 91.7659 2076.22 93.2603 2074.91 95.1283C2073.6 96.9029 2071.55 98.4907 2068.74 99.8917C2065.94 101.293 2062.11 101.993 2057.26 101.993ZM2060.34 87.703C2065.29 87.703 2069.31 86.3487 2072.39 83.6401C2075.56 80.8381 2077.15 77.1487 2077.15 72.5721V71.1711H2059.36C2056.09 71.1711 2053.52 71.8716 2051.65 73.2726C2049.78 74.6736 2048.85 76.635 2048.85 79.1568C2048.85 81.6787 2049.83 83.7335 2051.79 85.3213C2053.75 86.9091 2056.6 87.703 2060.34 87.703Z" fill="white"/>
<path d="M2116.68 100.032V30.5419H2134.05V39.6485H2136.57C2137.69 37.2201 2139.79 34.9318 2142.88 32.7835C2145.96 30.5419 2150.63 29.4211 2156.89 29.4211C2162.3 29.4211 2167.02 30.682 2171.04 33.2038C2175.15 35.6323 2178.32 39.0414 2180.56 43.4312C2182.8 47.7276 2183.92 52.7712 2183.92 58.5621V100.032H2166.27V59.9631C2166.27 54.7326 2164.96 50.8098 2162.35 48.1946C2159.83 45.5794 2156.18 44.2718 2151.42 44.2718C2146 44.2718 2141.8 46.0931 2138.81 49.7357C2135.82 53.2849 2134.33 58.2819 2134.33 64.7265V100.032H2116.68Z" fill="white"/>
<path d="M2203.01 100.032V30.5419H2220.66V100.032H2203.01ZM2211.83 22.4161C2208.66 22.4161 2205.95 21.3887 2203.71 19.3339C2201.56 17.2791 2200.49 14.5705 2200.49 11.2081C2200.49 7.84564 2201.56 5.13703 2203.71 3.08222C2205.95 1.02741 2208.66 0 2211.83 0C2215.1 0 2217.81 1.02741 2219.96 3.08222C2222.11 5.13703 2223.18 7.84564 2223.18 11.2081C2223.18 14.5705 2222.11 17.2791 2219.96 19.3339C2217.81 21.3887 2215.1 22.4161 2211.83 22.4161Z" fill="white"/>
<path d="M2266.84 100.032C2262.26 100.032 2258.53 98.6308 2255.63 95.8288C2252.83 92.9334 2251.43 89.104 2251.43 84.3406V45.1124H2234.06V30.5419H2251.43V8.96644H2269.08V30.5419H2288.14V45.1124H2269.08V81.2584C2269.08 84.0604 2270.39 85.4614 2273.01 85.4614H2286.46V100.032H2266.84Z" fill="white"/>
<path d="M2325.69 101.993C2320.74 101.993 2316.3 101.153 2312.38 99.4714C2308.46 97.6968 2305.33 95.175 2303 91.906C2300.75 88.5436 2299.63 84.4807 2299.63 79.7172C2299.63 74.9538 2300.75 70.9843 2303 67.8087C2305.33 64.5397 2308.51 62.1113 2312.52 60.5235C2316.63 58.8423 2321.3 58.0017 2326.53 58.0017H2345.59V54.0788C2345.59 50.8098 2344.56 48.1479 2342.5 46.0931C2340.45 43.9449 2337.18 42.8708 2332.7 42.8708C2328.31 42.8708 2325.04 43.8982 2322.89 45.953C2320.74 47.9144 2319.34 50.4829 2318.69 53.6585L2302.43 48.1946C2303.56 44.6454 2305.33 41.4231 2307.76 38.5277C2310.28 35.5389 2313.6 33.1571 2317.71 31.3825C2321.91 29.5145 2327 28.5805 2332.98 28.5805C2342.13 28.5805 2349.37 30.8688 2354.69 35.4455C2360.02 40.0221 2362.68 46.6535 2362.68 55.3397V81.2584C2362.68 84.0604 2363.99 85.4614 2366.6 85.4614H2372.2V100.032H2360.44C2356.98 100.032 2354.13 99.1912 2351.89 97.51C2349.65 95.8288 2348.53 93.5872 2348.53 90.7852V90.6451H2345.87C2345.49 91.7659 2344.65 93.2603 2343.34 95.1283C2342.04 96.9029 2339.98 98.4907 2337.18 99.8917C2334.38 101.293 2330.55 101.993 2325.69 101.993ZM2328.77 87.703C2333.72 87.703 2337.74 86.3487 2340.82 83.6401C2344 80.8381 2345.59 77.1487 2345.59 72.5721V71.1711H2327.79C2324.52 71.1711 2321.96 71.8716 2320.09 73.2726C2318.22 74.6736 2317.29 76.635 2317.29 79.1568C2317.29 81.6787 2318.27 83.7335 2320.23 85.3213C2322.19 86.9091 2325.04 87.703 2328.77 87.703ZM2328.91 22.6963L2314.06 1.96141H2333.96L2344.32 22.6963H2328.91Z" fill="white"/>
<path d="M2530.54 0H2427.21V101.57H2530.54V0Z" fill="#009FE3"/>
<path d="M2585.54 100.032V30.5419H2602.91V39.6485H2605.43C2606.55 37.2201 2608.65 34.9318 2611.73 32.7835C2614.82 30.5419 2619.49 29.4211 2625.74 29.4211C2631.16 29.4211 2635.88 30.682 2639.89 33.2038C2644 35.6323 2647.18 39.0414 2649.42 43.4312C2651.66 47.7276 2652.78 52.7712 2652.78 58.5621V100.032H2635.13V59.9631C2635.13 54.7326 2633.82 50.8098 2631.21 48.1946C2628.69 45.5794 2625.04 44.2718 2620.28 44.2718C2614.86 44.2718 2610.66 46.0931 2607.67 49.7357C2604.68 53.2849 2603.19 58.2819 2603.19 64.7265V100.032H2585.54Z" fill="white"/>
<path d="M2704.93 101.993C2698.02 101.993 2691.81 100.592 2686.3 97.7902C2680.79 94.9882 2676.44 90.9253 2673.27 85.6015C2670.09 80.2776 2668.5 73.8797 2668.5 66.4077V64.1661C2668.5 56.6941 2670.09 50.2961 2673.27 44.9723C2676.44 39.6485 2680.79 35.5856 2686.3 32.7835C2691.81 29.9815 2698.02 28.5805 2704.93 28.5805C2711.84 28.5805 2718.05 29.9815 2723.56 32.7835C2729.07 35.5856 2733.42 39.6485 2736.59 44.9723C2739.77 50.2961 2741.36 56.6941 2741.36 64.1661V66.4077C2741.36 73.8797 2739.77 80.2776 2736.59 85.6015C2733.42 90.9253 2729.07 94.9882 2723.56 97.7902C2718.05 100.592 2711.84 101.993 2704.93 101.993ZM2704.93 86.302C2710.35 86.302 2714.83 84.5741 2718.38 81.1183C2721.93 77.569 2723.7 72.5254 2723.7 65.9874V64.5864C2723.7 58.0484 2721.93 53.0514 2718.38 49.5956C2714.92 46.0464 2710.44 44.2718 2704.93 44.2718C2699.51 44.2718 2695.03 46.0464 2691.48 49.5956C2687.93 53.0514 2686.16 58.0484 2686.16 64.5864V65.9874C2686.16 72.5254 2687.93 77.569 2691.48 81.1183C2695.03 84.5741 2699.51 86.302 2704.93 86.302Z" fill="white"/>
<path d="M2757.65 100.032V30.5419H2775.3V100.032H2757.65ZM2766.48 22.4161C2763.3 22.4161 2760.59 21.3887 2758.35 19.3339C2756.2 17.2791 2755.13 14.5705 2755.13 11.2081C2755.13 7.84564 2756.2 5.13703 2758.35 3.08222C2760.59 1.02741 2763.3 0 2766.48 0C2769.75 0 2772.45 1.02741 2774.6 3.08222C2776.75 5.13703 2777.83 7.84564 2777.83 11.2081C2777.83 14.5705 2776.75 17.2791 2774.6 19.3339C2772.45 21.3887 2769.75 22.4161 2766.48 22.4161Z" fill="white"/>
<path d="M2985.19 101.573H2832.83V50.7865H2883.62V0H2934.4V50.7865H2985.19V101.573Z" fill="#019585"/>
<path d="M3067.22 101.153C3061.81 101.153 3057.04 99.9384 3052.93 97.51C3048.92 94.9882 3045.79 91.5324 3043.55 87.1426C3041.31 82.7528 3040.19 77.7091 3040.19 72.0117V30.5419H3057.84V70.6107C3057.84 75.8411 3059.1 79.7639 3061.62 82.3792C3064.24 84.9944 3067.93 86.302 3072.69 86.302C3078.11 86.302 3082.31 84.5274 3085.3 80.9782C3088.29 77.3355 3089.78 72.2919 3089.78 65.8473V30.5419H3107.43V100.032H3090.06V90.9253H3087.54C3086.42 93.2603 3084.32 95.5486 3081.24 97.7902C3078.15 100.032 3073.48 101.153 3067.22 101.153Z" fill="white"/>
<path d="M3127.08 100.032V30.5419H3144.45V39.6485H3146.97C3148.09 37.2201 3150.19 34.9318 3153.28 32.7835C3156.36 30.5419 3161.03 29.4211 3167.29 29.4211C3172.7 29.4211 3177.42 30.682 3181.44 33.2038C3185.55 35.6323 3188.72 39.0414 3190.96 43.4312C3193.2 47.7276 3194.33 52.7712 3194.33 58.5621V100.032H3176.67V59.9631C3176.67 54.7326 3175.37 50.8098 3172.75 48.1946C3170.23 45.5794 3166.59 44.2718 3161.82 44.2718C3156.41 44.2718 3152.2 46.0931 3149.21 49.7357C3146.22 53.2849 3144.73 58.2819 3144.73 64.7265V100.032H3127.08Z" fill="white"/>
<path d="M3213.41 100.032V30.5419H3231.06V100.032H3213.41ZM3222.24 22.4161C3219.06 22.4161 3216.35 21.3887 3214.11 19.3339C3211.96 17.2791 3210.89 14.5705 3210.89 11.2081C3210.89 7.84564 3211.96 5.13703 3214.11 3.08222C3216.35 1.02741 3219.06 0 3222.24 0C3225.5 0 3228.21 1.02741 3230.36 3.08222C3232.51 5.13703 3233.58 7.84564 3233.58 11.2081C3233.58 14.5705 3232.51 17.2791 3230.36 19.3339C3228.21 21.3887 3225.5 22.4161 3222.24 22.4161Z" fill="white"/>
<path d="M3283.69 101.993C3276.78 101.993 3270.56 100.592 3265.05 97.7902C3259.54 94.9882 3255.2 90.9253 3252.02 85.6015C3248.85 80.2776 3247.26 73.8797 3247.26 66.4077V64.1661C3247.26 56.6941 3248.85 50.2961 3252.02 44.9723C3255.2 39.6485 3259.54 35.5856 3265.05 32.7835C3270.56 29.9815 3276.78 28.5805 3283.69 28.5805C3290.6 28.5805 3296.81 29.9815 3302.32 32.7835C3307.83 35.5856 3312.17 39.6485 3315.35 44.9723C3318.53 50.2961 3320.11 56.6941 3320.11 64.1661V66.4077C3320.11 73.8797 3318.53 80.2776 3315.35 85.6015C3312.17 90.9253 3307.83 94.9882 3302.32 97.7902C3296.81 100.592 3290.6 101.993 3283.69 101.993ZM3283.69 86.302C3289.1 86.302 3293.59 84.5741 3297.14 81.1183C3300.69 77.569 3302.46 72.5254 3302.46 65.9874V64.5864C3302.46 58.0484 3300.69 53.0514 3297.14 49.5956C3293.68 46.0464 3289.2 44.2718 3283.69 44.2718C3278.27 44.2718 3273.79 46.0464 3270.24 49.5956C3266.69 53.0514 3264.91 58.0484 3264.91 64.5864V65.9874C3264.91 72.5254 3266.69 77.569 3270.24 81.1183C3273.79 84.5741 3278.27 86.302 3283.69 86.302Z" fill="white"/>
<path d="M3336.41 100.032V30.5419H3353.78V39.6485H3356.3C3357.42 37.2201 3359.52 34.9318 3362.61 32.7835C3365.69 30.5419 3370.36 29.4211 3376.62 29.4211C3382.03 29.4211 3386.75 30.682 3390.77 33.2038C3394.88 35.6323 3398.05 39.0414 3400.29 43.4312C3402.53 47.7276 3403.66 52.7712 3403.66 58.5621V100.032H3386V59.9631C3386 54.7326 3384.7 50.8098 3382.08 48.1946C3379.56 45.5794 3375.92 44.2718 3371.15 44.2718C3365.74 44.2718 3361.53 46.0931 3358.54 49.7357C3355.55 53.2849 3354.06 58.2819 3354.06 64.7265V100.032H3336.41Z" fill="white"/>
<path d="M3454.4 101.993C3447.49 101.993 3441.37 100.546 3436.05 97.6501C3430.82 94.6613 3426.71 90.505 3423.72 85.1812C3420.82 79.764 3419.38 73.4127 3419.38 66.1275V64.4463C3419.38 57.161 3420.82 50.8565 3423.72 45.5327C3426.62 40.1155 3430.68 35.9592 3435.91 33.0638C3441.14 30.0749 3447.21 28.5805 3454.12 28.5805C3460.94 28.5805 3466.87 30.1216 3471.91 33.2038C3476.96 36.1927 3480.88 40.3957 3483.68 45.8129C3486.48 51.1367 3487.89 57.3479 3487.89 64.4463V70.4706H3437.31C3437.5 75.234 3439.27 79.1101 3442.63 82.099C3446 85.0878 3450.11 86.5822 3454.96 86.5822C3459.91 86.5822 3463.55 85.5081 3465.89 83.3599C3468.22 81.2117 3470 78.8299 3471.21 76.2147L3485.64 83.7802C3484.34 86.2086 3482.42 88.8705 3479.9 91.7659C3477.47 94.5679 3474.2 96.9963 3470.09 99.0511C3465.98 101.013 3460.75 101.993 3454.4 101.993ZM3437.45 57.3012H3469.95C3469.58 53.2849 3467.94 50.0626 3465.05 47.6342C3462.25 45.2058 3458.56 43.9916 3453.98 43.9916C3449.22 43.9916 3445.44 45.2058 3442.63 47.6342C3439.83 50.0626 3438.1 53.2849 3437.45 57.3012Z" fill="white"/>
</svg>
