<svg width="725" height="684" viewBox="0 0 725 684" fill="none" xmlns="http://www.w3.org/2000/svg">
<rect x="513.741" y="225.128" width="358.616" height="71.1181" transform="rotate(131.503 513.741 225.128)" fill="url(#paint0_linear_5214_14008)"/>
<g filter="url(#filter0_dddddd_5214_14008)">
<path fill-rule="evenodd" clip-rule="evenodd" d="M257.314 505.066C250.784 504.822 244.853 501.713 239 498.902C233.296 496.162 227.766 493.122 223.299 488.73C218.739 484.246 214.487 479.161 212.755 473.097C211.041 467.093 212.655 460.797 213.564 454.63C214.45 448.617 214.992 442.44 218.056 437.14C221.133 431.816 226.229 428.03 231.146 424.215C236.215 420.28 241.116 415.564 247.482 414.303C253.841 413.043 260.151 415.938 266.508 417.21C272.893 418.488 279.854 418.316 285.249 421.861C290.67 425.423 293.821 431.369 296.713 437.061C299.507 442.56 300.943 448.485 301.856 454.549C302.792 460.765 303.942 467.147 302.152 473.184C300.345 479.277 296.085 484.347 291.64 489.001C287.226 493.624 282.121 497.549 276.266 500.289C270.324 503.07 263.909 505.311 257.314 505.066Z" fill="url(#paint1_diamond_5214_14008)"/>
</g>
<defs>
<filter id="filter0_dddddd_5214_14008" x="126.683" y="328.675" width="261.726" height="261.726" filterUnits="userSpaceOnUse" color-interpolation-filters="sRGB">
<feFlood flood-opacity="0" result="BackgroundImageFix"/>
<feColorMatrix in="SourceAlpha" type="matrix" values="0 0 0 0 0 0 0 0 0 0 0 0 0 0 0 0 0 0 127 0" result="hardAlpha"/>
<feOffset/>
<feGaussianBlur stdDeviation="1.01568"/>
<feColorMatrix type="matrix" values="0 0 0 0 0.796078 0 0 0 0 0.886275 0 0 0 0 1 0 0 0 1 0"/>
<feBlend mode="normal" in2="BackgroundImageFix" result="effect1_dropShadow_5214_14008"/>
<feColorMatrix in="SourceAlpha" type="matrix" values="0 0 0 0 0 0 0 0 0 0 0 0 0 0 0 0 0 0 127 0" result="hardAlpha"/>
<feOffset/>
<feGaussianBlur stdDeviation="2.03136"/>
<feColorMatrix type="matrix" values="0 0 0 0 0.796078 0 0 0 0 0.886275 0 0 0 0 1 0 0 0 1 0"/>
<feBlend mode="normal" in2="effect1_dropShadow_5214_14008" result="effect2_dropShadow_5214_14008"/>
<feColorMatrix in="SourceAlpha" type="matrix" values="0 0 0 0 0 0 0 0 0 0 0 0 0 0 0 0 0 0 127 0" result="hardAlpha"/>
<feOffset/>
<feGaussianBlur stdDeviation="7.10975"/>
<feColorMatrix type="matrix" values="0 0 0 0 0.796078 0 0 0 0 0.886275 0 0 0 0 1 0 0 0 1 0"/>
<feBlend mode="normal" in2="effect2_dropShadow_5214_14008" result="effect3_dropShadow_5214_14008"/>
<feColorMatrix in="SourceAlpha" type="matrix" values="0 0 0 0 0 0 0 0 0 0 0 0 0 0 0 0 0 0 127 0" result="hardAlpha"/>
<feOffset/>
<feGaussianBlur stdDeviation="14.2195"/>
<feColorMatrix type="matrix" values="0 0 0 0 0.796078 0 0 0 0 0.886275 0 0 0 0 1 0 0 0 1 0"/>
<feBlend mode="normal" in2="effect3_dropShadow_5214_14008" result="effect4_dropShadow_5214_14008"/>
<feColorMatrix in="SourceAlpha" type="matrix" values="0 0 0 0 0 0 0 0 0 0 0 0 0 0 0 0 0 0 127 0" result="hardAlpha"/>
<feOffset/>
<feGaussianBlur stdDeviation="24.3763"/>
<feColorMatrix type="matrix" values="0 0 0 0 0.796078 0 0 0 0 0.886275 0 0 0 0 1 0 0 0 1 0"/>
<feBlend mode="normal" in2="effect4_dropShadow_5214_14008" result="effect5_dropShadow_5214_14008"/>
<feColorMatrix in="SourceAlpha" type="matrix" values="0 0 0 0 0 0 0 0 0 0 0 0 0 0 0 0 0 0 127 0" result="hardAlpha"/>
<feOffset/>
<feGaussianBlur stdDeviation="42.6585"/>
<feColorMatrix type="matrix" values="0 0 0 0 0.796078 0 0 0 0 0.886275 0 0 0 0 1 0 0 0 1 0"/>
<feBlend mode="normal" in2="effect5_dropShadow_5214_14008" result="effect6_dropShadow_5214_14008"/>
<feBlend mode="normal" in="SourceGraphic" in2="effect6_dropShadow_5214_14008" result="shape"/>
</filter>
<linearGradient id="paint0_linear_5214_14008" x1="870.892" y1="235.995" x2="573.542" y2="217.826" gradientUnits="userSpaceOnUse">
<stop stop-color="#D7F5FF"/>
<stop offset="1" stop-color="#356EFF" stop-opacity="0"/>
</linearGradient>
<radialGradient id="paint1_diamond_5214_14008" cx="0" cy="0" r="1" gradientUnits="userSpaceOnUse" gradientTransform="translate(240.466 488.004) rotate(-64.8852) scale(100.603)">
<stop stop-color="#E9F2FF"/>
<stop offset="1" stop-color="#BCDBFF"/>
</radialGradient>
</defs>
</svg>
