<svg width="1785" height="1835" viewBox="0 0 1785 1835" fill="none" xmlns="http://www.w3.org/2000/svg">
<g filter="url(#filter0_dd_5410_14248)">
<circle cx="1329.5" cy="1638.5" r="17.5" fill="#E30613"/>
</g>
<g filter="url(#filter1_dd_5410_14248)">
<circle cx="798.5" cy="187.5" r="26.5" fill="#00C1FF"/>
</g>
<g filter="url(#filter2_dd_5410_14248)">
<path d="M1009.49 1353.21C1019.1 1396.94 992.002 1440.05 948.97 1449.5C905.939 1458.96 863.267 1431.17 853.661 1387.45C844.055 1343.72 871.152 1300.61 914.184 1291.16C957.215 1281.71 999.887 1309.49 1009.49 1353.21Z" fill="#FFA800"/>
<path d="M1062 1352.39C1065.18 1366.82 1041.22 1385.26 1003.2 1400.46M879.177 1427.71C838.284 1429.84 808.809 1423.14 805.638 1408.71M1049.66 1296.2C1054.31 1317.36 1000.69 1347.12 929.894 1362.67C859.1 1378.22 797.942 1373.68 793.294 1352.52M857.83 1346.14C818.707 1347.74 790.766 1341.01 787.683 1326.98M1007.05 1353.75C1010.36 1368.82 1009.18 1383.81 1004.41 1397.28C986.397 1404.64 965.004 1411.3 941.701 1416.42C918.398 1421.53 896.184 1424.46 876.748 1425.32C866.771 1415.09 859.414 1401.98 856.103 1386.91C855.183 1382.73 854.611 1378.55 854.365 1374.4C876.456 1374.23 902.738 1371.2 930.43 1365.11C958.123 1359.03 983.257 1350.77 1003.39 1341.66C1004.9 1345.53 1006.13 1349.56 1007.05 1353.75ZM881.798 1430.06C900.38 1428.94 921.147 1426.05 942.774 1421.3C964.401 1416.55 984.468 1410.47 1001.81 1403.7C992.043 1425.08 972.885 1441.69 948.434 1447.06C923.982 1452.43 899.627 1445.38 881.798 1430.06ZM929.357 1360.23C901.875 1366.27 875.909 1369.25 854.227 1369.4C854.254 1362.29 855.24 1355.33 857.083 1348.67C877.326 1347.9 900.53 1344.91 924.819 1339.57L923.747 1334.69C900.395 1339.82 878.137 1342.74 858.673 1343.6C867.286 1319.06 887.793 1299.52 914.72 1293.6C950.595 1285.72 986.263 1304.58 1001.42 1337.07C981.663 1346.01 956.839 1354.19 929.357 1360.23Z" stroke="white" stroke-width="5"/>
</g>
<g filter="url(#filter3_dd_5410_14248)">
<circle cx="1396.24" cy="276.41" r="15.7061" transform="rotate(165 1396.24 276.41)" fill="#05FF00"/>
</g>
<g filter="url(#filter4_dd_5410_14248)">
<path fill-rule="evenodd" clip-rule="evenodd" d="M637.387 806.786L647.698 845.269C655.317 843.694 662.935 845.105 669.26 848.755L689.527 813.652L692.373 815.295L672.019 850.549C676.197 853.594 679.632 857.703 681.866 862.613L720.703 852.207L721.553 855.381L683.072 865.692C683.261 866.262 683.434 866.84 683.592 867.427C685.242 873.588 684.9 879.812 682.96 885.417L716.334 904.686L714.691 907.532L681.707 888.489C678.224 895.873 671.837 901.831 663.586 904.563L672.961 939.552L669.787 940.403L660.416 905.431C653.828 906.866 647.227 906.062 641.448 903.499L623.648 934.33L620.802 932.686L638.515 902.007C631.704 898.073 626.393 891.54 624.196 883.342C624.039 882.755 623.9 882.167 623.778 881.58L588.787 890.956L587.937 887.781L623.283 878.31C622.568 870.916 624.582 863.698 628.639 857.85L595.656 838.807L597.299 835.961L630.673 855.229C634.255 851.095 638.974 847.873 644.519 846.103L634.212 807.637L637.387 806.786Z" fill="#FFD700"/>
</g>
<rect x="693.782" y="552.795" width="156.716" height="49.4906" transform="rotate(131.503 693.782 552.795)" fill="url(#paint0_linear_5410_14248)"/>
<g filter="url(#filter5_dd_5410_14248)">
<path fill-rule="evenodd" clip-rule="evenodd" d="M578.253 678.033C573.462 677.855 569.109 675.573 564.814 673.51C560.628 671.5 556.57 669.269 553.292 666.046C549.945 662.756 546.825 659.025 545.554 654.575C544.296 650.169 545.48 645.549 546.148 641.024C546.798 636.612 547.195 632.079 549.444 628.19C551.702 624.283 555.442 621.505 559.05 618.705C562.77 615.818 566.367 612.357 571.038 611.432C575.705 610.508 580.335 612.632 585 613.566C589.686 614.503 594.795 614.377 598.753 616.978C602.732 619.592 605.044 623.955 607.166 628.132C609.217 632.167 610.27 636.515 610.94 640.965C611.627 645.526 612.471 650.209 611.157 654.639C609.832 659.11 606.706 662.83 603.444 666.245C600.204 669.637 596.458 672.518 592.162 674.528C587.801 676.569 583.093 678.214 578.253 678.033Z" fill="url(#paint1_diamond_5410_14248)"/>
</g>
<rect x="1265.19" y="225.393" width="223.667" height="44.356" transform="rotate(131.503 1265.19 225.393)" fill="url(#paint2_linear_5410_14248)"/>
<g filter="url(#filter6_dd_5410_14248)">
<path fill-rule="evenodd" clip-rule="evenodd" d="M1105.26 399.989C1101.19 399.837 1097.49 397.897 1093.84 396.144C1090.28 394.436 1086.83 392.539 1084.05 389.8C1081.2 387.004 1078.55 383.832 1077.47 380.05C1076.4 376.305 1077.41 372.378 1077.98 368.532C1078.53 364.782 1078.87 360.929 1080.78 357.624C1082.7 354.303 1085.87 351.942 1088.94 349.562C1092.1 347.108 1095.16 344.167 1099.13 343.38C1103.1 342.595 1107.03 344.4 1111 345.194C1114.98 345.991 1119.32 345.883 1122.68 348.094C1126.07 350.316 1128.03 354.025 1129.84 357.574C1131.58 361.004 1132.47 364.7 1133.04 368.482C1133.63 372.358 1134.34 376.339 1133.23 380.104C1132.1 383.904 1129.44 387.067 1126.67 389.969C1123.92 392.852 1120.73 395.3 1117.08 397.009C1113.38 398.744 1109.38 400.142 1105.26 399.989Z" fill="url(#paint3_diamond_5410_14248)"/>
</g>
<g filter="url(#filter7_dd_5410_14248)">
<path d="M1440.06 939.693C1445.56 964.747 1430.04 989.448 1405.38 994.865C1380.72 1000.28 1356.27 984.362 1350.77 959.308C1345.26 934.254 1360.79 909.553 1385.45 904.136C1410.1 898.719 1434.55 914.638 1440.06 939.693Z" fill="#958BEC"/>
<path d="M1470.15 939.218C1471.96 947.489 1458.24 958.055 1436.45 966.764M1365.39 982.375C1341.96 983.6 1325.07 979.76 1323.25 971.489M1463.07 907.024C1465.74 919.147 1435.01 936.199 1394.45 945.11C1353.89 954.022 1318.84 951.418 1316.18 939.295M1353.16 935.638C1330.74 936.555 1314.73 932.702 1312.96 924.662M1438.66 940C1440.56 948.635 1439.88 957.222 1437.14 964.939C1426.82 969.157 1414.57 972.972 1401.21 975.905C1387.86 978.839 1375.13 980.513 1364 981.009C1358.28 975.147 1354.06 967.636 1352.17 959.001C1351.64 956.602 1351.31 954.207 1351.17 951.833C1363.83 951.736 1378.89 949.995 1394.76 946.509C1410.62 943.024 1425.03 938.292 1436.56 933.074C1437.43 935.289 1438.13 937.601 1438.66 940ZM1366.89 983.726C1377.54 983.084 1389.44 981.426 1401.83 978.704C1414.22 975.981 1425.72 972.499 1435.65 968.619C1430.06 980.871 1419.08 990.388 1405.07 993.466C1391.06 996.544 1377.11 992.504 1366.89 983.726ZM1394.14 943.711C1378.39 947.171 1363.52 948.878 1351.09 948.968C1351.11 944.893 1351.67 940.902 1352.73 937.089C1364.33 936.648 1377.62 934.933 1391.54 931.876L1390.93 929.078C1377.55 932.017 1364.79 933.692 1353.64 934.184C1358.58 920.123 1370.33 908.925 1385.75 905.535C1406.31 901.019 1426.75 911.824 1435.43 930.441C1424.11 935.566 1409.89 940.252 1394.14 943.711Z" stroke="white" stroke-width="2.86492"/>
</g>
<g filter="url(#filter8_dd_5410_14248)">
<path d="M254.5 353L258.673 382.756L288.263 377.53L261.253 390.694L275.366 417.22L254.5 395.6L233.634 417.22L247.747 390.694L220.737 377.53L250.327 382.756L254.5 353Z" fill="#FCFCF7"/>
</g>
<path d="M1285.5 1612L1030 1429" stroke="white" stroke-width="3"/>
<path d="M1028.5 1286L1323.5 991" stroke="white" stroke-width="3"/>
<path d="M1301 932L739 879.5" stroke="white" stroke-width="3"/>
<path d="M613 802L597.5 712.5" stroke="white" stroke-width="3"/>
<path d="M525 585L297 415" stroke="white" stroke-width="3"/>
<path d="M302.5 367.5L751 214" stroke="white" stroke-width="3"/>
<path d="M835 228.5L1049.5 343" stroke="white" stroke-width="3"/>
<path d="M1168 369L1364.5 292.5" stroke="white" stroke-width="3"/>
<defs>
<filter id="filter0_dd_5410_14248" x="1299.76" y="1608.76" width="59.48" height="59.48" filterUnits="userSpaceOnUse" color-interpolation-filters="sRGB">
<feFlood flood-opacity="0" result="BackgroundImageFix"/>
<feColorMatrix in="SourceAlpha" type="matrix" values="0 0 0 0 0 0 0 0 0 0 0 0 0 0 0 0 0 0 127 0" result="hardAlpha"/>
<feOffset/>
<feGaussianBlur stdDeviation="3.06"/>
<feColorMatrix type="matrix" values="0 0 0 0 0.890196 0 0 0 0 0.0235294 0 0 0 0 0.0745098 0 0 0 1 0"/>
<feBlend mode="normal" in2="BackgroundImageFix" result="effect1_dropShadow_5410_14248"/>
<feColorMatrix in="SourceAlpha" type="matrix" values="0 0 0 0 0 0 0 0 0 0 0 0 0 0 0 0 0 0 127 0" result="hardAlpha"/>
<feOffset/>
<feGaussianBlur stdDeviation="6.12"/>
<feColorMatrix type="matrix" values="0 0 0 0 0.890196 0 0 0 0 0.0235294 0 0 0 0 0.0745098 0 0 0 1 0"/>
<feBlend mode="normal" in2="effect1_dropShadow_5410_14248" result="effect2_dropShadow_5410_14248"/>
<feBlend mode="normal" in="SourceGraphic" in2="effect2_dropShadow_5410_14248" result="shape"/>
</filter>
<filter id="filter1_dd_5410_14248" x="757.6" y="146.6" width="81.8" height="81.8" filterUnits="userSpaceOnUse" color-interpolation-filters="sRGB">
<feFlood flood-opacity="0" result="BackgroundImageFix"/>
<feColorMatrix in="SourceAlpha" type="matrix" values="0 0 0 0 0 0 0 0 0 0 0 0 0 0 0 0 0 0 127 0" result="hardAlpha"/>
<feOffset/>
<feGaussianBlur stdDeviation="3.6"/>
<feColorMatrix type="matrix" values="0 0 0 0 0 0 0 0 0 0.756863 0 0 0 0 1 0 0 0 1 0"/>
<feBlend mode="normal" in2="BackgroundImageFix" result="effect1_dropShadow_5410_14248"/>
<feColorMatrix in="SourceAlpha" type="matrix" values="0 0 0 0 0 0 0 0 0 0 0 0 0 0 0 0 0 0 127 0" result="hardAlpha"/>
<feOffset/>
<feGaussianBlur stdDeviation="7.2"/>
<feColorMatrix type="matrix" values="0 0 0 0 0 0 0 0 0 0.756863 0 0 0 0 1 0 0 0 1 0"/>
<feBlend mode="normal" in2="effect1_dropShadow_5410_14248" result="effect2_dropShadow_5410_14248"/>
<feBlend mode="normal" in="SourceGraphic" in2="effect2_dropShadow_5410_14248" result="shape"/>
</filter>
<filter id="filter2_dd_5410_14248" x="750.659" y="1252.29" width="348.651" height="236.084" filterUnits="userSpaceOnUse" color-interpolation-filters="sRGB">
<feFlood flood-opacity="0" result="BackgroundImageFix"/>
<feColorMatrix in="SourceAlpha" type="matrix" values="0 0 0 0 0 0 0 0 0 0 0 0 0 0 0 0 0 0 127 0" result="hardAlpha"/>
<feOffset/>
<feGaussianBlur stdDeviation="9.25605"/>
<feColorMatrix type="matrix" values="0 0 0 0 1 0 0 0 0 0.658824 0 0 0 0 0 0 0 0 1 0"/>
<feBlend mode="normal" in2="BackgroundImageFix" result="effect1_dropShadow_5410_14248"/>
<feColorMatrix in="SourceAlpha" type="matrix" values="0 0 0 0 0 0 0 0 0 0 0 0 0 0 0 0 0 0 127 0" result="hardAlpha"/>
<feOffset/>
<feGaussianBlur stdDeviation="18.5121"/>
<feColorMatrix type="matrix" values="0 0 0 0 1 0 0 0 0 0.658824 0 0 0 0 0 0 0 0 1 0"/>
<feBlend mode="normal" in2="effect1_dropShadow_5410_14248" result="effect2_dropShadow_5410_14248"/>
<feBlend mode="normal" in="SourceGraphic" in2="effect2_dropShadow_5410_14248" result="shape"/>
</filter>
<filter id="filter3_dd_5410_14248" x="1368.29" y="248.459" width="55.9002" height="55.8999" filterUnits="userSpaceOnUse" color-interpolation-filters="sRGB">
<feFlood flood-opacity="0" result="BackgroundImageFix"/>
<feColorMatrix in="SourceAlpha" type="matrix" values="0 0 0 0 0 0 0 0 0 0 0 0 0 0 0 0 0 0 127 0" result="hardAlpha"/>
<feOffset/>
<feGaussianBlur stdDeviation="3.06"/>
<feColorMatrix type="matrix" values="0 0 0 0 0.0196078 0 0 0 0 1 0 0 0 0 0 0 0 0 1 0"/>
<feBlend mode="normal" in2="BackgroundImageFix" result="effect1_dropShadow_5410_14248"/>
<feColorMatrix in="SourceAlpha" type="matrix" values="0 0 0 0 0 0 0 0 0 0 0 0 0 0 0 0 0 0 127 0" result="hardAlpha"/>
<feOffset/>
<feGaussianBlur stdDeviation="6.12"/>
<feColorMatrix type="matrix" values="0 0 0 0 0.0196078 0 0 0 0 1 0 0 0 0 0 0 0 0 1 0"/>
<feBlend mode="normal" in2="effect1_dropShadow_5410_14248" result="effect2_dropShadow_5410_14248"/>
<feBlend mode="normal" in="SourceGraphic" in2="effect2_dropShadow_5410_14248" result="shape"/>
</filter>
<filter id="filter4_dd_5410_14248" x="557.965" y="776.814" width="193.56" height="193.56" filterUnits="userSpaceOnUse" color-interpolation-filters="sRGB">
<feFlood flood-opacity="0" result="BackgroundImageFix"/>
<feColorMatrix in="SourceAlpha" type="matrix" values="0 0 0 0 0 0 0 0 0 0 0 0 0 0 0 0 0 0 127 0" result="hardAlpha"/>
<feOffset/>
<feGaussianBlur stdDeviation="7.49286"/>
<feColorMatrix type="matrix" values="0 0 0 0 1 0 0 0 0 0.843137 0 0 0 0 0 0 0 0 1 0"/>
<feBlend mode="normal" in2="BackgroundImageFix" result="effect1_dropShadow_5410_14248"/>
<feColorMatrix in="SourceAlpha" type="matrix" values="0 0 0 0 0 0 0 0 0 0 0 0 0 0 0 0 0 0 127 0" result="hardAlpha"/>
<feOffset/>
<feGaussianBlur stdDeviation="14.9857"/>
<feColorMatrix type="matrix" values="0 0 0 0 1 0 0 0 0 0.843137 0 0 0 0 0 0 0 0 1 0"/>
<feBlend mode="normal" in2="effect1_dropShadow_5410_14248" result="effect2_dropShadow_5410_14248"/>
<feBlend mode="normal" in="SourceGraphic" in2="effect2_dropShadow_5410_14248" result="shape"/>
</filter>
<filter id="filter5_dd_5410_14248" x="536.002" y="602.205" width="84.8442" height="84.8406" filterUnits="userSpaceOnUse" color-interpolation-filters="sRGB">
<feFlood flood-opacity="0" result="BackgroundImageFix"/>
<feColorMatrix in="SourceAlpha" type="matrix" values="0 0 0 0 0 0 0 0 0 0 0 0 0 0 0 0 0 0 127 0" result="hardAlpha"/>
<feOffset/>
<feGaussianBlur stdDeviation="2.2496"/>
<feColorMatrix type="matrix" values="0 0 0 0 1 0 0 0 0 0.231373 0 0 0 0 0 0 0 0 1 0"/>
<feBlend mode="normal" in2="BackgroundImageFix" result="effect1_dropShadow_5410_14248"/>
<feColorMatrix in="SourceAlpha" type="matrix" values="0 0 0 0 0 0 0 0 0 0 0 0 0 0 0 0 0 0 127 0" result="hardAlpha"/>
<feOffset/>
<feGaussianBlur stdDeviation="4.49921"/>
<feColorMatrix type="matrix" values="0 0 0 0 1 0 0 0 0 0.231373 0 0 0 0 0 0 0 0 1 0"/>
<feBlend mode="normal" in2="effect1_dropShadow_5410_14248" result="effect2_dropShadow_5410_14248"/>
<feBlend mode="normal" in="SourceGraphic" in2="effect2_dropShadow_5410_14248" result="shape"/>
</filter>
<filter id="filter6_dd_5410_14248" x="1074.36" y="340.541" width="62.1022" height="62.1032" filterUnits="userSpaceOnUse" color-interpolation-filters="sRGB">
<feFlood flood-opacity="0" result="BackgroundImageFix"/>
<feColorMatrix in="SourceAlpha" type="matrix" values="0 0 0 0 0 0 0 0 0 0 0 0 0 0 0 0 0 0 127 0" result="hardAlpha"/>
<feOffset/>
<feGaussianBlur stdDeviation="0.661092"/>
<feColorMatrix type="matrix" values="0 0 0 0 0.796078 0 0 0 0 0.886275 0 0 0 0 1 0 0 0 1 0"/>
<feBlend mode="normal" in2="BackgroundImageFix" result="effect1_dropShadow_5410_14248"/>
<feColorMatrix in="SourceAlpha" type="matrix" values="0 0 0 0 0 0 0 0 0 0 0 0 0 0 0 0 0 0 127 0" result="hardAlpha"/>
<feOffset/>
<feGaussianBlur stdDeviation="1.32218"/>
<feColorMatrix type="matrix" values="0 0 0 0 0.796078 0 0 0 0 0.886275 0 0 0 0 1 0 0 0 1 0"/>
<feBlend mode="normal" in2="effect1_dropShadow_5410_14248" result="effect2_dropShadow_5410_14248"/>
<feBlend mode="normal" in="SourceGraphic" in2="effect2_dropShadow_5410_14248" result="shape"/>
</filter>
<filter id="filter7_dd_5410_14248" x="1276.87" y="866.983" width="229.534" height="165.035" filterUnits="userSpaceOnUse" color-interpolation-filters="sRGB">
<feFlood flood-opacity="0" result="BackgroundImageFix"/>
<feColorMatrix in="SourceAlpha" type="matrix" values="0 0 0 0 0 0 0 0 0 0 0 0 0 0 0 0 0 0 127 0" result="hardAlpha"/>
<feOffset/>
<feGaussianBlur stdDeviation="9.02385"/>
<feColorMatrix type="matrix" values="0 0 0 0 0.584314 0 0 0 0 0.545098 0 0 0 0 0.92549 0 0 0 1 0"/>
<feBlend mode="normal" in2="BackgroundImageFix" result="effect1_dropShadow_5410_14248"/>
<feColorMatrix in="SourceAlpha" type="matrix" values="0 0 0 0 0 0 0 0 0 0 0 0 0 0 0 0 0 0 127 0" result="hardAlpha"/>
<feOffset/>
<feGaussianBlur stdDeviation="18.0477"/>
<feColorMatrix type="matrix" values="0 0 0 0 0.584314 0 0 0 0 0.545098 0 0 0 0 0.92549 0 0 0 1 0"/>
<feBlend mode="normal" in2="effect1_dropShadow_5410_14248" result="effect2_dropShadow_5410_14248"/>
<feBlend mode="normal" in="SourceGraphic" in2="effect2_dropShadow_5410_14248" result="shape"/>
</filter>
<filter id="filter8_dd_5410_14248" x="213.538" y="345.8" width="81.9249" height="78.6207" filterUnits="userSpaceOnUse" color-interpolation-filters="sRGB">
<feFlood flood-opacity="0" result="BackgroundImageFix"/>
<feColorMatrix in="SourceAlpha" type="matrix" values="0 0 0 0 0 0 0 0 0 0 0 0 0 0 0 0 0 0 127 0" result="hardAlpha"/>
<feOffset/>
<feGaussianBlur stdDeviation="1.8"/>
<feColorMatrix type="matrix" values="0 0 0 0 0.988235 0 0 0 0 0.988235 0 0 0 0 0.968627 0 0 0 1 0"/>
<feBlend mode="normal" in2="BackgroundImageFix" result="effect1_dropShadow_5410_14248"/>
<feColorMatrix in="SourceAlpha" type="matrix" values="0 0 0 0 0 0 0 0 0 0 0 0 0 0 0 0 0 0 127 0" result="hardAlpha"/>
<feOffset/>
<feGaussianBlur stdDeviation="3.6"/>
<feColorMatrix type="matrix" values="0 0 0 0 0.988235 0 0 0 0 0.988235 0 0 0 0 0.968627 0 0 0 1 0"/>
<feBlend mode="normal" in2="effect1_dropShadow_5410_14248" result="effect2_dropShadow_5410_14248"/>
<feBlend mode="normal" in="SourceGraphic" in2="effect2_dropShadow_5410_14248" result="shape"/>
</filter>
<linearGradient id="paint0_linear_5410_14248" x1="849.857" y1="560.357" x2="719.622" y2="555.36" gradientUnits="userSpaceOnUse">
<stop stop-color="#FFC700"/>
<stop offset="1" stop-color="#FF1010" stop-opacity="0"/>
</linearGradient>
<radialGradient id="paint1_diamond_5410_14248" cx="0" cy="0" r="1" gradientUnits="userSpaceOnUse" gradientTransform="translate(565.89 665.514) rotate(-64.8837) scale(73.8231 73.8263)">
<stop stop-color="#FFFB9E"/>
<stop offset="1" stop-color="white"/>
</radialGradient>
<linearGradient id="paint2_linear_5410_14248" x1="1487.94" y1="232.17" x2="1302.49" y2="220.838" gradientUnits="userSpaceOnUse">
<stop stop-color="#D7F5FF"/>
<stop offset="1" stop-color="#356EFF" stop-opacity="0"/>
</linearGradient>
<radialGradient id="paint3_diamond_5410_14248" cx="0" cy="0" r="1" gradientUnits="userSpaceOnUse" gradientTransform="translate(1094.75 389.347) rotate(-64.8851) scale(62.7456)">
<stop stop-color="#E9F2FF"/>
<stop offset="1" stop-color="#BCDBFF"/>
</radialGradient>
</defs>
</svg>
