<svg viewBox="0 0 833 782" fill="none" xmlns="http://www.w3.org/2000/svg">
<path d="M699.225 120.204L463.753 423.407L410.978 370.203L646.45 67L699.225 120.204Z" fill="url(#paint0_linear_5160_16501)"/>
<g filter="url(#filter0_dddddd_5160_16501)">
<path fill-rule="evenodd" clip-rule="evenodd" d="M448.708 436.546C441.464 436.271 434.885 432.755 428.391 429.577C422.063 426.481 415.928 423.044 410.973 418.078C405.914 413.009 401.197 407.261 399.276 400.405C397.375 393.618 399.165 386.5 400.173 379.529C401.156 372.731 401.757 365.749 405.156 359.756C408.57 353.739 414.224 349.459 419.678 345.145C425.302 340.697 430.739 335.365 437.8 333.94C444.855 332.515 451.855 335.788 458.907 337.227C465.99 338.671 473.713 338.476 479.697 342.484C485.711 346.511 489.208 353.233 492.415 359.667C495.515 365.884 497.108 372.583 498.121 379.438C499.159 386.464 500.435 393.679 498.449 400.504C496.445 407.392 491.719 413.124 486.788 418.385C481.891 423.611 476.227 428.048 469.733 431.146C463.141 434.289 456.024 436.823 448.708 436.546Z" fill="url(#paint1_diamond_5160_16501)"/>
</g>
<path d="M24.8706 123.783C18.5285 123.783 13.4395 122.045 9.60362 118.569C5.76769 115.042 3.84973 109.726 3.84973 102.62V89.1254C3.84973 82.2246 5.76769 76.9851 9.60362 73.4069C13.4395 69.7775 18.5285 67.9629 24.8706 67.9629C31.2638 67.9629 36.3528 69.7775 40.1376 73.4069C43.9735 76.9851 45.8915 82.2246 45.8915 89.1254V102.62C45.8915 109.726 43.9735 115.042 40.1376 118.569C36.3528 122.045 31.2638 123.783 24.8706 123.783ZM24.8706 115.042C28.7065 115.042 31.5195 113.994 33.3096 111.898C35.1509 109.802 36.0715 106.812 36.0715 102.927V88.6653C36.0715 84.7293 35.0486 81.7645 33.0028 79.7709C31.0081 77.7263 28.2974 76.7039 24.8706 76.7039C21.3416 76.7039 18.5797 77.7518 16.585 79.8476C14.6415 81.9434 13.6697 84.8827 13.6697 88.6653V102.927C13.6697 106.965 14.5903 110.007 16.4316 112.051C18.324 114.045 21.137 115.042 24.8706 115.042Z" fill="white"/>
<path d="M82.5198 123.783C78.4281 123.783 74.8735 123.016 71.8559 121.483C68.8383 119.949 66.5112 117.828 64.8745 115.118C63.2379 112.409 62.4195 109.291 62.4195 105.764V87.4385C62.4195 83.0936 63.289 79.4898 65.028 76.6272C66.8181 73.7136 69.2475 71.5411 72.3162 70.1098C75.4361 68.6785 78.9907 67.9629 82.9801 67.9629C86.9695 67.9629 90.4218 68.6274 93.3371 69.9565C96.3036 71.2855 98.5795 73.2024 100.165 75.7071C101.802 78.2119 102.62 81.2022 102.62 84.6782H92.6466C92.6466 82.5313 91.905 80.6655 90.4218 79.0809C88.9386 77.4962 86.458 76.7039 82.9801 76.7039C79.5533 76.7039 76.8938 77.5985 75.0014 79.3876C73.1601 81.1767 72.2395 83.6558 72.2395 86.8251V92.3458H73.6204C74.4899 91.3234 75.8197 90.3522 77.6098 89.4321C79.3999 88.512 82.0083 88.0519 85.4351 88.0519C88.555 88.0519 91.4191 88.7164 94.0276 90.0455C96.6871 91.3745 98.8353 93.317 100.472 95.8728C102.109 98.3776 102.927 101.419 102.927 104.997V105.917C102.927 109.444 102.083 112.563 100.395 115.272C98.7074 117.93 96.3291 120.026 93.2604 121.559C90.1916 123.042 86.6114 123.783 82.5198 123.783ZM82.6732 115.042C85.8954 115.042 88.4271 114.198 90.2684 112.511C92.1607 110.825 93.1069 108.575 93.1069 105.764V105.151C93.1069 103.259 92.6722 101.624 91.8027 100.243C90.9844 98.8632 89.7825 97.7897 88.197 97.023C86.6626 96.2562 84.8213 95.8728 82.6732 95.8728C80.5762 95.8728 78.735 96.2562 77.1495 97.023C75.564 97.7897 74.3365 98.8632 73.467 100.243C72.6487 101.624 72.2395 103.259 72.2395 105.151V105.764C72.2395 108.575 73.1601 110.825 75.0014 112.511C76.8938 114.198 79.451 115.042 82.6732 115.042Z" fill="white"/>
<path d="M126.112 123.783C124.066 123.783 122.327 123.118 120.895 121.789C119.514 120.409 118.824 118.646 118.824 116.499C118.824 114.352 119.514 112.614 120.895 111.285C122.327 109.904 124.066 109.214 126.112 109.214C128.209 109.214 129.948 109.904 131.329 111.285C132.71 112.614 133.4 114.352 133.4 116.499C133.4 118.646 132.71 120.409 131.329 121.789C129.948 123.118 128.209 123.783 126.112 123.783Z" fill="white"/>
<path d="M170.312 123.783C163.97 123.783 158.881 122.045 155.045 118.569C151.209 115.042 149.291 109.726 149.291 102.62V89.1254C149.291 82.2246 151.209 76.9851 155.045 73.4069C158.881 69.7775 163.97 67.9629 170.312 67.9629C176.705 67.9629 181.794 69.7775 185.579 73.4069C189.415 76.9851 191.333 82.2246 191.333 89.1254V102.62C191.333 109.726 189.415 115.042 185.579 118.569C181.794 122.045 176.705 123.783 170.312 123.783ZM170.312 115.042C174.148 115.042 176.961 113.994 178.751 111.898C180.592 109.802 181.513 106.812 181.513 102.927V88.6653C181.513 84.7293 180.49 81.7645 178.444 79.7709C176.45 77.7263 173.739 76.7039 170.312 76.7039C166.783 76.7039 164.021 77.7518 162.027 79.8476C160.083 81.9434 159.111 84.8827 159.111 88.6653V102.927C159.111 106.965 160.032 110.007 161.873 112.051C163.766 114.045 166.579 115.042 170.312 115.042Z" fill="white"/>
<path d="M227.271 123.783C223.077 123.783 219.446 123.042 216.377 121.559C213.359 120.077 211.032 117.981 209.395 115.272C207.759 112.563 206.94 109.419 206.94 105.841V105.074H216.914V105.764C216.914 108.32 217.758 110.518 219.446 112.358C221.185 114.147 223.742 115.042 227.117 115.042C230.493 115.042 233.076 114.147 234.866 112.358C236.707 110.518 237.628 108.141 237.628 105.227V104.461C237.628 101.598 236.707 99.3232 234.866 97.6364C233.076 95.9495 230.825 95.1061 228.115 95.1061C226.632 95.1061 225.404 95.3106 224.432 95.7195C223.461 96.1284 222.668 96.6396 222.054 97.253C221.44 97.8664 220.929 98.4798 220.52 99.0932H208.628V69.0363H245.3V77.9307H218.448V91.0423H219.829C220.341 90.3777 221.031 89.7388 221.901 89.1254C222.77 88.512 223.895 88.0008 225.276 87.5919C226.657 87.1829 228.294 86.9785 230.186 86.9785C233.357 86.9785 236.247 87.643 238.855 88.972C241.464 90.3011 243.535 92.2691 245.07 94.8761C246.655 97.4319 247.448 100.601 247.448 104.384V105.304C247.448 109.087 246.63 112.358 244.993 115.118C243.407 117.879 241.106 120.026 238.088 121.559C235.071 123.042 231.465 123.783 227.271 123.783Z" fill="white"/>
<path d="M270.28 123.783C268.234 123.783 266.495 123.118 265.063 121.789C263.682 120.409 262.992 118.646 262.992 116.499C262.992 114.352 263.682 112.614 265.063 111.285C266.495 109.904 268.234 109.214 270.28 109.214C272.377 109.214 274.116 109.904 275.497 111.285C276.878 112.614 277.568 114.352 277.568 116.499C277.568 118.646 276.878 120.409 275.497 121.789C274.116 123.118 272.377 123.783 270.28 123.783Z" fill="white"/>
<path d="M293.744 122.709V116.269C293.744 112.537 294.358 109.444 295.586 106.991C296.813 104.486 298.578 102.441 300.879 100.857C303.232 99.221 306.096 97.892 309.472 96.8696L314.612 95.2594C316.504 94.646 318.09 93.9048 319.368 93.0358C320.647 92.1157 321.619 91.0167 322.284 89.7388C323 88.4609 323.358 87.004 323.358 85.3683V85.0616C323.358 82.5057 322.488 80.4866 320.749 79.0042C319.01 77.4707 316.632 76.7039 313.615 76.7039C310.648 76.7039 308.244 77.5218 306.403 79.1575C304.613 80.7422 303.718 83.0424 303.718 86.0584V87.4385H293.898V86.2117C293.898 82.3268 294.767 79.0297 296.506 76.3205C298.245 73.6113 300.598 71.5411 303.564 70.1098C306.582 68.6785 309.932 67.9629 313.615 67.9629C317.297 67.9629 320.622 68.6785 323.588 70.1098C326.554 71.49 328.882 73.458 330.569 76.0138C332.308 78.5186 333.178 81.4834 333.178 84.9082V85.675C333.178 89.0998 332.462 92.0135 331.03 94.416C329.649 96.7674 327.756 98.7098 325.353 100.243C322.949 101.726 320.212 102.953 317.144 103.924L312.234 105.457C310.034 106.122 308.321 106.863 307.093 107.681C305.866 108.448 304.997 109.317 304.485 110.288C304.025 111.208 303.795 112.333 303.795 113.662V113.968H332.717V122.709H293.744Z" fill="white"/>
<path d="M369.753 123.783C363.411 123.783 358.322 122.045 354.486 118.569C350.65 115.042 348.732 109.726 348.732 102.62V89.1254C348.732 82.2246 350.65 76.9851 354.486 73.4069C358.322 69.7775 363.411 67.9629 369.753 67.9629C376.147 67.9629 381.236 69.7775 385.02 73.4069C388.856 76.9851 390.774 82.2246 390.774 89.1254V102.62C390.774 109.726 388.856 115.042 385.02 118.569C381.236 122.045 376.147 123.783 369.753 123.783ZM369.753 115.042C373.589 115.042 376.402 113.994 378.192 111.898C380.034 109.802 380.954 106.812 380.954 102.927V88.6653C380.954 84.7293 379.931 81.7645 377.886 79.7709C375.891 77.7263 373.18 76.7039 369.753 76.7039C366.224 76.7039 363.462 77.7518 361.468 79.8476C359.524 81.9434 358.552 84.8827 358.552 88.6653V102.927C358.552 106.965 359.473 110.007 361.314 112.051C363.207 114.045 366.02 115.042 369.753 115.042Z" fill="white"/>
<path d="M406.689 122.709V116.269C406.689 112.537 407.302 109.444 408.53 106.991C409.757 104.486 411.522 102.441 413.823 100.857C416.176 99.221 419.04 97.892 422.416 96.8696L427.556 95.2594C429.448 94.646 431.034 93.9048 432.313 93.0358C433.591 92.1157 434.563 91.0167 435.228 89.7388C435.944 88.4609 436.302 87.004 436.302 85.3683V85.0616C436.302 82.5057 435.432 80.4866 433.693 79.0042C431.954 77.4707 429.576 76.7039 426.559 76.7039C423.592 76.7039 421.188 77.5218 419.347 79.1575C417.557 80.7422 416.662 83.0424 416.662 86.0584V87.4385H406.842V86.2117C406.842 82.3268 407.711 79.0297 409.45 76.3205C411.189 73.6113 413.542 71.5411 416.509 70.1098C419.526 68.6785 422.876 67.9629 426.559 67.9629C430.241 67.9629 433.566 68.6785 436.532 70.1098C439.498 71.49 441.826 73.458 443.513 76.0138C445.252 78.5186 446.122 81.4834 446.122 84.9082V85.675C446.122 89.0998 445.406 92.0135 443.974 94.416C442.593 96.7674 440.7 98.7098 438.297 100.243C435.893 101.726 433.156 102.953 430.088 103.924L425.178 105.457C422.978 106.122 421.265 106.863 420.038 107.681C418.81 108.448 417.941 109.317 417.429 110.288C416.969 111.208 416.739 112.333 416.739 113.662V113.968H445.662V122.709H406.689Z" fill="white"/>
<path d="M481.163 123.783C477.122 123.783 473.542 123.067 470.422 121.636C467.303 120.205 464.848 118.16 463.057 115.502C461.319 112.793 460.449 109.598 460.449 105.917V104.537H470.269V105.611C470.269 108.473 471.266 110.773 473.261 112.511C475.256 114.198 477.89 115.042 481.163 115.042C484.487 115.042 487.045 114.249 488.835 112.665C490.676 111.08 491.597 109.087 491.597 106.684V105.917C491.597 104.282 491.188 102.953 490.369 101.93C489.551 100.908 488.451 100.167 487.07 99.7066C485.689 99.1955 484.129 98.9399 482.391 98.9399H471.65V88.2053L488.988 79.0042V77.7774H461.83V69.0363H499.882V82.0712L483.695 90.6589V91.8857H486.533C488.937 91.8857 491.264 92.3713 493.515 93.3425C495.816 94.3138 497.709 95.8217 499.192 97.8664C500.675 99.86 501.417 102.467 501.417 105.687V106.607C501.417 110.083 500.573 113.125 498.885 115.732C497.197 118.288 494.819 120.281 491.75 121.713C488.733 123.093 485.204 123.783 481.163 123.783Z" fill="white"/>
<path d="M27.1688 676.207C23.1094 676.207 19.4614 675.385 16.2249 673.74C12.9883 672.096 10.4374 669.712 8.5723 666.587C6.70717 663.463 5.7746 659.708 5.7746 655.323V654.007C5.7746 649.622 6.70717 645.867 8.5723 642.742C10.4374 639.618 12.9883 637.233 16.2249 635.589C19.4614 633.945 23.1094 633.122 27.1688 633.122C31.2282 633.122 34.8762 633.945 38.1128 635.589C41.3493 637.233 43.9002 639.618 45.7653 642.742C47.6305 645.867 48.563 649.622 48.563 654.007V655.323C48.563 659.708 47.6305 663.463 45.7653 666.587C43.9002 669.712 41.3493 672.096 38.1128 673.74C34.8762 675.385 31.2282 676.207 27.1688 676.207ZM27.1688 666.998C30.3505 666.998 32.9837 665.984 35.0682 663.956C37.1528 661.873 38.1951 658.913 38.1951 655.076V654.254C38.1951 650.417 37.1528 647.484 35.0682 645.456C33.0385 643.373 30.4054 642.331 27.1688 642.331C23.9871 642.331 21.354 643.373 19.2694 645.456C17.1848 647.484 16.1426 650.417 16.1426 654.254V655.076C16.1426 658.913 17.1848 661.873 19.2694 663.956C21.354 665.984 23.9871 666.998 27.1688 666.998Z" fill="white"/>
<path d="M55.6647 675.056V617.5H66.0326V675.056H55.6647Z" fill="white"/>
<path d="M90.6874 675.056C87.9994 675.056 85.8051 674.234 84.1046 672.589C82.4589 670.89 81.636 668.643 81.636 665.847V642.825H71.4326V634.273H81.636V621.611H92.004V634.273H103.195V642.825H92.004V664.038C92.004 665.683 92.772 666.505 94.308 666.505H102.207V675.056H90.6874Z" fill="white"/>
<path d="M110.111 675.056V634.273H120.315V638.878H121.796C122.399 637.233 123.387 636.028 124.758 635.26C126.184 634.493 127.83 634.109 129.695 634.109H134.632V643.318H129.531C126.898 643.318 124.731 644.031 123.03 645.456C121.33 646.826 120.479 648.964 120.479 651.869V675.056H110.111Z" fill="white"/>
<path d="M157.418 676.207C153.358 676.207 149.765 675.357 146.638 673.658C143.566 671.904 141.153 669.465 139.397 666.34C137.697 663.161 136.846 659.434 136.846 655.158V654.171C136.846 649.896 137.697 646.196 139.397 643.071C141.098 639.892 143.484 637.453 146.556 635.753C149.628 633.999 153.194 633.122 157.253 633.122C161.258 633.122 164.741 634.027 167.703 635.836C170.666 637.59 172.97 640.056 174.615 643.236C176.261 646.36 177.084 650.005 177.084 654.171V657.707H147.379C147.489 660.503 148.531 662.777 150.506 664.531C152.481 666.286 154.894 667.163 157.747 667.163C160.654 667.163 162.794 666.532 164.165 665.271C165.537 664.011 166.579 662.613 167.292 661.078L175.767 665.518C174.999 666.943 173.875 668.506 172.394 670.205C170.967 671.849 169.047 673.275 166.634 674.48C164.22 675.632 161.148 676.207 157.418 676.207ZM147.461 649.978H166.551C166.332 647.621 165.372 645.73 163.671 644.305C162.026 642.879 159.859 642.167 157.171 642.167C154.373 642.167 152.151 642.879 150.506 644.305C148.86 645.73 147.845 647.621 147.461 649.978Z" fill="white"/>
<path d="M4.81216 764.684V707.192H15.2068V764.684H4.81216Z" fill="white"/>
<path d="M24.9929 732.406V726.821H28.2103C30.7402 726.821 32.0052 725.562 32.0052 723.043V720.415H30.6027C28.4028 720.415 26.5604 719.758 25.0754 718.444C23.6455 717.13 22.9305 715.46 22.9305 713.434C22.9305 711.244 23.6455 709.464 25.0754 708.095C26.5604 706.726 28.4028 706.042 30.6027 706.042C32.8576 706.042 34.7001 706.754 36.13 708.177C37.56 709.546 38.2749 711.408 38.2749 713.762V723.207C38.2749 729.34 35.195 732.406 29.0353 732.406H24.9929Z" fill="white"/>
<path d="M46.0251 764.684V723.947H56.4197V764.684H46.0251ZM51.2224 719.183C49.3525 719.183 47.7575 718.581 46.4376 717.376C45.1726 716.172 44.5402 714.584 44.5402 712.613C44.5402 710.641 45.1726 709.053 46.4376 707.849C47.7575 706.644 49.3525 706.042 51.2224 706.042C53.1473 706.042 54.7423 706.644 56.0072 707.849C57.2722 709.053 57.9046 710.641 57.9046 712.613C57.9046 714.584 57.2722 716.172 56.0072 717.376C54.7423 718.581 53.1473 719.183 51.2224 719.183Z" fill="white"/>
<path d="M65.4634 764.684V723.947H75.693V728.382H77.178C77.8929 727.013 79.0754 725.836 80.7253 724.85C82.3753 723.81 84.5477 723.29 87.2426 723.29C90.1575 723.29 92.4949 723.865 94.2548 725.014C96.0147 726.109 97.3622 727.56 98.2971 729.367H99.7821C100.717 727.615 102.037 726.164 103.742 725.014C105.447 723.865 107.867 723.29 111.002 723.29C113.532 723.29 115.814 723.837 117.849 724.932C119.939 725.973 121.589 727.588 122.799 729.778C124.064 731.913 124.696 734.624 124.696 737.909V764.684H114.302V738.648C114.302 736.403 113.724 734.733 112.569 733.638C111.414 732.488 109.792 731.913 107.702 731.913C105.337 731.913 103.494 732.68 102.174 734.213C100.91 735.691 100.277 737.827 100.277 740.619V764.684H89.8825V738.648C89.8825 736.403 89.305 734.733 88.15 733.638C86.9951 732.488 85.3726 731.913 83.2827 731.913C80.9178 731.913 79.0754 732.68 77.7554 734.213C76.4905 735.691 75.858 737.827 75.858 740.619V764.684H65.4634Z" fill="white"/>
<path d="M133.401 764.684V723.947H143.63V728.382H145.115C145.83 727.013 147.013 725.836 148.663 724.85C150.313 723.81 152.485 723.29 155.18 723.29C158.095 723.29 160.432 723.865 162.192 725.014C163.952 726.109 165.3 727.56 166.235 729.367H167.719C168.654 727.615 169.974 726.164 171.679 725.014C173.384 723.865 175.804 723.29 178.939 723.29C181.469 723.29 183.751 723.837 185.786 724.932C187.876 725.973 189.526 727.588 190.736 729.778C192.001 731.913 192.633 734.624 192.633 737.909V764.684H182.239V738.648C182.239 736.403 181.661 734.733 180.506 733.638C179.352 732.488 177.729 731.913 175.639 731.913C173.274 731.913 171.432 732.68 170.112 734.213C168.847 735.691 168.214 737.827 168.214 740.619V764.684H157.82V738.648C157.82 736.403 157.242 734.733 156.087 733.638C154.932 732.488 153.31 731.913 151.22 731.913C148.855 731.913 147.013 732.68 145.693 734.213C144.428 735.691 143.795 737.827 143.795 740.619V764.684H133.401Z" fill="white"/>
<path d="M214.043 765.834C211.128 765.834 208.515 765.341 206.206 764.355C203.896 763.315 202.053 761.837 200.678 759.92C199.358 757.949 198.698 755.567 198.698 752.775C198.698 749.982 199.358 747.655 200.678 745.794C202.053 743.877 203.923 742.454 206.288 741.523C208.708 740.537 211.458 740.044 214.538 740.044H225.757V737.745C225.757 735.828 225.152 734.268 223.942 733.063C222.732 731.804 220.807 731.174 218.168 731.174C215.583 731.174 213.658 731.777 212.393 732.981C211.128 734.131 210.303 735.637 209.918 737.498L200.348 734.295C201.008 732.215 202.053 730.326 203.483 728.628C204.968 726.876 206.92 725.48 209.34 724.439C211.815 723.344 214.813 722.797 218.333 722.797C223.722 722.797 227.985 724.138 231.12 726.821C234.254 729.504 235.822 733.392 235.822 738.484V753.678C235.822 755.321 236.592 756.142 238.132 756.142H241.432V764.684H234.502C232.467 764.684 230.79 764.191 229.47 763.205C228.15 762.22 227.49 760.906 227.49 759.263V759.181H225.922C225.702 759.838 225.207 760.714 224.437 761.809C223.667 762.85 222.457 763.78 220.807 764.602C219.158 765.423 216.903 765.834 214.043 765.834ZM215.858 757.456C218.773 757.456 221.137 756.662 222.952 755.074C224.822 753.432 225.757 751.269 225.757 748.586V747.765H215.28C213.355 747.765 211.843 748.175 210.743 748.997C209.643 749.818 209.093 750.968 209.093 752.446C209.093 753.925 209.67 755.129 210.825 756.06C211.98 756.991 213.658 757.456 215.858 757.456Z" fill="white"/>
<path d="M243.771 744.48V743.165C243.771 738.895 244.624 735.253 246.329 732.242C248.034 729.176 250.288 726.849 253.093 725.261C255.953 723.618 259.061 722.797 262.415 722.797C266.155 722.797 268.988 723.454 270.913 724.768C272.838 726.082 274.24 727.451 275.12 728.875H276.605V723.947H286.835V771.911C286.835 774.704 286.01 776.921 284.36 778.564C282.71 780.261 280.51 781.11 277.76 781.11H250.371V772.076H274.13C275.67 772.076 276.44 771.254 276.44 769.612V759.017H274.955C274.405 759.893 273.635 760.796 272.645 761.727C271.655 762.603 270.335 763.342 268.685 763.945C267.035 764.547 264.945 764.848 262.415 764.848C259.061 764.848 255.953 764.054 253.093 762.466C250.288 760.824 248.034 758.497 246.329 755.485C244.624 752.419 243.771 748.75 243.771 744.48ZM265.385 755.814C268.575 755.814 271.243 754.801 273.388 752.775C275.532 750.749 276.605 747.902 276.605 744.233V743.412C276.605 739.689 275.532 736.841 273.388 734.87C271.298 732.844 268.63 731.831 265.385 731.831C262.195 731.831 259.528 732.844 257.383 734.87C255.238 736.841 254.166 739.689 254.166 743.412V744.233C254.166 747.902 255.238 750.749 257.383 752.775C259.528 754.801 262.195 755.814 265.385 755.814Z" fill="white"/>
<path d="M295.884 764.684V723.947H306.279V764.684H295.884ZM301.081 719.183C299.211 719.183 297.616 718.581 296.297 717.376C295.032 716.172 294.399 714.584 294.399 712.613C294.399 710.641 295.032 709.053 296.297 707.849C297.616 706.644 299.211 706.042 301.081 706.042C303.006 706.042 304.601 706.644 305.866 707.849C307.131 709.053 307.764 710.641 307.764 712.613C307.764 714.584 307.131 716.172 305.866 717.376C304.601 718.581 303.006 719.183 301.081 719.183Z" fill="white"/>
<path d="M315.322 764.684V723.947H325.552V729.285H327.037C327.697 727.862 328.934 726.52 330.749 725.261C332.564 723.947 335.314 723.29 338.999 723.29C342.189 723.29 344.966 724.029 347.331 725.507C349.751 726.931 351.621 728.929 352.941 731.503C354.261 734.021 354.921 736.978 354.921 740.373V764.684H344.526V741.194C344.526 738.128 343.756 735.828 342.216 734.295C340.731 732.762 338.586 731.996 335.782 731.996C332.592 731.996 330.117 733.063 328.357 735.199C326.597 737.279 325.717 740.209 325.717 743.987V764.684H315.322Z" fill="white"/>
<path d="M376.387 765.834C373.472 765.834 370.86 765.341 368.55 764.355C366.24 763.315 364.398 761.837 363.023 759.92C361.703 757.949 361.043 755.567 361.043 752.775C361.043 749.982 361.703 747.655 363.023 745.794C364.398 743.877 366.268 742.454 368.633 741.523C371.053 740.537 373.802 740.044 376.882 740.044H388.102V737.745C388.102 735.828 387.497 734.268 386.287 733.063C385.077 731.804 383.152 731.174 380.512 731.174C377.927 731.174 376.002 731.777 374.737 732.981C373.472 734.131 372.648 735.637 372.263 737.498L362.693 734.295C363.353 732.215 364.398 730.326 365.828 728.628C367.313 726.876 369.265 725.48 371.685 724.439C374.16 723.344 377.157 722.797 380.677 722.797C386.067 722.797 390.329 724.138 393.464 726.821C396.599 729.504 398.167 733.392 398.167 738.484V753.678C398.167 755.321 398.936 756.142 400.476 756.142H403.776V764.684H396.847C394.812 764.684 393.134 764.191 391.814 763.205C390.494 762.22 389.834 760.906 389.834 759.263V759.181H388.267C388.047 759.838 387.552 760.714 386.782 761.809C386.012 762.85 384.802 763.78 383.152 764.602C381.502 765.423 379.247 765.834 376.387 765.834ZM378.202 757.456C381.117 757.456 383.482 756.662 385.297 755.074C387.167 753.432 388.102 751.269 388.102 748.586V747.765H377.625C375.7 747.765 374.187 748.175 373.087 748.997C371.988 749.818 371.438 750.968 371.438 752.446C371.438 753.925 372.015 755.129 373.17 756.06C374.325 756.991 376.002 757.456 378.202 757.456Z" fill="white"/>
<path d="M408.901 764.684V723.947H419.131V728.546H420.616C421.221 726.903 422.211 725.699 423.586 724.932C425.016 724.166 426.666 723.782 428.536 723.782H433.485V732.981H428.371C425.731 732.981 423.558 733.693 421.853 735.117C420.148 736.485 419.296 738.621 419.296 741.523V764.684H408.901Z" fill="white"/>
<path d="M439.135 764.684V723.947H449.53V764.684H439.135ZM444.332 719.183C442.463 719.183 440.868 718.581 439.548 717.376C438.283 716.172 437.65 714.584 437.65 712.613C437.65 710.641 438.283 709.053 439.548 707.849C440.868 706.644 442.463 706.042 444.332 706.042C446.257 706.042 447.852 706.644 449.117 707.849C450.382 709.053 451.015 710.641 451.015 712.613C451.015 714.584 450.382 716.172 449.117 717.376C447.852 718.581 446.257 719.183 444.332 719.183Z" fill="white"/>
<path d="M478.043 765.834C473.973 765.834 470.316 765.012 467.071 763.37C463.826 761.727 461.268 759.345 459.398 756.224C457.529 753.103 456.594 749.353 456.594 744.972V743.658C456.594 739.278 457.529 735.527 459.398 732.406C461.268 729.285 463.826 726.903 467.071 725.261C470.316 723.618 473.973 722.797 478.043 722.797C482.113 722.797 485.77 723.618 489.015 725.261C492.26 726.903 494.817 729.285 496.687 732.406C498.557 735.527 499.492 739.278 499.492 743.658V744.972C499.492 749.353 498.557 753.103 496.687 756.224C494.817 759.345 492.26 761.727 489.015 763.37C485.77 765.012 482.113 765.834 478.043 765.834ZM478.043 756.635C481.233 756.635 483.873 755.622 485.962 753.596C488.052 751.515 489.097 748.559 489.097 744.726V743.905C489.097 740.072 488.052 737.142 485.962 735.117C483.928 733.036 481.288 731.996 478.043 731.996C474.853 731.996 472.213 733.036 470.123 735.117C468.033 737.142 466.988 740.072 466.988 743.905V744.726C466.988 748.559 468.033 751.515 470.123 753.596C472.213 755.622 474.853 756.635 478.043 756.635Z" fill="white"/>
<path d="M56.464 288.329C46.4045 288.329 37.5004 286.217 29.7518 281.994C22.1391 277.635 16.1578 271.574 11.8077 263.809C7.59353 255.909 5.48646 246.646 5.48646 236.02V233.569C5.48646 222.943 7.59353 213.749 11.8077 205.984C16.0218 198.083 21.9352 192.022 29.5479 187.799C37.1605 183.44 45.9966 181.26 56.0562 181.26C65.9799 181.26 74.6121 183.508 81.9528 188.003C89.2936 192.362 95.0031 198.492 99.0813 206.393C103.159 214.157 105.199 223.216 105.199 233.569V242.355H31.587C31.8589 249.302 34.4417 254.955 39.3356 259.314C44.2294 263.673 50.2108 265.853 57.2797 265.853C64.4845 265.853 69.7862 264.286 73.1847 261.153C76.5832 258.02 79.166 254.546 80.9333 250.732L101.936 261.766C100.033 265.308 97.2461 269.19 93.5757 273.413C90.0413 277.499 85.2834 281.041 79.302 284.038C73.3206 286.898 65.708 288.329 56.464 288.329ZM31.7909 223.148H79.0981C78.5543 217.29 76.1754 212.591 71.9612 209.049C67.883 205.507 62.5134 203.737 55.8523 203.737C48.9194 203.737 43.4138 205.507 39.3356 209.049C35.2574 212.591 32.7425 217.29 31.7909 223.148Z" fill="white"/>
<path d="M110.484 285.468L147.188 234.386L110.892 184.121H140.663L163.705 217.835H167.375L190.417 184.121H220.188L183.892 234.386L220.596 285.468H190.417L167.375 251.345H163.705L140.663 285.468H110.484Z" fill="white"/>
<path d="M276.834 285.468C270.173 285.468 264.735 283.425 260.521 279.338C256.443 275.115 254.404 269.53 254.404 262.583V205.371H229.119V184.121H254.404V152.654H280.096V184.121H307.828V205.371H280.096V258.088C280.096 262.175 281.999 264.218 285.806 264.218H307.828V285.468H276.834Z" fill="white"/>
<path d="M327.415 285.468V184.121H352.699V195.563H356.37C357.865 191.477 360.312 188.48 363.711 186.573C367.245 184.666 371.323 183.712 375.945 183.712H388.18V206.597H375.537C369.012 206.597 363.643 208.368 359.429 211.91C355.214 215.315 353.107 220.628 353.107 227.847V285.468H327.415Z" fill="white"/>
<path d="M435.235 288.329C428.031 288.329 421.573 287.103 415.864 284.651C410.154 282.063 405.6 278.385 402.202 273.617C398.939 268.713 397.308 262.788 397.308 255.84C397.308 248.893 398.939 243.104 402.202 238.472C405.6 233.705 410.222 230.163 416.068 227.847C422.049 225.395 428.846 224.169 436.459 224.169H464.191V218.448C464.191 213.681 462.695 209.798 459.705 206.801C456.714 203.668 451.956 202.102 445.431 202.102C439.042 202.102 434.284 203.6 431.157 206.597C428.031 209.458 425.991 213.204 425.04 217.835L401.386 209.866C403.018 204.69 405.6 199.99 409.135 195.768C412.805 191.409 417.631 187.935 423.612 185.347C429.73 182.623 437.139 181.26 445.839 181.26C459.161 181.26 469.696 184.598 477.445 191.272C485.193 197.947 489.068 207.619 489.068 220.287V258.088C489.068 262.175 490.971 264.218 494.777 264.218H502.934V285.468H485.805C480.775 285.468 476.629 284.242 473.367 281.79C470.104 279.338 468.473 276.069 468.473 271.982V271.778H464.598C464.055 273.413 462.831 275.592 460.928 278.317C459.025 280.905 456.034 283.22 451.956 285.264C447.878 287.307 442.304 288.329 435.235 288.329ZM439.721 267.487C446.926 267.487 452.772 265.512 457.258 261.562C461.88 257.475 464.191 252.094 464.191 245.42V243.376H438.294C433.536 243.376 429.798 244.398 427.079 246.441C424.36 248.485 423.001 251.345 423.001 255.023C423.001 258.701 424.428 261.698 427.283 264.014C430.138 266.329 434.284 267.487 439.721 267.487Z" fill="white"/>
<path d="M53.0167 439.532C42.9571 439.532 33.9171 437.489 25.8966 433.402C17.8761 429.316 11.5549 423.39 6.93295 415.626C2.31098 407.861 0 398.53 0 387.633V384.363C0 373.466 2.31098 364.135 6.93295 356.37C11.5549 348.606 17.8761 342.68 25.8966 338.594C33.9171 334.507 42.9571 332.464 53.0167 332.464C63.0763 332.464 72.1163 334.507 80.1367 338.594C88.1572 342.68 94.4784 348.606 99.1004 356.37C103.722 364.135 106.033 373.466 106.033 384.363V387.633C106.033 398.53 103.722 407.861 99.1004 415.626C94.4784 423.39 88.1572 429.316 80.1367 433.402C72.1163 437.489 63.0763 439.532 53.0167 439.532ZM53.0167 416.647C60.9012 416.647 67.4263 414.127 72.5921 409.087C77.7578 403.911 80.3407 396.555 80.3407 387.02V384.976C80.3407 375.441 77.7578 368.153 72.5921 363.113C67.5623 357.937 61.0372 355.349 53.0167 355.349C45.1321 355.349 38.607 357.937 33.4413 363.113C28.2756 368.153 25.6927 375.441 25.6927 384.976V387.02C25.6927 396.555 28.2756 403.911 33.4413 409.087C38.607 414.127 45.1321 416.647 53.0167 416.647Z" fill="white"/>
<path d="M131.176 436.671V335.324H156.461V346.767H160.132C161.627 342.68 164.074 339.683 167.472 337.776C171.007 335.869 175.085 334.916 179.707 334.916H191.942V357.8H179.299C172.774 357.8 167.405 359.571 163.19 363.113C158.976 366.519 156.869 371.831 156.869 379.051V436.671H131.176Z" fill="white"/>
<path d="M247.386 439.532C239.366 439.532 231.821 437.557 224.752 433.607C217.819 429.52 212.246 423.594 208.032 415.83C203.817 408.065 201.71 398.666 201.71 387.633V384.363C201.71 373.329 203.817 363.93 208.032 356.166C212.246 348.401 217.819 342.544 224.752 338.594C231.685 334.507 239.23 332.464 247.386 332.464C253.504 332.464 258.601 333.213 262.679 334.711C266.894 336.074 270.292 337.844 272.875 340.024C275.458 342.203 277.429 344.519 278.788 346.971H282.459V305.084H308.151V436.671H282.867V424.412H279.196C276.885 428.226 273.283 431.699 268.389 434.832C263.631 437.966 256.63 439.532 247.386 439.532ZM255.135 417.056C263.019 417.056 269.612 414.536 274.914 409.496C280.216 404.319 282.867 396.827 282.867 387.02V384.976C282.867 375.168 280.216 367.744 274.914 362.704C269.748 357.528 263.155 354.94 255.135 354.94C247.25 354.94 240.657 357.528 235.355 362.704C230.054 367.744 227.403 375.168 227.403 384.976V387.02C227.403 396.827 230.054 404.319 235.355 409.496C240.657 414.536 247.25 417.056 255.135 417.056Z" fill="white"/>
<path d="M342.958 436.671V335.324H368.651V436.671H342.958Z" fill="white"/>
<path d="M4.89385 578.067V476.72H30.1787V490.001H33.8491C35.4804 486.46 38.539 483.122 43.0251 479.989C47.5111 476.72 54.3081 475.085 63.4161 475.085C71.3006 475.085 78.1656 476.924 84.011 480.602C89.9924 484.144 94.6144 489.116 97.8769 495.518C101.14 501.784 102.771 509.14 102.771 517.586V578.067H77.0781V519.629C77.0781 512.001 75.1749 506.279 71.3686 502.465C67.6982 498.651 62.3966 496.744 55.4636 496.744C47.5791 496.744 41.4618 499.4 37.1117 504.713C32.7616 509.889 30.5865 517.177 30.5865 526.576V578.067H4.89385Z" fill="white"/>
<path d="M166.638 580.928C159.433 580.928 152.976 579.702 147.266 577.25C141.557 574.662 137.003 570.984 133.604 566.216C130.342 561.312 128.71 555.387 128.71 548.439C128.71 541.492 130.342 535.703 133.604 531.071C137.003 526.304 141.625 522.762 147.47 520.446C153.452 517.994 160.249 516.768 167.861 516.768H195.593V511.047C195.593 506.279 194.098 502.397 191.107 499.4C188.116 496.267 183.358 494.701 176.833 494.701C170.444 494.701 165.686 496.199 162.56 499.196C159.433 502.057 157.394 505.803 156.442 510.434L132.789 502.465C134.42 497.289 137.003 492.589 140.537 488.367C144.208 484.008 149.033 480.534 155.015 477.946C161.132 475.221 168.541 473.859 177.241 473.859C190.563 473.859 201.099 477.197 208.847 483.871C216.596 490.546 220.47 500.218 220.47 512.886V550.687C220.47 554.774 222.373 556.817 226.18 556.817H234.336V578.067H217.207C212.178 578.067 208.032 576.841 204.769 574.389C201.506 571.937 199.875 568.668 199.875 564.581V564.377H196.001C195.457 566.012 194.234 568.191 192.33 570.916C190.427 573.504 187.437 575.819 183.358 577.863C179.28 579.906 173.707 580.928 166.638 580.928ZM171.124 560.086C178.329 560.086 184.174 558.111 188.66 554.161C193.282 550.074 195.593 544.693 195.593 538.019V535.975H169.696C164.938 535.975 161.2 536.997 158.481 539.04C155.762 541.083 154.403 543.944 154.403 547.622C154.403 551.3 155.83 554.297 158.685 556.612C161.54 558.928 165.686 560.086 171.124 560.086Z" fill="white"/>
<path d="M257.811 578.067V476.72H283.096V488.162H286.766C288.262 484.076 290.709 481.079 294.107 479.172C297.642 477.265 301.72 476.311 306.342 476.311H318.576V499.196H305.934C299.409 499.196 294.039 500.967 289.825 504.509C285.611 507.914 283.504 513.227 283.504 520.446V578.067H257.811Z" fill="white"/>
<path d="M343.348 578.067V476.72H369.041V578.067H343.348Z" fill="white"/>
<path d="M450.325 580.928C440.265 580.928 431.225 578.884 423.205 574.798C415.184 570.711 408.863 564.786 404.241 557.021C399.619 549.257 397.308 539.926 397.308 529.028V525.759C397.308 514.861 399.619 505.53 404.241 497.766C408.863 490.001 415.184 484.076 423.205 479.989C431.225 475.903 440.265 473.859 450.325 473.859C460.384 473.859 469.424 475.903 477.445 479.989C485.465 484.076 491.786 490.001 496.408 497.766C501.03 505.53 503.341 514.861 503.341 525.759V529.028C503.341 539.926 501.03 549.257 496.408 557.021C491.786 564.786 485.465 570.711 477.445 574.798C469.424 578.884 460.384 580.928 450.325 580.928ZM450.325 558.043C458.209 558.043 464.734 555.523 469.9 550.483C475.066 545.306 477.649 537.95 477.649 528.415V526.372C477.649 516.836 475.066 509.549 469.9 504.509C464.87 499.332 458.345 496.744 450.325 496.744C442.44 496.744 435.915 499.332 430.749 504.509C425.584 509.549 423.001 516.836 423.001 526.372V528.415C423.001 537.95 425.584 545.306 430.749 550.483C435.915 555.523 442.44 558.043 450.325 558.043Z" fill="white"/>
<defs>
<filter id="filter0_dddddd_5160_16501" x="65.7533" y="0.902832" width="766.423" height="768.349" filterUnits="userSpaceOnUse" color-interpolation-filters="sRGB">
<feFlood flood-opacity="0" result="BackgroundImageFix"/>
<feColorMatrix in="SourceAlpha" type="matrix" values="0 0 0 0 0 0 0 0 0 0 0 0 0 0 0 0 0 0 127 0" result="hardAlpha"/>
<feOffset/>
<feGaussianBlur stdDeviation="3.96054"/>
<feColorMatrix type="matrix" values="0 0 0 0 0.796078 0 0 0 0 0.886275 0 0 0 0 1 0 0 0 1 0"/>
<feBlend mode="normal" in2="BackgroundImageFix" result="effect1_dropShadow_5160_16501"/>
<feColorMatrix in="SourceAlpha" type="matrix" values="0 0 0 0 0 0 0 0 0 0 0 0 0 0 0 0 0 0 127 0" result="hardAlpha"/>
<feOffset/>
<feGaussianBlur stdDeviation="7.92107"/>
<feColorMatrix type="matrix" values="0 0 0 0 0.796078 0 0 0 0 0.886275 0 0 0 0 1 0 0 0 1 0"/>
<feBlend mode="normal" in2="effect1_dropShadow_5160_16501" result="effect2_dropShadow_5160_16501"/>
<feColorMatrix in="SourceAlpha" type="matrix" values="0 0 0 0 0 0 0 0 0 0 0 0 0 0 0 0 0 0 127 0" result="hardAlpha"/>
<feOffset/>
<feGaussianBlur stdDeviation="27.7238"/>
<feColorMatrix type="matrix" values="0 0 0 0 0.796078 0 0 0 0 0.886275 0 0 0 0 1 0 0 0 1 0"/>
<feBlend mode="normal" in2="effect2_dropShadow_5160_16501" result="effect3_dropShadow_5160_16501"/>
<feColorMatrix in="SourceAlpha" type="matrix" values="0 0 0 0 0 0 0 0 0 0 0 0 0 0 0 0 0 0 127 0" result="hardAlpha"/>
<feOffset/>
<feGaussianBlur stdDeviation="55.4475"/>
<feColorMatrix type="matrix" values="0 0 0 0 0.796078 0 0 0 0 0.886275 0 0 0 0 1 0 0 0 1 0"/>
<feBlend mode="normal" in2="effect3_dropShadow_5160_16501" result="effect4_dropShadow_5160_16501"/>
<feColorMatrix in="SourceAlpha" type="matrix" values="0 0 0 0 0 0 0 0 0 0 0 0 0 0 0 0 0 0 127 0" result="hardAlpha"/>
<feOffset/>
<feGaussianBlur stdDeviation="95.0529"/>
<feColorMatrix type="matrix" values="0 0 0 0 0.796078 0 0 0 0 0.886275 0 0 0 0 1 0 0 0 1 0"/>
<feBlend mode="normal" in2="effect4_dropShadow_5160_16501" result="effect5_dropShadow_5160_16501"/>
<feColorMatrix in="SourceAlpha" type="matrix" values="0 0 0 0 0 0 0 0 0 0 0 0 0 0 0 0 0 0 127 0" result="hardAlpha"/>
<feOffset/>
<feGaussianBlur stdDeviation="166.343"/>
<feColorMatrix type="matrix" values="0 0 0 0 0.796078 0 0 0 0 0.886275 0 0 0 0 1 0 0 0 1 0"/>
<feBlend mode="normal" in2="effect5_dropShadow_5160_16501" result="effect6_dropShadow_5160_16501"/>
<feBlend mode="normal" in="SourceGraphic" in2="effect6_dropShadow_5160_16501" result="shape"/>
</filter>
<linearGradient id="paint0_linear_5160_16501" x1="456.652" y1="414.039" x2="692.453" y2="207.076" gradientUnits="userSpaceOnUse">
<stop stop-color="#D7F5FF"/>
<stop offset="0.630208" stop-color="#3870FF" stop-opacity="0.015625"/>
<stop offset="1" stop-color="#356EFF" stop-opacity="0"/>
</linearGradient>
<radialGradient id="paint1_diamond_5160_16501" cx="0" cy="0" r="1" gradientUnits="userSpaceOnUse" gradientTransform="translate(430.018 417.258) rotate(-65.2981) scale(113.35 111.979)">
<stop stop-color="#E9F2FF"/>
<stop offset="1" stop-color="#BCDBFF"/>
</radialGradient>
</defs>
</svg>
