<svg viewBox="0 0 447 477" fill="none" xmlns="http://www.w3.org/2000/svg">
<path d="M282.694 208.503H252.938V238.26H282.694V208.503Z" fill="#D42657"/>
<path d="M252.914 208.496V178.739H267.792V163.86H282.67V193.617H267.792V208.496H252.914Z" fill="#FA8B1F"/>
<path d="M253.046 223.524H238.168V283.038H253.046V223.524Z" fill="#F1CC02"/>
<path d="M223.177 238.26H193.421V253.138H178.542V268.017H208.299V253.138H223.177V238.26Z" fill="#FA8B1F"/>
<path d="M297.57 178.745V223.381H282.691V208.502H267.813V193.624H282.691V178.745H297.57Z" fill="#019585"/>
<path d="M193.422 223.381H238.057V253.138H223.178V238.259H193.422V223.381Z" fill="#6233B7"/>
<path d="M252.938 253.136H297.573V223.379H282.694V238.257H252.938V253.136Z" fill="#009FE3"/>
<path d="M238.057 253.139H208.3V282.896H238.057V253.139Z" fill="#D42657"/>
<path d="M252.938 253.139H282.694V268.017H297.573V282.896H267.817V268.017H252.938V253.139Z" fill="#FA8B1F"/>
<path d="M238.057 297.775H193.422V268.018H208.3V282.896H238.057V297.775Z" fill="#6233B7"/>
<path d="M282.693 297.775H238.058V282.896H252.936V268.018H267.815V282.896H282.693V297.775Z" fill="#019585"/>
<path d="M208.301 297.773H148.786V312.652H208.301V297.773Z" fill="#F1CC02"/>
<path d="M148.786 297.775H193.422V268.018H178.543V282.896H148.786V297.775Z" fill="#009FE3"/>
<path d="M133.908 253.139H163.665V268.017H178.543V282.896H148.786V268.017H133.908V253.139Z" fill="#FA8B1F"/>
<path d="M148.783 268.018H119.028V297.775H148.783V268.018Z" fill="#D42657"/>
<path d="M148.786 238.26H193.422V253.138H178.543V268.017H163.666V253.138H148.786V238.26Z" fill="#019585"/>
<path d="M148.787 238.26H119.032V253.138H104.152V268.017H133.909V253.138H148.787V238.26Z" fill="#FA8B1F"/>
<path d="M74.3945 268.018H119.031V297.775H104.151V282.896H74.3945V268.018Z" fill="#6233B7"/>
<path d="M104.152 282.895H44.6377V297.773H104.152V282.895Z" fill="#F1CC02"/>
<path d="M29.7559 268.018V312.653H59.5128V297.775H44.6343V268.018H29.7559Z" fill="#009FE3"/>
<path d="M29.7584 253.139H14.8799V312.653H29.7584V253.139Z" fill="#F1CC02"/>
<path d="M0 268.017V223.382H14.8794V238.26H29.757V253.139H14.8794V268.017H0Z" fill="#019585"/>
<path d="M74.3946 253.139H44.6377V282.896H74.3946V253.139Z" fill="#D42657"/>
<path d="M29.7559 268.017V238.26H44.6343V223.382H59.5128V253.139H44.6343V268.017H29.7559Z" fill="#FA8B1F"/>
<path d="M89.2706 268.017V238.26H74.3912V223.382H59.5137V253.139H74.3912V268.017H89.2706Z" fill="#FA8B1F"/>
<path d="M89.2715 268.017V223.382H104.15V238.26H119.028V253.139H104.15V268.017H89.2715Z" fill="#019585"/>
<path d="M44.6377 208.503H89.274V238.26H74.3946V223.381H44.6377V208.503Z" fill="#6233B7"/>
<path d="M44.6359 208.503H14.8799V238.26H44.6359V208.503Z" fill="#D42657"/>
<path d="M44.6354 193.624H0V223.381H14.8794V208.503H44.6354V193.624Z" fill="#009FE3"/>
<path d="M14.8799 178.745H59.5153V208.502H44.6359V193.624H14.8799V178.745Z" fill="#6233B7"/>
<path d="M104.149 178.745H74.3922V193.624H59.5137V208.502H89.2706V193.624H104.149V178.745Z" fill="#FA8B1F"/>
<path d="M89.2715 223.381V193.624H104.15V178.745H119.028V208.502H104.15V223.381H89.2715Z" fill="#FA8B1F"/>
<path d="M148.787 238.26H104.152V208.503H119.032V223.381H148.787V238.26Z" fill="#6233B7"/>
<path d="M223.177 208.503H178.542V238.26H193.421V223.381H223.177V208.503Z" fill="#009FE3"/>
<path d="M133.908 193.624V223.381H148.786V238.259H163.665V208.503H148.786V193.624H133.908Z" fill="#FA8B1F"/>
<path d="M178.544 178.745H163.666V238.259H178.544V178.745Z" fill="#F1CC02"/>
<path d="M119.028 223.381V178.745H148.783V193.624H133.907V223.381H119.028Z" fill="#6233B7"/>
<path d="M163.665 208.504V163.868H133.908V178.747H148.786L148.785 208.504H163.665Z" fill="#009FE3"/>
<path d="M252.934 297.775H223.177V327.532H252.934V297.775Z" fill="#D42657"/>
<path d="M223.178 297.773V342.409H208.299V327.53H193.422V312.652H208.299V297.773H223.178Z" fill="#019585"/>
<path d="M223.177 327.532H252.934V342.411H267.813V357.289H238.056V342.411H223.177V327.532Z" fill="#FA8B1F"/>
<path d="M252.938 297.773V342.409H282.694V327.53H267.817V297.773H252.938Z" fill="#009FE3"/>
<path d="M178.543 327.532H133.908V297.775H148.786V312.654H178.543V327.532Z" fill="#6233B7"/>
<path d="M163.666 357.289V327.532H178.544V312.653H193.422V342.41H178.544V357.289H163.666Z" fill="#FA8B1F"/>
<path d="M193.422 327.532V357.289H208.3V372.168H223.178V342.411H208.3V327.532H193.422Z" fill="#FA8B1F"/>
<path d="M193.421 342.411H178.542V401.924H193.421V342.411Z" fill="#F1CC02"/>
<path d="M297.57 312.653H282.691V372.166H297.57V312.653Z" fill="#F1CC02"/>
<path d="M267.813 327.532V297.775H282.692V282.896H297.57V312.653H282.692V327.532H267.813Z" fill="#FA8B1F"/>
<path d="M267.813 372.168H223.177V342.411H238.056V357.29H267.813V372.168Z" fill="#6233B7"/>
<path d="M297.572 387.045H238.058V401.923H297.572V387.045Z" fill="#F1CC02"/>
<path d="M193.422 401.923V357.287H208.3V372.166H223.178V387.044H208.3V401.923H193.422Z" fill="#019585"/>
<path d="M267.813 342.41V387.046H297.57V372.167H282.692V342.41H267.813Z" fill="#009FE3"/>
<path d="M267.813 372.166H223.177V401.923H238.056V387.045H267.813V372.166Z" fill="#009FE3"/>
<path d="M208.3 387.045V416.802H223.178V431.68H238.057V401.923H223.178V387.045H208.3Z" fill="#FA8B1F"/>
<path d="M208.301 416.802H163.666V387.045H178.544V401.923H208.301V416.802Z" fill="#6233B7"/>
<path d="M178.543 357.287H148.786V387.043H178.543V357.287Z" fill="#D42657"/>
<path d="M133.946 357.287H104.189V387.043H133.946V357.287Z" fill="#D42657"/>
<path d="M133.908 372.168V342.411H148.786V327.532H163.665V357.289H148.786V372.168H133.908Z" fill="#FA8B1F"/>
<path d="M104.152 327.532H148.787V342.411H133.908L133.909 357.289H119.032V342.411H104.152V327.532Z" fill="#019585"/>
<path d="M119.028 342.411H59.5137V357.29H119.028V342.411Z" fill="#F1CC02"/>
<path d="M89.2715 327.532H133.907V297.775H119.028V312.654H89.2715V327.532Z" fill="#009FE3"/>
<path d="M119.028 297.773H59.5137V312.652H119.028V297.773Z" fill="#F1CC02"/>
<path d="M104.149 342.41H59.5137V327.532H74.3922V312.653H89.2706V327.532H104.149V342.41Z" fill="#019585"/>
<path d="M29.7559 312.652H74.3913V327.531H59.5128V342.409H44.6343V327.531H29.7559V312.652Z" fill="#019585"/>
<path d="M327.328 268.018H297.571V297.775H327.328V268.018Z" fill="#D42657"/>
<path d="M178.542 461.438V416.803H193.421V431.681H208.299V446.56H193.421V461.438H178.542Z" fill="#019585"/>
<path d="M238.058 401.924V446.559H267.815V431.681H252.936V401.924H238.058Z" fill="#009FE3"/>
<path d="M282.694 401.924H252.938V431.681H282.694V401.924Z" fill="#D42657"/>
<path d="M371.961 253.139H312.447V268.017H371.961V253.139Z" fill="#F1CC02"/>
<path d="M252.935 446.56H208.3V476.316H223.178V461.438H252.935V446.56Z" fill="#009FE3"/>
<path d="M133.908 372.166V401.923H148.786V416.801H163.665V387.045H148.786V372.166H133.908Z" fill="#FA8B1F"/>
<path d="M193.422 416.803H223.178V431.681H238.057V446.56H208.3V431.681H193.422V416.803Z" fill="#FA8B1F"/>
<path d="M282.691 431.68V401.923H297.57V387.045H312.448V416.802H297.57V431.68H282.691Z" fill="#FA8B1F"/>
<path d="M357.086 297.773H297.571V312.652H357.086V297.773Z" fill="#F1CC02"/>
<path d="M371.966 282.895V327.53H342.209V312.651H357.087V282.895H371.966Z" fill="#6233B7"/>
<path d="M297.571 312.652H342.208V327.531H327.328V342.409H312.451V327.531H297.571V312.652Z" fill="#019585"/>
<path d="M297.571 327.532V357.289H312.451V372.168H327.328V342.411H312.451V327.532H297.571Z" fill="#FA8B1F"/>
<path d="M297.571 357.287V387.044H312.451V401.923H327.328V372.166H312.451V357.287H297.571Z" fill="#FA8B1F"/>
<path d="M342.207 327.532H327.328V387.045H342.207V327.532Z" fill="#F1CC02"/>
<path d="M342.209 342.409H386.844V312.652H371.965V327.531H342.209V342.409Z" fill="#009FE3"/>
<path d="M371.966 342.411H342.209V372.167H371.966V342.411Z" fill="#D42657"/>
<path d="M357.085 268.018H327.328V297.775H357.085V268.018Z" fill="#D42657"/>
<path d="M386.842 253.139V297.774H371.963V282.896H357.085V268.017H371.963V253.139H386.842Z" fill="#019585"/>
<path d="M371.966 312.651H401.722V297.773H416.601V282.895H386.844V297.773H371.966V312.651Z" fill="#FA8B1F"/>
<path d="M416.599 297.773V342.409H401.719V327.53H386.842V312.652H401.719V297.773H416.599Z" fill="#019585"/>
<path d="M431.477 238.26H416.6V297.774H431.477V238.26Z" fill="#F1CC02"/>
<path d="M446.357 268.017V223.382H416.6V238.26H431.477L431.476 268.017H446.357Z" fill="#009FE3"/>
<path d="M416.599 253.139H386.842V282.896H416.599V253.139Z" fill="#D42657"/>
<path d="M282.691 268.018H312.448V253.139H327.327V238.261H297.57V253.139H282.691V268.018Z" fill="#FA8B1F"/>
<path d="M342.208 208.503V253.138H327.329V238.26H312.451V223.381H327.329V208.503H342.208Z" fill="#019585"/>
<path d="M297.571 238.259V208.503H312.451V193.624H327.328V223.381H312.451V238.259H297.571Z" fill="#FA8B1F"/>
<path d="M401.722 238.26H342.209V253.138H401.722V238.26Z" fill="#F1CC02"/>
<path d="M371.966 223.381H416.601V253.138H401.722V238.259H371.966V223.381Z" fill="#6233B7"/>
<path d="M371.964 178.745H357.085V238.259H371.964V178.745Z" fill="#F1CC02"/>
<path d="M357.085 238.259V193.624H327.328V208.503H342.207V238.259H357.085Z" fill="#009FE3"/>
<path d="M252.934 193.624H223.177V223.381H252.934V193.624Z" fill="#D42657"/>
<path d="M297.571 208.504V178.747H312.451V163.868H327.328V193.625H312.451V208.504H297.571Z" fill="#FA8B1F"/>
<path d="M327.328 193.625H357.085V178.747H371.964V163.868H342.207V178.747H327.328V193.625Z" fill="#FA8B1F"/>
<path d="M431.478 208.503H371.966V223.381H431.478V208.503Z" fill="#F1CC02"/>
<path d="M416.601 208.502H371.966V193.624H386.844V178.745H401.722V193.624H416.601V208.502Z" fill="#019585"/>
<path d="M446.357 223.381V193.624H431.476V178.745H416.6V208.502H431.476V223.381H446.357Z" fill="#FA8B1F"/>
<path d="M386.842 193.625V148.989H357.085V163.868H371.963V193.625H386.842Z" fill="#009FE3"/>
<path d="M386.842 163.868H431.476V178.747H416.598L416.599 193.625H401.72V178.747H386.842V163.868Z" fill="#019585"/>
<path d="M386.842 119.233V163.869H416.599V148.99H401.72V119.233H386.842Z" fill="#009FE3"/>
<path d="M386.841 119.233H357.085V148.99H386.841V119.233Z" fill="#D42657"/>
<path d="M193.421 148.989H178.542V208.503H193.421V148.989Z" fill="#F1CC02"/>
<path d="M223.178 178.745H193.422V208.502H223.178V178.745Z" fill="#D42657"/>
<path d="M267.813 163.868H238.056V178.747H223.177V193.625H252.934V178.747H267.813V163.868Z" fill="#FA8B1F"/>
<path d="M238.057 178.746H193.422V163.868H208.3V148.989H223.178V163.868H238.057V178.746Z" fill="#019585"/>
<path d="M148.786 134.11V163.867H163.666V178.746H178.543V148.989H163.666V134.11H148.786Z" fill="#FA8B1F"/>
<path d="M178.542 119.233V148.99H193.421V163.869H208.299V134.112H193.421V119.233H178.542Z" fill="#FA8B1F"/>
<path d="M133.908 119.233H178.543V148.99H163.665V134.112H133.908V119.233Z" fill="#6233B7"/>
<path d="M148.783 134.11H119.028V163.867H148.783V134.11Z" fill="#D42657"/>
<path d="M133.909 163.868H74.3945V178.747H133.909V163.868Z" fill="#F1CC02"/>
<path d="M29.7559 163.868H74.3913V193.625H59.5128V178.747H29.7559V163.868Z" fill="#6233B7"/>
<path d="M59.5153 148.989H14.8799V178.746H29.7584V163.868H59.5153V148.989Z" fill="#009FE3"/>
<path d="M119.028 148.989H59.5137V163.868H119.028V148.989Z" fill="#F1CC02"/>
<path d="M74.3913 119.233H44.6343V134.112H29.7559V148.99H59.5128V134.112H74.3913V119.233Z" fill="#FA8B1F"/>
<path d="M208.3 148.99H252.935V119.233H238.057V134.112H208.3V148.99Z" fill="#009FE3"/>
<path d="M89.2706 104.354V148.99H59.5137V134.111H74.3912V104.354H89.2706Z" fill="#6233B7"/>
<path d="M104.152 148.99V104.354H119.032V119.233H133.909V134.111H119.032V148.99H104.152Z" fill="#019585"/>
<path d="M104.15 89.4756H89.2715V148.989H104.15V89.4756Z" fill="#F1CC02"/>
<path d="M282.692 148.989H223.177V163.868H282.692V148.989Z" fill="#F1CC02"/>
<path d="M312.448 148.989H282.691V178.746H312.448V148.989Z" fill="#D42657"/>
<path d="M312.447 148.989H357.083V163.868H342.204V178.746H327.326V163.868H312.447V148.989Z" fill="#019585"/>
<path d="M297.573 148.99H252.938V134.112H267.817V119.233H282.694V134.112H297.573V148.99Z" fill="#019585"/>
<path d="M357.086 134.11H297.571V148.989H357.086V134.11Z" fill="#F1CC02"/>
<path d="M163.666 104.354H208.301V134.111H193.422V119.233H163.666V104.354Z" fill="#6233B7"/>
<path d="M163.664 119.233H119.028V104.354H133.907V89.4756H148.784V104.354H163.664V119.233Z" fill="#019585"/>
<path d="M357.085 104.354H327.328V134.111H357.085V104.354Z" fill="#D42657"/>
<path d="M282.691 134.111H327.327V104.354H312.448V119.233H282.691V134.111Z" fill="#009FE3"/>
<path d="M327.327 59.7178H297.57V74.5963H282.691V89.4747H312.448V74.5963H327.327V59.7178Z" fill="#FA8B1F"/>
<path d="M253.309 42.6804V12.9234H268.187V-1.95508H283.066V27.8019H268.187V42.6804H253.309Z" fill="#FA8B1F"/>
</svg>
