<svg viewBox="0 0 421 153" fill="none" xmlns="http://www.w3.org/2000/svg">
<path d="M60.4613 0V54.943C60.4613 64.5401 57.9021 72.0577 52.7837 77.4961C47.7453 82.9344 40.2276 85.6535 30.2307 85.6535C20.2338 85.6535 12.6761 82.9344 7.55767 77.4961C2.51922 72.0577 0 64.5401 0 54.943V0H15.8351V54.943C15.8351 59.9015 16.9948 63.7803 19.314 66.5794C21.6333 69.3786 25.2722 70.7781 30.2307 70.7781C35.1891 70.7781 38.828 69.3786 41.1473 66.5794C43.4666 63.7803 44.6262 59.9015 44.6262 54.943V0H60.4613Z" fill="black"/>
<path d="M94.3274 83.9741H79.2121V0H94.3274V33.1098H96.4868C98.0863 29.8308 100.406 27.3116 103.445 25.5521C106.484 23.7127 110.362 22.793 115.081 22.793C118.6 22.793 121.919 23.4727 125.038 24.8323C128.237 26.1919 130.996 28.1913 133.315 30.8305C135.715 33.3897 137.594 36.5487 138.954 40.3075C140.393 44.0664 141.113 48.3451 141.113 53.1436V55.3029C141.113 60.1814 140.433 64.5001 139.074 68.2589C137.714 72.0178 135.875 75.2168 133.555 77.8559C131.236 80.4152 128.477 82.3745 125.278 83.7341C122.159 85.0137 118.76 85.6535 115.081 85.6535C112.362 85.6535 110.003 85.3736 108.003 84.8138C106.004 84.254 104.244 83.4942 102.725 82.5345C101.285 81.5748 100.046 80.4951 99.006 79.2955C98.0463 78.0159 97.2065 76.6963 96.4868 75.3367H94.3274V83.9741ZM110.163 71.258C114.881 71.258 118.68 69.8184 121.559 66.9393C124.518 63.9802 125.998 59.9815 125.998 54.943V53.5035C125.998 48.465 124.518 44.5063 121.559 41.6271C118.68 38.6681 114.881 37.1885 110.163 37.1885C105.444 37.1885 101.605 38.708 98.6461 41.7471C95.767 44.7062 94.3274 48.625 94.3274 53.5035V54.943C94.3274 59.8215 95.767 63.7803 98.6461 66.8194C101.605 69.7784 105.444 71.258 110.163 71.258Z" fill="black"/>
<path d="M194.893 24.4724H210.008V83.9741H194.893V75.3367H192.734C190.094 82.2146 184.416 85.6535 175.699 85.6535C172.74 85.6535 169.981 85.1737 167.421 84.214C164.862 83.2543 162.623 81.7747 160.703 79.7754C158.784 77.776 157.265 75.2967 156.145 72.3377C155.105 69.2986 154.585 65.7397 154.585 61.661V24.4724H169.701V58.5419C169.701 62.7806 170.7 66.0996 172.7 68.4988C174.699 70.8181 177.698 71.9778 181.697 71.9778C186.256 71.9778 189.575 70.5382 191.654 67.6591C193.813 64.7 194.893 60.7012 194.893 55.6628V24.4724Z" fill="black"/>
<path d="M242.555 83.9741H227.439V24.4724H242.555V33.3497H244.714C246.074 29.9907 248.273 27.3915 251.312 25.5521C254.351 23.7127 257.91 22.793 261.989 22.793C264.868 22.793 267.547 23.2728 270.026 24.2325C272.585 25.1122 274.825 26.5118 276.744 28.4312C278.664 30.3506 280.143 32.7899 281.183 35.749C282.302 38.708 282.862 42.227 282.862 46.3057V83.9741H267.747V50.1445C267.747 45.9058 266.707 42.5868 264.628 40.1876C262.629 37.7084 259.709 36.4687 255.871 36.4687C251.392 36.4687 248.033 37.9883 245.794 41.0273C243.634 43.9864 242.555 47.9852 242.555 53.0236V83.9741Z" fill="black"/>
<path d="M294.865 24.4724H312.5V0H327.615V24.4724H349.088V38.868H327.615V65.9796C327.615 68.3789 328.695 69.5785 330.854 69.5785H346.929V83.9741H321.737C319.018 83.9741 316.778 83.0943 315.019 81.3349C313.339 79.5754 312.5 77.3361 312.5 74.617V38.868H294.865V24.4724Z" fill="black"/>
<path d="M405.208 24.4724H420.323V83.9741H405.208V75.3367H403.048C400.409 82.2146 394.731 85.6535 386.014 85.6535C383.055 85.6535 380.295 85.1737 377.736 84.214C375.177 83.2543 372.938 81.7747 371.018 79.7754C369.099 77.776 367.579 75.2967 366.46 72.3377C365.42 69.2986 364.9 65.7397 364.9 61.661V24.4724H380.015V58.5419C380.015 62.7806 381.015 66.0996 383.015 68.4988C385.014 70.8181 388.013 71.9778 392.012 71.9778C396.57 71.9778 399.889 70.5382 401.969 67.6591C404.128 64.7 405.208 60.7012 405.208 55.6628V24.4724Z" fill="black"/>
<path d="M3.02007 140.653V121.063H7.11305V140.653H3.02007ZM5.08643 118.4C4.29167 118.4 3.61613 118.149 3.05981 117.645C2.52997 117.115 2.26505 116.44 2.26505 115.619C2.26505 114.797 2.52997 114.135 3.05981 113.632C3.61613 113.102 4.29167 112.837 5.08643 112.837C5.90768 112.837 6.58322 113.102 7.11305 113.632C7.64289 114.135 7.90781 114.797 7.90781 115.619C7.90781 116.44 7.64289 117.115 7.11305 117.645C6.58322 118.149 5.90768 118.4 5.08643 118.4ZM21.2938 141.21C19.6778 141.21 18.181 140.812 16.8035 140.018C15.4259 139.223 14.3132 138.084 13.4655 136.6C12.6443 135.09 12.2336 133.275 12.2336 131.156V130.56C12.2336 128.467 12.6443 126.666 13.4655 125.156C14.2867 123.646 15.3862 122.493 16.7637 121.698C18.1413 120.904 19.6513 120.506 21.2938 120.506C22.5654 120.506 23.6251 120.665 24.4729 120.983C25.3471 121.301 26.0624 121.712 26.6187 122.215C27.175 122.692 27.5989 123.195 27.8903 123.725H28.5261V112.837H32.6191V140.653H28.6056V137.872H27.9698C27.4664 138.719 26.6982 139.488 25.665 140.176C24.6583 140.865 23.2012 141.21 21.2938 141.21ZM22.4462 137.633C24.2212 137.633 25.6782 137.064 26.8174 135.925C27.983 134.785 28.5658 133.156 28.5658 131.037V130.679C28.5658 128.586 27.9963 126.97 26.8571 125.831C25.718 124.692 24.2477 124.122 22.4462 124.122C20.6978 124.122 19.2407 124.692 18.0751 125.831C16.9359 126.97 16.3664 128.586 16.3664 130.679V131.037C16.3664 133.156 16.9359 134.785 18.0751 135.925C19.2407 137.064 20.6978 137.633 22.4462 137.633ZM47.625 141.21C45.6382 141.21 43.9029 140.799 42.4194 139.978C40.9359 139.13 39.7702 137.951 38.9225 136.441C38.1012 134.905 37.6906 133.13 37.6906 131.116V130.639C37.6906 128.6 38.1012 126.825 38.9225 125.315C39.7437 123.778 40.8829 122.599 42.3399 121.778C43.8235 120.93 45.5322 120.506 47.4661 120.506C49.347 120.506 50.9895 120.93 52.3936 121.778C53.8241 122.599 54.9368 123.752 55.7315 125.235C56.5263 126.719 56.9237 128.454 56.9237 130.441V131.99H41.8631C41.9161 133.712 42.4856 135.09 43.5718 136.123C44.6845 137.13 46.062 137.633 47.7045 137.633C49.241 137.633 50.3934 137.289 51.1617 136.6C51.9565 135.911 52.5658 135.117 52.9896 134.216L56.3673 135.964C55.9965 136.706 55.4534 137.488 54.7381 138.309C54.0493 139.13 53.1353 139.819 51.9962 140.375C50.857 140.931 49.4 141.21 47.625 141.21ZM41.9028 128.851H52.7512C52.6452 127.368 52.1154 126.215 51.1617 125.394C50.208 124.546 48.9629 124.122 47.4264 124.122C45.8898 124.122 44.6315 124.546 43.6513 125.394C42.6976 126.215 42.1147 127.368 41.9028 128.851ZM61.8505 140.653V121.063H65.864V124.003H66.4998C66.8707 123.208 67.533 122.467 68.4867 121.778C69.4404 121.089 70.8578 120.745 72.7387 120.745C74.2222 120.745 75.5336 121.076 76.6727 121.738C77.8383 122.4 78.7523 123.341 79.4146 124.56C80.0769 125.752 80.4081 127.195 80.4081 128.891V140.653H76.3151V129.209C76.3151 127.513 75.8912 126.268 75.0435 125.474C74.1957 124.652 73.0301 124.242 71.5465 124.242C69.8511 124.242 68.4867 124.798 67.4536 125.911C66.4469 127.023 65.9435 128.639 65.9435 130.759V140.653H61.8505ZM93.1067 140.653C91.9146 140.653 90.9609 140.296 90.2456 139.58C89.5568 138.865 89.2124 137.911 89.2124 136.719V124.52H83.8081V121.063H89.2124V114.585H93.3054V121.063H99.1469V124.52H93.3054V136.004C93.3054 136.799 93.6763 137.196 94.4181 137.196H98.5111V140.653H93.1067ZM103.955 140.653V121.063H108.048V140.653H103.955ZM106.022 118.4C105.227 118.4 104.552 118.149 103.995 117.645C103.465 117.115 103.2 116.44 103.2 115.619C103.2 114.797 103.465 114.135 103.995 113.632C104.552 113.102 105.227 112.837 106.022 112.837C106.843 112.837 107.519 113.102 108.048 113.632C108.578 114.135 108.843 114.797 108.843 115.619C108.843 116.44 108.578 117.115 108.048 117.645C107.519 118.149 106.843 118.4 106.022 118.4ZM121.474 140.653C120.282 140.653 119.328 140.296 118.613 139.58C117.924 138.865 117.58 137.911 117.58 136.719V124.52H112.176V121.063H117.58V114.585H121.673V121.063H127.514V124.52H121.673V136.004C121.673 136.799 122.044 137.196 122.786 137.196H126.879V140.653H121.474ZM138.364 141.21C136.96 141.21 135.702 140.971 134.589 140.494C133.503 140.018 132.628 139.315 131.966 138.388C131.33 137.461 131.012 136.335 131.012 135.011C131.012 133.659 131.33 132.547 131.966 131.673C132.628 130.772 133.516 130.096 134.629 129.646C135.768 129.196 137.053 128.97 138.483 128.97H144.444V127.699C144.444 126.56 144.099 125.646 143.411 124.957C142.722 124.268 141.662 123.924 140.232 123.924C138.828 123.924 137.755 124.255 137.013 124.917C136.271 125.579 135.781 126.44 135.543 127.5L131.728 126.268C132.046 125.209 132.549 124.255 133.238 123.407C133.953 122.533 134.894 121.831 136.059 121.301C137.225 120.771 138.629 120.506 140.271 120.506C142.815 120.506 144.815 121.155 146.272 122.453C147.729 123.752 148.457 125.593 148.457 127.977V136.044C148.457 136.838 148.828 137.236 149.57 137.236H151.239V140.653H148.179C147.252 140.653 146.497 140.415 145.914 139.938C145.331 139.461 145.04 138.812 145.04 137.991V137.872H144.444C144.232 138.269 143.914 138.733 143.49 139.262C143.066 139.792 142.444 140.256 141.622 140.653C140.801 141.024 139.715 141.21 138.364 141.21ZM138.96 137.832C140.603 137.832 141.927 137.368 142.934 136.441C143.941 135.487 144.444 134.189 144.444 132.547V132.149H138.722C137.635 132.149 136.761 132.388 136.099 132.865C135.437 133.315 135.105 133.991 135.105 134.891C135.105 135.792 135.45 136.507 136.139 137.037C136.827 137.567 137.768 137.832 138.96 137.832ZM139.278 118.48L135.264 112.837H139.993L142.974 118.48H139.278ZM174.447 141.21C172.566 141.21 170.857 140.812 169.321 140.018C167.811 139.223 166.606 138.07 165.705 136.56C164.831 135.05 164.393 133.236 164.393 131.116V130.6C164.393 128.48 164.831 126.679 165.705 125.195C166.606 123.685 167.811 122.533 169.321 121.738C170.857 120.917 172.566 120.506 174.447 120.506C176.328 120.506 177.931 120.851 179.255 121.539C180.58 122.228 181.64 123.142 182.434 124.281C183.256 125.421 183.785 126.679 184.024 128.056L180.05 128.891C179.918 128.017 179.639 127.222 179.216 126.507C178.792 125.791 178.196 125.222 177.427 124.798C176.659 124.374 175.692 124.162 174.527 124.162C173.387 124.162 172.354 124.427 171.427 124.957C170.526 125.46 169.811 126.202 169.281 127.182C168.751 128.136 168.486 129.302 168.486 130.679V131.037C168.486 132.414 168.751 133.593 169.281 134.573C169.811 135.554 170.526 136.295 171.427 136.799C172.354 137.302 173.387 137.554 174.527 137.554C176.249 137.554 177.56 137.117 178.461 136.242C179.361 135.342 179.931 134.203 180.169 132.825L184.143 133.739C183.825 135.09 183.256 136.335 182.434 137.474C181.64 138.613 180.58 139.527 179.255 140.216C177.931 140.879 176.328 141.21 174.447 141.21ZM198.043 141.21C196.083 141.21 194.334 140.812 192.798 140.018C191.288 139.196 190.096 138.031 189.221 136.521C188.347 135.011 187.91 133.222 187.91 131.156V130.56C187.91 128.494 188.347 126.719 189.221 125.235C190.096 123.725 191.288 122.559 192.798 121.738C194.334 120.917 196.083 120.506 198.043 120.506C200.004 120.506 201.752 120.917 203.289 121.738C204.825 122.559 206.031 123.725 206.905 125.235C207.779 126.719 208.216 128.494 208.216 130.56V131.156C208.216 133.222 207.779 135.011 206.905 136.521C206.031 138.031 204.825 139.196 203.289 140.018C201.752 140.812 200.004 141.21 198.043 141.21ZM198.043 137.554C199.845 137.554 201.302 136.984 202.414 135.845C203.554 134.679 204.123 133.077 204.123 131.037V130.679C204.123 128.639 203.567 127.05 202.454 125.911C201.341 124.745 199.871 124.162 198.043 124.162C196.268 124.162 194.811 124.745 193.672 125.911C192.559 127.05 192.003 128.639 192.003 130.679V131.037C192.003 133.077 192.559 134.679 193.672 135.845C194.811 136.984 196.268 137.554 198.043 137.554ZM213.312 140.653V121.063H217.325V124.003H217.961C218.332 123.208 218.994 122.467 219.948 121.778C220.902 121.089 222.319 120.745 224.2 120.745C225.683 120.745 226.995 121.076 228.134 121.738C229.3 122.4 230.214 123.341 230.876 124.56C231.538 125.752 231.869 127.195 231.869 128.891V140.653H227.776V129.209C227.776 127.513 227.352 126.268 226.505 125.474C225.657 124.652 224.491 124.242 223.008 124.242C221.312 124.242 219.948 124.798 218.915 125.911C217.908 127.023 217.405 128.639 217.405 130.759V140.653H213.312ZM237.76 140.653V121.063H241.773V124.003H242.409C242.78 123.208 243.442 122.467 244.396 121.778C245.35 121.089 246.767 120.745 248.648 120.745C250.132 120.745 251.443 121.076 252.582 121.738C253.748 122.4 254.662 123.341 255.324 124.56C255.986 125.752 256.317 127.195 256.317 128.891V140.653H252.224V129.209C252.224 127.513 251.8 126.268 250.953 125.474C250.105 124.652 248.939 124.242 247.456 124.242C245.76 124.242 244.396 124.798 243.363 125.911C242.356 127.023 241.853 128.639 241.853 130.759V140.653H237.76ZM271.189 141.21C269.202 141.21 267.466 140.799 265.983 139.978C264.499 139.13 263.334 137.951 262.486 136.441C261.665 134.905 261.254 133.13 261.254 131.116V130.639C261.254 128.6 261.665 126.825 262.486 125.315C263.307 123.778 264.446 122.599 265.903 121.778C267.387 120.93 269.096 120.506 271.03 120.506C272.911 120.506 274.553 120.93 275.957 121.778C277.388 122.599 278.5 123.752 279.295 125.235C280.09 126.719 280.487 128.454 280.487 130.441V131.99H265.427C265.48 133.712 266.049 135.09 267.135 136.123C268.248 137.13 269.626 137.633 271.268 137.633C272.805 137.633 273.957 137.289 274.725 136.6C275.52 135.911 276.129 135.117 276.553 134.216L279.931 135.964C279.56 136.706 279.017 137.488 278.302 138.309C277.613 139.13 276.699 139.819 275.56 140.375C274.421 140.931 272.964 141.21 271.189 141.21ZM265.466 128.851H276.315C276.209 127.368 275.679 126.215 274.725 125.394C273.772 124.546 272.526 124.122 270.99 124.122C269.453 124.122 268.195 124.546 267.215 125.394C266.261 126.215 265.678 127.368 265.466 128.851ZM293.441 141.21C290.951 141.21 288.884 140.653 287.242 139.541C285.599 138.428 284.593 136.746 284.222 134.494L288.037 133.58C288.249 134.666 288.606 135.527 289.11 136.163C289.613 136.799 290.236 137.249 290.977 137.514C291.746 137.779 292.567 137.911 293.441 137.911C294.739 137.911 295.733 137.66 296.421 137.156C297.137 136.653 297.494 136.004 297.494 135.209C297.494 134.414 297.163 133.832 296.501 133.461C295.839 133.09 294.858 132.785 293.56 132.547L292.209 132.308C290.885 132.07 289.679 131.726 288.593 131.275C287.507 130.825 286.646 130.202 286.01 129.408C285.374 128.613 285.056 127.593 285.056 126.348C285.056 124.493 285.745 123.063 287.123 122.056C288.5 121.023 290.328 120.506 292.607 120.506C294.805 120.506 296.607 121.01 298.011 122.016C299.441 122.997 300.369 124.334 300.793 126.03L296.978 127.103C296.739 125.911 296.236 125.076 295.468 124.599C294.699 124.096 293.746 123.844 292.607 123.844C291.494 123.844 290.62 124.056 289.984 124.48C289.348 124.877 289.03 125.447 289.03 126.189C289.03 126.984 289.335 127.566 289.944 127.937C290.58 128.308 291.428 128.586 292.487 128.772L293.878 129.01C295.282 129.249 296.567 129.58 297.733 130.004C298.898 130.427 299.812 131.037 300.475 131.832C301.163 132.626 301.508 133.686 301.508 135.011C301.508 136.971 300.779 138.494 299.322 139.58C297.865 140.667 295.905 141.21 293.441 141.21ZM314.319 141.21C311.829 141.21 309.762 140.653 308.12 139.541C306.477 138.428 305.471 136.746 305.1 134.494L308.915 133.58C309.127 134.666 309.484 135.527 309.987 136.163C310.491 136.799 311.113 137.249 311.855 137.514C312.623 137.779 313.445 137.911 314.319 137.911C315.617 137.911 316.61 137.66 317.299 137.156C318.015 136.653 318.372 136.004 318.372 135.209C318.372 134.414 318.041 133.832 317.379 133.461C316.716 133.09 315.736 132.785 314.438 132.547L313.087 132.308C311.762 132.07 310.557 131.726 309.471 131.275C308.385 130.825 307.524 130.202 306.888 129.408C306.252 128.613 305.934 127.593 305.934 126.348C305.934 124.493 306.623 123.063 308.001 122.056C309.378 121.023 311.206 120.506 313.484 120.506C315.683 120.506 317.485 121.01 318.889 122.016C320.319 122.997 321.247 124.334 321.67 126.03L317.856 127.103C317.617 125.911 317.114 125.076 316.346 124.599C315.577 124.096 314.624 123.844 313.484 123.844C312.372 123.844 311.498 124.056 310.862 124.48C310.226 124.877 309.908 125.447 309.908 126.189C309.908 126.984 310.213 127.566 310.822 127.937C311.458 128.308 312.306 128.586 313.365 128.772L314.756 129.01C316.16 129.249 317.445 129.58 318.611 130.004C319.776 130.427 320.69 131.037 321.352 131.832C322.041 132.626 322.386 133.686 322.386 135.011C322.386 136.971 321.657 138.494 320.2 139.58C318.743 140.667 316.783 141.21 314.319 141.21ZM336.15 141.21C334.164 141.21 332.428 140.799 330.945 139.978C329.461 139.13 328.296 137.951 327.448 136.441C326.627 134.905 326.216 133.13 326.216 131.116V130.639C326.216 128.6 326.627 126.825 327.448 125.315C328.269 123.778 329.408 122.599 330.865 121.778C332.349 120.93 334.058 120.506 335.992 120.506C337.872 120.506 339.515 120.93 340.919 121.778C342.35 122.599 343.462 123.752 344.257 125.235C345.052 126.719 345.449 128.454 345.449 130.441V131.99H330.388C330.441 133.712 331.011 135.09 332.097 136.123C333.21 137.13 334.587 137.633 336.23 137.633C337.766 137.633 338.919 137.289 339.687 136.6C340.482 135.911 341.091 135.117 341.515 134.216L344.893 135.964C344.522 136.706 343.979 137.488 343.264 138.309C342.575 139.13 341.661 139.819 340.522 140.375C339.382 140.931 337.925 141.21 336.15 141.21ZM330.428 128.851H341.277C341.171 127.368 340.641 126.215 339.687 125.394C338.733 124.546 337.488 124.122 335.952 124.122C334.415 124.122 333.157 124.546 332.177 125.394C331.223 126.215 330.64 127.368 330.428 128.851Z" fill="black"/>
</svg>
