<svg width="3128" height="102" viewBox="0 0 3128 102" fill="none" xmlns="http://www.w3.org/2000/svg">
<path d="M153.022 101.993H0V51.2064H51.0102V0.419922H102.014V51.2064H153.022V101.993Z" fill="#019585"/>
<path d="M244.027 101.993C237.303 101.993 231.185 100.592 225.674 97.7902C220.257 94.9882 215.961 90.9253 212.785 85.6015C209.609 80.2776 208.021 73.833 208.021 66.2676V64.3062C208.021 56.7408 209.609 50.2961 212.785 44.9723C215.961 39.6485 220.257 35.5856 225.674 32.7835C231.185 29.9815 237.303 28.5805 244.027 28.5805C250.659 28.5805 256.356 29.748 261.12 32.083C265.883 34.4181 269.712 37.6404 272.608 41.75C275.597 45.7662 277.558 50.3428 278.492 55.4798L261.4 59.1225C261.026 56.3204 260.186 53.7986 258.878 51.557C257.57 49.3154 255.702 47.5408 253.274 46.2332C250.939 44.9256 247.997 44.2718 244.448 44.2718C240.898 44.2718 237.676 45.0657 234.781 46.6535C231.979 48.1479 229.737 50.4362 228.056 53.5184C226.468 56.5072 225.674 60.1966 225.674 64.5864V65.9874C225.674 70.3772 226.468 74.1132 228.056 77.1954C229.737 80.1843 231.979 82.4726 234.781 84.0604C237.676 85.5548 240.898 86.302 244.448 86.302C249.771 86.302 253.788 84.9477 256.496 82.2391C259.298 79.437 261.073 75.7944 261.82 71.3112L278.912 75.3741C277.698 80.3244 275.597 84.8543 272.608 88.9639C269.712 92.9801 265.883 96.1557 261.12 98.4907C256.356 100.826 250.659 101.993 244.027 101.993Z" fill="white"/>
<path d="M326.538 101.993C319.626 101.993 313.415 100.592 307.904 97.7902C302.394 94.9882 298.051 90.9253 294.875 85.6015C291.699 80.2776 290.112 73.8797 290.112 66.4077V64.1661C290.112 56.6941 291.699 50.2961 294.875 44.9723C298.051 39.6485 302.394 35.5856 307.904 32.7835C313.415 29.9815 319.626 28.5805 326.538 28.5805C333.449 28.5805 339.661 29.9815 345.171 32.7835C350.682 35.5856 355.025 39.6485 358.201 44.9723C361.376 50.2961 362.964 56.6941 362.964 64.1661V66.4077C362.964 73.8797 361.376 80.2776 358.201 85.6015C355.025 90.9253 350.682 94.9882 345.171 97.7902C339.661 100.592 333.449 101.993 326.538 101.993ZM326.538 86.302C331.955 86.302 336.438 84.5741 339.988 81.1183C343.537 77.569 345.311 72.5254 345.311 65.9874V64.5864C345.311 58.0484 343.537 53.0514 339.988 49.5956C336.532 46.0464 332.048 44.2718 326.538 44.2718C321.121 44.2718 316.637 46.0464 313.088 49.5956C309.539 53.0514 307.764 58.0484 307.764 64.5864V65.9874C307.764 72.5254 309.539 77.569 313.088 81.1183C316.637 84.5741 321.121 86.302 326.538 86.302Z" fill="white"/>
<path d="M379.258 100.032V30.5419H396.631V39.6485H399.153C400.273 37.2201 402.375 34.9318 405.457 32.7835C408.539 30.5419 413.209 29.4211 419.467 29.4211C424.884 29.4211 429.601 30.682 433.617 33.2038C437.727 35.6323 440.903 39.0414 443.144 43.4312C445.386 47.7276 446.507 52.7712 446.507 58.5621V100.032H428.854V59.9631C428.854 54.7326 427.546 50.8098 424.931 48.1946C422.409 45.5794 418.767 44.2718 414.003 44.2718C408.586 44.2718 404.383 46.0931 401.394 49.7357C398.405 53.2849 396.911 58.2819 396.911 64.7265V100.032H379.258Z" fill="white"/>
<path d="M465.59 100.032V30.5419H482.962V39.6485H485.484C486.605 37.2201 488.706 34.9318 491.789 32.7835C494.871 30.5419 499.541 29.4211 505.799 29.4211C511.216 29.4211 515.933 30.682 519.949 33.2038C524.059 35.6323 527.234 39.0414 529.476 43.4312C531.717 47.7276 532.838 52.7712 532.838 58.5621V100.032H515.185V59.9631C515.185 54.7326 513.878 50.8098 511.263 48.1946C508.741 45.5794 505.098 44.2718 500.335 44.2718C494.918 44.2718 490.715 46.0931 487.726 49.7357C484.737 53.2849 483.243 58.2819 483.243 64.7265V100.032H465.59Z" fill="white"/>
<path d="M583.584 101.993C576.672 101.993 570.555 100.546 565.231 97.6501C560.001 94.6613 555.891 90.505 552.902 85.1812C550.007 79.764 548.559 73.4127 548.559 66.1275V64.4463C548.559 57.161 550.007 50.8565 552.902 45.5327C555.797 40.1155 559.86 35.9592 565.091 33.0638C570.321 30.0749 576.392 28.5805 583.304 28.5805C590.122 28.5805 596.053 30.1216 601.097 33.2038C606.14 36.1927 610.063 40.3957 612.865 45.8129C615.667 51.1367 617.068 57.3479 617.068 64.4463V70.4706H566.492C566.679 75.234 568.453 79.1101 571.816 82.099C575.178 85.0878 579.288 86.5822 584.145 86.5822C589.095 86.5822 592.737 85.5081 595.072 83.3599C597.407 81.2117 599.182 78.8299 600.396 76.2147L614.827 83.7802C613.519 86.2086 611.604 88.8705 609.082 91.7659C606.654 94.5679 603.385 96.9963 599.275 99.0511C595.166 101.013 589.935 101.993 583.584 101.993ZM566.632 57.3012H599.135C598.762 53.2849 597.127 50.0626 594.232 47.6342C591.43 45.2058 587.74 43.9916 583.164 43.9916C578.4 43.9916 574.618 45.2058 571.816 47.6342C569.014 50.0626 567.286 53.2849 566.632 57.3012Z" fill="white"/>
<path d="M661.641 101.993C652.581 101.993 645.156 100.032 639.365 96.109C633.574 92.1862 630.072 86.5822 628.857 79.297L645.109 75.0939C645.763 78.3629 646.837 80.9315 648.331 82.7995C649.919 84.6675 651.834 86.0218 654.076 86.8624C656.411 87.6096 658.932 87.9832 661.641 87.9832C665.751 87.9832 668.786 87.2827 670.747 85.8817C672.709 84.3873 673.69 82.566 673.69 80.4178C673.69 78.2695 672.756 76.635 670.888 75.5142C669.02 74.3 666.031 73.3193 661.921 72.5721L657.998 71.8716C653.142 70.9376 648.705 69.6767 644.689 68.0889C640.673 66.4077 637.45 64.1194 635.022 61.224C632.593 58.3286 631.379 54.5925 631.379 50.0159C631.379 43.1043 633.901 37.8272 638.945 34.1845C643.988 30.4485 650.62 28.5805 658.839 28.5805C666.591 28.5805 673.036 30.3084 678.173 33.7643C683.31 37.2201 686.672 41.75 688.26 47.354L671.868 52.3976C671.121 48.8484 669.58 46.3266 667.245 44.8322C665.003 43.3378 662.201 42.5906 658.839 42.5906C655.477 42.5906 652.908 43.1977 651.133 44.4119C649.359 45.5327 648.471 47.1205 648.471 49.1753C648.471 51.4169 649.405 53.0981 651.273 54.2189C653.142 55.2463 655.663 56.0402 658.839 56.6006L662.762 57.3012C667.992 58.2352 672.709 59.4961 676.912 61.0839C681.208 62.5783 684.571 64.7732 686.999 67.6686C689.521 70.4706 690.782 74.3 690.782 79.1568C690.782 86.4421 688.12 92.0928 682.796 96.109C677.566 100.032 670.514 101.993 661.641 101.993Z" fill="white"/>
<path d="M735.112 101.993C726.052 101.993 718.627 100.032 712.836 96.109C707.045 92.1862 703.542 86.5822 702.328 79.297L718.58 75.0939C719.234 78.3629 720.308 80.9315 721.802 82.7995C723.39 84.6675 725.305 86.0218 727.546 86.8624C729.881 87.6096 732.403 87.9832 735.112 87.9832C739.221 87.9832 742.257 87.2827 744.218 85.8817C746.18 84.3873 747.16 82.566 747.16 80.4178C747.16 78.2695 746.226 76.635 744.358 75.5142C742.49 74.3 739.502 73.3193 735.392 72.5721L731.469 71.8716C726.612 70.9376 722.176 69.6767 718.159 68.0889C714.143 66.4077 710.921 64.1194 708.493 61.224C706.064 58.3286 704.85 54.5925 704.85 50.0159C704.85 43.1043 707.372 37.8272 712.415 34.1845C717.459 30.4485 724.09 28.5805 732.31 28.5805C740.062 28.5805 746.507 30.3084 751.644 33.7643C756.781 37.2201 760.143 41.75 761.731 47.354L745.339 52.3976C744.592 48.8484 743.051 46.3266 740.716 44.8322C738.474 43.3378 735.672 42.5906 732.31 42.5906C728.947 42.5906 726.379 43.1977 724.604 44.4119C722.83 45.5327 721.942 47.1205 721.942 49.1753C721.942 51.4169 722.876 53.0981 724.744 54.2189C726.612 55.2463 729.134 56.0402 732.31 56.6006L736.232 57.3012C741.463 58.2352 746.18 59.4961 750.383 61.0839C754.679 62.5783 758.041 64.7732 760.47 67.6686C762.992 70.4706 764.253 74.3 764.253 79.1568C764.253 86.4421 761.591 92.0928 756.267 96.109C751.036 100.032 743.985 101.993 735.112 101.993Z" fill="white"/>
<path d="M779.722 100.032V30.5419H797.374V100.032H779.722ZM788.548 22.4161C785.372 22.4161 782.664 21.3887 780.422 19.3339C778.274 17.2791 777.2 14.5705 777.2 11.2081C777.2 7.84564 778.274 5.13703 780.422 3.08222C782.664 1.02741 785.372 0 788.548 0C791.817 0 794.526 1.02741 796.674 3.08222C798.822 5.13703 799.896 7.84564 799.896 11.2081C799.896 14.5705 798.822 17.2791 796.674 19.3339C794.526 21.3887 791.817 22.4161 788.548 22.4161Z" fill="white"/>
<path d="M850 101.993C843.088 101.993 836.877 100.592 831.366 97.7902C825.856 94.9882 821.513 90.9253 818.337 85.6015C815.161 80.2776 813.573 73.8797 813.573 66.4077V64.1661C813.573 56.6941 815.161 50.2961 818.337 44.9723C821.513 39.6485 825.856 35.5856 831.366 32.7835C836.877 29.9815 843.088 28.5805 850 28.5805C856.911 28.5805 863.122 29.9815 868.633 32.7835C874.144 35.5856 878.487 39.6485 881.662 44.9723C884.838 50.2961 886.426 56.6941 886.426 64.1661V66.4077C886.426 73.8797 884.838 80.2776 881.662 85.6015C878.487 90.9253 874.144 94.9882 868.633 97.7902C863.122 100.592 856.911 101.993 850 101.993ZM850 86.302C855.417 86.302 859.9 84.5741 863.449 81.1183C866.998 77.569 868.773 72.5254 868.773 65.9874V64.5864C868.773 58.0484 866.998 53.0514 863.449 49.5956C859.993 46.0464 855.51 44.2718 850 44.2718C844.582 44.2718 840.099 46.0464 836.55 49.5956C833.001 53.0514 831.226 58.0484 831.226 64.5864V65.9874C831.226 72.5254 833.001 77.569 836.55 81.1183C840.099 84.5741 844.582 86.302 850 86.302Z" fill="white"/>
<path d="M902.72 100.032V30.5419H920.093V39.6485H922.614C923.735 37.2201 925.837 34.9318 928.919 32.7835C932.001 30.5419 936.671 29.4211 942.929 29.4211C948.346 29.4211 953.063 30.682 957.079 33.2038C961.189 35.6323 964.364 39.0414 966.606 43.4312C968.848 47.7276 969.968 52.7712 969.968 58.5621V100.032H952.316V59.9631C952.316 54.7326 951.008 50.8098 948.393 48.1946C945.871 45.5794 942.229 44.2718 937.465 44.2718C932.048 44.2718 927.845 46.0931 924.856 49.7357C921.867 53.2849 920.373 58.2819 920.373 64.7265V100.032H902.72Z" fill="white"/>
<path d="M989.052 100.032V30.5419H1006.7V100.032H989.052ZM997.878 22.4161C994.702 22.4161 991.994 21.3887 989.752 19.3339C987.604 17.2791 986.53 14.5705 986.53 11.2081C986.53 7.84564 987.604 5.13703 989.752 3.08222C991.994 1.02741 994.702 0 997.878 0C1001.15 0 1003.86 1.02741 1006 3.08222C1008.15 5.13703 1009.23 7.84564 1009.23 11.2081C1009.23 14.5705 1008.15 17.2791 1006 19.3339C1003.86 21.3887 1001.15 22.4161 997.878 22.4161Z" fill="white"/>
<path d="M1166.24 0.419922H1064.23V101.993H1166.24V0.419922Z" fill="#D42657"/>
<path d="M1223.76 100.032V30.5419H1241.41V100.032H1223.76ZM1232.59 22.4161C1229.41 22.4161 1226.7 21.3887 1224.46 19.3339C1222.31 17.2791 1221.24 14.5705 1221.24 11.2081C1221.24 7.84564 1222.31 5.13703 1224.46 3.08222C1226.7 1.02741 1229.41 0 1232.59 0C1235.86 0 1238.57 1.02741 1240.71 3.08222C1242.86 5.13703 1243.94 7.84564 1243.94 11.2081C1243.94 14.5705 1242.86 17.2791 1240.71 19.3339C1238.57 21.3887 1235.86 22.4161 1232.59 22.4161Z" fill="white"/>
<path d="M1289 101.993C1283.49 101.993 1278.3 100.639 1273.45 97.9303C1268.68 95.1283 1264.85 91.0654 1261.96 85.7416C1259.06 80.4178 1257.61 73.9731 1257.61 66.4077V64.1661C1257.61 56.6007 1259.06 50.156 1261.96 44.8322C1264.85 39.5084 1268.68 35.4922 1273.45 32.7835C1278.21 29.9815 1283.39 28.5805 1289 28.5805C1293.2 28.5805 1296.7 29.0942 1299.5 30.1216C1302.4 31.0556 1304.73 32.2698 1306.51 33.7643C1308.28 35.2587 1309.64 36.8465 1310.57 38.5277H1313.09V1.96141H1330.75V100.032H1313.37V91.6258H1310.85C1309.26 94.241 1306.79 96.6227 1303.43 98.7709C1300.16 100.919 1295.35 101.993 1289 101.993ZM1294.32 86.5822C1299.74 86.5822 1304.27 84.8543 1307.91 81.3985C1311.55 77.8492 1313.37 72.7122 1313.37 65.9874V64.5864C1313.37 57.8616 1311.55 52.7712 1307.91 49.3154C1304.36 45.7662 1299.83 43.9916 1294.32 43.9916C1288.9 43.9916 1284.37 45.7662 1280.73 49.3154C1277.09 52.7712 1275.27 57.8616 1275.27 64.5864V65.9874C1275.27 72.7122 1277.09 77.8492 1280.73 81.3985C1284.37 84.8543 1288.9 86.5822 1294.32 86.5822Z" fill="white"/>
<path d="M1381.98 101.993C1375.07 101.993 1368.95 100.546 1363.63 97.6501C1358.4 94.6613 1354.29 90.505 1351.3 85.1812C1348.4 79.764 1346.96 73.4127 1346.96 66.1275V64.4463C1346.96 57.161 1348.4 50.8565 1351.3 45.5327C1354.19 40.1155 1358.26 35.9592 1363.49 33.0638C1368.72 30.0749 1374.79 28.5805 1381.7 28.5805C1388.52 28.5805 1394.45 30.1216 1399.49 33.2038C1404.54 36.1927 1408.46 40.3957 1411.26 45.8129C1414.06 51.1367 1415.46 57.3479 1415.46 64.4463V70.4706H1364.89C1365.08 75.234 1366.85 79.1101 1370.21 82.099C1373.57 85.0878 1377.68 86.5822 1382.54 86.5822C1387.49 86.5822 1391.13 85.5081 1393.47 83.3599C1395.8 81.2117 1397.58 78.8299 1398.79 76.2147L1413.22 83.7802C1411.92 86.2086 1410 88.8705 1407.48 91.7659C1405.05 94.5679 1401.78 96.9963 1397.67 99.0511C1393.56 101.013 1388.33 101.993 1381.98 101.993ZM1365.03 57.3012H1397.53C1397.16 53.2849 1395.52 50.0626 1392.63 47.6342C1389.83 45.2058 1386.14 43.9916 1381.56 43.9916C1376.8 43.9916 1373.01 45.2058 1370.21 47.6342C1367.41 50.0626 1365.68 53.2849 1365.03 57.3012Z" fill="white"/>
<path d="M1462.84 101.993C1455.93 101.993 1449.81 100.546 1444.49 97.6501C1439.26 94.6613 1435.15 90.505 1432.16 85.1812C1429.26 79.764 1427.81 73.4127 1427.81 66.1275V64.4463C1427.81 57.161 1429.26 50.8565 1432.16 45.5327C1435.05 40.1155 1439.12 35.9592 1444.35 33.0638C1449.58 30.0749 1455.65 28.5805 1462.56 28.5805C1469.38 28.5805 1475.31 30.1216 1480.35 33.2038C1485.4 36.1927 1489.32 40.3957 1492.12 45.8129C1494.92 51.1367 1496.32 57.3479 1496.32 64.4463V70.4706H1445.75C1445.93 75.234 1447.71 79.1101 1451.07 82.099C1454.43 85.0878 1458.54 86.5822 1463.4 86.5822C1468.35 86.5822 1471.99 85.5081 1474.33 83.3599C1476.66 81.2117 1478.44 78.8299 1479.65 76.2147L1494.08 83.7802C1492.77 86.2086 1490.86 88.8705 1488.34 91.7659C1485.91 94.5679 1482.64 96.9963 1478.53 99.0511C1474.42 101.013 1469.19 101.993 1462.84 101.993ZM1445.89 57.3012H1478.39C1478.02 53.2849 1476.38 50.0626 1473.49 47.6342C1470.68 45.2058 1467 43.9916 1462.42 43.9916C1457.66 43.9916 1453.87 45.2058 1451.07 47.6342C1448.27 50.0626 1446.54 53.2849 1445.89 57.3012Z" fill="white"/>
<path d="M1551.32 2.17187L1651.77 2.17187V52.0827L1702 52.0827V101.994L1601.55 101.994V52.0827L1551.32 52.0827V2.17187Z" fill="#FA8B1F"/>
<path d="M1759.52 100.032V30.5419H1777.17V100.032H1759.52ZM1768.35 22.4161C1765.17 22.4161 1762.46 21.3887 1760.22 19.3339C1758.07 17.2791 1757 14.5705 1757 11.2081C1757 7.84564 1758.07 5.13703 1760.22 3.08222C1762.46 1.02741 1765.17 0 1768.35 0C1771.62 0 1774.33 1.02741 1776.47 3.08222C1778.62 5.13703 1779.7 7.84564 1779.7 11.2081C1779.7 14.5705 1778.62 17.2791 1776.47 19.3339C1774.33 21.3887 1771.62 22.4161 1768.35 22.4161Z" fill="white"/>
<path d="M1796.74 100.032V30.5419H1814.11V39.6485H1816.63C1817.75 37.2201 1819.85 34.9318 1822.93 32.7835C1826.02 30.5419 1830.69 29.4211 1836.94 29.4211C1842.36 29.4211 1847.08 30.682 1851.1 33.2038C1855.2 35.6323 1858.38 39.0414 1860.62 43.4312C1862.86 47.7276 1863.98 52.7712 1863.98 58.5621V100.032H1846.33V59.9631C1846.33 54.7326 1845.02 50.8098 1842.41 48.1946C1839.89 45.5794 1836.24 44.2718 1831.48 44.2718C1826.06 44.2718 1821.86 46.0931 1818.87 49.7357C1815.88 53.2849 1814.39 58.2819 1814.39 64.7265V100.032H1796.74Z" fill="white"/>
<path d="M1915.71 101.993C1908.99 101.993 1902.87 100.592 1897.36 97.7902C1891.94 94.9882 1887.64 90.9253 1884.47 85.6015C1881.29 80.2776 1879.71 73.833 1879.71 66.2676V64.3062C1879.71 56.7408 1881.29 50.2961 1884.47 44.9723C1887.64 39.6485 1891.94 35.5856 1897.36 32.7835C1902.87 29.9815 1908.99 28.5805 1915.71 28.5805C1922.34 28.5805 1928.04 29.748 1932.8 32.083C1937.57 34.4181 1941.4 37.6404 1944.29 41.75C1947.28 45.7662 1949.24 50.3428 1950.18 55.4798L1933.08 59.1225C1932.71 56.3204 1931.87 53.7986 1930.56 51.557C1929.25 49.3154 1927.39 47.5408 1924.96 46.2332C1922.62 44.9256 1919.68 44.2718 1916.13 44.2718C1912.58 44.2718 1909.36 45.0657 1906.46 46.6535C1903.66 48.1479 1901.42 50.4362 1899.74 53.5184C1898.15 56.5072 1897.36 60.1966 1897.36 64.5864V65.9874C1897.36 70.3772 1898.15 74.1132 1899.74 77.1954C1901.42 80.1843 1903.66 82.4726 1906.46 84.0604C1909.36 85.5548 1912.58 86.302 1916.13 86.302C1921.46 86.302 1925.47 84.9477 1928.18 82.2391C1930.98 79.437 1932.76 75.7944 1933.5 71.3112L1950.6 75.3741C1949.38 80.3244 1947.28 84.8543 1944.29 88.9639C1941.4 92.9801 1937.57 96.1557 1932.8 98.4907C1928.04 100.826 1922.34 101.993 1915.71 101.993Z" fill="white"/>
<path d="M1986.73 101.993C1981.78 101.993 1977.35 101.153 1973.42 99.4714C1969.5 97.6968 1966.37 95.175 1964.04 91.906C1961.8 88.5436 1960.67 84.4807 1960.67 79.7172C1960.67 74.9538 1961.8 70.9843 1964.04 67.8087C1966.37 64.5397 1969.55 62.1113 1973.56 60.5235C1977.67 58.8423 1982.34 58.0017 1987.57 58.0017H2006.63V54.0788C2006.63 50.8098 2005.6 48.1479 2003.55 46.0931C2001.49 43.9449 1998.22 42.8708 1993.74 42.8708C1989.35 42.8708 1986.08 43.8982 1983.93 45.953C1981.78 47.9144 1980.38 50.4829 1979.73 53.6585L1963.48 48.1946C1964.6 44.6454 1966.37 41.4231 1968.8 38.5277C1971.32 35.5389 1974.64 33.1571 1978.75 31.3825C1982.95 29.5145 1988.04 28.5805 1994.02 28.5805C2003.17 28.5805 2010.41 30.8688 2015.73 35.4455C2021.06 40.0221 2023.72 46.6535 2023.72 55.3397V81.2584C2023.72 84.0604 2025.03 85.4614 2027.64 85.4614H2033.25V100.032H2021.48C2018.02 100.032 2015.17 99.1912 2012.93 97.51C2010.69 95.8288 2009.57 93.5872 2009.57 90.7852V90.6451H2006.91C2006.53 91.7659 2005.69 93.2603 2004.39 95.1283C2003.08 96.9029 2001.02 98.4907 1998.22 99.8917C1995.42 101.293 1991.59 101.993 1986.73 101.993ZM1989.82 87.703C1994.77 87.703 1998.78 86.3487 2001.86 83.6401C2005.04 80.8381 2006.63 77.1487 2006.63 72.5721V71.1711H1988.83C1985.57 71.1711 1983 71.8716 1981.13 73.2726C1979.26 74.6736 1978.33 76.635 1978.33 79.1568C1978.33 81.6787 1979.31 83.7335 1981.27 85.3213C1983.23 86.9091 1986.08 87.703 1989.82 87.703Z" fill="white"/>
<path d="M2074.47 101.993C2065.41 101.993 2057.98 100.032 2052.19 96.109C2046.4 92.1862 2042.9 86.5822 2041.68 79.297L2057.93 75.0939C2058.59 78.3629 2059.66 80.9315 2061.16 82.7995C2062.75 84.6675 2064.66 86.0218 2066.9 86.8624C2069.24 87.6096 2071.76 87.9832 2074.47 87.9832C2078.58 87.9832 2081.61 87.2827 2083.57 85.8817C2085.53 84.3873 2086.52 82.566 2086.52 80.4178C2086.52 78.2695 2085.58 76.635 2083.71 75.5142C2081.85 74.3 2078.86 73.3193 2074.75 72.5721L2070.82 71.8716C2065.97 70.9376 2061.53 69.6767 2057.51 68.0889C2053.5 66.4077 2050.28 64.1194 2047.85 61.224C2045.42 58.3286 2044.21 54.5925 2044.21 50.0159C2044.21 43.1043 2046.73 37.8272 2051.77 34.1845C2056.81 30.4485 2063.45 28.5805 2071.66 28.5805C2079.42 28.5805 2085.86 30.3084 2091 33.7643C2096.14 37.2201 2099.5 41.75 2101.09 47.354L2084.69 52.3976C2083.95 48.8484 2082.41 46.3266 2080.07 44.8322C2077.83 43.3378 2075.03 42.5906 2071.66 42.5906C2068.3 42.5906 2065.73 43.1977 2063.96 44.4119C2062.18 45.5327 2061.3 47.1205 2061.3 49.1753C2061.3 51.4169 2062.23 53.0981 2064.1 54.2189C2065.97 55.2463 2068.49 56.0402 2071.66 56.6006L2075.59 57.3012C2080.82 58.2352 2085.53 59.4961 2089.74 61.0839C2094.03 62.5783 2097.4 64.7732 2099.83 67.6686C2102.35 70.4706 2103.61 74.3 2103.61 79.1568C2103.61 86.4421 2100.95 92.0928 2095.62 96.109C2090.39 100.032 2083.34 101.993 2074.47 101.993Z" fill="white"/>
<path d="M2144.33 100.032C2139.75 100.032 2136.02 98.6308 2133.12 95.8288C2130.32 92.9334 2128.92 89.104 2128.92 84.3406V45.1124H2111.54V30.5419H2128.92V8.96644H2146.57V30.5419H2165.62V45.1124H2146.57V81.2584C2146.57 84.0604 2147.88 85.4614 2150.49 85.4614H2163.94V100.032H2144.33Z" fill="white"/>
<path d="M2181.6 100.032V30.5419H2198.97V38.3876H2201.5C2202.52 35.5856 2204.21 33.5308 2206.54 32.2231C2208.97 30.9155 2211.77 30.2617 2214.95 30.2617H2223.35V45.953H2214.67C2210.18 45.953 2206.49 47.1672 2203.6 49.5956C2200.7 51.9306 2199.25 55.5732 2199.25 60.5235V100.032H2181.6Z" fill="white"/>
<path d="M2237.15 100.032V30.5419H2254.8V100.032H2237.15ZM2245.98 22.4161C2242.8 22.4161 2240.09 21.3887 2237.85 19.3339C2235.7 17.2791 2234.63 14.5705 2234.63 11.2081C2234.63 7.84564 2235.7 5.13703 2237.85 3.08222C2240.09 1.02741 2242.8 0 2245.98 0C2249.25 0 2251.95 1.02741 2254.1 3.08222C2256.25 5.13703 2257.32 7.84564 2257.32 11.2081C2257.32 14.5705 2256.25 17.2791 2254.1 19.3339C2251.95 21.3887 2249.25 22.4161 2245.98 22.4161Z" fill="white"/>
<path d="M2515.47 51.207H2312.32V101.993H2515.47V51.207Z" fill="#F1CC02"/>
<path d="M2572.99 100.032V30.5419H2590.65V100.032H2572.99ZM2581.82 22.4161C2578.64 22.4161 2575.93 21.3887 2573.69 19.3339C2571.54 17.2791 2570.47 14.5705 2570.47 11.2081C2570.47 7.84564 2571.54 5.13703 2573.69 3.08222C2575.93 1.02741 2578.64 0 2581.82 0C2585.09 0 2587.8 1.02741 2589.94 3.08222C2592.09 5.13703 2593.17 7.84564 2593.17 11.2081C2593.17 14.5705 2592.09 17.2791 2589.94 19.3339C2587.8 21.3887 2585.09 22.4161 2581.82 22.4161Z" fill="white"/>
<path d="M2610.21 100.032V30.5419H2627.58V39.6485H2630.1C2631.22 37.2201 2633.32 34.9318 2636.41 32.7835C2639.49 30.5419 2644.16 29.4211 2650.42 29.4211C2655.83 29.4211 2660.55 30.682 2664.57 33.2038C2668.68 35.6323 2671.85 39.0414 2674.09 43.4312C2676.33 47.7276 2677.46 52.7712 2677.46 58.5621V100.032H2659.8V59.9631C2659.8 54.7326 2658.49 50.8098 2655.88 48.1946C2653.36 45.5794 2649.72 44.2718 2644.95 44.2718C2639.53 44.2718 2635.33 46.0931 2632.34 49.7357C2629.35 53.2849 2627.86 58.2819 2627.86 64.7265V100.032H2610.21Z" fill="white"/>
<path d="M2725.4 101.993C2716.34 101.993 2708.91 100.032 2703.12 96.109C2697.33 92.1862 2693.83 86.5822 2692.62 79.297L2708.87 75.0939C2709.52 78.3629 2710.6 80.9315 2712.09 82.7995C2713.68 84.6675 2715.59 86.0218 2717.83 86.8624C2720.17 87.6096 2722.69 87.9832 2725.4 87.9832C2729.51 87.9832 2732.54 87.2827 2734.51 85.8817C2736.47 84.3873 2737.45 82.566 2737.45 80.4178C2737.45 78.2695 2736.51 76.635 2734.65 75.5142C2732.78 74.3 2729.79 73.3193 2725.68 72.5721L2721.76 71.8716C2716.9 70.9376 2712.46 69.6767 2708.45 68.0889C2704.43 66.4077 2701.21 64.1194 2698.78 61.224C2696.35 58.3286 2695.14 54.5925 2695.14 50.0159C2695.14 43.1043 2697.66 37.8272 2702.7 34.1845C2707.75 30.4485 2714.38 28.5805 2722.6 28.5805C2730.35 28.5805 2736.79 30.3084 2741.93 33.7643C2747.07 37.2201 2750.43 41.75 2752.02 47.354L2735.63 52.3976C2734.88 48.8484 2733.34 46.3266 2731 44.8322C2728.76 43.3378 2725.96 42.5906 2722.6 42.5906C2719.23 42.5906 2716.67 43.1977 2714.89 44.4119C2713.12 45.5327 2712.23 47.1205 2712.23 49.1753C2712.23 51.4169 2713.16 53.0981 2715.03 54.2189C2716.9 55.2463 2719.42 56.0402 2722.6 56.6006L2726.52 57.3012C2731.75 58.2352 2736.47 59.4961 2740.67 61.0839C2744.97 62.5783 2748.33 64.7732 2750.76 67.6686C2753.28 70.4706 2754.54 74.3 2754.54 79.1568C2754.54 86.4421 2751.88 92.0928 2746.55 96.109C2741.32 100.032 2734.27 101.993 2725.4 101.993Z" fill="white"/>
<path d="M2770.01 100.032V30.5419H2787.66V100.032H2770.01ZM2778.84 22.4161C2775.66 22.4161 2772.95 21.3887 2770.71 19.3339C2768.56 17.2791 2767.49 14.5705 2767.49 11.2081C2767.49 7.84564 2768.56 5.13703 2770.71 3.08222C2772.95 1.02741 2775.66 0 2778.84 0C2782.1 0 2784.81 1.02741 2786.96 3.08222C2789.11 5.13703 2790.18 7.84564 2790.18 11.2081C2790.18 14.5705 2789.11 17.2791 2786.96 19.3339C2784.81 21.3887 2782.1 22.4161 2778.84 22.4161Z" fill="white"/>
<path d="M2838.89 101.993C2831.97 101.993 2825.86 100.546 2820.53 97.6501C2815.3 94.6613 2811.19 90.505 2808.2 85.1812C2805.31 79.764 2803.86 73.4127 2803.86 66.1275V64.4463C2803.86 57.161 2805.31 50.8565 2808.2 45.5327C2811.1 40.1155 2815.16 35.9592 2820.39 33.0638C2825.62 30.0749 2831.69 28.5805 2838.61 28.5805C2845.42 28.5805 2851.35 30.1216 2856.4 33.2038C2861.44 36.1927 2865.36 40.3957 2868.17 45.8129C2870.97 51.1367 2872.37 57.3479 2872.37 64.4463V70.4706H2821.79C2821.98 75.234 2823.76 79.1101 2827.12 82.099C2830.48 85.0878 2834.59 86.5822 2839.45 86.5822C2844.4 86.5822 2848.04 85.5081 2850.37 83.3599C2852.71 81.2117 2854.48 78.8299 2855.7 76.2147L2870.13 83.7802C2868.82 86.2086 2866.91 88.8705 2864.38 91.7659C2861.96 94.5679 2858.69 96.9963 2854.58 99.0511C2850.47 101.013 2845.24 101.993 2838.89 101.993ZM2821.93 57.3012H2854.44C2854.06 53.2849 2852.43 50.0626 2849.53 47.6342C2846.73 45.2058 2843.04 43.9916 2838.47 43.9916C2833.7 43.9916 2829.92 45.2058 2827.12 47.6342C2824.32 50.0626 2822.59 53.2849 2821.93 57.3012Z" fill="white"/>
<path d="M2888.08 100.032V30.5419H2905.45V38.1074H2907.98C2909.19 35.7724 2911.2 33.7643 2914 32.083C2916.8 30.3084 2920.49 29.4211 2925.07 29.4211C2930.02 29.4211 2933.99 30.4018 2936.98 32.3632C2939.97 34.2312 2942.25 36.7064 2943.84 39.7886H2946.36C2947.95 36.7998 2950.19 34.3247 2953.09 32.3632C2955.98 30.4018 2960.09 29.4211 2965.42 29.4211C2969.71 29.4211 2973.59 30.3551 2977.05 32.2231C2980.6 33.9978 2983.4 36.7531 2985.45 40.4891C2987.6 44.1317 2988.67 48.755 2988.67 54.359V100.032H2971.02V55.6199C2971.02 51.7905 2970.04 48.9418 2968.08 47.0738C2966.12 45.1124 2963.36 44.1317 2959.81 44.1317C2955.8 44.1317 2952.67 45.4393 2950.43 48.0545C2948.28 50.5763 2947.2 54.2189 2947.2 58.9824V100.032H2929.55V55.6199C2929.55 51.7905 2928.57 48.9418 2926.61 47.0738C2924.65 45.1124 2921.89 44.1317 2918.34 44.1317C2914.33 44.1317 2911.2 45.4393 2908.96 48.0545C2906.81 50.5763 2905.73 54.2189 2905.73 58.9824V100.032H2888.08Z" fill="white"/>
<path d="M3039.32 101.993C3032.41 101.993 3026.29 100.546 3020.97 97.6501C3015.74 94.6613 3011.63 90.505 3008.64 85.1812C3005.75 79.764 3004.3 73.4127 3004.3 66.1275V64.4463C3004.3 57.161 3005.75 50.8565 3008.64 45.5327C3011.54 40.1155 3015.6 35.9592 3020.83 33.0638C3026.06 30.0749 3032.13 28.5805 3039.04 28.5805C3045.86 28.5805 3051.79 30.1216 3056.84 33.2038C3061.88 36.1927 3065.8 40.3957 3068.6 45.8129C3071.41 51.1367 3072.81 57.3479 3072.81 64.4463V70.4706H3022.23C3022.42 75.234 3024.19 79.1101 3027.55 82.099C3030.92 85.0878 3035.03 86.5822 3039.88 86.5822C3044.83 86.5822 3048.48 85.5081 3050.81 83.3599C3053.15 81.2117 3054.92 78.8299 3056.13 76.2147L3070.57 83.7802C3069.26 86.2086 3067.34 88.8705 3064.82 91.7659C3062.39 94.5679 3059.12 96.9963 3055.01 99.0511C3050.9 101.013 3045.67 101.993 3039.32 101.993ZM3022.37 57.3012H3054.87C3054.5 53.2849 3052.87 50.0626 3049.97 47.6342C3047.17 45.2058 3043.48 43.9916 3038.9 43.9916C3034.14 43.9916 3030.36 45.2058 3027.55 47.6342C3024.75 50.0626 3023.02 53.2849 3022.37 57.3012Z" fill="white"/>
</svg>
