<svg width="1127" height="1047" fill="none" xmlns="http://www.w3.org/2000/svg"><g opacity=".6" stroke="#fff"><path d="M729.495 289.408h-72.092v72.097h72.092v-72.097Zm-72.092-.021v-72.101h36.046v-36.051h36.046v72.101h-36.046v36.051h-36.046Z"/><path d="M657.671 325.799h-36.046V470h36.046V325.799Zm-72.358 35.706h-72.092v36.055h-36.046v36.046h72.092V397.56h36.046v-36.055Zm180.229-144.201v108.151h-36.046v-36.051H693.45v-36.05h36.046v-36.05h36.046Z"/><path d="M513.223 325.456H621.36v72.101h-36.045v-36.053h-72.092v-36.048Zm144.18 72.095h108.138V325.45h-36.046v36.048h-72.092v36.053Zm-36.046.006h-72.091v72.098h72.091v-72.098Zm36.046-.001h72.092v36.048h36.046v36.05h-72.092v-36.05h-36.046v-36.048Z"/><path d="M621.36 505.707H513.223v-72.103h36.046v36.051h72.091v36.052Zm108.138 0H621.36v-36.052h36.046v-36.051h36.046v36.051h36.046v36.052Z"/><path d="M549.268 505.706H405.085v36.053h144.183v-36.053Z"/><path d="M405.085 505.707h108.137v-72.103h-36.045v36.051h-72.092v36.052Z"/><path d="M369.038 397.556h72.091v36.048h36.046v36.05h-72.092v-36.05h-36.045v-36.048Z"/><path d="M405.082 433.604H332.99v72.101h72.092v-72.101Zm.003-72.099h108.137v36.055h-36.045v36.046h-36.046V397.56h-36.046v-36.055Z"/><path d="M405.085 361.505h-72.092v36.055h-36.045v36.046h72.091V397.56h36.046v-36.055Zm-.003 540.759v-72.101h-36.046V794.11H332.99v72.101h36.046v36.053h36.046ZM1 671.431h108.137v72.098H73.092v-36.048L1 707.483v-36.052Z"/><path d="M260.9 866.212h108.138v72.103h-36.046v-36.051H260.9v-36.052Zm36.042-648.908H224.85v36.05h-36.045v36.051h72.091v-36.051h36.046v-36.05Z"/><path d="M260.9 325.455v-72.101h36.046v-36.05h36.046v72.1h-36.046v36.051H260.9Z"/><path d="M405.085 361.505H296.948v-72.097h36.045v36.048h72.092v36.049Zm180.228-72.1H477.175v72.097h36.046v-36.046h72.092v-36.051Z"/><path d="M369.038 253.355v72.101h36.045v36.048h36.046v-72.096h-36.046v-36.053h-36.045Z"/><path d="M477.173 217.304h-36.046v144.203h36.046V217.304ZM332.99 325.455V217.304h72.092v36.05h-36.046v72.101H332.99Z"/><path d="M441.129 289.406V181.253h-72.091v36.053h36.045v72.1h36.046ZM657.404 505.71h-72.091v72.099h72.091V505.71Z"/><path d="M585.314 505.706v108.149h-36.045v-36.05h-36.046v-36.046h36.046v-36.053h36.045Z"/><path d="M585.313 577.809h72.091v36.05h36.046v36.05h-72.091v-36.05h-36.046v-36.05Z"/><path d="M657.403 505.706v108.149h72.092v-36.05h-36.046v-72.099h-36.046Zm-180.228 72.103H369.038V505.71h36.045v36.05h72.092v36.049Z"/><path d="M441.127 649.91v-72.101h36.046v-36.048h36.046v72.096h-36.046v36.053h-36.046Zm72.096-72.101v72.1h36.046v36.051h36.045v-72.101h-36.045v-36.05h-36.046Z"/><path d="M513.221 613.856h-36.046V758.06h36.046V613.856Zm252.323-72.095h-36.046V685.96h36.046V541.761Z"/><path d="M693.45 577.809v-72.098h36.046v-36.053h36.046v72.103h-36.046v36.048H693.45Zm0 108.149H585.313v-72.101h36.046v36.051h72.091v36.05Zm72.094 36.05H621.36v36.05h144.184v-36.05Z"/><path d="M513.223 758.059V649.908h36.046v36.051h36.045v36.05h-36.045v36.05h-36.046ZM693.45 613.856V722.01h72.092v-36.053h-36.046v-72.101H693.45Z"/><path d="M693.45 685.96H585.313v72.101h36.046v-36.048h72.091V685.96Z"/><path d="M549.266 722.008v72.098h36.045v36.053h36.046v-72.101h-36.046v-36.05h-36.045Zm-.001 72.103H441.127v-72.098h36.046v36.048h72.092v36.05Zm-72.088-144.203h-72.092v72.101h72.092v-72.101Z"/><path d="M369.038 685.96v-72.101h36.045v-36.05h36.046v72.1h-36.046v36.051h-36.045Zm180.227 180.251H441.127v-36.05h36.046V794.11h36.046v36.051h36.046v36.05Zm72.095-108.149v108.151h72.092v-36.051h-36.046v-72.1H621.36Z"/><path d="M729.495 758.062h-72.092v72.1h72.092v-72.1Zm-468.595-.001h108.138V685.96h-36.046v36.05H260.9v36.051Zm108.138-72.101v72.101h36.045v36.05h36.046v-72.098h-36.046V685.96h-36.045Z"/><path d="M477.175 830.162H369.038v-72.1h36.045v36.048h72.092v36.052Zm36.048-36.052h72.092v36.053h36.045v36.048h-72.091v-36.048h-36.046V794.11Zm216.275 36.049v-72.101h36.046v-36.05h36.046v72.098h-36.046v36.053h-36.046Zm36.043-252.35v72.1h36.045v36.051h36.046v-72.101h-36.046v-36.05h-36.045Z"/><path d="M765.541 649.908v72.101h36.045v36.05h36.046v-72.1h-36.046v-36.051h-36.045Zm72.095 144.203v-72.098h36.046V685.96h36.046v72.101h-36.046v36.05h-36.046ZM729.498 433.606h72.092v-36.049h36.045v-36.052h-72.091v36.052h-36.046v36.049Z"/><path d="M873.68 289.405v108.151h-36.046v-36.054h-36.046v-36.046h36.046v-36.051h36.046Z"/><path d="M765.541 361.504v-72.096h36.045v-36.053h36.046v72.101h-36.046v36.048h-36.045Zm144.187 0V253.355h-72.092v36.053h36.046v72.096h36.046ZM657.404 253.355h-72.091v72.101h72.091v-72.101Z"/><path d="M765.541 289.406v-72.1h36.045v-36.053h36.046v72.101h-36.046v36.052h-36.045Zm72.095-36.05h72.092v-36.051h36.045v-36.05h-72.091v36.05h-36.046v36.051Z"/><path d="M981.818 253.355V145.204h-72.092v36.05h36.046v72.101h36.046Z"/><path d="M981.816 73.103v108.151h72.094v-36.051h-36.05v-72.1h-36.044Zm-.001.002h-72.089v72.1h72.089v-72.1Zm-468.594 72.094h-36.046v144.204h36.046V145.199Zm72.093 72.105h-72.091v72.101h72.091v-72.101Z"/><path d="M693.45 181.253h-72.091v36.053h-36.046v36.048h72.091v-36.048h36.046v-36.053Zm144.185 793.114H729.498v-36.053h36.046v-36.05h36.046v36.05h36.045v36.053Zm-432.55-865.215v72.099h36.046v36.053h36.046v-72.101h-36.046v-36.051h-36.046Z"/><path d="M801.588 866.212v72.103h36.046v36.052h36.046v-72.103h-36.046v-36.052h-36.046ZM369.038 73.103h108.137v72.1h-36.046v-36.048h-72.091V73.103Z"/><path d="M405.082 109.152H332.99v72.099h72.092v-72.099Zm-36.046 72.101H224.853v36.053h144.183v-36.053Zm108.136 721.011v108.156H405.08v-36.053h36.046v-72.103h36.046ZM224.852 37.052H116.715v72.101h36.046v-36.05h72.091V37.051Zm108.136 108.147H188.805v36.051h144.183v-36.051Z"/><path d="M224.852 73.103h-72.091v36.052h-36.046v36.048h72.091v-36.048h36.046V73.103Zm576.736 937.317h108.138v-72.106H873.68v36.053h-72.092v36.053Z"/><path d="M260.896 37.052v108.151h-72.091v-36.05h36.045V37.052h36.046Zm36.046 108.151V37.052h36.046v36.05h36.046v36.051h-36.046v36.05h-36.046Z"/><path d="M296.946 1H260.9v144.204h36.046V1Zm576.735 1009.41H729.498v36.05h144.183v-36.05ZM801.59 145.204h-72.092v72.101h72.092v-72.101Z"/><path d="M801.588 145.204h108.138v36.05H873.68v36.051h-36.046v-36.051h-36.046v-36.05Zm-36.047.001H657.403v-36.05h36.046v-36.05h36.046v36.05h36.046v36.05Z"/><path d="M909.724 109.152H765.541v36.051h144.183v-36.051ZM837.636 1h108.137v72.1h-36.045V37.054h-72.092V1ZM477.175 73.1H369.038V37.05h36.045V1h36.046v36.05h36.046V73.1Z"/><path d="M909.728 37.052h-72.092v72.101h72.092V37.052Zm-180.23 72.101h108.137V37.052H801.59V73.1h-72.092v36.053Zm36.043 721.007h-72.092v36.05h-36.046v36.051h72.092V866.21h36.046v-36.05Zm144.185 144.207v-72.103h36.046v-36.052h36.046v72.103h-36.046v36.052h-36.046Z"/><path d="M657.403 938.315h108.138v-72.103h-36.046v36.05h-72.092v36.053Zm-144.181-36.05H405.085v-72.101h36.046v36.048h72.091v36.053Z"/><path d="M801.588 1010.42H693.45v-72.106h36.046v36.053h72.092v36.053Zm144.185-36.055h72.097v36.045h36.04v36.05h-72.091v-36.05h-36.046v-36.045ZM224.85 1H80.667v36.053H224.85V1Zm612.785 0h-72.091v36.053h-36.046V73.1h72.092V37.053h36.045V1Zm180.225 108.153v-72.1h36.05V1h36.04v72.1h-36.04v36.053h-36.05ZM369.036 758.062H224.853v36.05h144.183v-36.05Zm72.093 144.202h-72.091v72.1h72.091v-72.1Z"/><path d="M332.99 938.314v72.096h36.046v36.05h36.046v-72.093h-36.046v-36.053H332.99Zm-144.185-.001V830.16h36.045v36.05h36.046v36.051H224.85v36.052h-36.045ZM332.992 794.11H260.9v72.101h72.092V794.11Z"/><path d="M152.762 794.11H260.9v72.101h-36.046v-36.048h-72.092V794.11Zm0 108.154v72.103h36.046v36.053h36.046v-72.106h-36.046v-36.05h-36.046ZM260.9 974.365h72.092v36.045h36.046v36.05h-72.092v-36.05H260.9v-36.045Zm72.092-72.101H260.9v72.1h72.092v-72.1Z"/><path d="M260.898 902.26h-36.045v144.2h36.045v-144.2Zm-36.046 144.2H116.715v-36.05h36.046v-36.045h36.045v36.045h36.046v36.05Z"/><path d="M80.667 1046.46v-72.093h36.046v-36.053h36.046v72.096h-36.046v36.05H80.667Zm793.011-216.3H765.541v72.101h36.045V866.21h72.092v-36.05Z"/><path d="M873.678 830.162H765.541V794.11h36.045v-36.048h36.046v36.048h36.046v36.052Zm108.138 216.298H873.678v-36.05h36.046v-36.045h36.046v36.045h36.046v36.05Zm36.054-108.147V830.16h-72.097v36.05h36.046v72.103h36.051Zm-72.097.001h108.137v72.096h-36.04v-36.043h-72.097v-36.053Zm-108.137-72.102h108.137v36.052h-36.045v36.051h-36.046v-36.051h-36.046v-36.052Zm216.274 180.248V938.314h36.05v36.053H1126v36.043h-36.04v36.05h-36.05Z"/><path d="M873.678 866.211h72.092v-36.05h36.046V794.11h-72.092v36.051h-36.046v36.05ZM549.267 217.156V109.007h-72.092v36.048h36.046v72.101h36.046ZM296.942 1H405.08v36.053h-36.046V73.1h-36.046V37.053h-36.046V1Zm648.831 0h108.137v36.053h-36.04V73.1h-36.051V37.053h-36.046V1ZM332.99 685.96V577.809h72.092v36.05h-36.046v72.101H332.99Z"/><path d="M332.992 613.856V722.01H260.9v-36.053h36.046v-72.101h36.046Z"/></g></svg>