<svg width="309" height="437" viewBox="0 0 309 437" fill="none" xmlns="http://www.w3.org/2000/svg">
<path d="M15.2234 34.1677C11.3414 34.1677 8.22643 33.1039 5.87844 30.9762C3.53044 28.8173 2.35645 25.5632 2.35645 21.214V12.9537C2.35645 8.72966 3.53044 5.52253 5.87844 3.33229C8.22643 1.11076 11.3414 0 15.2234 0C19.1368 0 22.2518 1.11076 24.5685 3.33229C26.9165 5.52253 28.0905 8.72966 28.0905 12.9537V21.214C28.0905 25.5632 26.9165 28.8173 24.5685 30.9762C22.2518 33.1039 19.1368 34.1677 15.2234 34.1677ZM15.2234 28.8173C17.5714 28.8173 19.2933 28.1758 20.389 26.893C21.5161 25.6101 22.0796 23.7797 22.0796 21.4017V12.6721C22.0796 10.2628 21.4535 8.44806 20.2012 7.22778C18.9802 5.97622 17.321 5.35044 15.2234 5.35044C13.0633 5.35044 11.3727 5.99186 10.1518 7.27471C8.96213 8.55757 8.36731 10.3567 8.36731 12.6721V21.4017C8.36731 23.8736 8.93083 25.7353 10.0579 26.9868C11.2162 28.2071 12.9381 28.8173 15.2234 28.8173Z" fill="white"/>
<path d="M50.5109 34.1677C48.0063 34.1677 45.8305 33.6984 43.9834 32.7597C42.1363 31.821 40.7119 30.5225 39.7101 28.8642C38.7083 27.2059 38.2074 25.2972 38.2074 23.1383V11.9211C38.2074 9.26157 38.7396 7.05569 39.804 5.3035C40.8997 3.52002 42.3868 2.19024 44.2652 1.31414C46.1749 0.438047 48.3507 0 50.7926 0C53.2345 0 55.3477 0.406759 57.1322 1.22028C58.948 2.03379 60.3411 3.20713 61.3116 4.7403C62.3134 6.27346 62.8143 8.10388 62.8143 10.2315H56.7096C56.7096 8.91739 56.2556 7.77534 55.3477 6.80538C54.4398 5.83542 52.9215 5.35044 50.7926 5.35044C48.6951 5.35044 47.0671 5.89799 45.9088 6.99311C44.7818 8.08823 44.2182 9.60575 44.2182 11.5457V14.9249H45.0635C45.5957 14.2991 46.4097 13.7046 47.5054 13.1414C48.6012 12.5782 50.1978 12.2966 52.2953 12.2966C54.205 12.2966 55.9582 12.7034 57.5548 13.5169C59.1828 14.3304 60.4977 15.5194 61.4995 17.0838C62.5013 18.617 63.0022 20.4787 63.0022 22.6689V23.2322C63.0022 25.3911 62.4856 27.2997 61.4525 28.9581C60.4194 30.5851 58.9636 31.8679 57.0852 32.8066C55.2068 33.714 53.0154 34.1677 50.5109 34.1677ZM50.6048 28.8173C52.5771 28.8173 54.1268 28.301 55.2538 27.2684C56.4121 26.2359 56.9913 24.8592 56.9913 23.1383V22.7628C56.9913 21.6051 56.7252 20.6039 56.193 19.7591C55.6921 18.9143 54.9564 18.2572 53.9859 17.7878C53.0467 17.3185 51.9197 17.0838 50.6048 17.0838C49.3212 17.0838 48.1942 17.3185 47.2237 17.7878C46.2532 18.2572 45.5018 18.9143 44.9696 19.7591C44.4687 20.6039 44.2182 21.6051 44.2182 22.7628V23.1383C44.2182 24.8592 44.7818 26.2359 45.9088 27.2684C47.0671 28.301 48.6325 28.8173 50.6048 28.8173Z" fill="white"/>
<path d="M77.194 34.1677C75.9417 34.1677 74.8773 33.7609 74.0007 32.9474C73.1554 32.1026 72.7328 31.0231 72.7328 29.709C72.7328 28.3949 73.1554 27.331 74.0007 26.5175C74.8773 25.6727 75.9417 25.2503 77.194 25.2503C78.4775 25.2503 79.542 25.6727 80.3872 26.5175C81.2325 27.331 81.6552 28.3949 81.6552 29.709C81.6552 31.0231 81.2325 32.1026 80.3872 32.9474C79.542 33.7609 78.4775 34.1677 77.194 34.1677Z" fill="white"/>
<path d="M104.249 34.1677C100.367 34.1677 97.2521 33.1039 94.9041 30.9762C92.5561 28.8173 91.3821 25.5632 91.3821 21.214V12.9537C91.3821 8.72966 92.5561 5.52253 94.9041 3.33229C97.2521 1.11076 100.367 0 104.249 0C108.162 0 111.277 1.11076 113.594 3.33229C115.942 5.52253 117.116 8.72966 117.116 12.9537V21.214C117.116 25.5632 115.942 28.8173 113.594 30.9762C111.277 33.1039 108.162 34.1677 104.249 34.1677ZM104.249 28.8173C106.597 28.8173 108.319 28.1758 109.415 26.893C110.542 25.6101 111.105 23.7797 111.105 21.4017V12.6721C111.105 10.2628 110.479 8.44806 109.227 7.22778C108.006 5.97622 106.347 5.35044 104.249 5.35044C102.089 5.35044 100.398 5.99186 99.1774 7.27471C97.9878 8.55757 97.3929 10.3567 97.3929 12.6721V21.4017C97.3929 23.8736 97.9565 25.7353 99.0835 26.9868C100.242 28.2071 101.964 28.8173 104.249 28.8173Z" fill="white"/>
<path d="M139.114 34.1677C136.547 34.1677 134.324 33.714 132.446 32.8066C130.598 31.8992 129.174 30.6164 128.172 28.9581C127.17 27.2997 126.669 25.3755 126.669 23.1852V22.7159H132.774V23.1383C132.774 24.7027 133.291 26.0482 134.324 27.1746C135.388 28.2697 136.954 28.8173 139.02 28.8173C141.086 28.8173 142.667 28.2697 143.763 27.1746C144.89 26.0482 145.453 24.5932 145.453 22.8097V22.3404C145.453 20.5882 144.89 19.1959 143.763 18.1633C142.667 17.1308 141.29 16.6145 139.63 16.6145C138.723 16.6145 137.971 16.7397 137.376 16.99C136.782 17.2403 136.296 17.5532 135.921 17.9287C135.545 18.3041 135.232 18.6796 134.981 19.0551H127.703V0.65707H150.149V6.10137H133.713V14.127H134.559C134.872 13.7203 135.294 13.3292 135.827 12.9537C136.359 12.5782 137.048 12.2653 137.893 12.015C138.738 11.7647 139.74 11.6395 140.898 11.6395C142.839 11.6395 144.608 12.0463 146.205 12.8598C147.801 13.6733 149.069 14.878 150.009 16.4737C150.979 18.0382 151.464 19.9781 151.464 22.2935V22.8567C151.464 25.1721 150.963 27.1746 149.962 28.8642C148.991 30.5538 147.582 31.8679 145.735 32.8066C143.888 33.714 141.681 34.1677 139.114 34.1677Z" fill="white"/>
<path d="M165.44 34.1677C164.188 34.1677 163.123 33.7609 162.247 32.9474C161.401 32.1026 160.979 31.0231 160.979 29.709C160.979 28.3949 161.401 27.331 162.247 26.5175C163.123 25.6727 164.188 25.2503 165.44 25.2503C166.724 25.2503 167.788 25.6727 168.633 26.5175C169.479 27.331 169.901 28.3949 169.901 29.709C169.901 31.0231 169.479 32.1026 168.633 32.9474C167.788 33.7609 166.724 34.1677 165.44 34.1677Z" fill="white"/>
<path d="M179.803 33.5106V29.5682C179.803 27.2841 180.178 25.3911 180.93 23.8892C181.681 22.3561 182.761 21.1045 184.17 20.1345C185.61 19.1333 187.363 18.3198 189.43 17.694L192.576 16.7084C193.734 16.3329 194.705 15.8792 195.487 15.3473C196.27 14.7841 196.865 14.1114 197.272 13.3292C197.71 12.5469 197.929 11.6552 197.929 10.6539V10.4662C197.929 8.90175 197.397 7.66583 196.333 6.75844C195.268 5.81977 193.812 5.35044 191.965 5.35044C190.15 5.35044 188.678 5.85106 187.551 6.85231C186.455 7.82227 185.908 9.23028 185.908 11.0763V11.9211H179.897V11.1702C179.897 8.79224 180.429 6.77409 181.493 5.11577C182.558 3.45744 183.998 2.19024 185.814 1.31414C187.661 0.438047 189.711 0 191.965 0C194.219 0 196.254 0.438047 198.07 1.31414C199.886 2.15895 201.31 3.36358 202.343 4.92803C203.408 6.4612 203.94 8.27597 203.94 10.3723V10.8417C203.94 12.938 203.502 14.7215 202.625 16.1921C201.78 17.6314 200.622 18.8204 199.15 19.7591C197.679 20.6664 196.004 21.4174 194.126 22.0119L191.12 22.9506C189.774 23.3573 188.725 23.811 187.974 24.3116C187.222 24.781 186.69 25.3129 186.377 25.9074C186.095 26.4706 185.954 27.1589 185.954 27.9724V28.1602H203.658V33.5106H179.803Z" fill="white"/>
<path d="M226.328 34.1677C222.446 34.1677 219.331 33.1039 216.983 30.9762C214.635 28.8173 213.461 25.5632 213.461 21.214V12.9537C213.461 8.72966 214.635 5.52253 216.983 3.33229C219.331 1.11076 222.446 0 226.328 0C230.242 0 233.357 1.11076 235.673 3.33229C238.021 5.52253 239.195 8.72966 239.195 12.9537V21.214C239.195 25.5632 238.021 28.8173 235.673 30.9762C233.357 33.1039 230.242 34.1677 226.328 34.1677ZM226.328 28.8173C228.676 28.8173 230.398 28.1758 231.494 26.893C232.621 25.6101 233.184 23.7797 233.184 21.4017V12.6721C233.184 10.2628 232.558 8.44806 231.306 7.22778C230.085 5.97622 228.426 5.35044 226.328 5.35044C224.168 5.35044 222.478 5.99186 221.257 7.27471C220.067 8.55757 219.472 10.3567 219.472 12.6721V21.4017C219.472 23.8736 220.036 25.7353 221.163 26.9868C222.321 28.2071 224.043 28.8173 226.328 28.8173Z" fill="white"/>
<path d="M248.936 33.5106V29.5682C248.936 27.2841 249.312 25.3911 250.064 23.8892C250.815 22.3561 251.895 21.1045 253.304 20.1345C254.744 19.1333 256.497 18.3198 258.563 17.694L261.71 16.7084C262.868 16.3329 263.838 15.8792 264.621 15.3473C265.404 14.7841 265.999 14.1114 266.406 13.3292C266.844 12.5469 267.063 11.6552 267.063 10.6539V10.4662C267.063 8.90175 266.531 7.66583 265.466 6.75844C264.402 5.81977 262.946 5.35044 261.099 5.35044C259.283 5.35044 257.812 5.85106 256.685 6.85231C255.589 7.82227 255.041 9.23028 255.041 11.0763V11.9211H249.03V11.1702C249.03 8.79224 249.563 6.77409 250.627 5.11577C251.691 3.45744 253.132 2.19024 254.947 1.31414C256.794 0.438047 258.845 0 261.099 0C263.353 0 265.388 0.438047 267.204 1.31414C269.02 2.15895 270.444 3.36358 271.477 4.92803C272.542 6.4612 273.074 8.27597 273.074 10.3723V10.8417C273.074 12.938 272.636 14.7215 271.759 16.1921C270.914 17.6314 269.755 18.8204 268.284 19.7591C266.813 20.6664 265.138 21.4174 263.259 22.0119L260.254 22.9506C258.908 23.3573 257.859 23.811 257.107 24.3116C256.356 24.781 255.824 25.3129 255.511 25.9074C255.229 26.4706 255.088 27.1589 255.088 27.9724V28.1602H272.792V33.5106H248.936Z" fill="white"/>
<path d="M294.523 34.1677C292.05 34.1677 289.858 33.7296 287.948 32.8535C286.039 31.9775 284.536 30.7259 283.44 29.0989C282.376 27.4405 281.844 25.485 281.844 23.2322V22.3873H287.854V23.0444C287.854 24.7966 288.465 26.2046 289.686 27.2684C290.907 28.301 292.519 28.8173 294.523 28.8173C296.558 28.8173 298.123 28.3323 299.219 27.3623C300.346 26.3923 300.909 25.1721 300.909 23.7015V23.2322C300.909 22.2309 300.659 21.4174 300.158 20.7916C299.657 20.1658 298.984 19.7121 298.139 19.4305C297.293 19.1176 296.339 18.9612 295.274 18.9612H288.7V12.3905L299.313 6.75844V6.00751H282.689V0.65707H305.981V8.63579L296.072 13.8924V14.6433H297.81C299.281 14.6433 300.706 14.9405 302.083 15.535C303.492 16.1295 304.65 17.0526 305.558 18.3041C306.466 19.5244 306.92 21.1201 306.92 23.0914V23.6546C306.92 25.7822 306.404 27.6439 305.37 29.2397C304.337 30.8041 302.882 32.0244 301.003 32.9005C299.156 33.7453 296.996 34.1677 294.523 34.1677Z" fill="white"/>
<path d="M16.6302 372.31C14.1454 372.31 11.9124 371.807 9.93133 370.8C7.95021 369.794 6.38882 368.334 5.24716 366.421C4.1055 364.509 3.53467 362.211 3.53467 359.526V358.721C3.53467 356.037 4.1055 353.739 5.24716 351.826C6.38882 349.914 7.95021 348.454 9.93133 347.447C11.9124 346.441 14.1454 345.938 16.6302 345.938C19.115 345.938 21.3479 346.441 23.3291 347.447C25.3102 348.454 26.8716 349.914 28.0132 351.826C29.1549 353.739 29.7257 356.037 29.7257 358.721V359.526C29.7257 362.211 29.1549 364.509 28.0132 366.421C26.8716 368.334 25.3102 369.794 23.3291 370.8C21.3479 371.807 19.115 372.31 16.6302 372.31ZM16.6302 366.673C18.5777 366.673 20.1895 366.052 21.4655 364.811C22.7414 363.536 23.3794 361.724 23.3794 359.375V358.872C23.3794 356.523 22.7414 354.728 21.4655 353.487C20.2231 352.212 18.6113 351.574 16.6302 351.574C14.6827 351.574 13.0709 352.212 11.7949 353.487C10.5189 354.728 9.88096 356.523 9.88096 358.872V359.375C9.88096 361.724 10.5189 363.536 11.7949 364.811C13.0709 366.052 14.6827 366.673 16.6302 366.673Z" fill="white"/>
<path d="M34.0727 371.605V336.375H40.419V371.605H34.0727Z" fill="white"/>
<path d="M55.5103 371.605C53.865 371.605 52.5218 371.102 51.4809 370.096C50.4736 369.055 49.9699 367.68 49.9699 365.969V351.876H43.7243V346.642H49.9699V338.891H56.3162V346.642H63.1661V351.876H56.3162V364.861C56.3162 365.868 56.7863 366.371 57.7265 366.371H62.5617V371.605H55.5103Z" fill="white"/>
<path d="M67.3998 371.605V346.642H73.6453V349.461H74.5519C74.9213 348.454 75.5257 347.716 76.3652 347.246C77.2382 346.776 78.2456 346.541 79.3872 346.541H82.4093V352.178H79.2865C77.6747 352.178 76.3484 352.615 75.3075 353.487C74.2665 354.326 73.7461 355.634 73.7461 357.413V371.605H67.3998Z" fill="white"/>
<path d="M96.3563 372.31C93.8715 372.31 91.6721 371.79 89.7582 370.75C87.8778 369.676 86.4004 368.183 85.3259 366.27C84.2849 364.324 83.7645 362.043 83.7645 359.426V358.822C83.7645 356.205 84.2849 353.94 85.3259 352.027C86.3668 350.081 87.8274 348.588 89.7078 347.548C91.5882 346.474 93.7708 345.938 96.2556 345.938C98.7068 345.938 100.839 346.491 102.652 347.598C104.465 348.672 105.876 350.182 106.883 352.128C107.89 354.041 108.394 356.272 108.394 358.822V360.986H90.2115C90.2786 362.697 90.9166 364.09 92.1255 365.163C93.3343 366.237 94.8117 366.774 96.5578 366.774C98.3374 366.774 99.647 366.388 100.486 365.616C101.326 364.844 101.964 363.989 102.4 363.049L107.588 365.767C107.118 366.64 106.43 367.596 105.523 368.636C104.65 369.643 103.475 370.515 101.997 371.253C100.52 371.958 98.6396 372.31 96.3563 372.31ZM90.2619 356.255H101.947C101.813 354.812 101.225 353.655 100.184 352.782C99.1769 351.91 97.8505 351.474 96.2052 351.474C94.4927 351.474 93.1328 351.91 92.1255 352.782C91.1181 353.655 90.4969 354.812 90.2619 356.255Z" fill="white"/>
<path d="M2.94556 426.467V391.276H9.30815V426.467H2.94556Z" fill="white"/>
<path d="M15.2983 406.71V403.291H17.2677C18.8163 403.291 19.5906 402.521 19.5906 400.979V399.37H18.7321C17.3855 399.37 16.2578 398.968 15.3488 398.164C14.4735 397.359 14.0359 396.337 14.0359 395.097C14.0359 393.756 14.4735 392.667 15.3488 391.829C16.2578 390.991 17.3855 390.572 18.7321 390.572C20.1124 390.572 21.2401 391.008 22.1154 391.879C22.9907 392.717 23.4283 393.857 23.4283 395.298V401.079C23.4283 404.833 21.5431 406.71 17.7727 406.71H15.2983Z" fill="white"/>
<path d="M28.1722 426.467V401.532H34.5348V426.467H28.1722ZM31.3535 398.616C30.209 398.616 29.2327 398.247 28.4247 397.51C27.6504 396.773 27.2633 395.801 27.2633 394.594C27.2633 393.388 27.6504 392.416 28.4247 391.678C29.2327 390.941 30.209 390.572 31.3535 390.572C32.5318 390.572 33.5081 390.941 34.2824 391.678C35.0566 392.416 35.4438 393.388 35.4438 394.594C35.4438 395.801 35.0566 396.773 34.2824 397.51C33.5081 398.247 32.5318 398.616 31.3535 398.616Z" fill="white"/>
<path d="M40.0706 426.467V401.532H46.3322V404.247H47.2411C47.6787 403.409 48.4025 402.688 49.4125 402.085C50.4224 401.448 51.7521 401.13 53.4017 401.13C55.1859 401.13 56.6167 401.482 57.6939 402.185C58.7712 402.856 59.596 403.744 60.1683 404.85H61.0772C61.6495 403.777 62.4575 402.889 63.5011 402.185C64.5447 401.482 66.0259 401.13 67.9448 401.13C69.4933 401.13 70.8904 401.465 72.136 402.135C73.4153 402.772 74.4252 403.761 75.1658 405.101C75.9401 406.408 76.3272 408.067 76.3272 410.078V426.467H69.9646V410.531C69.9646 409.157 69.6112 408.134 68.9042 407.464C68.1973 406.76 67.2042 406.408 65.9249 406.408C64.4773 406.408 63.3496 406.878 62.5416 407.816C61.7673 408.721 61.3802 410.028 61.3802 411.737V426.467H55.0176V410.531C55.0176 409.157 54.6641 408.134 53.9572 407.464C53.2502 406.76 52.2571 406.408 50.9779 406.408C49.5303 406.408 48.4025 406.878 47.5946 407.816C46.8203 408.721 46.4331 410.028 46.4331 411.737V426.467H40.0706Z" fill="white"/>
<path d="M81.6554 426.467V401.532H87.917V404.247H88.826C89.2636 403.409 89.9874 402.688 90.9973 402.085C92.0073 401.448 93.337 401.13 94.9866 401.13C96.7708 401.13 98.2015 401.482 99.2788 402.185C100.356 402.856 101.181 403.744 101.753 404.85H102.662C103.234 403.777 104.042 402.889 105.086 402.185C106.13 401.482 107.611 401.13 109.53 401.13C111.078 401.13 112.475 401.465 113.721 402.135C115 402.772 116.01 403.761 116.751 405.101C117.525 406.408 117.912 408.067 117.912 410.078V426.467H111.55V410.531C111.55 409.157 111.196 408.134 110.489 407.464C109.782 406.76 108.789 406.408 107.51 406.408C106.062 406.408 104.934 406.878 104.127 407.816C103.352 408.721 102.965 410.028 102.965 411.737V426.467H96.6025V410.531C96.6025 409.157 96.249 408.134 95.5421 407.464C94.8351 406.76 93.842 406.408 92.5627 406.408C91.1152 406.408 89.9874 406.878 89.1795 407.816C88.4052 408.721 88.018 410.028 88.018 411.737V426.467H81.6554Z" fill="white"/>
<path d="M131.017 427.171C129.233 427.171 127.634 426.869 126.22 426.266C124.806 425.629 123.678 424.724 122.836 423.551C122.028 422.345 121.624 420.887 121.624 419.178C121.624 417.468 122.028 416.044 122.836 414.904C123.678 413.731 124.823 412.86 126.27 412.29C127.751 411.687 129.435 411.385 131.32 411.385H138.187V409.978C138.187 408.805 137.817 407.849 137.076 407.112C136.336 406.341 135.158 405.956 133.542 405.956C131.959 405.956 130.781 406.325 130.007 407.062C129.233 407.766 128.728 408.687 128.492 409.827L122.634 407.866C123.038 406.593 123.678 405.436 124.553 404.397C125.462 403.325 126.657 402.47 128.139 401.833C129.653 401.163 131.488 400.828 133.643 400.828C136.942 400.828 139.551 401.649 141.47 403.291C143.389 404.934 144.348 407.313 144.348 410.43V419.731C144.348 420.736 144.819 421.239 145.762 421.239H147.782V426.467H143.54C142.294 426.467 141.268 426.166 140.46 425.562C139.652 424.959 139.248 424.155 139.248 423.149V423.099H138.288C138.154 423.501 137.851 424.037 137.379 424.708C136.908 425.345 136.167 425.914 135.158 426.417C134.148 426.92 132.767 427.171 131.017 427.171ZM132.128 422.043C133.912 422.043 135.36 421.557 136.47 420.585C137.615 419.58 138.187 418.256 138.187 416.614V416.111H131.774C130.596 416.111 129.67 416.362 128.997 416.865C128.324 417.368 127.987 418.072 127.987 418.977C127.987 419.882 128.34 420.619 129.047 421.189C129.754 421.758 130.781 422.043 132.128 422.043Z" fill="white"/>
<path d="M149.214 414.1V413.296C149.214 410.682 149.736 408.453 150.779 406.609C151.823 404.733 153.203 403.308 154.92 402.336C156.671 401.331 158.573 400.828 160.626 400.828C162.915 400.828 164.649 401.23 165.827 402.035C167.006 402.839 167.864 403.677 168.403 404.548H169.312V401.532H175.573V430.891C175.573 432.601 175.068 433.958 174.058 434.963C173.048 436.002 171.702 436.522 170.018 436.522H153.254V430.992H167.797C168.739 430.992 169.211 430.489 169.211 429.484V422.998H168.302C167.965 423.535 167.494 424.088 166.888 424.657C166.282 425.194 165.474 425.646 164.464 426.015C163.454 426.384 162.175 426.568 160.626 426.568C158.573 426.568 156.671 426.082 154.92 425.11C153.203 424.104 151.823 422.68 150.779 420.837C149.736 418.96 149.214 416.714 149.214 414.1ZM162.444 421.038C164.397 421.038 166.029 420.418 167.342 419.178C168.655 417.938 169.312 416.195 169.312 413.949V413.447C169.312 411.167 168.655 409.425 167.342 408.218C166.063 406.978 164.43 406.358 162.444 406.358C160.491 406.358 158.859 406.978 157.546 408.218C156.233 409.425 155.576 411.167 155.576 413.447V413.949C155.576 416.195 156.233 417.938 157.546 419.178C158.859 420.418 160.491 421.038 162.444 421.038Z" fill="white"/>
<path d="M181.112 426.467V401.532H187.475V426.467H181.112ZM184.294 398.616C183.149 398.616 182.173 398.247 181.365 397.51C180.591 396.773 180.203 395.801 180.203 394.594C180.203 393.388 180.591 392.416 181.365 391.678C182.173 390.941 183.149 390.572 184.294 390.572C185.472 390.572 186.448 390.941 187.223 391.678C187.997 392.416 188.384 393.388 188.384 394.594C188.384 395.801 187.997 396.773 187.223 397.51C186.448 398.247 185.472 398.616 184.294 398.616Z" fill="white"/>
<path d="M193.011 426.467V401.532H199.272V404.8H200.181C200.585 403.928 201.343 403.107 202.454 402.336C203.565 401.532 205.248 401.13 207.503 401.13C209.456 401.13 211.156 401.582 212.603 402.487C214.085 403.358 215.229 404.582 216.037 406.157C216.845 407.699 217.249 409.508 217.249 411.586V426.467H210.887V412.089C210.887 410.212 210.415 408.805 209.473 407.866C208.564 406.928 207.251 406.459 205.534 406.459C203.581 406.459 202.066 407.112 200.989 408.419C199.912 409.693 199.373 411.486 199.373 413.798V426.467H193.011Z" fill="white"/>
<path d="M230.389 427.171C228.605 427.171 227.006 426.869 225.592 426.266C224.178 425.629 223.05 424.724 222.208 423.551C221.401 422.345 220.997 420.887 220.997 419.178C220.997 417.468 221.401 416.044 222.208 414.904C223.05 413.731 224.195 412.86 225.642 412.29C227.124 411.687 228.807 411.385 230.692 411.385H237.56V409.978C237.56 408.805 237.189 407.849 236.449 407.112C235.708 406.341 234.53 405.956 232.914 405.956C231.332 405.956 230.153 406.325 229.379 407.062C228.605 407.766 228.1 408.687 227.864 409.827L222.007 407.866C222.41 406.593 223.05 405.436 223.925 404.397C224.834 403.325 226.029 402.47 227.511 401.833C229.026 401.163 230.86 400.828 233.015 400.828C236.314 400.828 238.923 401.649 240.842 403.291C242.761 404.934 243.72 407.313 243.72 410.43V419.731C243.72 420.736 244.191 421.239 245.134 421.239H247.154V426.467H242.912C241.667 426.467 240.64 426.166 239.832 425.562C239.024 424.959 238.62 424.155 238.62 423.149V423.099H237.661C237.526 423.501 237.223 424.037 236.752 424.708C236.28 425.345 235.54 425.914 234.53 426.417C233.52 426.92 232.14 427.171 230.389 427.171ZM231.5 422.043C233.284 422.043 234.732 421.557 235.843 420.585C236.987 419.58 237.56 418.256 237.56 416.614V416.111H231.146C229.968 416.111 229.042 416.362 228.369 416.865C227.696 417.368 227.359 418.072 227.359 418.977C227.359 419.882 227.713 420.619 228.42 421.189C229.127 421.758 230.153 422.043 231.5 422.043Z" fill="white"/>
<path d="M250.291 426.467V401.532H256.553V404.347H257.462C257.832 403.342 258.438 402.604 259.279 402.135C260.155 401.666 261.165 401.431 262.309 401.431H265.339V407.062H262.208C260.592 407.062 259.263 407.498 258.219 408.369C257.175 409.207 256.654 410.514 256.654 412.29V426.467H250.291Z" fill="white"/>
<path d="M268.797 426.467V401.532H275.16V426.467H268.797ZM271.979 398.616C270.834 398.616 269.858 398.247 269.05 397.51C268.275 396.773 267.888 395.801 267.888 394.594C267.888 393.388 268.275 392.416 269.05 391.678C269.858 390.941 270.834 390.572 271.979 390.572C273.157 390.572 274.133 390.941 274.907 391.678C275.682 392.416 276.069 393.388 276.069 394.594C276.069 395.801 275.682 396.773 274.907 397.51C274.133 398.247 273.157 398.616 271.979 398.616Z" fill="white"/>
<path d="M292.613 427.171C290.122 427.171 287.883 426.668 285.897 425.663C283.911 424.657 282.345 423.2 281.201 421.289C280.056 419.379 279.484 417.083 279.484 414.402V413.597C279.484 410.916 280.056 408.62 281.201 406.71C282.345 404.8 283.911 403.342 285.897 402.336C287.883 401.331 290.122 400.828 292.613 400.828C295.104 400.828 297.343 401.331 299.329 402.336C301.315 403.342 302.881 404.8 304.025 406.71C305.17 408.62 305.742 410.916 305.742 413.597V414.402C305.742 417.083 305.17 419.379 304.025 421.289C302.881 423.2 301.315 424.657 299.329 425.663C297.343 426.668 295.104 427.171 292.613 427.171ZM292.613 421.541C294.565 421.541 296.181 420.92 297.461 419.68C298.74 418.407 299.379 416.597 299.379 414.251V413.748C299.379 411.402 298.74 409.609 297.461 408.369C296.215 407.095 294.599 406.459 292.613 406.459C290.66 406.459 289.044 407.095 287.765 408.369C286.486 409.609 285.846 411.402 285.846 413.748V414.251C285.846 416.597 286.486 418.407 287.765 419.68C289.044 420.92 290.66 421.541 292.613 421.541Z" fill="white"/>
<path d="M34.562 134.887C28.4044 134.887 22.9542 133.595 18.2112 131.01C13.5515 128.342 9.89027 124.631 7.22755 119.878C4.64805 115.042 3.3583 109.372 3.3583 102.869V101.368C3.3583 94.8642 4.64805 89.2361 7.22755 84.4834C9.80706 79.6473 13.4267 75.9368 18.0864 73.352C22.7462 70.6839 28.1548 69.3498 34.3123 69.3498C40.3867 69.3498 45.6705 70.7256 50.1638 73.4771C54.6571 76.1453 58.152 79.8974 60.6482 84.7335C63.1445 89.4862 64.3927 95.031 64.3927 101.368V106.746H19.3346C19.501 110.998 21.082 114.459 24.0775 117.127C27.0731 119.795 30.7343 121.129 35.0612 121.129C39.4714 121.129 42.7165 120.17 44.7968 118.253C46.877 116.335 48.458 114.209 49.5397 111.874L62.3957 118.628C61.2307 120.796 59.5249 123.172 57.2782 125.757C55.1148 128.258 52.2025 130.426 48.5412 132.26C44.88 134.011 40.2202 134.887 34.562 134.887ZM19.4594 94.9893H48.4164C48.0836 91.4039 46.6274 88.5273 44.0479 86.3594C41.5516 84.1915 38.2648 83.1076 34.1875 83.1076C29.9438 83.1076 26.5738 84.1915 24.0775 86.3594C21.5812 88.5273 20.0419 91.4039 19.4594 94.9893Z" fill="white"/>
<path d="M67.6281 133.136L90.0948 101.868L67.8777 71.1008H86.1007L100.205 91.7375H102.451L116.555 71.1008H134.778L112.561 101.868L135.028 133.136H116.555L102.451 112.249H100.205L86.1007 133.136H67.6281Z" fill="white"/>
<path d="M169.452 133.136C165.374 133.136 162.046 131.885 159.466 129.384C156.97 126.799 155.722 123.38 155.722 119.128V84.1081H140.245V71.1008H155.722V51.8398H171.449V71.1008H188.423V84.1081H171.449V116.376C171.449 118.878 172.614 120.129 174.943 120.129H188.423V133.136H169.452Z" fill="white"/>
<path d="M200.412 133.136V71.1008H215.889V78.1047H218.136C219.051 75.6033 220.549 73.7689 222.629 72.6016C224.793 71.4343 227.289 70.8506 230.118 70.8506H237.607V84.8586H229.869C225.875 84.8586 222.588 85.9425 220.008 88.1104C217.429 90.1949 216.139 93.4468 216.139 97.866V133.136H200.412Z" fill="white"/>
<path d="M266.41 134.887C262 134.887 258.048 134.137 254.553 132.636C251.058 131.051 248.27 128.8 246.19 125.882C244.193 122.88 243.195 119.253 243.195 115.001C243.195 110.748 244.193 107.205 246.19 104.37C248.27 101.451 251.1 99.2834 254.678 97.866C258.339 96.3651 262.499 95.6147 267.159 95.6147H284.134V92.1127C284.134 89.1944 283.219 86.818 281.388 84.9836C279.557 83.0659 276.645 82.107 272.651 82.107C268.74 82.107 265.828 83.0242 263.914 84.8586C262 86.6096 260.752 88.9025 260.169 91.7375L245.691 86.8597C246.689 83.6912 248.27 80.8146 250.434 78.2298C252.681 75.5616 255.634 73.4354 259.296 71.8512C263.04 70.1836 267.575 69.3498 272.901 69.3498C281.055 69.3498 287.504 71.3926 292.247 75.4782C296.99 79.5639 299.361 85.4839 299.361 93.2383V116.376C299.361 118.878 300.526 120.129 302.856 120.129H307.849V133.136H297.364C294.285 133.136 291.748 132.386 289.751 130.885C287.753 129.384 286.755 127.383 286.755 124.881V124.756H284.383C284.051 125.757 283.302 127.091 282.137 128.758C280.972 130.343 279.141 131.76 276.645 133.011C274.149 134.262 270.737 134.887 266.41 134.887ZM269.156 122.13C273.566 122.13 277.144 120.921 279.89 118.503C282.719 116.001 284.134 112.708 284.134 108.622V107.371H268.282C265.37 107.371 263.082 107.997 261.418 109.247C259.753 110.498 258.921 112.249 258.921 114.5C258.921 116.752 259.795 118.586 261.542 120.004C263.29 121.421 265.828 122.13 269.156 122.13Z" fill="white"/>
<path d="M32.4518 227.439C26.2943 227.439 20.7608 226.189 15.8515 223.687C10.9421 221.186 7.07283 217.559 4.2437 212.806C1.41457 208.053 0 202.342 0 195.671V193.67C0 187 1.41457 181.288 4.2437 176.536C7.07283 171.783 10.9421 168.156 15.8515 165.654C20.7608 163.153 26.2943 161.902 32.4518 161.902C38.6094 161.902 44.1428 163.153 49.0522 165.654C53.9616 168.156 57.8308 171.783 60.6599 176.536C63.4891 181.288 64.9037 187 64.9037 193.67V195.671C64.9037 202.342 63.4891 208.053 60.6599 212.806C57.8308 217.559 53.9616 221.186 49.0522 223.687C44.1428 226.189 38.6094 227.439 32.4518 227.439ZM32.4518 213.431C37.278 213.431 41.2721 211.889 44.434 208.804C47.596 205.635 49.177 201.133 49.177 195.296V194.045C49.177 188.209 47.596 183.748 44.434 180.663C41.3553 177.494 37.3612 175.91 32.4518 175.91C27.6257 175.91 23.6316 177.494 20.4696 180.663C17.3076 183.748 15.7267 188.209 15.7267 194.045V195.296C15.7267 201.133 17.3076 205.635 20.4696 208.804C23.6316 211.889 27.6257 213.431 32.4518 213.431Z" fill="white"/>
<path d="M80.2939 225.688V163.653H95.7709V170.657H98.0176C98.9329 168.156 100.431 166.321 102.511 165.154C104.674 163.987 107.171 163.403 110 163.403H117.489V177.411H109.75C105.756 177.411 102.469 178.495 99.8898 180.663C97.3103 182.747 96.0205 185.999 96.0205 190.418V225.688H80.2939Z" fill="white"/>
<path d="M151.427 227.439C146.517 227.439 141.899 226.23 137.572 223.812C133.328 221.311 129.917 217.684 127.337 212.931C124.758 208.179 123.468 202.425 123.468 195.671V193.67C123.468 186.916 124.758 181.163 127.337 176.41C129.917 171.658 133.328 168.072 137.572 165.654C141.816 163.153 146.434 161.902 151.427 161.902C155.171 161.902 158.291 162.361 160.788 163.278C163.367 164.112 165.447 165.196 167.028 166.53C168.609 167.864 169.816 169.281 170.648 170.782H172.895V145.143H188.621V225.688H173.144V218.184H170.898C169.483 220.519 167.278 222.645 164.282 224.563C161.37 226.481 157.085 227.439 151.427 227.439ZM156.17 213.682C160.996 213.682 165.031 212.139 168.277 209.054C171.522 205.886 173.144 201.3 173.144 195.296V194.045C173.144 188.042 171.522 183.498 168.277 180.413C165.115 177.244 161.079 175.66 156.17 175.66C151.343 175.66 147.308 177.244 144.062 180.413C140.817 183.498 139.195 188.042 139.195 194.045V195.296C139.195 201.3 140.817 205.886 144.062 209.054C147.308 212.139 151.343 213.682 156.17 213.682Z" fill="white"/>
<path d="M209.927 225.688V163.653H225.653V225.688H209.927Z" fill="white"/>
<path d="M2.99555 312.238V250.202H18.4726V258.332H20.7192C21.7178 256.164 23.59 254.121 26.3359 252.203C29.0818 250.202 33.2423 249.202 38.8174 249.202C43.6435 249.202 47.8456 250.327 51.4237 252.579C55.0849 254.747 57.914 257.79 59.9111 261.709C61.9081 265.544 62.9066 270.047 62.9066 275.217V312.238H47.18V276.467C47.18 271.798 46.015 268.296 43.6852 265.961C41.4385 263.627 38.1933 262.459 33.9496 262.459C29.1234 262.459 25.379 264.085 22.7163 267.337C20.0536 270.506 18.7222 274.966 18.7222 280.72V312.238H2.99555Z" fill="white"/>
<path d="M102 313.989C97.5898 313.989 93.6374 313.238 90.1425 311.737C86.6477 310.153 83.8602 307.902 81.78 304.983C79.7829 301.982 78.7844 298.355 78.7844 294.102C78.7844 289.85 79.7829 286.306 81.78 283.471C83.8602 280.553 86.6893 278.385 90.2674 276.968C93.9286 275.467 98.0891 274.716 102.749 274.716H119.724V271.214C119.724 268.296 118.808 265.92 116.978 264.085C115.147 262.167 112.235 261.209 108.241 261.209C104.33 261.209 101.417 262.126 99.5036 263.96C97.5898 265.711 96.3417 268.004 95.7592 270.839L81.2807 265.961C82.2792 262.793 83.8602 259.916 86.0237 257.331C88.2703 254.663 91.2243 252.537 94.8855 250.953C98.6299 249.285 103.165 248.451 108.49 248.451C116.645 248.451 123.094 250.494 127.837 254.58C132.58 258.665 134.951 264.585 134.951 272.34V295.478C134.951 297.979 136.116 299.23 138.446 299.23H143.438V312.238H132.954C129.875 312.238 127.337 311.487 125.34 309.986C123.343 308.485 122.345 306.484 122.345 303.983V303.858H119.973C119.64 304.858 118.892 306.192 117.727 307.86C116.562 309.444 114.731 310.862 112.235 312.112C109.738 313.363 106.327 313.989 102 313.989ZM104.746 301.231C109.156 301.231 112.734 300.022 115.48 297.604C118.309 295.103 119.724 291.809 119.724 287.724V286.473H103.872C100.96 286.473 98.6715 287.098 97.0074 288.349C95.3432 289.6 94.5111 291.351 94.5111 293.602C94.5111 295.853 95.3848 297.688 97.1322 299.105C98.8796 300.523 101.417 301.231 104.746 301.231Z" fill="white"/>
<path d="M157.808 312.238V250.202H173.285V257.206H175.531C176.447 254.705 177.944 252.871 180.025 251.703C182.188 250.536 184.684 249.952 187.514 249.952H195.003V263.96H187.264C183.27 263.96 179.983 265.044 177.404 267.212C174.824 269.296 173.534 272.548 173.534 276.968V312.238H157.808Z" fill="white"/>
<path d="M210.166 312.238V250.202H225.892V312.238H210.166Z" fill="white"/>
<path d="M275.646 313.989C269.489 313.989 263.955 312.738 259.046 310.236C254.137 307.735 250.267 304.108 247.438 299.355C244.609 294.603 243.195 288.891 243.195 282.22V280.219C243.195 273.549 244.609 267.837 247.438 263.085C250.267 258.332 254.137 254.705 259.046 252.203C263.955 249.702 269.489 248.451 275.646 248.451C281.804 248.451 287.337 249.702 292.247 252.203C297.156 254.705 301.025 258.332 303.855 263.085C306.684 267.837 308.098 273.549 308.098 280.219V282.22C308.098 288.891 306.684 294.603 303.855 299.355C301.025 304.108 297.156 307.735 292.247 310.236C287.337 312.738 281.804 313.989 275.646 313.989ZM275.646 299.981C280.473 299.981 284.467 298.438 287.629 295.353C290.791 292.184 292.372 287.682 292.372 281.845V280.595C292.372 274.758 290.791 270.297 287.629 267.212C284.55 264.044 280.556 262.459 275.646 262.459C270.82 262.459 266.826 264.044 263.664 267.212C260.502 270.297 258.921 274.758 258.921 280.595V281.845C258.921 287.682 260.502 292.184 263.664 295.353C266.826 298.438 270.82 299.981 275.646 299.981Z" fill="white"/>
</svg>
