<svg width="635" height="214" viewBox="0 0 635 214" fill="none" xmlns="http://www.w3.org/2000/svg">
<path d="M91.0538 0V82.7434C91.0538 97.1964 87.1997 108.518 79.4914 116.708C71.9036 124.898 60.5821 128.993 45.5269 128.993C30.4717 128.993 19.09 124.898 11.3817 116.708C3.79391 108.518 0 97.1964 0 82.7434V0H23.8474V82.7434C23.8474 90.2107 25.5938 96.0522 29.0866 100.268C32.5795 104.483 38.0595 106.591 45.5269 106.591C52.9943 106.591 58.4744 104.483 61.9672 100.268C65.46 96.0522 67.2064 90.2107 67.2064 82.7434V0H91.0538Z" fill="white"/>
<path d="M143.056 126.464H120.292V0H143.056V49.8628H146.308C148.716 44.9247 152.209 41.1308 156.786 38.4811C161.363 35.7109 167.204 34.3258 174.31 34.3258C179.61 34.3258 184.608 35.3496 189.305 37.3971C194.123 39.4446 198.278 42.4557 201.771 46.4302C205.384 50.2844 208.215 55.0418 210.262 60.7025C212.43 66.3633 213.514 72.8069 213.514 80.0334V83.2853C213.514 90.6323 212.49 97.1361 210.443 102.797C208.395 108.458 205.625 113.275 202.132 117.25C198.639 121.104 194.484 124.055 189.667 126.102C184.969 128.029 179.851 128.993 174.31 128.993C170.215 128.993 166.662 128.571 163.651 127.728C160.64 126.885 157.99 125.741 155.702 124.296C153.534 122.85 151.667 121.224 150.102 119.418C148.656 117.491 147.392 115.503 146.308 113.456H143.056V126.464ZM166.903 107.313C174.009 107.313 179.73 105.145 184.066 100.81C188.522 96.3533 190.751 90.3312 190.751 82.7434V80.5754C190.751 72.9876 188.522 67.0257 184.066 62.6898C179.73 58.2335 174.009 56.0053 166.903 56.0053C159.797 56.0053 154.016 58.2937 149.56 62.8705C145.224 67.3268 143.056 73.2285 143.056 80.5754V82.7434C143.056 90.0903 145.224 96.0521 149.56 100.629C154.016 105.085 159.797 107.313 166.903 107.313Z" fill="white"/>
<path d="M296.506 36.8551H319.269V126.464H296.506V113.456H293.254C289.279 123.814 280.728 128.993 267.6 128.993C263.143 128.993 258.988 128.27 255.134 126.825C251.28 125.38 247.908 123.152 245.017 120.14C242.126 117.129 239.838 113.396 238.152 108.939C236.586 104.363 235.803 99.003 235.803 92.8605V36.8551H258.567V88.1632C258.567 94.5466 260.072 99.545 263.083 103.158C266.094 106.651 270.611 108.397 276.633 108.397C283.498 108.397 288.496 106.229 291.628 101.894C294.88 97.4372 296.506 91.4151 296.506 83.8273V36.8551Z" fill="white"/>
<path d="M369.284 126.464H346.52V36.8551H369.284V50.2241H372.536C374.583 45.1656 377.895 41.2512 382.472 38.4811C387.049 35.7109 392.409 34.3258 398.551 34.3258C402.887 34.3258 406.922 35.0485 410.655 36.4938C414.51 37.8187 417.882 39.9264 420.773 42.817C423.663 45.7076 425.891 49.3811 427.457 53.8374C429.143 58.2937 429.986 63.5931 429.986 69.7357V126.464H407.223V75.5169C407.223 69.1335 405.657 64.1351 402.526 60.5219C399.515 56.7882 395.118 54.9214 389.337 54.9214C382.593 54.9214 377.534 57.2098 374.162 61.7865C370.91 66.2429 369.284 72.265 369.284 79.8528V126.464Z" fill="white"/>
<path d="M448.062 36.8551H474.62V0H497.383V36.8551H529.722V58.5346H497.383V99.3643C497.383 102.978 499.009 104.784 502.261 104.784H526.47V126.464H488.531C484.436 126.464 481.063 125.139 478.414 122.489C475.884 119.839 474.62 116.467 474.62 112.372V58.5346H448.062V36.8551Z" fill="white"/>
<path d="M612.237 36.8551H635V126.464H612.237V113.456H608.985C605.01 123.814 596.459 128.993 583.331 128.993C578.874 128.993 574.719 128.27 570.865 126.825C567.011 125.38 563.638 123.152 560.748 120.14C557.857 117.129 555.569 113.396 553.883 108.939C552.317 104.363 551.534 99.003 551.534 92.8605V36.8551H574.297V88.1632C574.297 94.5466 575.803 99.545 578.814 103.158C581.825 106.651 586.342 108.397 592.364 108.397C599.229 108.397 604.227 106.229 607.359 101.894C610.611 97.4372 612.237 91.4151 612.237 83.8273V36.8551Z" fill="white"/>
<path d="M1.15722 213.15V183.459H7.43056V213.15H1.15722ZM4.32434 179.424C3.10622 179.424 2.07081 179.043 1.21812 178.28C0.406041 177.477 0 176.453 0 175.209C0 173.964 0.406041 172.96 1.21812 172.197C2.07081 171.394 3.10622 170.993 4.32434 170.993C5.58307 170.993 6.61848 171.394 7.43056 172.197C8.24264 172.96 8.64868 173.964 8.64868 175.209C8.64868 176.453 8.24264 177.477 7.43056 178.28C6.61848 179.043 5.58307 179.424 4.32434 179.424Z" fill="white"/>
<path d="M29.1655 213.993C26.6887 213.993 24.3945 213.391 22.2831 212.186C20.1717 210.982 18.4663 209.255 17.167 207.007C15.9083 204.718 15.2789 201.968 15.2789 198.756V197.853C15.2789 194.681 15.9083 191.951 17.167 189.662C18.4257 187.374 20.1108 185.627 22.2222 184.423C24.3336 183.218 26.6481 182.616 29.1655 182.616C31.1145 182.616 32.7387 182.857 34.038 183.339C35.378 183.821 36.4743 184.443 37.327 185.206C38.1796 185.928 38.8293 186.691 39.276 187.494H40.2505V170.993H46.5238V213.15H40.3723V208.934H39.3978C38.6263 210.219 37.4488 211.383 35.8652 212.427C34.3222 213.471 32.089 213.993 29.1655 213.993ZM30.9318 208.573C33.6523 208.573 35.8855 207.71 37.6315 205.983C39.4181 204.257 40.3114 201.788 40.3114 198.576V198.034C40.3114 194.862 39.4384 192.413 37.6924 190.686C35.9464 188.96 33.6929 188.097 30.9318 188.097C28.2519 188.097 26.0187 188.96 24.2321 190.686C22.4861 192.413 21.6131 194.862 21.6131 198.034V198.576C21.6131 201.788 22.4861 204.257 24.2321 205.983C26.0187 207.71 28.2519 208.573 30.9318 208.573Z" fill="white"/>
<path d="M69.5235 213.993C66.4782 213.993 63.8186 213.371 61.5448 212.126C59.271 210.841 57.4844 209.055 56.185 206.766C54.9263 204.437 54.2969 201.747 54.2969 198.696V197.973C54.2969 194.882 54.9263 192.192 56.185 189.903C57.4438 187.575 59.1898 185.788 61.423 184.543C63.6968 183.259 66.3158 182.616 69.2799 182.616C72.1628 182.616 74.6802 183.259 76.8323 184.543C79.0249 185.788 80.7303 187.534 81.9484 189.783C83.1665 192.031 83.7756 194.661 83.7756 197.672V200.021H60.6921C60.7733 202.631 61.6463 204.718 63.3111 206.284C65.0164 207.81 67.1279 208.573 69.6453 208.573C72.0004 208.573 73.7666 208.051 74.9442 207.007C76.1623 205.963 77.0962 204.759 77.7458 203.393L82.9229 206.043C82.3544 207.168 81.522 208.352 80.4257 209.597C79.37 210.841 77.9692 211.885 76.2232 212.728C74.4772 213.571 72.244 213.993 69.5235 213.993ZM60.753 195.263H77.3804C77.218 193.015 76.4059 191.268 74.9442 190.024C73.4824 188.739 71.574 188.097 69.219 188.097C66.8639 188.097 64.9352 188.739 63.4329 190.024C61.9711 191.268 61.0778 193.015 60.753 195.263Z" fill="white"/>
<path d="M91.327 213.15V183.459H97.4785V187.916H98.453C99.0215 186.711 100.037 185.587 101.498 184.543C102.96 183.499 105.132 182.978 108.015 182.978C110.289 182.978 112.299 183.479 114.045 184.483C115.832 185.487 117.232 186.912 118.248 188.759C119.263 190.566 119.77 192.754 119.77 195.323V213.15H113.497V195.805C113.497 193.236 112.847 191.349 111.548 190.144C110.249 188.9 108.462 188.277 106.188 188.277C103.589 188.277 101.498 189.12 99.9148 190.807C98.3718 192.493 97.6003 194.942 97.6003 198.154V213.15H91.327Z" fill="white"/>
<path d="M139.234 213.15C137.406 213.15 135.945 212.608 134.848 211.524C133.793 210.44 133.265 208.994 133.265 207.188V188.699H124.981V183.459H133.265V173.643H139.538V183.459H148.491V188.699H139.538V206.104C139.538 207.308 140.107 207.91 141.243 207.91H147.517V213.15H139.234Z" fill="white"/>
<path d="M155.861 213.15V183.459H162.135V213.15H155.861ZM159.029 179.424C157.81 179.424 156.775 179.043 155.922 178.28C155.11 177.477 154.704 176.453 154.704 175.209C154.704 173.964 155.11 172.96 155.922 172.197C156.775 171.394 157.81 170.993 159.029 170.993C160.287 170.993 161.323 171.394 162.135 172.197C162.947 172.96 163.353 173.964 163.353 175.209C163.353 176.453 162.947 177.477 162.135 178.28C161.323 179.043 160.287 179.424 159.029 179.424Z" fill="white"/>
<path d="M182.712 213.15C180.885 213.15 179.424 212.608 178.327 211.524C177.272 210.44 176.744 208.994 176.744 207.188V188.699H168.46V183.459H176.744V173.643H183.017V183.459H191.97V188.699H183.017V206.104C183.017 207.308 183.585 207.91 184.722 207.91H190.996V213.15H182.712Z" fill="white"/>
<path d="M208.6 213.993C206.448 213.993 204.519 213.632 202.813 212.909C201.149 212.186 199.809 211.122 198.794 209.717C197.819 208.312 197.332 206.605 197.332 204.598C197.332 202.55 197.819 200.864 198.794 199.539C199.809 198.174 201.169 197.15 202.874 196.468C204.62 195.785 206.59 195.444 208.782 195.444H217.918V193.517C217.918 191.79 217.39 190.405 216.335 189.361C215.279 188.317 213.655 187.795 211.462 187.795C209.31 187.795 207.666 188.297 206.529 189.301C205.392 190.305 204.641 191.61 204.275 193.216L198.428 191.349C198.915 189.743 199.687 188.297 200.743 187.013C201.839 185.688 203.28 184.624 205.067 183.821C206.854 183.018 209.006 182.616 211.523 182.616C215.421 182.616 218.487 183.6 220.72 185.567C222.953 187.534 224.07 190.325 224.07 193.938V206.164C224.07 207.368 224.638 207.971 225.775 207.971H228.333V213.15H223.643C222.222 213.15 221.065 212.788 220.172 212.066C219.278 211.343 218.832 210.359 218.832 209.115V208.934H217.918C217.593 209.536 217.106 210.239 216.456 211.042C215.807 211.845 214.853 212.548 213.594 213.15C212.335 213.712 210.67 213.993 208.6 213.993ZM209.513 208.874C212.031 208.874 214.061 208.171 215.604 206.766C217.147 205.321 217.918 203.353 217.918 200.864V200.262H209.148C207.483 200.262 206.143 200.623 205.128 201.346C204.113 202.028 203.605 203.052 203.605 204.417C203.605 205.782 204.133 206.866 205.189 207.669C206.245 208.472 207.686 208.874 209.513 208.874ZM210 179.545L203.849 170.993H211.097L215.665 179.545H210Z" fill="white"/>
<path d="M263.904 213.993C261.021 213.993 258.402 213.391 256.047 212.186C253.733 210.982 251.885 209.235 250.505 206.947C249.165 204.658 248.495 201.908 248.495 198.696V197.913C248.495 194.701 249.165 191.971 250.505 189.723C251.885 187.434 253.733 185.688 256.047 184.483C258.402 183.238 261.021 182.616 263.904 182.616C266.787 182.616 269.244 183.138 271.274 184.182C273.304 185.226 274.928 186.611 276.146 188.337C277.405 190.064 278.217 191.971 278.583 194.059L272.492 195.323C272.289 193.999 271.863 192.794 271.213 191.71C270.563 190.626 269.65 189.763 268.472 189.12C267.295 188.478 265.813 188.157 264.026 188.157C262.28 188.157 260.697 188.558 259.275 189.361C257.895 190.124 256.799 191.248 255.987 192.734C255.174 194.179 254.768 195.946 254.768 198.034V198.576C254.768 200.663 255.174 202.45 255.987 203.935C256.799 205.421 257.895 206.545 259.275 207.308C260.697 208.071 262.28 208.452 264.026 208.452C266.665 208.452 268.675 207.79 270.056 206.465C271.436 205.1 272.309 203.373 272.675 201.286L278.765 202.671C278.278 204.718 277.405 206.605 276.146 208.332C274.928 210.058 273.304 211.443 271.274 212.487C269.244 213.491 266.787 213.993 263.904 213.993Z" fill="white"/>
<path d="M300.07 213.993C297.066 213.993 294.386 213.391 292.031 212.186C289.716 210.942 287.889 209.175 286.549 206.886C285.209 204.598 284.539 201.888 284.539 198.756V197.853C284.539 194.721 285.209 192.031 286.549 189.783C287.889 187.494 289.716 185.728 292.031 184.483C294.386 183.238 297.066 182.616 300.07 182.616C303.075 182.616 305.755 183.238 308.11 184.483C310.465 185.728 312.312 187.494 313.652 189.783C314.992 192.031 315.662 194.721 315.662 197.853V198.756C315.662 201.888 314.992 204.598 313.652 206.886C312.312 209.175 310.465 210.942 308.11 212.186C305.755 213.391 303.075 213.993 300.07 213.993ZM300.07 208.452C302.831 208.452 305.065 207.589 306.77 205.863C308.516 204.096 309.389 201.667 309.389 198.576V198.034C309.389 194.942 308.536 192.533 306.831 190.807C305.125 189.04 302.872 188.157 300.07 188.157C297.35 188.157 295.117 189.04 293.371 190.807C291.665 192.533 290.812 194.942 290.812 198.034V198.576C290.812 201.667 291.665 204.096 293.371 205.863C295.117 207.589 297.35 208.452 300.07 208.452Z" fill="white"/>
<path d="M323.473 213.15V183.459H329.624V187.916H330.599C331.167 186.711 332.182 185.587 333.644 184.543C335.106 183.499 337.278 182.978 340.161 182.978C342.435 182.978 344.445 183.479 346.191 184.483C347.977 185.487 349.378 186.912 350.393 188.759C351.408 190.566 351.916 192.754 351.916 195.323V213.15H345.642V195.805C345.642 193.236 344.993 191.349 343.693 190.144C342.394 188.9 340.607 188.277 338.334 188.277C335.735 188.277 333.644 189.12 332.06 190.807C330.517 192.493 329.746 194.942 329.746 198.154V213.15H323.473Z" fill="white"/>
<path d="M360.944 213.15V183.459H367.096V187.916H368.07C368.639 186.711 369.654 185.587 371.115 184.543C372.577 183.499 374.75 182.978 377.632 182.978C379.906 182.978 381.916 183.479 383.662 184.483C385.449 185.487 386.85 186.912 387.865 188.759C388.88 190.566 389.387 192.754 389.387 195.323V213.15H383.114V195.805C383.114 193.236 382.464 191.349 381.165 190.144C379.866 188.9 378.079 188.277 375.805 188.277C373.207 188.277 371.115 189.12 369.532 190.807C367.989 192.493 367.217 194.942 367.217 198.154V213.15H360.944Z" fill="white"/>
<path d="M412.181 213.993C409.135 213.993 406.476 213.371 404.202 212.126C401.928 210.841 400.141 209.055 398.842 206.766C397.583 204.437 396.954 201.747 396.954 198.696V197.973C396.954 194.882 397.583 192.192 398.842 189.903C400.101 187.575 401.847 185.788 404.08 184.543C406.354 183.259 408.973 182.616 411.937 182.616C414.82 182.616 417.337 183.259 419.489 184.543C421.682 185.788 423.387 187.534 424.605 189.783C425.824 192.031 426.433 194.661 426.433 197.672V200.021H403.349C403.43 202.631 404.303 204.718 405.968 206.284C407.673 207.81 409.785 208.573 412.302 208.573C414.657 208.573 416.424 208.051 417.601 207.007C418.819 205.963 419.753 204.759 420.403 203.393L425.58 206.043C425.011 207.168 424.179 208.352 423.083 209.597C422.027 210.841 420.626 211.885 418.88 212.728C417.134 213.571 414.901 213.993 412.181 213.993ZM403.41 195.263H420.037C419.875 193.015 419.063 191.268 417.601 190.024C416.139 188.739 414.231 188.097 411.876 188.097C409.521 188.097 407.592 188.739 406.09 190.024C404.628 191.268 403.735 193.015 403.41 195.263Z" fill="white"/>
<path d="M446.287 213.993C442.47 213.993 439.303 213.15 436.786 211.464C434.268 209.777 432.725 207.228 432.157 203.815L438.004 202.43C438.329 204.076 438.877 205.381 439.648 206.344C440.42 207.308 441.374 207.991 442.511 208.392C443.688 208.794 444.947 208.994 446.287 208.994C448.277 208.994 449.799 208.613 450.855 207.85C451.951 207.087 452.499 206.104 452.499 204.899C452.499 203.695 451.992 202.811 450.977 202.249C449.962 201.687 448.459 201.225 446.47 200.864L444.399 200.503C442.369 200.141 440.521 199.619 438.856 198.937C437.192 198.254 435.872 197.311 434.898 196.106C433.923 194.902 433.436 193.356 433.436 191.469C433.436 188.659 434.492 186.491 436.603 184.965C438.714 183.399 441.516 182.616 445.008 182.616C448.378 182.616 451.139 183.379 453.291 184.905C455.484 186.39 456.905 188.418 457.555 190.987L451.708 192.613C451.342 190.807 450.571 189.542 449.393 188.819C448.216 188.056 446.754 187.675 445.008 187.675C443.303 187.675 441.963 187.996 440.988 188.639C440.014 189.241 439.526 190.104 439.526 191.228C439.526 192.433 439.993 193.316 440.927 193.878C441.902 194.44 443.201 194.862 444.825 195.143L446.957 195.504C449.109 195.865 451.078 196.367 452.865 197.01C454.651 197.652 456.052 198.576 457.067 199.78C458.123 200.985 458.651 202.59 458.651 204.598C458.651 207.569 457.534 209.878 455.301 211.524C453.068 213.17 450.063 213.993 446.287 213.993Z" fill="white"/>
<path d="M478.287 213.993C474.47 213.993 471.303 213.15 468.785 211.464C466.268 209.777 464.725 207.228 464.156 203.815L470.003 202.43C470.328 204.076 470.876 205.381 471.648 206.344C472.419 207.308 473.374 207.991 474.51 208.392C475.688 208.794 476.947 208.994 478.287 208.994C480.276 208.994 481.799 208.613 482.855 207.85C483.951 207.087 484.499 206.104 484.499 204.899C484.499 203.695 483.992 202.811 482.976 202.249C481.961 201.687 480.459 201.225 478.469 200.864L476.398 200.503C474.368 200.141 472.521 199.619 470.856 198.937C469.191 198.254 467.872 197.311 466.897 196.106C465.923 194.902 465.435 193.356 465.435 191.469C465.435 188.659 466.491 186.491 468.603 184.965C470.714 183.399 473.516 182.616 477.008 182.616C480.378 182.616 483.139 183.379 485.291 184.905C487.483 186.39 488.905 188.418 489.554 190.987L483.707 192.613C483.342 190.807 482.57 189.542 481.393 188.819C480.215 188.056 478.754 187.675 477.008 187.675C475.302 187.675 473.962 187.996 472.988 188.639C472.013 189.241 471.526 190.104 471.526 191.228C471.526 192.433 471.993 193.316 472.927 193.878C473.901 194.44 475.201 194.862 476.825 195.143L478.957 195.504C481.109 195.865 483.078 196.367 484.865 197.01C486.651 197.652 488.052 198.576 489.067 199.78C490.123 200.985 490.651 202.59 490.651 204.598C490.651 207.569 489.534 209.878 487.301 211.524C485.068 213.17 482.063 213.993 478.287 213.993Z" fill="white"/>
<path d="M511.748 213.993C508.703 213.993 506.043 213.371 503.769 212.126C501.495 210.841 499.709 209.055 498.409 206.766C497.151 204.437 496.521 201.747 496.521 198.696V197.973C496.521 194.882 497.151 192.192 498.409 189.903C499.668 187.575 501.414 185.788 503.647 184.543C505.921 183.259 508.54 182.616 511.504 182.616C514.387 182.616 516.905 183.259 519.057 184.543C521.249 185.788 522.955 187.534 524.173 189.783C525.391 192.031 526 194.661 526 197.672V200.021H502.917C502.998 202.631 503.871 204.718 505.535 206.284C507.241 207.81 509.352 208.573 511.87 208.573C514.225 208.573 515.991 208.051 517.169 207.007C518.387 205.963 519.321 204.759 519.97 203.393L525.147 206.043C524.579 207.168 523.746 208.352 522.65 209.597C521.594 210.841 520.194 211.885 518.448 212.728C516.702 213.571 514.468 213.993 511.748 213.993ZM502.977 195.263H519.605C519.442 193.015 518.63 191.268 517.169 190.024C515.707 188.739 513.798 188.097 511.443 188.097C509.088 188.097 507.16 188.739 505.657 190.024C504.196 191.268 503.302 193.015 502.977 195.263Z" fill="white"/>
</svg>
