<svg viewBox="0 0 300 397" fill="none" xmlns="http://www.w3.org/2000/svg">
  <path
    d="M202.906 366.721V349.686H206.253V366.721H202.906ZM204.58 346.941C204.022 346.941 203.542 346.741 203.141 346.339C202.739 345.915 202.538 345.424 202.538 344.866C202.538 344.286 202.739 343.807 203.141 343.427C203.542 343.026 204.022 342.825 204.58 342.825C205.16 342.825 205.651 343.026 206.052 343.427C206.454 343.807 206.655 344.286 206.655 344.866C206.655 345.424 206.454 345.915 206.052 346.339C205.651 346.741 205.16 346.941 204.58 346.941ZM217.859 366.988C216.275 366.988 214.824 366.598 213.508 365.817C212.192 365.036 211.154 363.988 210.395 362.671C209.637 361.332 209.258 359.838 209.258 358.186C209.258 356.535 209.637 355.052 210.395 353.735C211.176 352.419 212.225 351.37 213.541 350.589C214.858 349.808 216.319 349.418 217.926 349.418C218.863 349.418 219.766 349.563 220.637 349.853C221.507 350.143 222.31 350.567 223.046 351.125V343.293L226.393 342.657V366.721H223.08V365.081C221.629 366.353 219.889 366.988 217.859 366.988ZM218.294 364.077C219.275 364.077 220.168 363.898 220.971 363.541C221.797 363.184 222.488 362.671 223.046 362.002V354.338C222.488 353.713 221.797 353.222 220.971 352.865C220.168 352.486 219.275 352.296 218.294 352.296C217.223 352.296 216.252 352.553 215.382 353.066C214.512 353.579 213.82 354.282 213.307 355.174C212.794 356.045 212.537 357.037 212.537 358.153C212.537 359.269 212.794 360.273 213.307 361.165C213.82 362.058 214.512 362.772 215.382 363.307C216.252 363.82 217.223 364.077 218.294 364.077ZM238.355 367.022C236.682 367.022 235.164 366.631 233.803 365.851C232.465 365.07 231.394 364.01 230.591 362.671C229.81 361.332 229.419 359.838 229.419 358.186C229.419 356.558 229.798 355.085 230.557 353.769C231.316 352.43 232.342 351.37 233.636 350.589C234.93 349.786 236.369 349.384 237.953 349.384C239.538 349.384 240.943 349.786 242.17 350.589C243.397 351.37 244.368 352.441 245.082 353.802C245.818 355.141 246.186 356.658 246.186 358.354V359.291H232.766C232.944 360.228 233.29 361.065 233.803 361.801C234.339 362.537 235.008 363.117 235.811 363.541C236.637 363.965 237.529 364.177 238.489 364.177C239.314 364.177 240.106 364.054 240.865 363.809C241.646 363.541 242.293 363.162 242.806 362.671L244.948 364.78C243.944 365.538 242.907 366.107 241.836 366.486C240.787 366.843 239.627 367.022 238.355 367.022ZM232.799 356.781H242.873C242.739 355.888 242.427 355.107 241.936 354.438C241.467 353.746 240.876 353.211 240.162 352.832C239.471 352.43 238.712 352.229 237.886 352.229C237.039 352.229 236.258 352.419 235.544 352.798C234.83 353.177 234.227 353.713 233.736 354.405C233.268 355.074 232.956 355.866 232.799 356.781ZM257.438 367.022C255.765 367.022 254.248 366.631 252.886 365.851C251.548 365.07 250.477 364.01 249.674 362.671C248.893 361.332 248.502 359.838 248.502 358.186C248.502 356.558 248.882 355.085 249.64 353.769C250.399 352.43 251.425 351.37 252.719 350.589C254.013 349.786 255.452 349.384 257.036 349.384C258.621 349.384 260.026 349.786 261.253 350.589C262.481 351.37 263.451 352.441 264.165 353.802C264.901 355.141 265.27 356.658 265.27 358.354V359.291H251.849C252.027 360.228 252.373 361.065 252.886 361.801C253.422 362.537 254.091 363.117 254.895 363.541C255.72 363.965 256.613 364.177 257.572 364.177C258.397 364.177 259.19 364.054 259.948 363.809C260.729 363.541 261.376 363.162 261.889 362.671L264.031 364.78C263.027 365.538 261.99 366.107 260.919 366.486C259.87 366.843 258.71 367.022 257.438 367.022ZM251.882 356.781H261.956C261.822 355.888 261.51 355.107 261.019 354.438C260.551 353.746 259.959 353.211 259.245 352.832C258.554 352.43 257.795 352.229 256.97 352.229C256.122 352.229 255.341 352.419 254.627 352.798C253.913 353.177 253.31 353.713 252.82 354.405C252.351 355.074 252.039 355.866 251.882 356.781ZM275.117 366.721V349.686H278.463V366.721H275.117ZM276.79 346.941C276.232 346.941 275.752 346.741 275.351 346.339C274.949 345.915 274.748 345.424 274.748 344.866C274.748 344.286 274.949 343.807 275.351 343.427C275.752 343.026 276.232 342.825 276.79 342.825C277.37 342.825 277.861 343.026 278.263 343.427C278.664 343.807 278.865 344.286 278.865 344.866C278.865 345.424 278.664 345.915 278.263 346.339C277.861 346.741 277.37 346.941 276.79 346.941ZM282.238 366.721V349.686H285.584V351.426C286.901 350.043 288.608 349.351 290.705 349.351C292.021 349.351 293.17 349.63 294.152 350.188C295.156 350.745 295.937 351.526 296.495 352.53C297.075 353.534 297.365 354.695 297.365 356.011V366.721H294.018V356.58C294.018 355.241 293.639 354.193 292.88 353.434C292.144 352.653 291.107 352.263 289.768 352.263C288.875 352.263 288.072 352.452 287.358 352.832C286.644 353.211 286.053 353.758 285.584 354.472V366.721H282.238ZM79.0718 394.022C77.4208 394.022 76.1602 393.643 75.29 392.884C74.4198 392.103 73.9848 390.976 73.9848 389.504V379.497H70.3703V376.686H73.9848V372.335L77.2981 371.532V376.686H82.3182V379.497H77.2981V388.734C77.2981 389.604 77.4877 390.229 77.867 390.608C78.2686 390.965 78.9157 391.144 79.8081 391.144C80.2767 391.144 80.6894 391.11 81.0464 391.043C81.4257 390.976 81.8273 390.876 82.2513 390.742V393.553C81.805 393.71 81.2807 393.821 80.6783 393.888C80.0982 393.977 79.5627 394.022 79.0718 394.022ZM84.6165 393.721V376.686H87.9633V378.861C88.4987 378.058 89.1569 377.433 89.9378 376.987C90.7411 376.518 91.6447 376.284 92.6487 376.284C93.3404 376.306 93.9093 376.407 94.3556 376.585V379.597C94.0432 379.463 93.7197 379.374 93.385 379.33C93.0503 379.263 92.7157 379.229 92.381 379.229C91.3993 379.229 90.5291 379.497 89.7705 380.032C89.0119 380.546 88.4095 381.304 87.9633 382.308V393.721H84.6165ZM101.571 394.022C100.344 394.022 99.2615 393.81 98.3244 393.386C97.3873 392.94 96.651 392.326 96.1155 391.545C95.58 390.764 95.3123 389.861 95.3123 388.834C95.3123 387.228 95.9258 385.967 97.153 385.053C98.3801 384.115 100.065 383.647 102.207 383.647C103.88 383.647 105.431 383.97 106.859 384.618V382.81C106.859 381.583 106.502 380.668 105.788 380.066C105.096 379.463 104.07 379.162 102.709 379.162C101.928 379.162 101.113 379.285 100.265 379.53C99.4176 379.754 98.4694 380.111 97.4207 380.601L96.1824 378.091C97.4765 377.489 98.6813 377.054 99.7969 376.786C100.913 376.496 102.039 376.351 103.177 376.351C105.386 376.351 107.093 376.875 108.298 377.924C109.525 378.973 110.138 380.468 110.138 382.409V393.721H106.859V392.248C106.1 392.851 105.286 393.297 104.415 393.587C103.545 393.877 102.597 394.022 101.571 394.022ZM98.5252 388.767C98.5252 389.593 98.871 390.262 99.5627 390.776C100.277 391.289 101.203 391.545 102.34 391.545C103.233 391.545 104.047 391.411 104.784 391.144C105.542 390.876 106.234 390.463 106.859 389.905V387.027C106.212 386.648 105.531 386.38 104.817 386.224C104.125 386.045 103.345 385.956 102.474 385.956C101.247 385.956 100.277 386.213 99.5627 386.726C98.871 387.217 98.5252 387.897 98.5252 388.767ZM119.684 394.055C118.212 394.055 116.828 393.843 115.534 393.419C114.263 392.973 113.158 392.349 112.221 391.545L114.062 389.336C114.932 390.028 115.824 390.564 116.739 390.943C117.676 391.3 118.624 391.478 119.584 391.478C120.789 391.478 121.77 391.244 122.529 390.776C123.288 390.307 123.667 389.693 123.667 388.935C123.667 388.31 123.444 387.819 122.998 387.462C122.551 387.105 121.86 386.86 120.923 386.726L117.844 386.291C116.148 386.045 114.876 385.521 114.028 384.718C113.18 383.915 112.756 382.844 112.756 381.505C112.756 380.479 113.035 379.586 113.593 378.828C114.151 378.047 114.932 377.444 115.936 377.02C116.94 376.574 118.111 376.351 119.45 376.351C120.677 376.351 121.86 376.529 122.998 376.886C124.135 377.243 125.229 377.801 126.277 378.56L124.571 380.769C123.633 380.144 122.719 379.687 121.826 379.397C120.956 379.107 120.075 378.961 119.182 378.961C118.156 378.961 117.33 379.185 116.706 379.631C116.081 380.055 115.769 380.613 115.769 381.304C115.769 381.929 115.981 382.42 116.404 382.777C116.851 383.111 117.576 383.346 118.58 383.48L121.659 383.915C123.355 384.16 124.637 384.684 125.508 385.488C126.378 386.269 126.813 387.328 126.813 388.667C126.813 389.693 126.501 390.619 125.876 391.445C125.251 392.248 124.403 392.884 123.332 393.353C122.261 393.821 121.045 394.055 119.684 394.055ZM131.434 393.721V379.497H127.485V376.686H131.434V374.109C131.434 372.324 131.925 370.963 132.907 370.026C133.911 369.089 135.339 368.62 137.19 368.62C137.659 368.62 138.094 368.653 138.496 368.72C138.92 368.765 139.299 368.843 139.634 368.955V371.833C139.232 371.721 138.875 371.643 138.563 371.599C138.25 371.532 137.904 371.498 137.525 371.498C136.588 371.498 135.885 371.721 135.417 372.168C134.97 372.591 134.747 373.272 134.747 374.209V376.686H139.634V379.497H134.747V393.721H131.434ZM149.34 394.055C147.689 394.055 146.183 393.665 144.822 392.884C143.483 392.103 142.423 391.043 141.642 389.705C140.862 388.366 140.471 386.871 140.471 385.22C140.471 383.569 140.862 382.074 141.642 380.735C142.423 379.397 143.483 378.337 144.822 377.556C146.183 376.753 147.689 376.351 149.34 376.351C151.013 376.351 152.519 376.753 153.858 377.556C155.197 378.337 156.257 379.397 157.038 380.735C157.818 382.074 158.209 383.569 158.209 385.22C158.209 386.871 157.818 388.366 157.038 389.705C156.257 391.043 155.197 392.103 153.858 392.884C152.519 393.665 151.013 394.055 149.34 394.055ZM149.34 391.11C150.389 391.11 151.337 390.854 152.185 390.34C153.033 389.805 153.702 389.091 154.193 388.199C154.684 387.306 154.929 386.302 154.929 385.186C154.929 384.093 154.673 383.111 154.159 382.241C153.668 381.349 152.999 380.635 152.151 380.099C151.326 379.564 150.389 379.296 149.34 379.296C148.291 379.296 147.343 379.564 146.495 380.099C145.67 380.635 145 381.349 144.487 382.241C143.996 383.111 143.751 384.093 143.751 385.186C143.751 386.302 143.996 387.306 144.487 388.199C144.978 389.091 145.647 389.805 146.495 390.34C147.343 390.854 148.291 391.11 149.34 391.11ZM161.206 393.721V376.686H164.553V378.861C165.089 378.058 165.747 377.433 166.528 376.987C167.331 376.518 168.235 376.284 169.239 376.284C169.93 376.306 170.499 376.407 170.945 376.585V379.597C170.633 379.463 170.31 379.374 169.975 379.33C169.64 379.263 169.306 379.229 168.971 379.229C167.989 379.229 167.119 379.497 166.36 380.032C165.602 380.546 164.999 381.304 164.553 382.308V393.721H161.206ZM173.459 393.721V376.686H176.805V378.326C178.077 377.009 179.672 376.351 181.591 376.351C182.751 376.351 183.778 376.608 184.67 377.121C185.585 377.634 186.31 378.326 186.846 379.196C187.56 378.259 188.396 377.556 189.356 377.087C190.315 376.596 191.397 376.351 192.602 376.351C193.874 376.351 194.978 376.63 195.915 377.188C196.875 377.745 197.622 378.526 198.158 379.53C198.716 380.534 198.994 381.695 198.994 383.011V393.721H195.648V383.58C195.648 382.241 195.291 381.193 194.577 380.434C193.885 379.653 192.937 379.263 191.732 379.263C190.906 379.263 190.159 379.452 189.49 379.832C188.82 380.211 188.24 380.791 187.749 381.572C187.794 381.795 187.827 382.029 187.85 382.275C187.872 382.52 187.883 382.766 187.883 383.011V393.721H184.57V383.58C184.57 382.241 184.213 381.193 183.499 380.434C182.807 379.653 181.859 379.263 180.654 379.263C179.851 379.263 179.126 379.441 178.479 379.798C177.832 380.133 177.274 380.646 176.805 381.338V393.721H173.459ZM208.062 394.022C206.835 394.022 205.753 393.81 204.815 393.386C203.878 392.94 203.142 392.326 202.607 391.545C202.071 390.764 201.803 389.861 201.803 388.834C201.803 387.228 202.417 385.967 203.644 385.053C204.871 384.115 206.556 383.647 208.698 383.647C210.371 383.647 211.922 383.97 213.35 384.618V382.81C213.35 381.583 212.993 380.668 212.279 380.066C211.587 379.463 210.561 379.162 209.2 379.162C208.419 379.162 207.604 379.285 206.757 379.53C205.909 379.754 204.96 380.111 203.912 380.601L202.674 378.091C203.968 377.489 205.172 377.054 206.288 376.786C207.404 376.496 208.53 376.351 209.668 376.351C211.877 376.351 213.584 376.875 214.789 377.924C216.016 378.973 216.63 380.468 216.63 382.409V393.721H213.35V392.248C212.591 392.851 211.777 393.297 210.907 393.587C210.036 393.877 209.088 394.022 208.062 394.022ZM205.016 388.767C205.016 389.593 205.362 390.262 206.054 390.776C206.768 391.289 207.694 391.545 208.832 391.545C209.724 391.545 210.538 391.411 211.275 391.144C212.033 390.876 212.725 390.463 213.35 389.905V387.027C212.703 386.648 212.022 386.38 211.308 386.224C210.617 386.045 209.836 385.956 208.965 385.956C207.738 385.956 206.768 386.213 206.054 386.726C205.362 387.217 205.016 387.897 205.016 388.767ZM219.315 393.721V391.244L228.886 379.564H219.415V376.686H233.07V379.129L223.498 390.842H233.237V393.721H219.315ZM236.133 393.721V376.686H239.48V393.721H236.133ZM237.807 373.941C237.249 373.941 236.769 373.741 236.368 373.339C235.966 372.915 235.765 372.424 235.765 371.866C235.765 371.286 235.966 370.807 236.368 370.427C236.769 370.026 237.249 369.825 237.807 369.825C238.387 369.825 238.878 370.026 239.279 370.427C239.681 370.807 239.882 371.286 239.882 371.866C239.882 372.424 239.681 372.915 239.279 373.339C238.878 373.741 238.387 373.941 237.807 373.941ZM251.354 394.055C249.702 394.055 248.196 393.665 246.835 392.884C245.497 392.103 244.437 391.043 243.656 389.705C242.875 388.366 242.485 386.871 242.485 385.22C242.485 383.569 242.875 382.074 243.656 380.735C244.437 379.397 245.497 378.337 246.835 377.556C248.196 376.753 249.702 376.351 251.354 376.351C253.027 376.351 254.533 376.753 255.872 377.556C257.21 378.337 258.27 379.397 259.051 380.735C259.832 382.074 260.222 383.569 260.222 385.22C260.222 386.871 259.832 388.366 259.051 389.705C258.27 391.043 257.21 392.103 255.872 392.884C254.533 393.665 253.027 394.055 251.354 394.055ZM251.354 391.11C252.402 391.11 253.35 390.854 254.198 390.34C255.046 389.805 255.715 389.091 256.206 388.199C256.697 387.306 256.943 386.302 256.943 385.186C256.943 384.093 256.686 383.111 256.173 382.241C255.682 381.349 255.013 380.635 254.165 380.099C253.339 379.564 252.402 379.296 251.354 379.296C250.305 379.296 249.357 379.564 248.509 380.099C247.683 380.635 247.014 381.349 246.501 382.241C246.01 383.111 245.764 384.093 245.764 385.186C245.764 386.302 246.01 387.306 246.501 388.199C246.992 389.091 247.661 389.805 248.509 390.34C249.357 390.854 250.305 391.11 251.354 391.11ZM263.22 393.721V376.686H266.567V378.426C267.883 377.043 269.59 376.351 271.687 376.351C273.004 376.351 274.153 376.63 275.134 377.188C276.138 377.745 276.919 378.526 277.477 379.53C278.057 380.534 278.347 381.695 278.347 383.011V393.721H275V383.58C275 382.241 274.621 381.193 273.863 380.434C273.126 379.653 272.089 379.263 270.75 379.263C269.858 379.263 269.054 379.452 268.34 379.832C267.626 380.211 267.035 380.758 266.567 381.472V393.721H263.22ZM290.208 394.022C288.534 394.022 287.017 393.631 285.656 392.851C284.317 392.07 283.246 391.01 282.443 389.671C281.662 388.332 281.272 386.838 281.272 385.186C281.272 383.558 281.651 382.085 282.41 380.769C283.168 379.43 284.195 378.37 285.489 377.589C286.783 376.786 288.222 376.384 289.806 376.384C291.39 376.384 292.796 376.786 294.023 377.589C295.25 378.37 296.221 379.441 296.935 380.802C297.671 382.141 298.039 383.658 298.039 385.354V386.291H284.618C284.797 387.228 285.143 388.065 285.656 388.801C286.191 389.537 286.861 390.117 287.664 390.541C288.49 390.965 289.382 391.177 290.341 391.177C291.167 391.177 291.959 391.054 292.718 390.809C293.499 390.541 294.146 390.162 294.659 389.671L296.801 391.78C295.797 392.538 294.759 393.107 293.688 393.486C292.64 393.843 291.479 394.022 290.208 394.022ZM284.652 383.781H294.726C294.592 382.888 294.279 382.107 293.789 381.438C293.32 380.746 292.729 380.211 292.015 379.832C291.323 379.43 290.565 379.229 289.739 379.229C288.891 379.229 288.11 379.419 287.396 379.798C286.682 380.177 286.08 380.713 285.589 381.405C285.121 382.074 284.808 382.866 284.652 383.781Z"
    fill="white"></path>
  <path
    d="M122.289 36.1096C119.6 36.1096 117.247 35.4221 115.23 34.0471C113.214 32.6415 111.625 30.7012 110.464 28.2262C109.333 25.7206 108.768 22.8331 108.768 19.5636C108.768 16.2941 109.333 13.4218 110.464 10.9468C111.625 8.4412 113.214 6.5009 115.23 5.12588C117.247 3.72031 119.6 3.01752 122.289 3.01752C124.947 3.01752 127.285 3.72031 129.301 5.12588C131.318 6.5009 132.892 8.4412 134.022 10.9468C135.184 13.4218 135.764 16.2941 135.764 19.5636C135.764 22.8331 135.184 25.7206 134.022 28.2262C132.892 30.7012 131.318 32.6415 129.301 34.0471C127.285 35.4221 124.947 36.1096 122.289 36.1096ZM122.289 32.1221C124.122 32.1221 125.711 31.6179 127.056 30.6096C128.4 29.5707 129.439 28.104 130.172 26.2095C130.906 24.315 131.272 22.0997 131.272 19.5636C131.272 16.9969 130.906 14.7816 130.172 12.9177C129.439 11.0232 128.4 9.57177 127.056 8.56343C125.711 7.52453 124.122 7.00507 122.289 7.00507C120.456 7.00507 118.851 7.52453 117.476 8.56343C116.132 9.57177 115.093 11.0232 114.36 12.9177C113.626 14.7816 113.26 16.9969 113.26 19.5636C113.26 22.0997 113.626 24.315 114.36 26.2095C115.093 28.104 116.132 29.5707 117.476 30.6096C118.851 31.6179 120.456 32.1221 122.289 32.1221ZM156.843 35.6055V27.447H138.647V23.8261L156.293 3.52169H161.381V23.597H165.276V27.447H161.381V35.6055H156.843ZM144.055 23.597H156.843V8.88427L144.055 23.597ZM171.959 35.9263C171.164 35.9263 170.477 35.6513 169.896 35.1013C169.346 34.5207 169.071 33.8332 169.071 33.0388C169.071 32.2443 169.346 31.5721 169.896 31.0221C170.477 30.4415 171.164 30.1512 171.959 30.1512C172.753 30.1512 173.425 30.4415 173.975 31.0221C174.556 31.5721 174.846 32.2443 174.846 33.0388C174.846 33.8332 174.556 34.5207 173.975 35.1013C173.425 35.6513 172.753 35.9263 171.959 35.9263ZM191.695 36.1096C189.006 36.1096 186.653 35.4221 184.637 34.0471C182.62 32.6415 181.031 30.7012 179.87 28.2262C178.739 25.7206 178.174 22.8331 178.174 19.5636C178.174 16.2941 178.739 13.4218 179.87 10.9468C181.031 8.4412 182.62 6.5009 184.637 5.12588C186.653 3.72031 189.006 3.01752 191.695 3.01752C194.353 3.01752 196.691 3.72031 198.708 5.12588C200.724 6.5009 202.298 8.4412 203.429 10.9468C204.59 13.4218 205.17 16.2941 205.17 19.5636C205.17 22.8331 204.59 25.7206 203.429 28.2262C202.298 30.7012 200.724 32.6415 198.708 34.0471C196.691 35.4221 194.353 36.1096 191.695 36.1096ZM191.695 32.1221C193.528 32.1221 195.117 31.6179 196.462 30.6096C197.806 29.5707 198.845 28.104 199.579 26.2095C200.312 24.315 200.679 22.0997 200.679 19.5636C200.679 16.9969 200.312 14.7816 199.579 12.9177C198.845 11.0232 197.806 9.57177 196.462 8.56343C195.117 7.52453 193.528 7.00507 191.695 7.00507C189.862 7.00507 188.258 7.52453 186.883 8.56343C185.538 9.57177 184.499 11.0232 183.766 12.9177C183.032 14.7816 182.666 16.9969 182.666 19.5636C182.666 22.0997 183.032 24.315 183.766 26.2095C184.499 28.104 185.538 29.5707 186.883 30.6096C188.258 31.6179 189.862 32.1221 191.695 32.1221ZM219.649 36.1096C215.371 36.1096 211.659 34.6582 208.512 31.7554L211.216 28.7304C212.591 29.9832 213.95 30.8998 215.295 31.4804C216.67 32.0304 218.167 32.3054 219.787 32.3054C221.253 32.3054 222.521 32.0304 223.591 31.4804C224.66 30.8998 225.501 30.1054 226.112 29.097C226.723 28.0581 227.028 26.8817 227.028 25.5678C227.028 23.6428 226.341 22.0844 224.966 20.8928C223.621 19.7011 221.864 19.1052 219.695 19.1052C218.595 19.1052 217.495 19.258 216.395 19.5636C215.326 19.8386 214.21 20.2664 213.049 20.8469L209.978 19.9303L210.712 3.52169H229.778V7.32591H214.47L214.012 17.2719C215.173 16.6913 216.303 16.2788 217.403 16.0344C218.503 15.7594 219.664 15.6219 220.887 15.6219C223.026 15.6219 224.874 16.0344 226.433 16.8594C228.022 17.6538 229.259 18.7844 230.145 20.2511C231.031 21.7178 231.474 23.4136 231.474 25.3387C231.474 27.4776 230.97 29.3568 229.962 30.9762C228.984 32.5651 227.609 33.8179 225.837 34.7346C224.065 35.6513 222.002 36.1096 219.649 36.1096ZM238.187 35.9263C237.392 35.9263 236.705 35.6513 236.124 35.1013C235.574 34.5207 235.299 33.8332 235.299 33.0388C235.299 32.2443 235.574 31.5721 236.124 31.0221C236.705 30.4415 237.392 30.1512 238.187 30.1512C238.981 30.1512 239.654 30.4415 240.204 31.0221C240.784 31.5721 241.074 32.2443 241.074 33.0388C241.074 33.8332 240.784 34.5207 240.204 35.1013C239.654 35.6513 238.981 35.9263 238.187 35.9263ZM245.933 35.6055V32.3971L258.95 18.5552C259.836 17.6386 260.523 16.8135 261.012 16.0802C261.501 15.3469 261.837 14.6593 262.021 14.0177C262.234 13.3454 262.341 12.6427 262.341 11.9093C262.341 10.4732 261.761 9.28149 260.6 8.33426C259.439 7.38702 257.972 6.9134 256.2 6.9134C254.733 6.9134 253.358 7.20369 252.075 7.78425C250.791 8.36481 249.37 9.37316 247.812 10.8093L245.337 7.78425C247.048 6.19534 248.805 5.00366 250.608 4.2092C252.441 3.41475 254.336 3.01752 256.291 3.01752C258.339 3.01752 260.141 3.38419 261.7 4.11753C263.258 4.85088 264.465 5.8745 265.321 7.18841C266.207 8.47176 266.65 9.95373 266.65 11.6343C266.65 12.7038 266.512 13.6968 266.237 14.6135C265.962 15.4996 265.489 16.4469 264.816 17.4552C264.144 18.433 263.197 19.5636 261.975 20.8469L251.525 31.8471L267.291 31.8012V35.6055H245.933ZM287.509 35.6055V27.447H269.313V23.8261L286.959 3.52169H292.047V23.597H295.943V27.447H292.047V35.6055H287.509ZM274.722 23.597H287.509V8.88427L274.722 23.597Z"
    fill="white"></path>
  <path d="M282.523 252.096H294.479V314.865H282.523V252.096Z" fill="white"></path>
  <path
    d="M213.856 294.08H224.742C225.004 296.49 225.952 298.672 227.586 300.627C229.286 302.516 231.509 304.014 234.255 305.121C237.067 306.163 240.271 306.685 243.867 306.685C247.07 306.685 249.719 306.294 251.811 305.512C253.903 304.73 255.44 303.656 256.42 302.288C257.466 300.855 257.99 299.194 257.99 297.305C257.99 295.415 257.368 293.95 256.126 292.908C254.949 291.8 253.118 290.888 250.634 290.172C248.149 289.39 244.978 288.641 241.121 287.924C237.917 287.338 234.811 286.557 231.803 285.579C228.796 284.602 226.082 283.365 223.663 281.866C221.309 280.368 219.446 278.544 218.073 276.395C216.7 274.18 216.013 271.574 216.013 268.578C216.013 265.191 216.961 262.129 218.857 259.393C220.819 256.658 223.696 254.508 227.488 252.945C231.28 251.381 235.89 250.6 241.317 250.6C249.62 250.6 255.963 252.521 260.343 256.364C264.724 260.143 266.849 265.289 266.718 271.802H256.028C255.832 267.699 254.328 264.735 251.517 262.911C248.705 261.087 245.142 260.175 240.826 260.175C236.969 260.175 233.732 260.859 231.117 262.227C228.502 263.595 227.194 265.81 227.194 268.871C227.194 270.174 227.488 271.314 228.077 272.291C228.73 273.203 229.777 274.05 231.215 274.831C232.653 275.548 234.615 276.265 237.099 276.981C239.649 277.632 242.755 278.349 246.417 279.131C249.555 279.652 252.497 280.368 255.243 281.28C257.99 282.192 260.376 283.332 262.403 284.7C264.495 286.068 266.13 287.827 267.307 289.976C268.484 292.126 269.072 294.764 269.072 297.891C269.072 301.473 268.157 304.665 266.326 307.466C264.495 310.202 261.684 312.384 257.891 314.013C254.165 315.576 249.326 316.358 243.376 316.358C238.865 316.358 234.909 315.837 231.509 314.794C228.175 313.687 225.33 312.287 222.977 310.593C220.623 308.834 218.727 306.945 217.288 304.926C215.915 302.907 214.934 300.952 214.346 299.063C213.823 297.109 213.659 295.448 213.856 294.08Z"
    fill="white"></path>
  <path
    d="M168.192 316.358C160.791 316.358 154.331 315.02 148.813 312.346C143.359 309.671 139.107 305.887 136.056 300.995C133.069 296.102 131.576 290.263 131.576 283.479C131.576 276.694 133.069 270.855 136.056 265.963C139.107 261.005 143.359 257.221 148.813 254.612C154.331 251.937 160.791 250.6 168.192 250.6C175.657 250.6 182.117 251.937 187.57 254.612C193.024 257.221 197.244 261.005 200.23 265.963C203.281 270.855 204.807 276.694 204.807 283.479C204.807 290.263 203.281 296.102 200.23 300.995C197.244 305.887 193.024 309.671 187.57 312.346C182.117 315.02 175.657 316.358 168.192 316.358ZM168.192 306.572C173.126 306.572 177.475 305.724 181.241 304.028C185.006 302.332 187.96 299.788 190.102 296.396C192.31 292.938 193.413 288.632 193.413 283.479C193.413 278.39 192.31 274.15 190.102 270.758C187.96 267.3 185.006 264.723 181.241 263.027C177.475 261.266 173.126 260.385 168.192 260.385C163.322 260.385 158.973 261.266 155.142 263.027C151.312 264.723 148.293 267.3 146.086 270.758C143.879 274.15 142.775 278.39 142.775 283.479C142.775 288.632 143.879 292.938 146.086 296.396C148.293 299.788 151.312 302.332 155.142 304.028C158.973 305.724 163.322 306.572 168.192 306.572Z"
    fill="white"></path>
  <path d="M127.094 252.096V261.589H81.701V279.799H118.895V288.905H81.701V314.865H70.3027V252.096H127.094Z"
    fill="white"></path>
  <path
    d="M238.557 121.989V112.372H277.263V121.989H238.557ZM223.516 137.06L251.893 72.8125H264.127L292.705 137.06H280.371L255.503 79.0588H260.517L235.749 137.06H223.516Z"
    fill="white"></path>
  <path
    d="M211.777 226.636V162.389H249.619C254.361 162.389 258.478 163.083 261.969 164.471C265.46 165.793 268.16 167.875 270.071 170.717C271.981 173.493 272.936 177.062 272.936 181.425C272.936 184.333 272.442 186.845 271.454 188.96C270.466 191.009 269.083 192.695 267.304 194.017C265.526 195.339 263.451 196.363 261.08 197.09C258.774 197.817 256.304 198.28 253.669 198.478L252.681 197.784C256.897 197.85 260.388 198.247 263.154 198.974C265.921 199.635 268.029 200.924 269.478 202.841C270.927 204.691 271.651 207.435 271.651 211.07V226.636H260.487V211.665C260.487 209.153 260.026 207.203 259.104 205.815C258.247 204.361 256.732 203.369 254.559 202.841C252.451 202.246 249.421 201.948 245.469 201.948H223.041V226.636H211.777ZM223.041 192.728H249.619C253.571 192.728 256.568 191.736 258.61 189.753C260.651 187.77 261.672 185.159 261.672 181.921C261.672 178.814 260.651 176.435 258.61 174.782C256.568 173.064 253.571 172.204 249.619 172.204H223.041V192.728Z"
    fill="white"></path>
  <path
    d="M161.429 226.636C153.999 226.636 147.515 225.291 141.975 222.603C136.501 219.914 132.232 216.111 129.169 211.193C126.171 206.274 124.672 200.405 124.672 193.585C124.672 186.766 126.171 180.897 129.169 175.978C132.232 170.995 136.501 167.191 141.975 164.568C147.515 161.879 153.999 160.535 161.429 160.535C168.924 160.535 175.408 161.879 180.883 164.568C186.357 167.191 190.593 170.995 193.591 175.978C196.654 180.897 198.186 186.766 198.186 193.585C198.186 200.405 196.654 206.274 193.591 211.193C190.593 216.111 186.357 219.914 180.883 222.603C175.408 225.291 168.924 226.636 161.429 226.636ZM161.429 216.799C166.382 216.799 170.748 215.947 174.528 214.242C178.308 212.537 181.274 209.979 183.424 206.57C185.64 203.094 186.748 198.766 186.748 193.585C186.748 188.471 185.64 184.208 183.424 180.798C181.274 177.323 178.308 174.732 174.528 173.027C170.748 171.257 166.382 170.372 161.429 170.372C156.541 170.372 152.174 171.257 148.329 173.027C144.484 174.732 141.454 177.323 139.238 180.798C137.022 184.208 135.914 188.471 135.914 193.585C135.914 198.766 137.022 203.094 139.238 206.57C141.454 209.979 144.484 212.537 148.329 214.242C152.174 215.947 156.541 216.799 161.429 216.799Z"
    fill="white"></path>
  <path
    d="M72.1281 220.786H67.1574L100.686 162.389H111.699V226.636H100.686V178.55L103.22 179.244L75.7344 226.636H63.6486L36.1631 179.442L38.7947 178.649V226.636H27.6836V162.389H38.7947L72.1281 220.786Z"
    fill="white"></path>
  <path d="M164.209 72.8125H225.368V82.5289H164.209V72.8125ZM189.282 81.3392H200.393V137.06H189.282V81.3392Z"
    fill="white"></path>
  <path
    d="M111.841 109.695V127.343H156.795V137.06H100.578V72.8125H156.696V82.5289H111.841V100.375H148.594V109.695H111.841Z"
    fill="white"></path>
  <path
    d="M45.6001 131.21H40.5562L74.5776 72.8125H85.7533V137.06H74.5776V88.9735L77.149 89.6675L49.2594 137.06H36.9958L9.1062 89.8658L11.7765 89.0726V137.06H0.501953V72.8125H11.7765L45.6001 131.21Z"
    fill="white"></path>
</svg>