<svg width="223" height="52" viewBox="0 0 223 52" fill="none" xmlns="http://www.w3.org/2000/svg">
<path d="M56.8502 47.9582C58.3359 47.9582 59.1723 47.1979 59.5057 46.5201H59.5759V47.7578H61.2839V41.746C61.2839 39.1115 59.2249 38.5869 57.7977 38.5869C56.1717 38.5869 54.6743 39.247 54.0894 40.8973L55.733 41.2745C55.9903 40.6321 56.6455 40.0132 57.8211 40.0132C58.95 40.0132 59.5291 40.6085 59.5291 41.634V41.6753C59.5291 42.3177 58.874 42.306 57.2596 42.4946C55.5575 42.6949 53.8145 43.1429 53.8145 45.1998C53.8145 46.9798 55.1422 47.9582 56.8502 47.9582ZM57.2304 46.5437C56.2419 46.5437 55.5283 46.0957 55.5283 45.2234C55.5283 44.2804 56.3588 43.9445 57.3708 43.8089C57.9381 43.7323 59.2834 43.579 59.535 43.3256V44.4926C59.535 45.5653 58.6868 46.5437 57.2304 46.5437Z" fill="white"/>
<path d="M70.8358 47.9405C73.3685 47.9405 75.0239 46.0721 75.0239 43.2725C75.0239 40.4553 73.3685 38.5869 70.8358 38.5869C68.3031 38.5869 66.6478 40.4553 66.6478 43.2725C66.6478 46.0721 68.3031 47.9405 70.8358 47.9405ZM70.8417 46.4611C69.1864 46.4611 68.4143 45.0053 68.4143 43.2667C68.4143 41.5339 69.1864 40.0604 70.8417 40.0604C72.4853 40.0604 73.2574 41.5339 73.2574 43.2667C73.2574 45.0053 72.4853 46.4611 70.8417 46.4611Z" fill="white"/>
<path d="M80.084 51.3413C82.3711 51.3413 84.1375 50.2863 84.1375 47.9582V38.7048H82.4237V40.1724H82.295C81.985 39.6124 81.365 38.5869 79.6921 38.5869C77.5221 38.5869 75.9253 40.3138 75.9253 43.1959C75.9253 46.0839 77.5572 47.6222 79.6804 47.6222C81.3299 47.6222 81.9675 46.6851 82.2833 46.1075H82.3945V47.8875C82.3945 49.3079 81.4294 49.9208 80.1016 49.9208C78.6451 49.9208 78.0778 49.1841 77.7678 48.6654L76.2645 49.2902C76.7383 50.3982 77.9374 51.3413 80.084 51.3413ZM80.0665 46.1605C78.5048 46.1605 77.6917 44.9523 77.6917 43.1724C77.6917 41.4337 78.4872 40.084 80.0665 40.084C81.5931 40.084 82.412 41.3394 82.412 43.1724C82.412 45.0407 81.5756 46.1605 80.0665 46.1605Z" fill="white"/>
<path d="M87.5731 42.3826C87.5731 40.9386 88.4505 40.1134 89.6671 40.1134C90.8545 40.1134 91.5739 40.8973 91.5739 42.2117V47.7578H93.3228V41.9995C93.3228 39.7598 92.1004 38.5869 90.2637 38.5869C88.9126 38.5869 88.0293 39.2176 87.614 40.1783H87.5029V38.7048H85.8242V47.7578H87.5731V42.3826Z" fill="white"/>
<path d="M100.701 44.0034C100.707 45.5417 99.5719 46.2725 98.5892 46.2725C97.5071 46.2725 96.7584 45.4828 96.7584 44.2509V38.7048H95.0095V44.4631C95.0095 46.7087 96.232 47.8757 97.9575 47.8757C99.3087 47.8757 100.227 47.1566 100.642 46.19H100.736V47.7578H102.456V38.7048H100.701V44.0034Z" fill="white"/>
<path d="M105.895 42.3826C105.895 40.9386 106.773 40.1134 107.989 40.1134C109.177 40.1134 109.896 40.8973 109.896 42.2117V47.7578H111.645V41.9995C111.645 39.7598 110.423 38.5869 108.586 38.5869C107.235 38.5869 106.352 39.2176 105.936 40.1783H105.825V38.7048H104.147V47.7578H105.895V42.3826Z" fill="white"/>
<path d="M117.116 47.9405C119.649 47.9405 121.304 46.0721 121.304 43.2725C121.304 40.4553 119.649 38.5869 117.116 38.5869C114.584 38.5869 112.928 40.4553 112.928 43.2725C112.928 46.0721 114.584 47.9405 117.116 47.9405ZM117.122 46.4611C115.467 46.4611 114.695 45.0053 114.695 43.2667C114.695 41.5339 115.467 40.0604 117.122 40.0604C118.766 40.0604 119.538 41.5339 119.538 43.2667C119.538 45.0053 118.766 46.4611 117.122 46.4611Z" fill="white"/>
<path d="M125.586 47.7922V47.6093L125.846 47.5358C126.094 47.4626 126.265 47.3528 126.358 47.2067C126.451 47.0606 126.498 46.8654 126.498 46.6212V40.8943C126.498 40.6381 126.451 40.446 126.358 40.3179C126.265 40.1899 126.094 40.1012 125.846 40.0523L125.586 39.9977V39.8145L128.992 38.7352L129.178 38.9182L129.122 41.5164V46.6395C129.122 46.8837 129.169 47.0787 129.262 47.225C129.355 47.3717 129.519 47.4812 129.755 47.5544L129.941 47.6093V47.7922H125.586ZM127.782 37.7655C127.36 37.7655 127.003 37.6346 126.712 37.3721C126.42 37.11 126.274 36.7775 126.274 36.3752C126.274 35.9607 126.42 35.6251 126.712 35.3686C127.003 35.1125 127.36 34.9844 127.782 34.9844C128.204 34.9844 128.557 35.1125 128.843 35.3686C129.128 35.6248 129.271 35.9604 129.271 36.3752C129.271 36.7775 129.128 37.11 128.843 37.3721C128.557 37.6346 128.204 37.7655 127.782 37.7655Z" fill="white"/>
<path d="M130.63 47.7917V47.6087L130.853 47.5352C131.3 47.3889 131.524 47.0844 131.524 46.6207V36.8319C131.524 36.5877 131.474 36.4019 131.375 36.2738C131.275 36.1457 131.102 36.0514 130.853 35.9902L130.611 35.9356V35.7523L134.017 34.9656L134.241 35.1302L134.166 37.6918V43.9493C134.166 44.4008 134.169 44.849 134.175 45.2942C134.182 45.7399 134.185 46.1816 134.185 46.621C134.185 46.8651 134.234 47.0632 134.334 47.2156C134.433 47.368 134.6 47.4809 134.836 47.5541L135.078 47.609V47.792H130.63V47.7917Z" fill="white"/>
<path d="M142.802 48.0667C142.194 48.0667 141.649 47.9964 141.165 47.8563C140.681 47.7165 140.234 47.5424 139.825 47.3351L139.843 45.1578H140.029L140.662 46.2556C140.935 46.7436 141.235 47.1064 141.565 47.3443C141.893 47.5821 142.312 47.7011 142.821 47.7011C143.416 47.7011 143.897 47.5701 144.263 47.3077C144.629 47.0455 144.812 46.6947 144.812 46.2556C144.812 45.8531 144.682 45.5237 144.422 45.2676C144.161 45.0114 143.677 44.7798 142.97 44.5723L142.188 44.3344C141.431 44.1146 140.835 43.7735 140.401 43.3098C139.967 42.8464 139.75 42.2792 139.75 41.6082C139.75 40.8031 140.073 40.1201 140.718 39.5589C141.363 38.998 142.287 38.7173 143.491 38.7173C143.975 38.7173 144.43 38.7696 144.859 38.8728C145.287 38.9766 145.699 39.1321 146.096 39.3394L145.984 41.3154H145.799L145.147 40.181C144.911 39.7785 144.679 39.4949 144.449 39.3302C144.219 39.1656 143.875 39.0832 143.416 39.0832C142.994 39.0832 142.597 39.1993 142.225 39.4309C141.853 39.663 141.666 39.9921 141.666 40.4189C141.666 40.8337 141.825 41.1631 142.141 41.4069C142.457 41.6508 142.926 41.8766 143.546 42.0839L144.384 42.3218C145.277 42.5899 145.916 42.959 146.301 43.4287C146.685 43.8984 146.878 44.4622 146.878 45.1212C146.878 46.0117 146.521 46.725 145.808 47.2616C145.095 47.7985 144.093 48.0667 142.802 48.0667Z" fill="white"/>
<path d="M150.767 48.0661C150.283 48.0661 149.839 47.9746 149.437 47.7917C149.033 47.6087 148.717 47.3131 148.487 46.9043C148.257 46.4955 148.149 45.956 148.162 45.285L148.217 40.5827C148.217 40.3023 148.168 40.1007 148.069 39.9789C147.969 39.8571 147.814 39.7716 147.603 39.7228L147.38 39.6493V39.4663L150.712 38.8259L150.897 39.0092L150.804 41.6073V46.0169C150.804 46.4074 150.919 46.6939 151.149 46.8768C151.378 47.0601 151.667 47.1513 152.014 47.1513C152.362 47.1513 152.672 47.1027 152.945 47.0049C153.218 46.9074 153.491 46.7608 153.764 46.5658L153.838 40.601C153.838 40.3208 153.795 40.1224 153.708 40.0064C153.621 39.8909 153.46 39.8085 153.224 39.7596L153.038 39.7048V39.5218L156.295 38.8262L156.481 39.0095L156.425 41.6076V46.5661C156.425 46.8345 156.463 47.0418 156.537 47.1882C156.612 47.3348 156.773 47.4566 157.021 47.5541L157.207 47.609V47.792L153.95 47.9749L153.783 46.8957C153.373 47.2248 152.929 47.5026 152.452 47.7282C151.974 47.9538 151.412 48.0661 150.767 48.0661Z" fill="white"/>
<path d="M162.399 48.0666C161.456 48.0666 160.637 47.8744 159.942 47.4902C159.247 47.1057 158.711 46.5602 158.332 45.8523C157.954 45.1451 157.765 44.3154 157.765 43.364C157.765 42.4125 157.966 41.5892 158.37 40.8939C158.773 40.1986 159.325 39.662 160.026 39.2838C160.727 38.9058 161.518 38.7166 162.399 38.7166C163.28 38.7166 164.068 38.9027 164.763 39.2746C165.457 39.6468 166.007 40.1803 166.41 40.8756C166.813 41.5712 167.015 42.4005 167.015 43.364C167.015 44.3277 166.826 45.1602 166.447 45.8615C166.068 46.5631 165.535 47.1057 164.846 47.4899C164.158 47.8744 163.342 48.0666 162.399 48.0666ZM162.399 47.7006C162.833 47.7006 163.181 47.5788 163.441 47.335C163.702 47.0908 163.891 46.658 164.009 46.0359C164.127 45.4135 164.186 44.5355 164.186 43.4008C164.186 42.2544 164.127 41.3699 164.009 40.7481C163.891 40.1257 163.702 39.6932 163.441 39.449C163.181 39.2049 162.833 39.0831 162.399 39.0831C161.965 39.0831 161.614 39.2051 161.347 39.449C161.081 39.6929 160.888 40.1257 160.771 40.7481C160.653 41.3702 160.594 42.2547 160.594 43.4008C160.594 44.5355 160.653 45.4135 160.771 46.0359C160.888 46.658 161.081 47.0908 161.347 47.335C161.614 47.5791 161.965 47.7006 162.399 47.7006Z" fill="white"/>
<path d="M175.057 48.0663C174.262 48.0663 173.645 47.8711 173.205 47.4808C172.764 47.0906 172.544 46.4685 172.544 45.6145V39.357H171.26V39.174L171.706 39.1005C172.091 39.0153 172.423 38.8932 172.702 38.7349C172.982 38.5765 173.257 38.3626 173.53 38.0945L175.057 36.4294H175.243L175.187 38.991H177.272V39.357H175.169V45.9439C175.169 46.371 175.265 46.694 175.457 46.9136C175.65 47.1335 175.894 47.243 176.192 47.243C176.453 47.243 176.683 47.1789 176.881 47.0508C177.079 46.9228 177.278 46.7487 177.477 46.5294L177.663 46.7123C177.415 47.1272 177.074 47.4568 176.639 47.7004C176.204 47.9442 175.676 48.0663 175.057 48.0663Z" fill="white"/>
<path d="M182.669 38.7168C183.475 38.7168 184.164 38.8786 184.735 39.2017C185.306 39.525 185.743 39.9641 186.047 40.5188C186.351 41.074 186.503 41.7052 186.503 42.4125C186.503 42.5471 186.497 42.6841 186.484 42.8242C186.472 42.9645 186.447 43.0895 186.41 43.1992H180.863C180.876 44.5166 181.115 45.4655 181.58 46.0444C182.045 46.6239 182.737 46.9135 183.655 46.9135C184.275 46.9135 184.778 46.816 185.163 46.6211C185.547 46.4258 185.907 46.139 186.242 45.7611L186.428 45.9255C186.044 46.5968 185.532 47.1214 184.893 47.499C184.254 47.877 183.488 48.0662 182.594 48.0662C181.713 48.0662 180.931 47.8801 180.249 47.5082C179.566 47.1362 179.033 46.6025 178.648 45.9072C178.264 45.2116 178.071 44.3825 178.071 43.4188C178.071 42.4188 178.295 41.568 178.741 40.8664C179.188 40.1651 179.762 39.6314 180.463 39.2651C181.164 38.9001 181.899 38.7168 182.669 38.7168ZM182.613 39.0827C182.253 39.0827 181.946 39.1897 181.692 39.4029C181.437 39.6165 181.238 39.9944 181.096 40.5373C180.953 41.0802 180.876 41.8456 180.863 42.8336H184.046C184.17 41.5042 184.121 40.5465 183.897 39.961C183.674 39.3755 183.246 39.0827 182.613 39.0827Z" fill="white"/>
<path d="M187.246 47.7921V47.6092L187.507 47.5357C187.742 47.4748 187.907 47.3713 188 47.2246C188.093 47.0783 188.146 46.8836 188.158 46.6391V40.9122C188.158 40.644 188.115 40.4456 188.028 40.3178C187.941 40.1897 187.774 40.1011 187.526 40.0522L187.246 39.979V39.7961L190.429 38.7348L190.615 38.9178L190.764 40.162C191.173 39.7598 191.642 39.4181 192.169 39.1374C192.696 38.8572 193.246 38.7166 193.816 38.7166C194.412 38.7166 194.89 38.8355 195.25 39.0733C195.61 39.3112 195.882 39.6803 196.069 40.1803C196.553 39.7292 197.077 39.3724 197.641 39.1099C198.206 38.8478 198.755 38.7166 199.289 38.7166C200.17 38.7166 200.818 38.9244 201.234 39.3386C201.649 39.7535 201.857 40.4062 201.857 41.2967V46.6577C201.857 47.1334 202.08 47.4325 202.527 47.5543L202.732 47.6092V47.7921H198.432V47.6092L198.618 47.5543C198.854 47.4811 199.018 47.3713 199.111 47.2249C199.204 47.0785 199.251 46.8839 199.251 46.6394V41.0405C199.251 40.5282 199.158 40.1777 198.972 39.9885C198.786 39.7995 198.488 39.7049 198.079 39.7049C197.756 39.7049 197.443 39.7752 197.139 39.9153C196.835 40.0557 196.515 40.2661 196.18 40.5465C196.242 40.7418 196.283 40.9554 196.301 41.1869C196.32 41.4185 196.329 41.6624 196.329 41.9188V46.6577C196.342 47.1334 196.565 47.4325 196.999 47.5543L197.167 47.6092V47.7921H192.848V47.6092L193.109 47.5357C193.345 47.4625 193.509 47.3559 193.602 47.2158C193.695 47.0757 193.742 46.8836 193.742 46.6391V41.0586C193.742 40.5708 193.652 40.2232 193.472 40.0156C193.292 39.8084 192.985 39.7046 192.551 39.7046C192.265 39.7046 191.98 39.7749 191.694 39.915C191.409 40.0554 191.111 40.2598 190.801 40.5279V46.6574C190.801 47.1331 191.018 47.4322 191.453 47.554L191.62 47.6089V47.7918H187.246V47.7921Z" fill="white"/>
<path d="M202.992 52.0005V51.8176L203.216 51.7444C203.675 51.6223 203.904 51.3296 203.904 50.8661V40.9126C203.904 40.6445 203.858 40.4432 203.765 40.3091C203.672 40.175 203.501 40.0835 203.253 40.0347L202.992 39.9798V39.7968L206.156 38.7356L206.342 38.9185L206.51 39.4858C206.919 39.2416 207.375 39.0526 207.878 38.9185C208.38 38.7845 208.898 38.7173 209.432 38.7173C210.499 38.7173 211.346 39.117 211.972 39.9157C212.599 40.7148 212.912 41.8583 212.912 43.3464C212.912 44.8101 212.568 45.9626 211.879 46.8045C211.191 47.6462 210.219 48.067 208.966 48.067C207.986 48.067 207.161 47.9266 206.491 47.6462V50.8112C206.491 51.299 206.714 51.604 207.161 51.7261L207.514 51.8176V52.0005H202.992ZM208.073 47.5361C208.694 47.5361 209.187 47.2193 209.553 46.5849C209.919 45.9506 210.102 44.8956 210.102 43.4196C210.102 41.9438 209.928 40.91 209.581 40.3183C209.233 39.7268 208.731 39.4309 208.074 39.4309C207.615 39.4309 207.106 39.5772 206.547 39.87V47.2436C207.019 47.4386 207.527 47.5361 208.073 47.5361Z" fill="white"/>
<path d="M218.385 48.0666C217.442 48.0666 216.622 47.8744 215.928 47.4902C215.233 47.1057 214.696 46.5602 214.318 45.8523C213.939 45.1451 213.75 44.3154 213.75 43.364C213.75 42.4125 213.952 41.5892 214.355 40.8939C214.758 40.1986 215.31 39.662 216.012 39.2838C216.712 38.9058 217.503 38.7166 218.385 38.7166C219.265 38.7166 220.053 38.9027 220.748 39.2746C221.443 39.6468 221.992 40.1803 222.396 40.8756C222.799 41.5712 223.001 42.4005 223.001 43.364C223.001 44.3277 222.811 45.1602 222.433 45.8615C222.054 46.5631 221.521 47.1057 220.832 47.4899C220.143 47.8744 219.327 48.0666 218.385 48.0666ZM218.385 47.7006C218.819 47.7006 219.166 47.5788 219.427 47.335C219.687 47.0908 219.876 46.658 219.994 46.0359C220.112 45.4135 220.171 44.5355 220.171 43.4008C220.171 42.2544 220.112 41.3699 219.994 40.7481C219.876 40.1257 219.687 39.6932 219.427 39.449C219.166 39.2049 218.819 39.0831 218.385 39.0831C217.95 39.0831 217.6 39.2051 217.333 39.449C217.066 39.6929 216.874 40.1257 216.756 40.7481C216.638 41.3702 216.579 42.2547 216.579 43.4008C216.579 44.5355 216.638 45.4135 216.756 46.0359C216.874 46.658 217.066 47.0908 217.333 47.335C217.6 47.5791 217.95 47.7006 218.385 47.7006Z" fill="white"/>
<path d="M12.777 9.00999H7.9047V6.96496C7.9047 4.94957 8.72902 3.85296 10.8782 3.85296C11.7908 3.85296 12.4385 4.06042 12.8507 4.19379L13.8811 0.607583C13.2628 0.370478 11.9822 0 10.201 0C6.62405 0 3.48866 2.10431 3.48866 6.3722V9.00999H0V12.5666H3.48866V31.7721H7.9047V12.5666H12.777V9.00999Z" fill="white"/>
<path d="M24.5143 32.2315C29.4455 32.2315 32.9342 29.7863 33.9351 26.0815L29.7693 25.3258C28.9745 27.4745 27.0608 28.5711 24.5584 28.5711C20.7901 28.5711 18.2582 26.1112 18.1405 21.7247H34.2148V20.1539C34.2148 11.9293 29.3277 8.71361 24.2051 8.71361C17.9049 8.71361 13.7539 13.5446 13.7539 20.5392C13.7539 27.6079 17.8461 32.2315 24.5143 32.2315ZM18.1552 18.4053C18.3318 15.1747 20.6576 12.3739 24.2346 12.3739C27.6497 12.3739 29.8871 14.9228 29.9018 18.4053H18.1552Z" fill="white"/>
<path d="M54.383 14.5671C53.4703 11.0254 50.7177 8.71361 45.8306 8.71361C40.7227 8.71361 37.1016 11.4255 37.1016 15.4563C37.1016 18.6868 39.0446 20.8356 43.284 21.784L47.1112 22.6287C49.2898 23.1177 50.3055 24.0958 50.3055 25.5184C50.3055 27.2819 48.4361 28.6601 45.5509 28.6601C42.916 28.6601 41.2232 27.519 40.6933 25.2813L36.4392 25.9334C37.1752 29.9641 40.5019 32.2315 45.5804 32.2315C51.0415 32.2315 54.8246 29.3121 54.8246 25.1924C54.8246 21.9767 52.7932 19.9909 48.6421 19.0277L45.0504 18.1978C42.5627 17.605 41.4882 16.7604 41.5029 15.2192C41.4882 13.4705 43.3723 12.2257 45.8748 12.2257C48.6127 12.2257 49.8786 13.7521 50.3938 15.2785L54.383 14.5671Z" fill="white"/>
<path d="M68.5601 9.00999H63.9232V3.55658H59.5219V9.00999H56.2099V12.5666H59.5219V26.0075C59.5072 30.142 62.6426 32.1425 66.1165 32.0684C67.5149 32.0536 68.457 31.7869 68.9722 31.5942L68.1773 27.9339C67.8829 27.9932 67.3383 28.1266 66.6317 28.1266C65.2039 28.1266 63.9232 27.6524 63.9232 25.0887V12.5666H68.5601V9.00999Z" fill="white"/>
<path d="M71.7707 31.7721H76.172V9.00999H71.7707V31.7721ZM73.9934 5.49787C75.5096 5.49787 76.7755 4.31235 76.7755 2.86008C76.7755 1.40781 75.5096 0.207468 73.9934 0.207468C72.4625 0.207468 71.2113 1.40781 71.2113 2.86008C71.2113 4.31235 72.4625 5.49787 73.9934 5.49787Z" fill="white"/>
<path d="M84.8364 18.2571C84.8364 14.6264 87.0444 12.5517 90.1062 12.5517C93.0944 12.5517 94.9049 14.5227 94.9049 17.8273V31.7721H99.3062V17.2938C99.3062 11.6626 96.2297 8.71361 91.6076 8.71361C88.2073 8.71361 85.9845 10.2992 84.9394 12.7148H84.6597V9.00999H80.4351V31.7721H84.8364V18.2571Z" fill="white"/>
<path d="M110.131 32.2759C113.87 32.2759 115.975 30.3643 116.814 28.6601H116.99V31.7721H121.289V16.6566C121.289 10.0325 116.107 8.71361 112.515 8.71361C108.423 8.71361 104.655 10.3733 103.183 14.5227L107.319 15.4711C107.967 13.8558 109.616 12.2998 112.574 12.2998C115.415 12.2998 116.873 13.7965 116.873 16.3751V16.4788C116.873 18.0941 115.224 18.0644 111.161 18.5386C106.878 19.0425 102.491 20.1687 102.491 25.3406C102.491 29.816 105.833 32.2759 110.131 32.2759ZM111.088 28.7193C108.6 28.7193 106.804 27.5931 106.804 25.3999C106.804 23.0288 108.894 22.1841 111.441 21.8433C112.869 21.6506 116.254 21.2654 116.887 20.6281V23.5623C116.887 26.2594 114.753 28.7193 111.088 28.7193Z" fill="white"/>
<path d="M124.655 31.8298V31.3678L125.207 31.183C126.309 30.8134 126.861 30.0434 126.861 28.8731V4.71225C126.861 4.09627 126.738 3.63429 126.493 3.3263C126.248 2.98751 125.819 2.74112 125.207 2.58712L124.609 2.44853V1.98654L133.018 0L133.569 0.415787L133.385 6.88359V22.1281C133.385 23.2677 133.385 24.4072 133.385 25.5468C133.416 26.6555 133.431 27.7643 133.431 28.8731C133.431 29.4891 133.554 29.9972 133.799 30.3976C134.044 30.7672 134.457 31.0444 135.039 31.2292L135.636 31.3678V31.8298H124.655Z" fill="white"/>
<path d="M148.737 8.66844C150.728 8.66844 152.428 9.08423 153.837 9.9158C155.246 10.7166 156.318 11.8253 157.053 13.2421C157.819 14.6281 158.202 16.2142 158.202 18.0006C158.202 18.3393 158.187 18.6935 158.156 19.0631C158.126 19.4019 158.064 19.7099 157.972 19.9871H144.28C144.311 23.3134 144.893 25.7157 146.026 27.1941C147.19 28.6416 148.906 29.3654 151.172 29.3654C152.704 29.3654 153.944 29.119 154.894 28.6262C155.844 28.1334 156.732 27.4097 157.559 26.4549L158.018 26.8707C157.069 28.5646 155.798 29.889 154.205 30.8438C152.643 31.7985 150.759 32.2759 148.553 32.2759C146.379 32.2759 144.449 31.8139 142.764 30.89C141.08 29.9352 139.762 28.58 138.813 26.8245C137.863 25.0689 137.389 22.9746 137.389 20.5415C137.389 18.016 137.94 15.8754 139.043 14.1199C140.145 12.3335 141.554 10.9784 143.27 10.0544C145.016 9.13042 146.838 8.66844 148.737 8.66844ZM148.599 9.59241C147.711 9.59241 146.945 9.8696 146.302 10.424C145.689 10.9476 145.199 11.9023 144.832 13.2883C144.495 14.6435 144.311 16.5684 144.28 19.0631H152.137C152.444 15.706 152.321 13.2883 151.77 11.8099C151.218 10.3316 150.162 9.59241 148.599 9.59241Z" fill="white"/>
<path d="M160.032 31.8298V31.3678L160.676 31.183C161.748 30.875 162.284 30.1204 162.284 28.9193V14.4591C162.284 13.7815 162.177 13.2888 161.962 12.9808C161.748 12.642 161.334 12.411 160.722 12.2878L160.032 12.103V11.641L167.889 8.96149L168.349 9.42348L168.716 12.1954C169.788 11.2406 170.998 10.4552 172.346 9.83926C173.694 9.22328 175.026 8.91529 176.343 8.91529C178.365 8.91529 179.912 9.46967 180.984 10.5784C182.087 11.6872 182.638 13.3812 182.638 15.6603V28.9655C182.638 30.1666 183.22 30.9212 184.384 31.2292L184.797 31.3678V31.8298H173.954V31.3678L174.551 31.183C175.623 30.8442 176.16 30.0896 176.16 28.9193V14.1819C176.16 12.2108 175.179 11.2252 173.219 11.2252C171.871 11.2252 170.401 11.9028 168.808 13.258V28.9655C168.808 30.1666 169.344 30.9212 170.416 31.2292L170.83 31.3678V31.8298H160.032Z" fill="white"/>
<path d="M194.641 32.2759C192.681 32.2759 191.149 31.7831 190.046 30.7976C188.974 29.812 188.438 28.2412 188.438 26.0853V10.2854H185.268V9.82341L186.371 9.63861C187.32 9.42302 188.132 9.11503 188.806 8.71464C189.51 8.31425 190.2 7.77527 190.873 7.09769L194.641 2.89362H195.1L194.963 9.36142H200.109V10.2854H194.917V26.9169C194.917 27.9948 195.146 28.811 195.606 29.3654C196.096 29.9198 196.709 30.197 197.444 30.197C198.087 30.197 198.654 30.043 199.144 29.735C199.634 29.3962 200.124 28.9496 200.614 28.3952L201.073 28.8572C200.461 29.9044 199.619 30.736 198.546 31.3519C197.474 31.9679 196.173 32.2759 194.641 32.2759Z" fill="white"/>
<path d="M213.451 8.66844C215.442 8.66844 217.142 9.08423 218.551 9.9158C219.96 10.7166 221.032 11.8253 221.768 13.2421C222.533 14.6281 222.916 16.2142 222.916 18.0006C222.916 18.3393 222.901 18.6935 222.87 19.0631C222.84 19.4019 222.778 19.7099 222.686 19.9871H208.995C209.025 23.3134 209.607 25.7157 210.74 27.1941C211.904 28.6416 213.62 29.3654 215.886 29.3654C217.418 29.3654 218.659 29.119 219.608 28.6262C220.558 28.1334 221.446 27.4097 222.273 26.4549L222.732 26.8707C221.783 28.5646 220.512 29.889 218.919 30.8438C217.357 31.7985 215.473 32.2759 213.268 32.2759C211.093 32.2759 209.163 31.8139 207.478 30.89C205.794 29.9352 204.476 28.58 203.527 26.8245C202.577 25.0689 202.103 22.9746 202.103 20.5415C202.103 18.016 202.654 15.8754 203.757 14.1199C204.859 12.3335 206.268 10.9784 207.984 10.0544C209.73 9.13042 211.552 8.66844 213.451 8.66844ZM213.313 9.59241C212.425 9.59241 211.659 9.8696 211.016 10.424C210.404 10.9476 209.913 11.9023 209.546 13.2883C209.209 14.6435 209.025 16.5684 208.995 19.0631H216.851C217.158 15.706 217.035 13.2883 216.484 11.8099C215.932 10.3316 214.876 9.59241 213.313 9.59241Z" fill="white"/>
</svg>
