<svg viewBox="0 0 204 45" fill="none"
    xmlns="http://www.w3.org/2000/svg">
    <g clip-path="url(#clip0)">
        <path d="M2.74679 39.5372L0.775386 36.6771H2.65557L3.70969 38.2524L4.75621 36.6771H6.58825L4.60417 39.5117L6.82137 42.7236H4.94119L3.68688 40.8194L2.43512 42.7236H0.590408L2.74679 39.5372Z" fill="#FF2B06"/>
        <path d="M14.6284 39.1395H8.76997V37.8904H14.6284V39.1395ZM14.6284 41.6377H8.76997V40.3886H14.6284V41.6377Z" fill="white"/>
        <path d="M19.1186 35.7441H17.4842V34.3777H19.1313L19.1186 35.7441ZM17.4842 36.6771H19.1313V42.7134H17.4842V36.6771Z" fill="white"/>
        <path d="M20.1879 36.677H21.7539V37.5182H21.7919C21.9868 37.207 22.2578 36.9513 22.579 36.7754C22.9002 36.5996 23.2608 36.5096 23.6265 36.5139C25.3774 36.5139 25.8209 37.5055 25.8209 39.0018V42.7134H24.1662V39.3052C24.1662 38.311 23.8773 37.8216 23.1121 37.8216C22.2176 37.8216 21.8451 38.3314 21.8451 39.5499V42.7134H20.198L20.1879 36.677Z" fill="white"/>
        <path d="M31.1168 41.9436H31.094C30.7114 42.5962 30.0373 42.8766 29.2721 42.8766C27.4628 42.8766 26.581 41.3114 26.581 39.6417C26.581 38.0205 27.473 36.5139 29.2366 36.5139C29.5853 36.5022 29.9314 36.5784 30.2434 36.7356C30.5554 36.8927 30.8234 37.1259 31.023 37.4138V34.3777H32.6878V42.7134H31.1168V41.9436ZM29.6775 37.763C28.5981 37.763 28.2281 38.696 28.2281 39.6902C28.2281 40.6359 28.6563 41.6275 29.6775 41.6275C30.7696 41.6275 31.094 40.669 31.094 39.6774C31.094 38.6858 30.7468 37.763 29.6775 37.763Z" fill="white"/>
        <path d="M35.0495 40.098C35.0976 41.1482 35.6069 41.6275 36.5242 41.6275C37.1856 41.6275 37.7177 41.2196 37.8241 40.8449H39.2761C38.8124 42.2699 37.8267 42.8842 36.4685 42.8842C34.5756 42.8842 33.4049 41.5765 33.4049 39.708C33.4049 37.8981 34.6466 36.5215 36.4685 36.5215C38.5108 36.5215 39.5092 38.2499 39.38 40.1056L35.0495 40.098ZM37.7304 39.0477C37.5809 38.2065 37.2236 37.7732 36.4203 37.7732C36.2465 37.7636 36.0725 37.7892 35.9087 37.8485C35.7449 37.9078 35.5946 37.9997 35.4667 38.1185C35.3389 38.2374 35.236 38.3809 35.1644 38.5406C35.0927 38.7002 35.0536 38.8726 35.0495 39.0477H37.7304Z" fill="white"/>
        <path d="M40.1199 36.677H41.6859V37.4418H41.7112C41.8991 37.143 42.162 36.8994 42.4735 36.7356C42.7849 36.5717 43.1338 36.4935 43.485 36.5088C45.3652 36.5088 46.2115 38.0383 46.2115 39.7539C46.2115 41.3649 45.3297 42.8715 43.5762 42.8715C43.2253 42.8807 42.8776 42.8025 42.5642 42.6437C42.2507 42.4849 41.9811 42.2505 41.7796 41.9614H41.7543V44.8317H40.1072L40.1199 36.677ZM44.5771 39.7131C44.5771 38.7546 44.1945 37.763 43.1378 37.763C42.0812 37.763 41.7112 38.7317 41.7112 39.7131C41.7112 40.6945 42.0812 41.6275 43.148 41.6275C44.2147 41.6275 44.5771 40.6945 44.5771 39.7131Z" fill="white"/>
        <path d="M48.3349 40.098C48.3805 41.1482 48.8924 41.6275 49.8097 41.6275C50.471 41.6275 51.0032 41.2196 51.1096 40.8449H52.559C52.0953 42.2699 51.1096 42.8842 49.7514 42.8842C47.8585 42.8842 46.6879 41.5765 46.6879 39.708C46.6879 37.8981 47.9295 36.5215 49.7514 36.5215C51.7938 36.5215 52.7795 38.2499 52.6629 40.1056L48.3349 40.098ZM51.0158 39.0477C50.8638 38.2065 50.5091 37.7732 49.7058 37.7732C49.532 37.7636 49.358 37.7892 49.1942 37.8485C49.0303 37.9078 48.88 37.9997 48.7522 38.1185C48.6243 38.2374 48.5215 38.3809 48.4498 38.5406C48.3782 38.7002 48.3391 38.8726 48.3349 39.0477H51.0158Z" fill="white"/>
        <path d="M53.4053 36.677H54.9713V37.5182H55.0068C55.2017 37.207 55.4727 36.9513 55.7939 36.7754C56.1151 36.5996 56.4757 36.5096 56.8414 36.5139C58.5923 36.5139 59.0332 37.5055 59.0332 39.0018V42.7134H57.3862V39.3052C57.3862 38.311 57.0948 37.8216 56.3295 37.8216C55.4376 37.8216 55.0625 38.3314 55.0625 39.5499V42.7134H53.4155L53.4053 36.677Z" fill="white"/>
        <path d="M64.3368 41.9436H64.314C63.9288 42.5962 63.2573 42.8766 62.4921 42.8766C60.6803 42.8766 59.7985 41.3114 59.7985 39.6417C59.7985 38.0205 60.693 36.5139 62.4566 36.5139C62.8053 36.5025 63.1513 36.5788 63.4633 36.7359C63.7752 36.893 64.0432 37.126 64.243 37.4138H64.2557V34.3777H65.9027V42.7134H64.3368V41.9436ZM62.8975 37.763C61.818 37.763 61.4455 38.696 61.4455 39.6902C61.4455 40.6359 61.8763 41.6275 62.8975 41.6275C63.9871 41.6275 64.314 40.669 64.314 39.6774C64.314 38.6858 63.9643 37.763 62.8975 37.763Z" fill="white"/>
        <path d="M68.2694 40.098C68.315 41.1482 68.8269 41.6275 69.7417 41.6275C70.403 41.6275 70.9377 41.2196 71.0416 40.8449H72.4935C72.0298 42.2699 71.0416 42.8842 69.6859 42.8842C67.7931 42.8842 66.6224 41.5765 66.6224 39.708C66.6224 37.8981 67.864 36.5215 69.6859 36.5215C71.7257 36.5215 72.714 38.2499 72.5974 40.1056L68.2694 40.098ZM70.9503 39.0477C70.7983 38.2065 70.4436 37.7732 69.6378 37.7732C69.464 37.7636 69.2902 37.7892 69.1265 37.8485C68.9628 37.9079 68.8127 37.9998 68.6851 38.1187C68.5574 38.2376 68.4548 38.3811 68.3834 38.5407C68.312 38.7003 68.2732 38.8728 68.2694 39.0477H70.9503Z" fill="white"/>
        <path d="M73.3399 36.6771H74.9058V37.5183H74.9413C75.136 37.2074 75.4066 36.9519 75.7273 36.7761C76.048 36.6003 76.4081 36.51 76.7734 36.5139C78.5268 36.5139 78.9677 37.5055 78.9677 39.0019V42.7134H77.3207V39.3052C77.3207 38.3111 77.0293 37.8216 76.264 37.8216C75.3695 37.8216 74.9971 38.3315 74.9971 39.5499V42.7134H73.35L73.3399 36.6771Z" fill="white"/>
        <path d="M82.0769 36.6771H83.2831V37.7859H82.0769V40.7863C82.0769 41.3445 82.2163 41.4847 82.7737 41.4847C82.9438 41.4869 83.1136 41.4715 83.2805 41.4389V42.7338C82.9616 42.7789 82.6396 42.7985 82.3176 42.7924C81.304 42.7924 80.4273 42.5605 80.4273 41.3573V37.7885H79.4289V36.6796H80.4273V34.8697H82.0744L82.0769 36.6771Z" fill="white"/>
        <path d="M83.8861 34.3777H85.5332V42.7134H83.8861V34.3777Z" fill="white"/>
        <path d="M89.5596 43.4705C89.1998 44.4417 88.6322 44.8369 87.4945 44.8369C87.1558 44.8353 86.8175 44.8157 86.4809 44.7782V43.4119C86.8004 43.4509 87.1219 43.4704 87.4438 43.4705C88.0114 43.4119 88.204 42.8179 88.0114 42.3387L85.9006 36.6771H87.6744L89.0325 40.8092H89.0554L90.3654 36.6771H92.0707L89.5596 43.4705Z" fill="white"/>
        <path d="M98.2966 36.5139C100.189 36.5139 101.408 37.7757 101.408 39.7003C101.408 41.6249 100.189 42.8766 98.2966 42.8766C96.4038 42.8766 95.2002 41.6147 95.2002 39.7003C95.2002 37.7859 96.4165 36.5139 98.2966 36.5139ZM98.2966 41.6275C99.4242 41.6275 99.7587 40.6588 99.7587 39.7003C99.7587 38.7419 99.4242 37.763 98.2966 37.763C97.169 37.763 96.8472 38.7317 96.8472 39.7003C96.8472 40.669 97.1842 41.6275 98.2966 41.6275Z" fill="white"/>
        <path d="M102.009 36.677H103.577V37.7986H103.6C103.764 37.424 104.031 37.1046 104.371 36.8786C104.71 36.6526 105.107 36.5296 105.513 36.5241C105.636 36.5251 105.757 36.5449 105.873 36.5827V38.1122C105.679 38.0748 105.481 38.056 105.283 38.0561C104.077 38.0561 103.658 38.9305 103.658 39.9935V42.7134H102.009V36.677Z" fill="white"/>
        <path d="M112.058 42.3285C112.058 43.3201 111.711 45 108.949 45C107.766 45 106.385 44.4417 106.304 43.0627H107.946C108.098 43.6821 108.597 43.8911 109.177 43.8911C110.095 43.8911 110.51 43.2615 110.5 42.3973V41.6046H110.48C110.288 41.905 110.02 42.1494 109.704 42.3131C109.389 42.4768 109.036 42.5542 108.681 42.5375C106.882 42.5375 106.116 41.161 106.116 39.5015C106.116 37.9389 107.008 36.5139 108.693 36.5139C109.481 36.5139 110.085 36.7688 110.467 37.4826H110.49V36.6771H112.056L112.058 42.3285ZM110.493 39.6188C110.493 38.6399 110.155 37.763 109.089 37.763C108.159 37.763 107.753 38.5813 107.753 39.4786C107.753 40.3759 108.078 41.2885 109.089 41.2885C110.029 41.2961 110.493 40.4829 110.493 39.6188Z" fill="white"/>
        <path d="M112.847 38.5328C112.94 36.9804 114.321 36.5139 115.667 36.5139C116.863 36.5139 118.302 36.7688 118.302 38.2295V41.37C118.302 41.9181 118.358 42.4687 118.51 42.7134H116.84C116.777 42.5245 116.738 42.3284 116.723 42.1297C116.453 42.385 116.134 42.5827 115.786 42.711C115.437 42.8394 115.067 42.8957 114.696 42.8766C113.559 42.8766 112.654 42.303 112.654 41.0667C112.654 39.7003 113.668 39.3741 114.696 39.2338C115.725 39.0936 116.645 39.1166 116.645 38.4411C116.645 37.7273 116.158 37.6228 115.578 37.6228C114.952 37.6228 114.544 37.8777 114.489 38.5328H112.847ZM116.647 39.759C116.369 40.0139 115.788 40.0139 115.279 40.1108C114.77 40.2076 114.304 40.3886 114.304 40.9979C114.304 41.6071 114.78 41.7626 115.317 41.7626C116.604 41.7626 116.65 40.7429 116.65 40.3733L116.647 39.759Z" fill="white"/>
        <path d="M119.349 36.677H120.917V37.5182H120.95C121.145 37.207 121.416 36.9513 121.737 36.7754C122.058 36.5996 122.419 36.5096 122.785 36.5139C124.536 36.5139 124.977 37.5055 124.977 39.0018V42.7134H123.329V39.3052C123.329 38.311 123.041 37.8216 122.275 37.8216C121.381 37.8216 121.008 38.3314 121.008 39.5499V42.7134H119.349V36.677Z" fill="white"/>
        <path d="M127.457 35.7441H125.81V34.3777H127.457V35.7441ZM125.81 36.6771H127.457V42.7134H125.81V36.6771Z" fill="white"/>
        <path d="M128.152 41.4644L131.273 37.9261H128.385V36.6771H133.453V37.9261L130.321 41.4644H133.663V42.7134H128.152V41.4644Z" fill="white"/>
        <path d="M135.67 40.098C135.718 41.1482 136.227 41.6275 137.144 41.6275C137.806 41.6275 138.338 41.2196 138.444 40.8449H139.894C139.43 42.2699 138.444 42.8842 137.086 42.8842C135.193 42.8842 134.023 41.5765 134.023 39.708C134.023 37.8981 135.264 36.5215 137.086 36.5215C139.129 36.5215 140.127 38.2499 139.998 40.1056L135.67 40.098ZM138.353 39.0477C138.204 38.2065 137.846 37.7732 137.043 37.7732C136.869 37.7636 136.695 37.7892 136.532 37.8485C136.368 37.9078 136.217 37.9997 136.09 38.1185C135.962 38.2374 135.859 38.3809 135.787 38.5406C135.715 38.7002 135.676 38.8726 135.672 39.0477H138.353Z" fill="white"/>
        <path d="M145.023 41.9436H145C144.617 42.5962 143.943 42.8766 143.178 42.8766C141.366 42.8766 140.484 41.3114 140.484 39.6417C140.484 38.0205 141.379 36.5139 143.142 36.5139C143.491 36.5025 143.837 36.5788 144.149 36.7359C144.461 36.893 144.729 37.126 144.929 37.4138V34.3777H146.576V42.7134H145.01L145.023 41.9436ZM143.583 37.763C142.504 37.763 142.134 38.696 142.134 39.6902C142.134 40.6359 142.562 41.6275 143.583 41.6275C144.675 41.6275 145 40.669 145 39.6774C145 38.6858 144.65 37.763 143.583 37.763Z" fill="white"/>
        <path d="M152.599 35.9199H150.116V34.3904H156.904V35.9199H154.421V42.7134H152.599V35.9199Z" fill="white"/>
        <path d="M157.624 34.3777H163.819V35.9072H159.446V37.6916H163.459V39.1166H159.446V41.1559H163.913V42.6981H157.624V34.3777Z" fill="white"/>
        <path d="M164.678 34.3777H168.254C170.4 34.3777 172.014 35.7313 172.014 38.4997C172.014 40.9163 170.783 42.7134 168.254 42.7134H164.681L164.678 34.3777ZM166.5 41.1712H168.124C169.179 41.1712 170.19 40.5186 170.19 38.6731C170.19 36.9932 169.609 35.92 167.8 35.92H166.5V41.1712Z" fill="white"/>
        <path d="M177.221 40.098C177.267 41.1482 177.779 41.6275 178.694 41.6275C179.355 41.6275 179.89 41.2196 179.993 40.8449H181.445C180.979 42.2699 179.993 42.8842 178.635 42.8842C176.745 42.8842 175.572 41.5765 175.572 39.708C175.572 37.8981 176.813 36.5215 178.635 36.5215C180.678 36.5215 181.676 38.2499 181.549 40.1056L177.221 40.098ZM179.91 39.0477C179.76 38.2065 179.403 37.7732 178.6 37.7732C178.426 37.7636 178.252 37.7892 178.089 37.8485C177.925 37.9079 177.775 37.9998 177.647 38.1187C177.519 38.2376 177.417 38.3811 177.345 38.5407C177.274 38.7003 177.235 38.8728 177.231 39.0477H179.91Z" fill="white"/>
        <path d="M185.378 42.7134H183.543L181.491 36.6771H183.219L184.486 40.799H184.509L185.776 36.6771H187.413L185.378 42.7134Z" fill="white"/>
        <path d="M188.986 40.098C189.032 41.1482 189.544 41.6275 190.459 41.6275C191.12 41.6275 191.655 41.2196 191.759 40.8449H193.21C192.744 42.2699 191.759 42.8842 190.4 42.8842C188.51 42.8842 187.339 41.5765 187.339 39.708C187.339 37.8981 188.581 36.5215 190.4 36.5215C192.443 36.5215 193.441 38.2499 193.314 40.1056L188.986 40.098ZM191.667 39.0477C191.515 38.2065 191.161 37.7732 190.355 37.7732C190.181 37.7636 190.007 37.7892 189.843 37.8485C189.68 37.9079 189.53 37.9998 189.402 38.1187C189.274 38.2376 189.172 38.3811 189.1 38.5407C189.029 38.7003 188.99 38.8728 188.986 39.0477H191.667Z" fill="white"/>
        <path d="M194.057 36.6771H195.62V37.5183H195.656C195.85 37.2074 196.121 36.9519 196.442 36.7761C196.762 36.6003 197.123 36.51 197.488 36.5139C199.241 36.5139 199.682 37.5055 199.682 39.0019V42.7134H198.035V39.3052C198.035 38.3111 197.744 37.8216 196.978 37.8216C196.084 37.8216 195.711 38.3315 195.711 39.5499V42.7134H194.064L194.057 36.6771Z" fill="white"/>
        <path d="M202.794 36.6771H204V37.7859H202.794V40.7863C202.794 41.3445 202.933 41.4847 203.491 41.4847C203.661 41.4869 203.831 41.4715 203.997 41.4389V42.7338C203.679 42.7789 203.357 42.7985 203.035 42.7924C202.021 42.7924 201.144 42.5605 201.144 41.3573V37.7885H200.146V36.6796H201.144V34.8697H202.791L202.794 36.6771Z" fill="white"/>
        <path d="M7.51314 7.57605H0V0.662781H23.2819V7.57605H15.7713V27.6353H7.51314V7.57605Z" fill="#FF2B06"/>
        <path d="M24.564 0.662781H47.1668V7.57605H32.8272V10.9384H47.1668V17.3622H32.8272V20.722H47.1693V27.6353H24.564V0.662781Z" fill="#FF2B06"/>
        <path d="M48.5554 0.662781H62.112C71.0492 0.662781 74.2065 7.31094 74.2065 14.1095C74.2065 22.3866 69.8506 27.6353 60.5004 27.6353H48.5554V0.662781ZM56.816 20.722H60.0544C65.2008 20.722 65.9534 16.5286 65.9534 13.9948C65.9534 12.2971 65.4238 7.57605 59.4539 7.57605H56.816V20.722Z" fill="#FF2B06"/>
        <path d="M86.078 17.2424L83.5567 13.0389L81.0988 17.2424H75.0477L80.7922 8.741L75.258 0.611786H81.3142L83.5567 4.62923L85.8626 0.611786H91.9162L86.3846 8.741L92.1316 17.2424H86.078Z" fill="#FF2B06"/>
        <path d="M117.39 2.6868C119.235 4.47969 120.259 6.51901 120.464 8.80474H116.936C116.543 7.07472 115.761 5.70328 114.59 4.69042C113.419 3.67756 111.774 3.17198 109.654 3.17368C107.073 3.17368 104.987 4.10837 103.397 5.97774C101.808 7.84711 101.014 10.6987 101.016 14.5327C101.016 17.68 101.733 20.2291 103.167 22.1801C104.601 24.131 106.741 25.1107 109.585 25.1192C112.204 25.1192 114.197 24.0885 115.565 22.0271C116.294 20.9446 116.836 19.5188 117.192 17.7497H120.717C120.406 20.5775 119.377 22.9482 117.628 24.8618C115.53 27.1509 112.703 28.2955 109.147 28.2955C106.081 28.2955 103.506 27.3497 101.421 25.4583C98.6759 22.9652 97.3033 19.1084 97.3033 13.8877C97.3033 9.92466 98.3338 6.67365 100.395 4.13471C102.625 1.37824 105.697 0 109.613 0C112.953 0 115.545 0.895598 117.39 2.6868Z" fill="white"/>
        <path d="M128.217 8.00943V21.0101C128.189 21.8489 128.349 22.6835 128.684 23.4521C129.251 24.623 130.308 25.2085 131.854 25.2085C134.072 25.2085 135.582 24.1888 136.384 22.1495C136.824 21.05 137.042 19.5443 137.041 17.6324V8.00943H140.312V27.5919H137.221L137.259 24.7038C136.861 25.4231 136.335 26.0618 135.705 26.5876C134.45 27.6189 132.868 28.1618 131.248 28.1171C128.523 28.1171 126.665 27.1824 125.673 25.313C125.136 24.3137 124.868 22.9788 124.87 21.3083V8.00943H128.217Z" fill="white"/>
        <path d="M145.656 8.00938H148.763V10.7879C149.546 9.75879 150.545 8.91623 151.689 8.32037C152.763 7.81124 153.938 7.55494 155.125 7.57093C157.887 7.57093 159.753 8.5396 160.723 10.4769C161.257 11.5374 161.524 13.055 161.524 15.0297V27.5919H158.196V15.2489C158.196 14.0593 158.021 13.0966 157.669 12.3608C157.09 11.1423 156.036 10.533 154.507 10.533C153.863 10.5158 153.22 10.5957 152.599 10.7701C151.67 11.0598 150.848 11.6195 150.235 12.3786C149.728 12.9524 149.364 13.6392 149.173 14.3822C148.98 15.3537 148.895 16.3438 148.92 17.3341V27.5919H145.656V8.00938Z" fill="white"/>
        <path d="M178.389 8.54725C179.579 9.11165 180.595 9.98669 181.334 11.0811C182.004 12.125 182.445 13.3009 182.626 14.5301C182.819 15.4325 182.916 16.8702 182.918 18.8432H168.76C168.821 20.8367 169.284 22.435 170.149 23.6382C171.014 24.8414 172.354 25.4438 174.17 25.4455C175.86 25.4455 177.211 24.8762 178.225 23.7376C178.791 23.0731 179.202 22.289 179.426 21.4434H182.644C182.514 22.291 182.227 23.1065 181.798 23.8472C181.38 24.6497 180.84 25.3809 180.196 26.014C179.184 27.0043 177.915 27.6888 176.535 27.9896C175.667 28.1984 174.777 28.3011 173.884 28.2955C172.734 28.3133 171.594 28.0852 170.538 27.6264C169.482 27.1677 168.535 26.4886 167.76 25.6341C166.085 23.8599 165.248 21.3762 165.248 18.183C165.248 15.0374 166.093 12.4882 167.782 10.5356C169.472 8.58294 171.676 7.60152 174.396 7.59132C175.783 7.58891 177.152 7.91646 178.389 8.54725ZM179.555 16.238C179.422 14.8105 179.115 13.6702 178.635 12.8171C177.747 11.24 176.263 10.4515 174.183 10.4515C173.478 10.4379 172.778 10.5771 172.131 10.8594C171.484 11.1418 170.905 11.5608 170.433 12.088C169.419 13.179 168.885 14.5658 168.829 16.2482L179.555 16.238Z" fill="white"/>
        <path d="M201.164 9.9646C202.886 11.6487 203.747 14.1206 203.747 17.3801C203.747 20.5359 202.986 23.1428 201.466 25.2008C199.946 27.2588 197.595 28.2904 194.414 28.2955C191.755 28.2955 189.644 27.3846 188.079 25.5628C186.515 23.741 185.734 21.2938 185.738 18.2213C185.738 14.9329 186.562 12.3141 188.211 10.3648C189.86 8.41557 192.076 7.44095 194.86 7.44095C196.025 7.4164 197.183 7.62708 198.266 8.06054C199.349 8.494 200.335 9.14144 201.164 9.9646ZM199.137 22.978C199.948 21.2585 200.357 19.3749 200.331 17.4718C200.331 15.6466 200.044 14.1613 199.469 13.0159C198.56 11.2128 196.991 10.3121 194.761 10.3138C192.781 10.3138 191.345 11.0786 190.454 12.6081C189.562 14.1375 189.112 15.9882 189.105 18.1601C189.105 20.2436 189.555 21.9787 190.454 23.3654C191.352 24.7522 192.778 25.4464 194.731 25.4481C196.871 25.4515 198.339 24.6281 199.135 22.978H199.137Z" fill="white"/>
    </g>
    <defs>
        <clipPath id="clip0">
            <rect width="204" height="45" fill="white"/>
        </clipPath>
    </defs>
</svg>
