<svg viewBox="0 0 178 398" fill="none" xmlns="http://www.w3.org/2000/svg">
    <rect x="0.0756836" y="626.503" width="1035" height="70" transform="rotate(-83.9975 0.0756836 626.503)" fill="#FF2B06"/>
    <path d="M51.0136 418.196L53.2739 418.434L52.328 427.43L50.0677 427.192L51.0136 418.196ZM46.1845 424.133L46.465 421.466L63.0101 423.206C63.7636 423.285 64.3401 423.235 64.7398 423.056C65.1327 422.869 65.4115 422.609 65.576 422.276C65.7338 421.934 65.8333 421.568 65.8745 421.176C65.9054 420.882 65.9156 420.639 65.9053 420.448C65.8874 420.255 65.8732 420.102 65.8624 419.986L68.3154 419.696C68.3641 419.884 68.4054 420.143 68.4392 420.474C68.4804 420.806 68.4749 421.221 68.4226 421.718C68.3434 422.471 68.1038 423.193 67.7038 423.882C67.3045 424.564 66.7485 425.107 66.0355 425.512C65.3234 425.909 64.4626 426.055 63.453 425.949L46.1845 424.133ZM68.7274 416.646L51.3686 414.821L51.649 412.154L69.0079 413.979L68.7274 416.646ZM48.618 413.16C48.5634 413.68 48.3392 414.11 47.9455 414.449C47.5525 414.781 47.1074 414.921 46.6102 414.869C46.1129 414.817 45.7066 414.587 45.3914 414.181C45.0769 413.767 44.9469 413.3 45.0016 412.78C45.0563 412.26 45.2801 411.834 45.673 411.503C46.0667 411.163 46.5122 411.019 47.0095 411.072C47.5067 411.124 47.9126 411.357 48.2271 411.771C48.5424 412.177 48.6727 412.641 48.618 413.16ZM70.5577 402.716C70.3866 404.344 69.855 405.705 68.963 406.799C68.0709 407.894 66.9173 408.687 65.5021 409.178C64.0869 409.669 62.5129 409.823 60.78 409.641C59.017 409.456 57.4953 408.968 56.2148 408.178C54.9275 407.38 53.9648 406.357 53.3267 405.11C52.6818 403.853 52.4417 402.442 52.6065 400.875C52.7348 399.654 53.0765 398.578 53.6315 397.646C54.1866 396.714 54.9038 395.978 55.7833 395.438C56.6627 394.899 57.6528 394.61 58.7536 394.574L58.4732 397.241C57.6607 397.361 56.9125 397.74 56.2285 398.376C55.5378 399.004 55.1307 399.906 55.0071 401.081C54.8978 402.121 55.0732 403.061 55.5332 403.902C55.9866 404.734 56.68 405.42 57.6135 405.96C58.5402 406.492 59.6591 406.827 60.97 406.964C62.3111 407.105 63.5011 407.017 64.54 406.7C65.5797 406.375 66.4153 405.854 67.0469 405.135C67.6793 404.41 68.0509 403.519 68.1619 402.465C68.2347 401.771 68.1803 401.13 67.9987 400.539C67.817 399.949 67.5207 399.434 67.1099 398.995C66.699 398.555 66.1858 398.22 65.5704 397.987L65.8508 395.32C66.8597 395.579 67.7434 396.049 68.502 396.73C69.2539 397.403 69.8199 398.251 70.1999 399.274C70.5731 400.288 70.6924 401.436 70.5577 402.716ZM65.1896 389.438L61.8848 389.136L61.9419 388.594L55.0103 380.187L55.3573 376.887L62.6886 385.839L62.6649 386.065L65.1896 389.438ZM71.2569 392.59L48.1118 390.156L48.3922 387.489L71.5373 389.923L71.2569 392.59ZM72.4167 381.56L63.1147 387.438L61.4609 385.344L72.7732 378.169L72.4167 381.56ZM74.0619 369.39C73.8861 371.063 73.3652 372.467 72.4993 373.602C71.6266 374.729 70.4891 375.551 69.0866 376.066C67.6774 376.573 66.0837 376.733 64.3056 376.546C62.5276 376.359 60.9945 375.87 59.7065 375.08C58.4117 374.281 57.4452 373.257 56.8071 372.01C56.1622 370.753 55.9221 369.342 56.0869 367.775C56.182 366.871 56.4265 365.994 56.8206 365.144C57.2146 364.294 57.7887 363.543 58.5429 362.891C59.2895 362.238 60.2391 361.755 61.3918 361.442C62.5445 361.129 63.9308 361.058 65.5506 361.228L66.6807 361.347L65.2738 374.728L62.9683 374.486L64.0901 363.817C63.1106 363.714 62.2161 363.818 61.4064 364.129C60.5975 364.433 59.9331 364.919 59.4134 365.588C58.8944 366.249 58.5842 367.062 58.4828 368.027C58.3711 369.089 58.5381 370.036 58.9839 370.867C59.423 371.69 60.0389 372.353 60.8316 372.855C61.6243 373.358 62.4991 373.659 63.456 373.76L64.9929 373.921C66.3039 374.059 67.439 373.95 68.3981 373.594C69.3506 373.229 70.1069 372.665 70.6671 371.901C71.2198 371.137 71.5528 370.216 71.666 369.139C71.7397 368.438 71.7083 367.795 71.5719 367.209C71.4286 366.615 71.1792 366.09 70.8234 365.633C70.4601 365.176 69.989 364.803 69.41 364.514L70.4043 362.013C71.2497 362.376 71.9703 362.913 72.566 363.623C73.1541 364.332 73.5832 365.177 73.8534 366.158C74.116 367.138 74.1855 368.215 74.0619 369.39ZM58.2507 349.37L60.511 349.607L59.5651 358.603L57.3048 358.365L58.2507 349.37ZM53.4216 355.306L53.702 352.639L70.2472 354.379C71.0006 354.458 71.5772 354.408 71.9768 354.229C72.3698 354.042 72.6485 353.782 72.813 353.449C72.9708 353.107 73.0703 352.741 73.1115 352.349C73.1424 352.055 73.1527 351.812 73.1424 351.621C73.1245 351.429 73.1102 351.275 73.0995 351.159L75.5524 350.869C75.6012 351.057 75.6425 351.316 75.6762 351.647C75.7175 351.979 75.712 352.394 75.6597 352.891C75.5805 353.645 75.3409 354.366 74.9408 355.055C74.5416 355.737 73.9855 356.28 73.2726 356.685C72.5605 357.082 71.6996 357.228 70.69 357.122L53.4216 355.306Z" fill="white"/>
    <path d="M60.2158 330.679L62.4761 330.916L61.5302 339.912L59.2699 339.675L60.2158 330.679ZM55.3867 336.615L55.6671 333.948L72.2123 335.688C72.9657 335.767 73.5423 335.717 73.9419 335.539C74.3349 335.351 74.6136 335.091 74.7781 334.758C74.9359 334.417 75.0354 334.05 75.0766 333.658C75.1075 333.364 75.1178 333.122 75.1075 332.93C75.0896 332.738 75.0753 332.584 75.0646 332.469L77.5175 332.178C77.5663 332.366 77.6076 332.626 77.6413 332.957C77.6826 333.289 77.6771 333.703 77.6248 334.2C77.5456 334.954 77.306 335.675 76.9059 336.364C76.5067 337.046 75.9506 337.589 75.2377 337.994C74.5256 338.392 73.6647 338.537 72.6551 338.431L55.3867 336.615ZM77.9296 329.129L60.5707 327.303L60.8512 324.636L78.21 326.461L77.9296 329.129ZM57.8202 325.643C57.7655 326.163 57.5413 326.592 57.1476 326.932C56.7547 327.264 56.3096 327.404 55.8123 327.351C55.3151 327.299 54.9088 327.07 54.5935 326.663C54.279 326.249 54.1491 325.783 54.2037 325.263C54.2584 324.743 54.4822 324.317 54.8751 323.985C55.2689 323.645 55.7143 323.502 56.2116 323.554C56.7089 323.606 57.1147 323.84 57.4292 324.254C57.7445 324.66 57.8748 325.123 57.8202 325.643ZM79.7599 315.199C79.5888 316.826 79.0572 318.187 78.1651 319.282C77.273 320.376 76.1194 321.169 74.7042 321.66C73.2891 322.151 71.715 322.306 69.9822 322.123C68.2192 321.938 66.6974 321.451 65.4169 320.661C64.1297 319.863 63.167 318.84 62.5288 317.592C61.8839 316.336 61.6438 314.924 61.8086 313.357C61.937 312.137 62.2786 311.06 62.8337 310.128C63.3887 309.196 64.106 308.461 64.9854 307.921C65.8649 307.381 66.855 307.093 67.9558 307.056L67.6753 309.723C66.8628 309.844 66.1146 310.222 65.4307 310.858C64.74 311.487 64.3328 312.388 64.2093 313.564C64.0999 314.604 64.2753 315.544 64.7354 316.384C65.1887 317.217 65.8821 317.903 66.8156 318.443C67.7424 318.974 68.8612 319.309 70.1722 319.447C71.5133 319.588 72.7033 319.5 73.7422 319.182C74.7818 318.857 75.6175 318.336 76.2491 317.618C76.8814 316.892 77.2531 316.002 77.364 314.947C77.4369 314.254 77.3825 313.612 77.2008 313.022C77.0191 312.431 76.7229 311.916 76.312 311.477C75.9011 311.038 75.388 310.702 74.7726 310.47L75.053 307.803C76.0618 308.061 76.9455 308.531 77.7042 309.212C78.4561 309.886 79.022 310.734 79.402 311.756C79.7753 312.771 79.8946 313.918 79.7599 315.199ZM74.3917 301.921L71.087 301.619L71.144 301.076L64.2125 292.669L64.5594 289.369L71.8908 298.321L71.867 298.547L74.3917 301.921ZM80.459 305.072L57.3139 302.639L57.5943 299.972L80.7395 302.405L80.459 305.072ZM81.6188 294.042L72.3168 299.92L70.6631 297.826L81.9753 290.652L81.6188 294.042ZM83.2641 281.873C83.0882 283.545 82.5673 284.949 81.7014 286.085C80.8288 287.212 79.6912 288.033 78.2887 288.548C76.8795 289.055 75.2859 289.215 73.5078 289.028C71.7297 288.841 70.1967 288.353 68.9086 287.562C67.6139 286.763 66.6474 285.74 66.0092 284.492C65.3643 283.236 65.1243 281.824 65.289 280.257C65.3841 279.353 65.6287 278.476 66.0227 277.626C66.4168 276.776 66.9909 276.025 67.745 275.373C68.4916 274.721 69.4413 274.238 70.5939 273.925C71.7466 273.612 73.1329 273.54 74.7528 273.711L75.8829 273.83L74.4759 287.21L72.1704 286.968L73.2922 276.3C72.3128 276.197 71.4182 276.301 70.6085 276.612C69.7996 276.915 69.1353 277.401 68.6155 278.07C68.0965 278.732 67.7863 279.545 67.6849 280.509C67.5732 281.571 67.7403 282.518 68.1861 283.35C68.6251 284.173 69.241 284.836 70.0337 285.338C70.8265 285.84 71.7013 286.142 72.6581 286.242L74.1951 286.404C75.506 286.542 76.6411 286.433 77.6003 286.076C78.5527 285.712 79.309 285.148 79.8692 284.384C80.4219 283.619 80.7549 282.698 80.8682 281.621C80.9419 280.92 80.9105 280.277 80.774 279.691C80.6308 279.097 80.3813 278.572 80.0256 278.116C79.6623 277.659 79.1912 277.285 78.6122 276.996L79.6064 274.495C80.4519 274.859 81.1724 275.395 81.7681 276.105C82.3562 276.815 82.7854 277.66 83.0555 278.64C83.3181 279.62 83.3877 280.698 83.2641 281.873ZM67.4528 261.852L69.7131 262.09L68.7672 271.085L66.5069 270.848L67.4528 261.852ZM62.6237 267.789L62.9042 265.121L79.4493 266.861C80.2028 266.94 80.7793 266.891 81.179 266.712C81.5719 266.524 81.8507 266.264 82.0152 265.931C82.173 265.59 82.2725 265.223 82.3137 264.831C82.3446 264.538 82.3548 264.295 82.3445 264.103C82.3266 263.911 82.3123 263.757 82.3016 263.642L84.7546 263.351C84.8033 263.539 84.8446 263.799 84.8784 264.13C84.9196 264.462 84.9141 264.876 84.8618 265.374C84.7826 266.127 84.543 266.848 84.143 267.538C83.7437 268.219 83.1877 268.763 82.4747 269.167C81.7626 269.565 80.9018 269.711 79.8922 269.604L62.6237 267.789Z" fill="white"/>
    <path d="M69.4184 243.161L71.6787 243.399L70.7328 252.395L68.4725 252.157L69.4184 243.161ZM64.5893 249.098L64.8698 246.431L81.4149 248.171C82.1683 248.25 82.7449 248.2 83.1446 248.021C83.5375 247.834 83.8163 247.574 83.9808 247.241C84.1386 246.899 84.2381 246.533 84.2792 246.141C84.3101 245.847 84.3204 245.604 84.3101 245.413C84.2922 245.22 84.2779 245.067 84.2672 244.951L86.7201 244.661C86.7689 244.849 86.8102 245.108 86.8439 245.439C86.8852 245.771 86.8797 246.186 86.8274 246.683C86.7482 247.436 86.5086 248.158 86.1086 248.847C85.7093 249.529 85.1533 250.072 84.4403 250.477C83.7282 250.874 82.8673 251.02 81.8578 250.914L64.5893 249.098ZM87.1322 241.611L69.7734 239.786L70.0538 237.119L87.4126 238.944L87.1322 241.611ZM67.0228 238.125C66.9682 238.645 66.744 239.075 66.3502 239.414C65.9573 239.746 65.5122 239.886 65.015 239.834C64.5177 239.782 64.1114 239.552 63.7961 239.146C63.4816 238.732 63.3517 238.265 63.4064 237.745C63.461 237.225 63.6848 236.799 64.0778 236.467C64.4715 236.128 64.917 235.984 65.4142 236.037C65.9115 236.089 66.3174 236.322 66.6319 236.736C66.9472 237.142 67.0775 237.606 67.0228 238.125ZM88.9625 227.681C88.7914 229.309 88.2598 230.67 87.3677 231.764C86.4757 232.859 85.322 233.652 83.9069 234.143C82.4917 234.634 80.9177 234.788 79.1848 234.606C77.4218 234.421 75.9 233.933 74.6195 233.143C73.3323 232.345 72.3696 231.322 71.7314 230.075C71.0865 228.818 70.8465 227.407 71.0113 225.84C71.1396 224.619 71.4813 223.543 72.0363 222.611C72.5914 221.679 73.3086 220.943 74.1881 220.403C75.0675 219.864 76.0576 219.575 77.1584 219.539L76.878 222.206C76.0655 222.326 75.3173 222.705 74.6333 223.341C73.9426 223.969 73.5355 224.871 73.4119 226.046C73.3026 227.086 73.4779 228.026 73.938 228.867C74.3913 229.699 75.0848 230.385 76.0183 230.925C76.945 231.457 78.0639 231.792 79.3748 231.929C80.7159 232.07 81.9059 231.982 82.9448 231.665C83.9845 231.34 84.8201 230.819 85.4517 230.1C86.0841 229.375 86.4557 228.484 86.5666 227.43C86.6395 226.736 86.5851 226.095 86.4035 225.504C86.2218 224.914 85.9255 224.399 85.5146 223.96C85.1038 223.52 84.5906 223.184 83.9752 222.952L84.2556 220.285C85.2644 220.543 86.1482 221.013 86.9068 221.695C87.6587 222.368 88.2247 223.216 88.6047 224.239C88.9779 225.253 89.0972 226.401 88.9625 227.681ZM83.5944 214.403L80.2896 214.101L80.3467 213.559L73.4151 205.152L73.7621 201.852L81.0934 210.804L81.0696 211.03L83.5944 214.403ZM89.6617 217.555L66.5165 215.121L66.797 212.454L89.9421 214.888L89.6617 217.555ZM90.8215 206.525L81.5195 212.403L79.8657 210.309L91.178 203.134L90.8215 206.525ZM92.4667 194.355C92.2908 196.028 91.77 197.432 90.9041 198.567C90.0314 199.694 88.8939 200.516 87.4914 201.031C86.0822 201.538 84.4885 201.698 82.7104 201.511C80.9324 201.324 79.3993 200.835 78.1113 200.045C76.8165 199.246 75.85 198.222 75.2119 196.974C74.567 195.718 74.3269 194.307 74.4917 192.74C74.5867 191.835 74.8313 190.959 75.2254 190.109C75.6194 189.259 76.1935 188.508 76.9477 187.856C77.6942 187.203 78.6439 186.72 79.7966 186.407C80.9493 186.094 82.3355 186.023 83.9554 186.193L85.0855 186.312L83.6786 199.693L81.3731 199.451L82.4949 188.782C81.5154 188.679 80.6208 188.783 79.8112 189.094C79.0023 189.397 78.3379 189.884 77.8181 190.553C77.2992 191.214 76.989 192.027 76.8876 192.992C76.7759 194.054 76.9429 195.001 77.3887 195.832C77.8278 196.655 78.4437 197.318 79.2364 197.82C80.0291 198.323 80.9039 198.624 81.8607 198.725L83.3977 198.886C84.7087 199.024 85.8437 198.915 86.8029 198.559C87.7553 198.194 88.5117 197.63 89.0719 196.866C89.6246 196.102 89.9575 195.181 90.0708 194.103C90.1445 193.403 90.1131 192.76 89.9766 192.174C89.8334 191.58 89.5839 191.055 89.2282 190.598C88.8649 190.141 88.3938 189.768 87.8148 189.479L88.8091 186.978C89.6545 187.341 90.3751 187.878 90.9707 188.588C91.5589 189.297 91.988 190.142 92.2582 191.123C92.5208 192.102 92.5903 193.18 92.4667 194.355ZM76.6555 174.334L78.9157 174.572L77.9698 183.568L75.7096 183.33L76.6555 174.334ZM71.8264 180.271L72.1068 177.604L88.652 179.344C89.4054 179.423 89.9819 179.373 90.3816 179.194C90.7746 179.007 91.0533 178.747 91.2178 178.414C91.3756 178.072 91.4751 177.706 91.5163 177.314C91.5472 177.02 91.5575 176.777 91.5471 176.586C91.5293 176.394 91.515 176.24 91.5043 176.124L93.9572 175.834C94.006 176.022 94.0473 176.281 94.081 176.612C94.1223 176.944 94.1168 177.359 94.0645 177.856C93.9853 178.61 93.7456 179.331 93.3456 180.02C92.9464 180.702 92.3903 181.245 91.6774 181.65C90.9653 182.047 90.1044 182.193 89.0948 182.087L71.8264 180.271Z" fill="white"/>
    <path d="M78.6206 155.644L80.8808 155.881L79.9349 164.877L77.6747 164.64L78.6206 155.644ZM73.7915 161.58L74.0719 158.913L90.6171 160.653C91.3705 160.732 91.947 160.682 92.3467 160.503C92.7397 160.316 93.0184 160.056 93.1829 159.723C93.3407 159.382 93.4402 159.015 93.4814 158.623C93.5123 158.329 93.5226 158.087 93.5122 157.895C93.4944 157.703 93.4801 157.549 93.4694 157.434L95.9223 157.143C95.9711 157.331 96.0124 157.591 96.0461 157.922C96.0874 158.254 96.0819 158.668 96.0296 159.165C95.9504 159.919 95.7107 160.64 95.3107 161.329C94.9115 162.011 94.3554 162.554 93.6425 162.959C92.9304 163.357 92.0695 163.502 91.0599 163.396L73.7915 161.58ZM96.3344 154.094L78.9755 152.268L79.2559 149.601L96.6148 151.426L96.3344 154.094ZM76.225 150.608C76.1703 151.128 75.9461 151.557 75.5524 151.897C75.1595 152.229 74.7144 152.369 74.2171 152.316C73.7199 152.264 73.3136 152.035 72.9983 151.628C72.6838 151.214 72.5539 150.747 72.6085 150.228C72.6632 149.708 72.887 149.282 73.2799 148.95C73.6736 148.61 74.1191 148.467 74.6164 148.519C75.1136 148.571 75.5195 148.805 75.834 149.218C76.1493 149.625 76.2796 150.088 76.225 150.608ZM98.1647 140.164C97.9936 141.791 97.462 143.152 96.5699 144.247C95.6778 145.341 94.5242 146.134 93.109 146.625C91.6938 147.116 90.1198 147.271 88.3869 147.088C86.6239 146.903 85.1022 146.416 83.8217 145.626C82.5345 144.828 81.5718 143.805 80.9336 142.557C80.2887 141.301 80.0486 139.889 80.2134 138.322C80.3417 137.101 80.6834 136.025 81.2385 135.093C81.7935 134.161 82.5108 133.426 83.3902 132.886C84.2697 132.346 85.2598 132.058 86.3605 132.021L86.0801 134.688C85.2676 134.809 84.5194 135.187 83.8355 135.823C83.1448 136.452 82.7376 137.353 82.614 138.529C82.5047 139.568 82.6801 140.509 83.1402 141.349C83.5935 142.182 84.2869 142.868 85.2204 143.408C86.1472 143.939 87.266 144.274 88.577 144.412C89.9181 144.553 91.1081 144.465 92.1469 144.147C93.1866 143.822 94.0222 143.301 94.6538 142.583C95.2862 141.857 95.6579 140.967 95.7688 139.912C95.8417 139.219 95.7873 138.577 95.6056 137.987C95.4239 137.396 95.1277 136.881 94.7168 136.442C94.3059 136.003 93.7928 135.667 93.1773 135.435L93.4578 132.767C94.4666 133.026 95.3503 133.496 96.109 134.177C96.8609 134.851 97.4268 135.699 97.8068 136.721C98.1801 137.736 98.2994 138.883 98.1647 140.164ZM92.7965 126.886L89.4918 126.584L89.5488 126.041L82.6172 117.634L82.9642 114.334L90.2956 123.286L90.2718 123.512L92.7965 126.886ZM98.8638 130.037L75.7187 127.604L75.9991 124.937L99.1443 127.37L98.8638 130.037ZM100.024 119.007L90.7216 124.885L89.0678 122.791L100.38 115.617L100.024 119.007ZM101.669 106.838C101.493 108.51 100.972 109.914 100.106 111.05C99.2336 112.177 98.096 112.998 96.6935 113.513C95.2843 114.02 93.6907 114.18 91.9126 113.993C90.1345 113.806 88.6014 113.317 87.3134 112.527C86.0186 111.728 85.0522 110.705 84.414 109.457C83.7691 108.201 83.529 106.789 83.6938 105.222C83.7889 104.318 84.0335 103.441 84.4275 102.591C84.8216 101.741 85.3957 100.99 86.1498 100.338C86.8964 99.6856 87.846 99.2028 88.9987 98.8898C90.1514 98.5768 91.5377 98.5054 93.1575 98.6758L94.2877 98.7946L92.8807 112.175L90.5752 111.933L91.697 101.264C90.7176 101.162 89.823 101.265 89.0133 101.576C88.2044 101.88 87.5401 102.366 87.0203 103.035C86.5013 103.697 86.1911 104.51 86.0897 105.474C85.978 106.536 86.1451 107.483 86.5909 108.315C87.0299 109.138 87.6458 109.801 88.4385 110.303C89.2313 110.805 90.106 111.107 91.0629 111.207L92.5999 111.369C93.9108 111.507 95.0459 111.398 96.0051 111.041C96.9575 110.677 97.7138 110.113 98.274 109.349C98.8267 108.584 99.1597 107.663 99.273 106.586C99.3467 105.885 99.3153 105.242 99.1788 104.656C99.0356 104.062 98.7861 103.537 98.4303 103.081C98.0671 102.624 97.5959 102.25 97.017 101.961L98.0112 99.4603C98.8566 99.8235 99.5772 100.36 100.173 101.07C100.761 101.78 101.19 102.625 101.46 103.605C101.723 104.585 101.792 105.662 101.669 106.838ZM85.8576 86.8169L88.1179 87.0546L87.172 96.0504L84.9117 95.8128L85.8576 86.8169ZM81.0285 92.7536L81.309 90.0864L97.8541 91.8261C98.6075 91.9054 99.1841 91.8555 99.5838 91.6767C99.9767 91.4894 100.255 91.2293 100.42 90.8962C100.578 90.5548 100.677 90.1881 100.718 89.7964C100.749 89.5025 100.76 89.2599 100.749 89.0683C100.731 88.876 100.717 88.7222 100.706 88.6068L103.159 88.3162C103.208 88.5042 103.249 88.7637 103.283 89.0948C103.324 89.4267 103.319 89.8413 103.267 90.3385C103.187 91.092 102.948 91.8133 102.548 92.5025C102.149 93.1842 101.592 93.7275 100.88 94.1324C100.167 94.5298 99.3065 94.6755 98.297 94.5693L81.0285 92.7536Z" fill="white"/>
    <path d="M87.8227 68.1263L90.083 68.3639L89.1371 77.3598L86.8768 77.1221L87.8227 68.1263ZM82.9936 74.0629L83.2741 71.3958L99.8192 73.1355C100.573 73.2147 101.149 73.1649 101.549 72.986C101.942 72.7988 102.221 72.5387 102.385 72.2055C102.543 71.8641 102.642 71.4975 102.684 71.1057C102.714 70.8119 102.725 70.5692 102.714 70.3777C102.697 70.1854 102.682 70.0315 102.672 69.9161L105.124 69.6256C105.173 69.8135 105.214 70.0731 105.248 70.4042C105.29 70.7361 105.284 71.1506 105.232 71.6479C105.153 72.4013 104.913 73.1226 104.513 73.8119C104.114 74.4935 103.558 75.0369 102.845 75.4418C102.133 75.8392 101.272 75.9848 100.262 75.8787L82.9936 74.0629ZM105.537 66.5761L88.1777 64.7508L88.4581 62.0837L105.817 63.9089L105.537 66.5761ZM85.4271 63.0904C85.3724 63.6103 85.1483 64.04 84.7545 64.3794C84.3616 64.7114 83.9165 64.8512 83.4193 64.7989C82.922 64.7466 82.5157 64.5173 82.2004 64.1109C81.8859 63.6969 81.756 63.23 81.8107 62.7102C81.8653 62.1903 82.0891 61.7644 82.4821 61.4325C82.8758 61.093 83.3213 60.9494 83.8185 61.0017C84.3158 61.054 84.7217 61.2871 85.0362 61.701C85.3515 62.1074 85.4818 62.5706 85.4271 63.0904ZM107.367 52.6464C107.196 54.2738 106.664 55.6348 105.772 56.7293C104.88 57.8238 103.726 58.6166 102.311 59.1077C100.896 59.5988 99.322 59.7532 97.5891 59.571C95.8261 59.3856 94.3043 58.8981 93.0238 58.1083C91.7366 57.3102 90.7739 56.2873 90.1357 55.0395C89.4908 53.7833 89.2508 52.3717 89.4156 50.8046C89.5439 49.584 89.8856 48.5078 90.4406 47.5759C90.9957 46.644 91.7129 45.9081 92.5924 45.3683C93.4718 44.8286 94.4619 44.5404 95.5627 44.5038L95.2822 47.1709C94.4698 47.2911 93.7215 47.6695 93.0376 48.306C92.3469 48.9342 91.9398 49.836 91.8162 51.0113C91.7069 52.051 91.8822 52.9912 92.3423 53.8318C92.7956 54.664 93.4891 55.3502 94.4226 55.8901C95.3493 56.4218 96.4682 56.7565 97.7791 56.8944C99.1202 57.0354 100.31 56.9472 101.349 56.6299C102.389 56.305 103.224 55.7835 103.856 55.0653C104.488 54.3395 104.86 53.4493 104.971 52.3945C105.044 51.7013 104.989 51.0596 104.808 50.4691C104.626 49.8787 104.33 49.3639 103.919 48.9246C103.508 48.4852 102.995 48.1494 102.379 47.9171L102.66 45.25C103.669 45.5084 104.552 45.9784 105.311 46.66C106.063 47.3332 106.629 48.1811 107.009 49.2038C107.382 50.218 107.501 51.3656 107.367 52.6464ZM101.999 39.3682L98.6939 39.0664L98.751 38.5239L91.8194 30.1166L92.1664 26.8166L99.4977 35.7687L99.4739 35.9947L101.999 39.3682ZM108.066 42.5199L84.9208 40.0862L85.2013 37.4191L108.346 39.8528L108.066 42.5199ZM109.226 31.4898L99.9238 37.3675L98.27 35.274L109.582 28.0994L109.226 31.4898ZM110.871 19.3204C110.695 20.993 110.174 22.397 109.308 23.5323C108.436 24.6594 107.298 25.4805 105.896 25.9958C104.486 26.5027 102.893 26.6627 101.115 26.4757C99.3366 26.2888 97.8036 25.8 96.5156 25.0095C95.2208 24.2106 94.2543 23.1873 93.6162 21.9394C92.9713 20.6833 92.7312 19.2717 92.896 17.7046C92.991 16.8004 93.2356 15.9235 93.6297 15.0737C94.0237 14.2239 94.5978 13.473 95.3519 12.821C96.0985 12.1682 97.0482 11.6853 98.2009 11.3723C99.3536 11.0593 100.74 10.988 102.36 11.1583L103.49 11.2771L102.083 24.6579L99.7774 24.4155L100.899 13.747C99.9197 13.644 99.0251 13.748 98.2155 14.059C97.4066 14.3625 96.7422 14.8487 96.2224 15.5177C95.7035 16.1792 95.3933 16.9921 95.2919 17.9565C95.1802 19.0188 95.3472 19.9657 95.793 20.7972C96.2321 21.6203 96.8479 22.2831 97.6407 22.7854C98.4334 23.2877 99.3082 23.5892 100.265 23.6898L101.802 23.8514C103.113 23.9892 104.248 23.8801 105.207 23.5239C106.16 23.1593 106.916 22.5952 107.476 21.8314C108.029 21.0668 108.362 20.1458 108.475 19.0684C108.549 18.3678 108.517 17.7246 108.381 17.1389C108.238 16.5449 107.988 16.0198 107.632 15.5634C107.269 15.1062 106.798 14.7329 106.219 14.4435L107.213 11.9429C108.059 12.306 108.779 12.8426 109.375 13.5528C109.963 14.2621 110.392 15.1071 110.662 16.0877C110.925 17.0675 110.995 18.145 110.871 19.3204ZM95.0598 -0.700545L97.32 -0.462881L96.3741 8.53298L94.1139 8.29532L95.0598 -0.700545ZM90.2307 5.23611L90.5111 2.56899L107.056 4.30869C107.81 4.38791 108.386 4.33808 108.786 4.1592C109.179 3.97199 109.458 3.71184 109.622 3.37873C109.78 3.0373 109.879 2.67069 109.921 2.27891C109.951 1.98508 109.962 1.7424 109.951 1.55087C109.934 1.35855 109.919 1.2047 109.909 1.08931L112.361 0.798771C112.41 0.986723 112.452 1.24625 112.485 1.57735C112.527 1.90924 112.521 2.32382 112.469 2.82108C112.39 3.5745 112.15 4.29582 111.75 4.98504C111.351 5.66673 110.795 6.21004 110.082 6.61498C109.37 7.01239 108.509 7.15802 107.499 7.05186L90.2307 5.23611Z" fill="white"/>
</svg>
