<svg width="2097" height="289" viewBox="0 0 2097 289" fill="none" xmlns="http://www.w3.org/2000/svg">
<path d="M1220.15 89.0922H1195.07C1193.21 79.7562 1189.83 71.1315 1184.94 63.2181C1180.14 55.2158 1174.09 48.236 1166.8 42.2788C1159.51 36.3215 1151.24 31.698 1141.99 28.4081C1132.75 25.1183 1122.74 23.4734 1111.98 23.4734C1094.73 23.4734 1079 27.9636 1064.77 36.9439C1050.63 45.9243 1039.3 59.128 1030.76 76.5553C1022.31 93.8936 1018.09 115.144 1018.09 140.307C1018.09 165.647 1022.31 186.987 1030.76 204.325C1039.3 221.663 1050.63 234.823 1064.77 243.803C1079 252.695 1094.73 257.14 1111.98 257.14C1122.74 257.14 1132.75 255.495 1141.99 252.206C1151.24 248.916 1159.51 244.337 1166.8 238.468C1174.09 232.511 1180.14 225.531 1184.94 217.529C1189.83 209.527 1193.21 200.858 1195.07 191.522H1220.15C1217.93 204.058 1213.75 215.751 1207.61 226.598C1201.57 237.357 1193.83 246.782 1184.41 254.873C1175.07 262.964 1164.31 269.277 1152.13 273.812C1139.95 278.346 1126.57 280.614 1111.98 280.614C1089.04 280.614 1068.68 274.879 1050.9 263.409C1033.12 251.85 1019.16 235.579 1009.02 214.595C998.974 193.611 993.951 168.848 993.951 140.307C993.951 111.765 998.974 87.0027 1009.02 66.0189C1019.16 45.0351 1033.12 28.8083 1050.9 17.3383C1068.68 5.77944 1089.04 0 1111.98 0C1126.57 0 1139.95 2.26732 1152.13 6.80196C1164.31 11.2477 1175.07 17.5606 1184.41 25.7407C1193.83 33.8319 1201.57 43.2569 1207.61 54.0155C1213.75 64.7741 1217.93 76.4664 1220.15 89.0922Z" fill="white"/>
<path d="M1403.97 198.59V72.0206H1427.71V276.879H1403.97V242.87H1402.1C1397.3 253.361 1389.7 262.12 1379.29 269.144C1368.89 276.079 1356.18 279.547 1341.15 279.547C1328.08 279.547 1316.48 276.701 1306.34 271.011C1296.2 265.232 1288.25 256.785 1282.47 245.67C1276.69 234.556 1273.8 220.908 1273.8 204.725V72.0206H1297.54V203.258C1297.54 219.263 1302.25 232.155 1311.67 241.936C1321.1 251.628 1333.19 256.473 1347.95 256.473C1357.2 256.473 1366.09 254.251 1374.63 249.805C1383.16 245.359 1390.19 238.868 1395.7 230.333C1401.21 221.708 1403.97 211.127 1403.97 198.59Z" fill="white"/>
<path d="M1514.3 148.843V276.879H1490.56V72.0206H1513.63V104.163H1515.77C1520.57 93.6713 1528.04 85.2689 1538.17 78.956C1548.4 72.5541 1561.02 69.3532 1576.05 69.3532C1589.83 69.3532 1601.92 72.2429 1612.33 78.0224C1622.82 83.7129 1630.96 92.1153 1636.73 103.23C1642.6 114.344 1645.54 127.992 1645.54 144.175V276.879H1621.8V145.642C1621.8 128.837 1617.08 115.544 1607.66 105.764C1598.32 95.983 1585.79 91.0928 1570.05 91.0928C1559.29 91.0928 1549.73 93.4045 1541.37 98.0281C1533.02 102.652 1526.39 109.32 1521.5 118.034C1516.7 126.658 1514.3 136.928 1514.3 148.843Z" fill="white"/>
<path d="M1790.88 281.147C1771.76 281.147 1755.22 276.701 1741.26 267.81C1727.3 258.83 1716.5 246.426 1708.86 230.599C1701.3 214.684 1697.52 196.367 1697.52 175.65C1697.52 155.022 1701.3 136.706 1708.86 120.701C1716.5 104.608 1727.04 92.0264 1740.46 82.9571C1753.98 73.7989 1769.58 69.2198 1787.28 69.2198C1798.39 69.2198 1809.11 71.2649 1819.42 75.3549C1829.73 79.3561 1838.98 85.5356 1847.16 93.8936C1855.43 102.163 1861.97 112.61 1866.77 125.236C1871.57 137.773 1873.97 152.621 1873.97 169.782V181.519H1713.92V160.579H1849.7C1849.7 147.42 1847.03 135.594 1841.69 125.102C1836.45 114.522 1829.11 106.164 1819.69 100.029C1810.35 93.8936 1799.55 90.826 1787.28 90.826C1774.3 90.826 1762.87 94.2937 1753 101.229C1743.13 108.164 1735.4 117.322 1729.79 128.704C1724.28 140.085 1721.48 152.533 1721.39 166.048V178.585C1721.39 194.856 1724.19 209.082 1729.79 221.263C1735.49 233.356 1743.53 242.736 1753.93 249.405C1764.34 256.073 1776.65 259.408 1790.88 259.408C1800.57 259.408 1809.06 257.896 1816.35 254.873C1823.73 251.85 1829.91 247.804 1834.89 242.736C1839.96 237.579 1843.78 231.933 1846.36 225.798L1868.9 233.133C1865.79 241.758 1860.68 249.716 1853.56 257.007C1846.54 264.298 1837.74 270.166 1827.16 274.612C1816.66 278.969 1804.57 281.147 1790.88 281.147Z" fill="white"/>
<path d="M2005.91 281.147C1988.21 281.147 1972.56 276.657 1958.96 267.677C1945.45 258.696 1934.86 246.293 1927.22 230.466C1919.57 214.55 1915.75 196.19 1915.75 175.384C1915.75 154.4 1919.57 135.95 1927.22 120.034C1934.86 104.03 1945.45 91.5818 1958.96 82.6903C1972.56 73.71 1988.21 69.2198 2005.91 69.2198C2023.6 69.2198 2039.21 73.71 2052.72 82.6903C2066.24 91.6707 2076.82 104.119 2084.46 120.034C2092.2 135.95 2096.07 154.4 2096.07 175.384C2096.07 196.19 2092.24 214.55 2084.6 230.466C2076.95 246.293 2066.32 258.696 2052.72 267.677C2039.21 276.657 2023.6 281.147 2005.91 281.147ZM2005.91 259.408C2020.13 259.408 2032.18 255.584 2042.05 247.938C2051.92 240.291 2059.39 230.11 2064.46 217.396C2069.61 204.681 2072.19 190.677 2072.19 175.384C2072.19 160.09 2069.61 146.042 2064.46 133.238C2059.39 120.434 2051.92 110.165 2042.05 102.429C2032.18 94.6938 2020.13 90.826 2005.91 90.826C1991.77 90.826 1979.72 94.6938 1969.76 102.429C1959.89 110.165 1952.38 120.434 1947.22 133.238C1942.16 146.042 1939.62 160.09 1939.62 175.384C1939.62 190.677 1942.16 204.681 1947.22 217.396C1952.38 230.11 1959.89 240.291 1969.76 247.938C1979.63 255.584 1991.68 259.408 2005.91 259.408Z" fill="white"/>
<path d="M76.4132 85.3874H0.000610352V15.4082H236.751V85.3874H160.367V288.442H76.4132V85.3874Z" fill="#EB0028"/>
<path d="M249.797 15.4082H479.622V85.3874H333.805V119.412H479.622V184.442H333.805V218.467H479.659V288.446H249.797V15.4082Z" fill="#EB0028"/>
<path d="M577.764 218.467H610.618C662.947 218.467 670.597 176.004 670.597 150.358C670.597 133.179 665.226 85.3874 604.501 85.3874H577.764V218.467ZM493.763 15.4082H631.618C722.489 15.4082 754.605 82.7124 754.605 151.525C754.605 235.296 710.305 288.442 615.214 288.442H493.763V15.4082Z" fill="#EB0028"/>
<path d="M875.314 183.9L849.689 141.345L824.697 183.9H763.147L821.58 97.8579L765.314 15.5537H826.885L849.689 56.2371L873.143 15.5537H934.697L878.447 97.8579L936.88 183.9H875.314Z" fill="#EB0028"/>
</svg>
