<svg width="103" height="25" viewBox="0 0 103 25" fill="none" xmlns="http://www.w3.org/2000/svg">
<path d="M3.984 9.168C2.944 9.168 2.12 8.88 1.512 8.304C0.904 7.72 0.6 6.888 0.6 5.808V3.792C0.6 2.712 0.904 1.884 1.512 1.308C2.12 0.724 2.944 0.431999 3.984 0.431999C5.016 0.431999 5.812 0.716 6.372 1.284C6.94 1.844 7.224 2.616 7.224 3.6V3.672H5.664V3.552C5.664 3.056 5.524 2.648 5.244 2.328C4.972 2.008 4.552 1.848 3.984 1.848C3.424 1.848 2.984 2.02 2.664 2.364C2.344 2.708 2.184 3.176 2.184 3.768V5.832C2.184 6.416 2.344 6.884 2.664 7.236C2.984 7.58 3.424 7.752 3.984 7.752C4.552 7.752 4.972 7.592 5.244 7.272C5.524 6.944 5.664 6.536 5.664 6.048V5.832H7.224V6C7.224 6.984 6.94 7.76 6.372 8.328C5.812 8.888 5.016 9.168 3.984 9.168ZM11.0347 9.168C10.4427 9.168 9.91066 9.048 9.43866 8.808C8.96666 8.568 8.59466 8.22 8.32266 7.764C8.05066 7.308 7.91466 6.76 7.91466 6.12V5.928C7.91466 5.288 8.05066 4.74 8.32266 4.284C8.59466 3.828 8.96666 3.48 9.43866 3.24C9.91066 3 10.4427 2.88 11.0347 2.88C11.6267 2.88 12.1587 3 12.6307 3.24C13.1027 3.48 13.4747 3.828 13.7467 4.284C14.0187 4.74 14.1547 5.288 14.1547 5.928V6.12C14.1547 6.76 14.0187 7.308 13.7467 7.764C13.4747 8.22 13.1027 8.568 12.6307 8.808C12.1587 9.048 11.6267 9.168 11.0347 9.168ZM11.0347 7.824C11.4987 7.824 11.8827 7.676 12.1867 7.38C12.4907 7.076 12.6427 6.644 12.6427 6.084V5.964C12.6427 5.404 12.4907 4.976 12.1867 4.68C11.8907 4.376 11.5067 4.224 11.0347 4.224C10.5707 4.224 10.1867 4.376 9.88266 4.68C9.57866 4.976 9.42666 5.404 9.42666 5.964V6.084C9.42666 6.644 9.57866 7.076 9.88266 7.38C10.1867 7.676 10.5707 7.824 11.0347 7.824ZM15.1903 9V3.048H16.6783V3.696H16.8943C16.9983 3.496 17.1703 3.324 17.4103 3.18C17.6503 3.028 17.9663 2.952 18.3583 2.952C18.7823 2.952 19.1223 3.036 19.3783 3.204C19.6343 3.364 19.8303 3.576 19.9663 3.84H20.1823C20.3183 3.584 20.5103 3.372 20.7583 3.204C21.0063 3.036 21.3583 2.952 21.8143 2.952C22.1823 2.952 22.5143 3.032 22.8103 3.192C23.1143 3.344 23.3543 3.58 23.5303 3.9C23.7143 4.212 23.8063 4.608 23.8063 5.088V9H22.2943V5.196C22.2943 4.868 22.2103 4.624 22.0423 4.464C21.8743 4.296 21.6383 4.212 21.3343 4.212C20.9903 4.212 20.7223 4.324 20.5303 4.548C20.3463 4.764 20.2543 5.076 20.2543 5.484V9H18.7423V5.196C18.7423 4.868 18.6583 4.624 18.4903 4.464C18.3223 4.296 18.0863 4.212 17.7823 4.212C17.4383 4.212 17.1703 4.324 16.9783 4.548C16.7943 4.764 16.7023 5.076 16.7023 5.484V9H15.1903ZM25.0725 11.4V3.048H26.5605V3.768H26.7765C26.9125 3.536 27.1245 3.332 27.4125 3.156C27.7005 2.972 28.1125 2.88 28.6485 2.88C29.1285 2.88 29.5725 3 29.9805 3.24C30.3885 3.472 30.7165 3.816 30.9645 4.272C31.2125 4.728 31.3365 5.28 31.3365 5.928V6.12C31.3365 6.768 31.2125 7.32 30.9645 7.776C30.7165 8.232 30.3885 8.58 29.9805 8.82C29.5725 9.052 29.1285 9.168 28.6485 9.168C28.2885 9.168 27.9845 9.124 27.7365 9.036C27.4965 8.956 27.3005 8.852 27.1485 8.724C27.0045 8.588 26.8885 8.452 26.8005 8.316H26.5845V11.4H25.0725ZM28.1925 7.848C28.6645 7.848 29.0525 7.7 29.3565 7.404C29.6685 7.1 29.8245 6.66 29.8245 6.084V5.964C29.8245 5.388 29.6685 4.952 29.3565 4.656C29.0445 4.352 28.6565 4.2 28.1925 4.2C27.7285 4.2 27.3405 4.352 27.0285 4.656C26.7165 4.952 26.5605 5.388 26.5605 5.964V6.084C26.5605 6.66 26.7165 7.1 27.0285 7.404C27.3405 7.7 27.7285 7.848 28.1925 7.848ZM32.3648 9V0.599999H33.8768V9H32.3648ZM37.9043 9.168C37.3123 9.168 36.7883 9.044 36.3323 8.796C35.8843 8.54 35.5323 8.184 35.2763 7.728C35.0283 7.264 34.9043 6.72 34.9043 6.096V5.952C34.9043 5.328 35.0283 4.788 35.2763 4.332C35.5243 3.868 35.8723 3.512 36.3203 3.264C36.7683 3.008 37.2883 2.88 37.8803 2.88C38.4643 2.88 38.9723 3.012 39.4043 3.276C39.8363 3.532 40.1723 3.892 40.4123 4.356C40.6523 4.812 40.7723 5.344 40.7723 5.952V6.468H36.4403C36.4563 6.876 36.6083 7.208 36.8963 7.464C37.1843 7.72 37.5363 7.848 37.9523 7.848C38.3763 7.848 38.6883 7.756 38.8883 7.572C39.0883 7.388 39.2403 7.184 39.3443 6.96L40.5803 7.608C40.4683 7.816 40.3043 8.044 40.0883 8.292C39.8803 8.532 39.6003 8.74 39.2483 8.916C38.8963 9.084 38.4483 9.168 37.9043 9.168ZM36.4523 5.34H39.2363C39.2043 4.996 39.0643 4.72 38.8163 4.512C38.5763 4.304 38.2603 4.2 37.8683 4.2C37.4603 4.2 37.1363 4.304 36.8963 4.512C36.6563 4.72 36.5083 4.996 36.4523 5.34ZM44.2301 9.168C43.4541 9.168 42.8181 9 42.3221 8.664C41.8261 8.328 41.5261 7.848 41.4221 7.224L42.8141 6.864C42.8701 7.144 42.9621 7.364 43.0901 7.524C43.2261 7.684 43.3901 7.8 43.5821 7.872C43.7821 7.936 43.9981 7.968 44.2301 7.968C44.5821 7.968 44.8421 7.908 45.0101 7.788C45.1781 7.66 45.2621 7.504 45.2621 7.32C45.2621 7.136 45.1821 6.996 45.0221 6.9C44.8621 6.796 44.6061 6.712 44.2541 6.648L43.9181 6.588C43.5021 6.508 43.1221 6.4 42.7781 6.264C42.4341 6.12 42.1581 5.924 41.9501 5.676C41.7421 5.428 41.6381 5.108 41.6381 4.716C41.6381 4.124 41.8541 3.672 42.2861 3.36C42.7181 3.04 43.2861 2.88 43.9901 2.88C44.6541 2.88 45.2061 3.028 45.6461 3.324C46.0861 3.62 46.3741 4.008 46.5101 4.488L45.1061 4.92C45.0421 4.616 44.9101 4.4 44.7101 4.272C44.5181 4.144 44.2781 4.08 43.9901 4.08C43.7021 4.08 43.4821 4.132 43.3301 4.236C43.1781 4.332 43.1021 4.468 43.1021 4.644C43.1021 4.836 43.1821 4.98 43.3421 5.076C43.5021 5.164 43.7181 5.232 43.9901 5.28L44.3261 5.34C44.7741 5.42 45.1781 5.528 45.5381 5.664C45.9061 5.792 46.1941 5.98 46.4021 6.228C46.6181 6.468 46.7261 6.796 46.7261 7.212C46.7261 7.836 46.4981 8.32 46.0421 8.664C45.5941 9 44.9901 9.168 44.2301 9.168ZM50.1631 9.168C49.3871 9.168 48.7511 9 48.2551 8.664C47.7591 8.328 47.4591 7.848 47.3551 7.224L48.7471 6.864C48.8031 7.144 48.8951 7.364 49.0231 7.524C49.1591 7.684 49.3231 7.8 49.5151 7.872C49.7151 7.936 49.9311 7.968 50.1631 7.968C50.5151 7.968 50.7751 7.908 50.9431 7.788C51.1111 7.66 51.1951 7.504 51.1951 7.32C51.1951 7.136 51.1151 6.996 50.9551 6.9C50.7951 6.796 50.5391 6.712 50.1871 6.648L49.8511 6.588C49.4351 6.508 49.0551 6.4 48.7111 6.264C48.3671 6.12 48.0911 5.924 47.8831 5.676C47.6751 5.428 47.5711 5.108 47.5711 4.716C47.5711 4.124 47.7871 3.672 48.2191 3.36C48.6511 3.04 49.2191 2.88 49.9231 2.88C50.5871 2.88 51.1391 3.028 51.5791 3.324C52.0191 3.62 52.3071 4.008 52.4431 4.488L51.0391 4.92C50.9751 4.616 50.8431 4.4 50.6431 4.272C50.4511 4.144 50.2111 4.08 49.9231 4.08C49.6351 4.08 49.4151 4.132 49.2631 4.236C49.1111 4.332 49.0351 4.468 49.0351 4.644C49.0351 4.836 49.1151 4.98 49.2751 5.076C49.4351 5.164 49.6511 5.232 49.9231 5.28L50.2591 5.34C50.7071 5.42 51.1111 5.528 51.4711 5.664C51.8391 5.792 52.1271 5.98 52.3351 6.228C52.5511 6.468 52.6591 6.796 52.6591 7.212C52.6591 7.836 52.4311 8.32 51.9751 8.664C51.5271 9 50.9231 9.168 50.1631 9.168ZM56.4561 9.168C55.8641 9.168 55.3321 9.048 54.8601 8.808C54.3881 8.568 54.0161 8.22 53.7441 7.764C53.4721 7.308 53.3361 6.76 53.3361 6.12V5.928C53.3361 5.288 53.4721 4.74 53.7441 4.284C54.0161 3.828 54.3881 3.48 54.8601 3.24C55.3321 3 55.8641 2.88 56.4561 2.88C57.0481 2.88 57.5801 3 58.0521 3.24C58.5241 3.48 58.8961 3.828 59.1681 4.284C59.4401 4.74 59.5761 5.288 59.5761 5.928V6.12C59.5761 6.76 59.4401 7.308 59.1681 7.764C58.8961 8.22 58.5241 8.568 58.0521 8.808C57.5801 9.048 57.0481 9.168 56.4561 9.168ZM56.4561 7.824C56.9201 7.824 57.3041 7.676 57.6081 7.38C57.9121 7.076 58.0641 6.644 58.0641 6.084V5.964C58.0641 5.404 57.9121 4.976 57.6081 4.68C57.3121 4.376 56.9281 4.224 56.4561 4.224C55.9921 4.224 55.6081 4.376 55.3041 4.68C55.0001 4.976 54.8481 5.404 54.8481 5.964V6.084C54.8481 6.644 55.0001 7.076 55.3041 7.38C55.6081 7.676 55.9921 7.824 56.4561 7.824ZM65.6986 9.168C65.2266 9.168 64.7826 9.052 64.3666 8.82C63.9586 8.58 63.6306 8.232 63.3826 7.776C63.1346 7.32 63.0106 6.768 63.0106 6.12V5.928C63.0106 5.28 63.1346 4.728 63.3826 4.272C63.6306 3.816 63.9586 3.472 64.3666 3.24C64.7746 3 65.2186 2.88 65.6986 2.88C66.0586 2.88 66.3586 2.924 66.5986 3.012C66.8466 3.092 67.0466 3.196 67.1986 3.324C67.3506 3.452 67.4666 3.588 67.5466 3.732H67.7626V0.599999H69.2746V9H67.7866V8.28H67.5706C67.4346 8.504 67.2226 8.708 66.9346 8.892C66.6546 9.076 66.2426 9.168 65.6986 9.168ZM66.1546 7.848C66.6186 7.848 67.0066 7.7 67.3186 7.404C67.6306 7.1 67.7866 6.66 67.7866 6.084V5.964C67.7866 5.388 67.6306 4.952 67.3186 4.656C67.0146 4.352 66.6266 4.2 66.1546 4.2C65.6906 4.2 65.3026 4.352 64.9906 4.656C64.6786 4.952 64.5226 5.388 64.5226 5.964V6.084C64.5226 6.66 64.6786 7.1 64.9906 7.404C65.3026 7.7 65.6906 7.848 66.1546 7.848ZM70.5909 9V3.048H72.1029V9H70.5909ZM71.3469 2.352C71.0749 2.352 70.8429 2.264 70.6509 2.088C70.4669 1.912 70.3749 1.68 70.3749 1.392C70.3749 1.104 70.4669 0.872 70.6509 0.696C70.8429 0.52 71.0749 0.431999 71.3469 0.431999C71.6269 0.431999 71.8589 0.52 72.0429 0.696C72.2269 0.872 72.3189 1.104 72.3189 1.392C72.3189 1.68 72.2269 1.912 72.0429 2.088C71.8589 2.264 71.6269 2.352 71.3469 2.352ZM78.9733 9.168C78.3253 9.168 77.7533 9.052 77.2573 8.82C76.7613 8.588 76.3733 8.256 76.0933 7.824C75.8133 7.392 75.6733 6.872 75.6733 6.264V5.928H77.2333V6.264C77.2333 6.768 77.3893 7.148 77.7013 7.404C78.0133 7.652 78.4373 7.776 78.9733 7.776C79.5173 7.776 79.9213 7.668 80.1853 7.452C80.4573 7.236 80.5933 6.96 80.5933 6.624C80.5933 6.392 80.5253 6.204 80.3893 6.06C80.2613 5.916 80.0693 5.8 79.8133 5.712C79.5653 5.616 79.2613 5.528 78.9013 5.448L78.6253 5.388C78.0493 5.26 77.5533 5.1 77.1373 4.908C76.7293 4.708 76.4133 4.448 76.1893 4.128C75.9733 3.808 75.8653 3.392 75.8653 2.88C75.8653 2.368 75.9853 1.932 76.2253 1.572C76.4733 1.204 76.8173 0.924 77.2573 0.732C77.7053 0.532 78.2293 0.431999 78.8293 0.431999C79.4293 0.431999 79.9613 0.536 80.4253 0.744C80.8973 0.944 81.2653 1.248 81.5293 1.656C81.8013 2.056 81.9373 2.56 81.9373 3.168V3.528H80.3773V3.168C80.3773 2.848 80.3133 2.592 80.1853 2.4C80.0653 2.2 79.8893 2.056 79.6573 1.968C79.4253 1.872 79.1493 1.824 78.8293 1.824C78.3493 1.824 77.9933 1.916 77.7613 2.1C77.5373 2.276 77.4253 2.52 77.4253 2.832C77.4253 3.04 77.4773 3.216 77.5813 3.36C77.6933 3.504 77.8573 3.624 78.0733 3.72C78.2893 3.816 78.5653 3.9 78.9013 3.972L79.1773 4.032C79.7773 4.16 80.2973 4.324 80.7373 4.524C81.1853 4.724 81.5333 4.988 81.7813 5.316C82.0293 5.644 82.1533 6.064 82.1533 6.576C82.1533 7.088 82.0213 7.54 81.7573 7.932C81.5013 8.316 81.1333 8.62 80.6533 8.844C80.1813 9.06 79.6213 9.168 78.9733 9.168ZM84.8707 9.168C84.4467 9.168 84.0667 9.096 83.7307 8.952C83.3947 8.8 83.1267 8.584 82.9267 8.304C82.7347 8.016 82.6387 7.668 82.6387 7.26C82.6387 6.852 82.7347 6.512 82.9267 6.24C83.1267 5.96 83.3987 5.752 83.7427 5.616C84.0947 5.472 84.4947 5.4 84.9427 5.4H86.5747V5.064C86.5747 4.784 86.4867 4.556 86.3107 4.38C86.1347 4.196 85.8547 4.104 85.4707 4.104C85.0947 4.104 84.8147 4.192 84.6307 4.368C84.4467 4.536 84.3267 4.756 84.2707 5.028L82.8787 4.56C82.9747 4.256 83.1267 3.98 83.3347 3.732C83.5507 3.476 83.8347 3.272 84.1867 3.12C84.5467 2.96 84.9827 2.88 85.4947 2.88C86.2787 2.88 86.8987 3.076 87.3547 3.468C87.8107 3.86 88.0387 4.428 88.0387 5.172V7.392C88.0387 7.632 88.1507 7.752 88.3747 7.752H88.8547V9H87.8467C87.5507 9 87.3067 8.928 87.1147 8.784C86.9227 8.64 86.8267 8.448 86.8267 8.208V8.196H86.5987C86.5667 8.292 86.4947 8.42 86.3827 8.58C86.2707 8.732 86.0947 8.868 85.8547 8.988C85.6147 9.108 85.2867 9.168 84.8707 9.168ZM85.1347 7.944C85.5587 7.944 85.9027 7.828 86.1667 7.596C86.4387 7.356 86.5747 7.04 86.5747 6.648V6.528H85.0507C84.7707 6.528 84.5507 6.588 84.3907 6.708C84.2307 6.828 84.1507 6.996 84.1507 7.212C84.1507 7.428 84.2347 7.604 84.4027 7.74C84.5707 7.876 84.8147 7.944 85.1347 7.944ZM89.6002 9V3.048H91.0882V3.828H91.3042C91.4002 3.62 91.5802 3.424 91.8442 3.24C92.1082 3.048 92.5082 2.952 93.0442 2.952C93.5082 2.952 93.9122 3.06 94.2562 3.276C94.6082 3.484 94.8802 3.776 95.0722 4.152C95.2642 4.52 95.3602 4.952 95.3602 5.448V9H93.8482V5.568C93.8482 5.12 93.7362 4.784 93.5122 4.56C93.2962 4.336 92.9842 4.224 92.5762 4.224C92.1122 4.224 91.7522 4.38 91.4962 4.692C91.2402 4.996 91.1122 5.424 91.1122 5.976V9H89.6002ZM0.792 24V15.6H6.072V17.04H2.376V19.068H5.784V20.508H2.376V24H0.792ZM6.89016 24V18.048H8.37816V18.72H8.59416C8.68216 18.48 8.82616 18.304 9.02616 18.192C9.23416 18.08 9.47416 18.024 9.74616 18.024H10.4662V19.368H9.72216C9.33816 19.368 9.02216 19.472 8.77416 19.68C8.52616 19.88 8.40216 20.192 8.40216 20.616V24H6.89016ZM12.9953 24.168C12.5713 24.168 12.1913 24.096 11.8553 23.952C11.5193 23.8 11.2513 23.584 11.0513 23.304C10.8593 23.016 10.7633 22.668 10.7633 22.26C10.7633 21.852 10.8593 21.512 11.0513 21.24C11.2513 20.96 11.5233 20.752 11.8673 20.616C12.2193 20.472 12.6193 20.4 13.0673 20.4H14.6993V20.064C14.6993 19.784 14.6113 19.556 14.4353 19.38C14.2593 19.196 13.9793 19.104 13.5953 19.104C13.2193 19.104 12.9393 19.192 12.7553 19.368C12.5713 19.536 12.4513 19.756 12.3953 20.028L11.0033 19.56C11.0993 19.256 11.2513 18.98 11.4593 18.732C11.6753 18.476 11.9593 18.272 12.3113 18.12C12.6713 17.96 13.1073 17.88 13.6193 17.88C14.4033 17.88 15.0233 18.076 15.4793 18.468C15.9353 18.86 16.1633 19.428 16.1633 20.172V22.392C16.1633 22.632 16.2753 22.752 16.4993 22.752H16.9793V24H15.9713C15.6753 24 15.4313 23.928 15.2393 23.784C15.0473 23.64 14.9513 23.448 14.9513 23.208V23.196H14.7233C14.6913 23.292 14.6193 23.42 14.5073 23.58C14.3953 23.732 14.2193 23.868 13.9793 23.988C13.7393 24.108 13.4113 24.168 12.9953 24.168ZM13.2593 22.944C13.6833 22.944 14.0273 22.828 14.2913 22.596C14.5633 22.356 14.6993 22.04 14.6993 21.648V21.528H13.1753C12.8953 21.528 12.6753 21.588 12.5153 21.708C12.3553 21.828 12.2753 21.996 12.2753 22.212C12.2753 22.428 12.3593 22.604 12.5273 22.74C12.6953 22.876 12.9393 22.944 13.2593 22.944ZM17.7248 24V18.048H19.2128V18.828H19.4288C19.5248 18.62 19.7048 18.424 19.9688 18.24C20.2328 18.048 20.6328 17.952 21.1688 17.952C21.6328 17.952 22.0368 18.06 22.3808 18.276C22.7328 18.484 23.0048 18.776 23.1968 19.152C23.3888 19.52 23.4848 19.952 23.4848 20.448V24H21.9728V20.568C21.9728 20.12 21.8608 19.784 21.6368 19.56C21.4208 19.336 21.1088 19.224 20.7008 19.224C20.2368 19.224 19.8768 19.38 19.6208 19.692C19.3648 19.996 19.2368 20.424 19.2368 20.976V24H17.7248ZM27.5554 24.168C26.9794 24.168 26.4554 24.048 25.9834 23.808C25.5194 23.568 25.1514 23.22 24.8794 22.764C24.6074 22.308 24.4714 21.756 24.4714 21.108V20.94C24.4714 20.292 24.6074 19.74 24.8794 19.284C25.1514 18.828 25.5194 18.48 25.9834 18.24C26.4554 18 26.9794 17.88 27.5554 17.88C28.1234 17.88 28.6114 17.98 29.0194 18.18C29.4274 18.38 29.7554 18.656 30.0034 19.008C30.2594 19.352 30.4274 19.744 30.5074 20.184L29.0434 20.496C29.0114 20.256 28.9394 20.04 28.8274 19.848C28.7154 19.656 28.5554 19.504 28.3474 19.392C28.1474 19.28 27.8954 19.224 27.5914 19.224C27.2874 19.224 27.0114 19.292 26.7634 19.428C26.5234 19.556 26.3314 19.752 26.1874 20.016C26.0514 20.272 25.9834 20.588 25.9834 20.964V21.084C25.9834 21.46 26.0514 21.78 26.1874 22.044C26.3314 22.3 26.5234 22.496 26.7634 22.632C27.0114 22.76 27.2874 22.824 27.5914 22.824C28.0474 22.824 28.3914 22.708 28.6234 22.476C28.8634 22.236 29.0154 21.924 29.0794 21.54L30.5434 21.888C30.4394 22.312 30.2594 22.7 30.0034 23.052C29.7554 23.396 29.4274 23.668 29.0194 23.868C28.6114 24.068 28.1234 24.168 27.5554 24.168ZM34.1426 24.168C33.5506 24.168 33.0266 24.044 32.5706 23.796C32.1226 23.54 31.7706 23.184 31.5146 22.728C31.2666 22.264 31.1426 21.72 31.1426 21.096V20.952C31.1426 20.328 31.2666 19.788 31.5146 19.332C31.7626 18.868 32.1106 18.512 32.5586 18.264C33.0066 18.008 33.5266 17.88 34.1186 17.88C34.7026 17.88 35.2106 18.012 35.6426 18.276C36.0746 18.532 36.4106 18.892 36.6506 19.356C36.8906 19.812 37.0106 20.344 37.0106 20.952V21.468H32.6786C32.6946 21.876 32.8466 22.208 33.1346 22.464C33.4226 22.72 33.7746 22.848 34.1906 22.848C34.6146 22.848 34.9266 22.756 35.1266 22.572C35.3266 22.388 35.4786 22.184 35.5826 21.96L36.8186 22.608C36.7066 22.816 36.5426 23.044 36.3266 23.292C36.1186 23.532 35.8386 23.74 35.4866 23.916C35.1346 24.084 34.6866 24.168 34.1426 24.168ZM32.6906 20.34H35.4746C35.4426 19.996 35.3026 19.72 35.0546 19.512C34.8146 19.304 34.4986 19.2 34.1066 19.2C33.6986 19.2 33.3746 19.304 33.1346 19.512C32.8946 19.72 32.7466 19.996 32.6906 20.34ZM40.4684 24.168C39.6924 24.168 39.0564 24 38.5604 23.664C38.0644 23.328 37.7644 22.848 37.6604 22.224L39.0524 21.864C39.1084 22.144 39.2004 22.364 39.3284 22.524C39.4644 22.684 39.6284 22.8 39.8204 22.872C40.0204 22.936 40.2364 22.968 40.4684 22.968C40.8204 22.968 41.0804 22.908 41.2484 22.788C41.4164 22.66 41.5004 22.504 41.5004 22.32C41.5004 22.136 41.4204 21.996 41.2604 21.9C41.1004 21.796 40.8444 21.712 40.4924 21.648L40.1564 21.588C39.7404 21.508 39.3604 21.4 39.0164 21.264C38.6724 21.12 38.3964 20.924 38.1884 20.676C37.9804 20.428 37.8764 20.108 37.8764 19.716C37.8764 19.124 38.0924 18.672 38.5244 18.36C38.9564 18.04 39.5244 17.88 40.2284 17.88C40.8924 17.88 41.4444 18.028 41.8844 18.324C42.3244 18.62 42.6124 19.008 42.7484 19.488L41.3444 19.92C41.2804 19.616 41.1484 19.4 40.9484 19.272C40.7564 19.144 40.5164 19.08 40.2284 19.08C39.9404 19.08 39.7204 19.132 39.5684 19.236C39.4164 19.332 39.3404 19.468 39.3404 19.644C39.3404 19.836 39.4204 19.98 39.5804 20.076C39.7404 20.164 39.9564 20.232 40.2284 20.28L40.5644 20.34C41.0124 20.42 41.4164 20.528 41.7764 20.664C42.1444 20.792 42.4324 20.98 42.6404 21.228C42.8564 21.468 42.9644 21.796 42.9644 22.212C42.9644 22.836 42.7364 23.32 42.2804 23.664C41.8324 24 41.2284 24.168 40.4684 24.168ZM46.7254 24.168C46.1494 24.168 45.6254 24.048 45.1534 23.808C44.6894 23.568 44.3214 23.22 44.0494 22.764C43.7774 22.308 43.6414 21.756 43.6414 21.108V20.94C43.6414 20.292 43.7774 19.74 44.0494 19.284C44.3214 18.828 44.6894 18.48 45.1534 18.24C45.6254 18 46.1494 17.88 46.7254 17.88C47.2934 17.88 47.7814 17.98 48.1894 18.18C48.5974 18.38 48.9254 18.656 49.1734 19.008C49.4294 19.352 49.5974 19.744 49.6774 20.184L48.2134 20.496C48.1814 20.256 48.1094 20.04 47.9974 19.848C47.8854 19.656 47.7254 19.504 47.5174 19.392C47.3174 19.28 47.0654 19.224 46.7614 19.224C46.4574 19.224 46.1814 19.292 45.9334 19.428C45.6934 19.556 45.5014 19.752 45.3574 20.016C45.2214 20.272 45.1534 20.588 45.1534 20.964V21.084C45.1534 21.46 45.2214 21.78 45.3574 22.044C45.5014 22.3 45.6934 22.496 45.9334 22.632C46.1814 22.76 46.4574 22.824 46.7614 22.824C47.2174 22.824 47.5614 22.708 47.7934 22.476C48.0334 22.236 48.1854 21.924 48.2494 21.54L49.7134 21.888C49.6094 22.312 49.4294 22.7 49.1734 23.052C48.9254 23.396 48.5974 23.668 48.1894 23.868C47.7814 24.068 47.2934 24.168 46.7254 24.168ZM53.4326 24.168C52.8406 24.168 52.3086 24.048 51.8366 23.808C51.3646 23.568 50.9926 23.22 50.7206 22.764C50.4486 22.308 50.3126 21.76 50.3126 21.12V20.928C50.3126 20.288 50.4486 19.74 50.7206 19.284C50.9926 18.828 51.3646 18.48 51.8366 18.24C52.3086 18 52.8406 17.88 53.4326 17.88C54.0246 17.88 54.5566 18 55.0286 18.24C55.5006 18.48 55.8726 18.828 56.1446 19.284C56.4166 19.74 56.5526 20.288 56.5526 20.928V21.12C56.5526 21.76 56.4166 22.308 56.1446 22.764C55.8726 23.22 55.5006 23.568 55.0286 23.808C54.5566 24.048 54.0246 24.168 53.4326 24.168ZM53.4326 22.824C53.8966 22.824 54.2806 22.676 54.5846 22.38C54.8886 22.076 55.0406 21.644 55.0406 21.084V20.964C55.0406 20.404 54.8886 19.976 54.5846 19.68C54.2886 19.376 53.9046 19.224 53.4326 19.224C52.9686 19.224 52.5846 19.376 52.2806 19.68C51.9766 19.976 51.8246 20.404 51.8246 20.964V21.084C51.8246 21.644 51.9766 22.076 52.2806 22.38C52.5846 22.676 52.9686 22.824 53.4326 22.824ZM62.4472 22.308V20.484H60.6472V19.116H62.4472V17.292H63.8632V19.116H65.6632V20.484H63.8632V22.308H62.4472ZM72.8754 24.168C72.2834 24.168 71.7514 24.048 71.2794 23.808C70.8074 23.568 70.4354 23.22 70.1634 22.764C69.8914 22.308 69.7554 21.76 69.7554 21.12V20.928C69.7554 20.288 69.8914 19.74 70.1634 19.284C70.4354 18.828 70.8074 18.48 71.2794 18.24C71.7514 18 72.2834 17.88 72.8754 17.88C73.4674 17.88 73.9994 18 74.4714 18.24C74.9434 18.48 75.3154 18.828 75.5874 19.284C75.8594 19.74 75.9954 20.288 75.9954 20.928V21.12C75.9954 21.76 75.8594 22.308 75.5874 22.764C75.3154 23.22 74.9434 23.568 74.4714 23.808C73.9994 24.048 73.4674 24.168 72.8754 24.168ZM72.8754 22.824C73.3394 22.824 73.7234 22.676 74.0274 22.38C74.3314 22.076 74.4834 21.644 74.4834 21.084V20.964C74.4834 20.404 74.3314 19.976 74.0274 19.68C73.7314 19.376 73.3474 19.224 72.8754 19.224C72.4114 19.224 72.0274 19.376 71.7234 19.68C71.4194 19.976 71.2674 20.404 71.2674 20.964V21.084C71.2674 21.644 71.4194 22.076 71.7234 22.38C72.0274 22.676 72.4114 22.824 72.8754 22.824ZM77.0311 24V18.048H78.5191V18.828H78.7351C78.8311 18.62 79.0111 18.424 79.2751 18.24C79.5391 18.048 79.9391 17.952 80.4751 17.952C80.9391 17.952 81.3431 18.06 81.6871 18.276C82.0391 18.484 82.3111 18.776 82.5031 19.152C82.6951 19.52 82.7911 19.952 82.7911 20.448V24H81.2791V20.568C81.2791 20.12 81.1671 19.784 80.9431 19.56C80.7271 19.336 80.4151 19.224 80.0071 19.224C79.5431 19.224 79.1831 19.38 78.9271 19.692C78.6711 19.996 78.5431 20.424 78.5431 20.976V24H77.0311ZM84.0656 24V15.6H85.5776V24H84.0656ZM86.8931 24V18.048H88.4051V24H86.8931ZM87.6491 17.352C87.3771 17.352 87.1451 17.264 86.9531 17.088C86.7691 16.912 86.6771 16.68 86.6771 16.392C86.6771 16.104 86.7691 15.872 86.9531 15.696C87.1451 15.52 87.3771 15.432 87.6491 15.432C87.9291 15.432 88.1611 15.52 88.3451 15.696C88.5291 15.872 88.6211 16.104 88.6211 16.392C88.6211 16.68 88.5291 16.912 88.3451 17.088C88.1611 17.264 87.9291 17.352 87.6491 17.352ZM89.7206 24V18.048H91.2086V18.828H91.4246C91.5206 18.62 91.7006 18.424 91.9646 18.24C92.2286 18.048 92.6286 17.952 93.1646 17.952C93.6286 17.952 94.0326 18.06 94.3766 18.276C94.7286 18.484 95.0006 18.776 95.1926 19.152C95.3846 19.52 95.4806 19.952 95.4806 20.448V24H93.9686V20.568C93.9686 20.12 93.8566 19.784 93.6326 19.56C93.4166 19.336 93.1046 19.224 92.6966 19.224C92.2326 19.224 91.8726 19.38 91.6166 19.692C91.3606 19.996 91.2326 20.424 91.2326 20.976V24H89.7206ZM99.4672 24.168C98.8752 24.168 98.3512 24.044 97.8952 23.796C97.4472 23.54 97.0952 23.184 96.8392 22.728C96.5912 22.264 96.4672 21.72 96.4672 21.096V20.952C96.4672 20.328 96.5912 19.788 96.8392 19.332C97.0872 18.868 97.4352 18.512 97.8832 18.264C98.3312 18.008 98.8512 17.88 99.4432 17.88C100.027 17.88 100.535 18.012 100.967 18.276C101.399 18.532 101.735 18.892 101.975 19.356C102.215 19.812 102.335 20.344 102.335 20.952V21.468H98.0032C98.0192 21.876 98.1712 22.208 98.4592 22.464C98.7472 22.72 99.0992 22.848 99.5152 22.848C99.9392 22.848 100.251 22.756 100.451 22.572C100.651 22.388 100.803 22.184 100.907 21.96L102.143 22.608C102.031 22.816 101.867 23.044 101.651 23.292C101.443 23.532 101.163 23.74 100.811 23.916C100.459 24.084 100.011 24.168 99.4672 24.168ZM98.0152 20.34H100.799C100.767 19.996 100.627 19.72 100.379 19.512C100.139 19.304 99.8232 19.2 99.4312 19.2C99.0232 19.2 98.6992 19.304 98.4592 19.512C98.2192 19.72 98.0712 19.996 98.0152 20.34Z" fill="white"/>
</svg>
