<svg width="158" height="148" viewBox="0 0 158 148" fill="none" xmlns="http://www.w3.org/2000/svg">
<path d="M143 12.3398L94.9044 74.2697L84.125 63.4026L132.221 1.47281L143 12.3398Z" fill="url(#paint0_linear_5574_14395)"/>
<g filter="url(#filter0_dddddd_5574_14395)">
<path fill-rule="evenodd" clip-rule="evenodd" d="M91.8047 76.9176C90.3335 76.8615 88.9972 76.1438 87.6783 75.4949C86.3932 74.8627 85.1472 74.161 84.1408 73.1473C83.1134 72.1124 82.1553 70.9388 81.7652 69.539C81.379 68.1533 81.7425 66.7001 81.9473 65.2768C82.147 63.889 82.2691 62.4634 82.9594 61.24C83.6527 60.0113 84.801 59.1375 85.9087 58.2568C87.0509 57.3488 88.1552 56.2601 89.5894 55.9691C91.0223 55.6783 92.4438 56.3466 93.8761 56.6402C95.3148 56.9351 96.8832 56.8953 98.0987 57.7135C99.3201 58.5358 100.03 59.9081 100.682 61.2218C101.311 62.491 101.635 63.8586 101.84 65.2582C102.051 66.6928 102.31 68.1659 101.907 69.5593C101.5 70.9654 100.54 72.1357 99.5387 73.2099C98.5441 74.2768 97.3939 75.1827 96.0748 75.8151C94.736 76.457 93.2907 76.9743 91.8047 76.9176Z" fill="url(#paint1_diamond_5574_14395)"/>
</g>
<path d="M5.24843 13.2196C3.9518 13.2196 2.91137 12.8641 2.12712 12.153C1.34287 11.4315 0.950751 10.344 0.950751 8.89054V6.12999C0.950751 4.71835 1.34287 3.64655 2.12712 2.91458C2.91137 2.17216 3.9518 1.80095 5.24843 1.80095C6.5555 1.80095 7.59594 2.17216 8.36973 2.91458C9.15398 3.64655 9.5461 4.71835 9.5461 6.12999V8.89054C9.5461 10.344 9.15398 11.4315 8.36973 12.153C7.59594 12.8641 6.5555 13.2196 5.24843 13.2196ZM5.24843 11.4315C6.03267 11.4315 6.60779 11.2171 6.97377 10.7884C7.35021 10.3597 7.53843 9.74799 7.53843 8.95328V6.03588C7.53843 5.23072 7.32929 4.62424 6.91103 4.21643C6.50322 3.79817 5.94902 3.58903 5.24843 3.58903C4.52692 3.58903 3.96226 3.80339 3.55445 4.23212C3.1571 4.66084 2.95842 5.26209 2.95842 6.03588V8.95328C2.95842 9.77936 3.14664 10.4015 3.52308 10.8198C3.90998 11.2276 4.48509 11.4315 5.24843 11.4315ZM17.0347 13.2196C16.1981 13.2196 15.4714 13.0627 14.8545 12.749C14.2375 12.4353 13.7618 12.0014 13.4271 11.4472C13.0925 10.893 12.9252 10.2551 12.9252 9.53363V5.78493C12.9252 4.89611 13.103 4.15892 13.4585 3.57335C13.8245 2.97732 14.3212 2.53291 14.9486 2.24013C15.5864 1.94734 16.3132 1.80095 17.1288 1.80095C17.9444 1.80095 18.6502 1.93689 19.2463 2.20876C19.8527 2.48063 20.3181 2.87275 20.6422 3.38513C20.9768 3.8975 21.1441 4.50922 21.1441 5.22027H19.1051C19.1051 4.78109 18.9535 4.39942 18.6502 4.07527C18.347 3.75111 17.8398 3.58903 17.1288 3.58903C16.4282 3.58903 15.8845 3.77202 15.4976 4.13801C15.1211 4.50399 14.9329 5.01114 14.9329 5.65945V6.78876H15.2152C15.393 6.57963 15.6649 6.38095 16.0308 6.19273C16.3968 6.00452 16.9301 5.91041 17.6307 5.91041C18.2686 5.91041 18.8541 6.04634 19.3874 6.31821C19.9312 6.59009 20.3703 6.98744 20.705 7.51027C21.0396 8.02264 21.2069 8.64481 21.2069 9.37678V9.565C21.2069 10.2865 21.0343 10.9244 20.6893 11.4786C20.3442 12.0223 19.858 12.451 19.2306 12.7647C18.6032 13.068 17.8712 13.2196 17.0347 13.2196ZM17.0661 11.4315C17.7248 11.4315 18.2424 11.259 18.6189 10.9139C19.0058 10.5688 19.1992 10.1087 19.1992 9.53363V9.40815C19.1992 9.02125 19.1103 8.68664 18.9326 8.40431C18.7653 8.12198 18.5195 7.90239 18.1954 7.74554C17.8817 7.58869 17.5052 7.51027 17.0661 7.51027C16.6373 7.51027 16.2609 7.58869 15.9367 7.74554C15.6126 7.90239 15.3616 8.12198 15.1839 8.40431C15.0166 8.68664 14.9329 9.02125 14.9329 9.40815V9.53363C14.9329 10.1087 15.1211 10.5688 15.4976 10.9139C15.8845 11.259 16.4073 11.4315 17.0661 11.4315ZM25.947 13.2196C25.5288 13.2196 25.1732 13.0837 24.8805 12.8118C24.5981 12.5295 24.457 12.1687 24.457 11.7295C24.457 11.2903 24.5981 10.9348 24.8805 10.6629C25.1732 10.3806 25.5288 10.2394 25.947 10.2394C26.3758 10.2394 26.7313 10.3806 27.0136 10.6629C27.2959 10.9348 27.4371 11.2903 27.4371 11.7295C27.4371 12.1687 27.2959 12.5295 27.0136 12.8118C26.7313 13.0837 26.3758 13.2196 25.947 13.2196ZM34.9836 13.2196C33.687 13.2196 32.6466 12.8641 31.8623 12.153C31.0781 11.4315 30.686 10.344 30.686 8.89054V6.12999C30.686 4.71835 31.0781 3.64655 31.8623 2.91458C32.6466 2.17216 33.687 1.80095 34.9836 1.80095C36.2907 1.80095 37.3312 2.17216 38.105 2.91458C38.8892 3.64655 39.2813 4.71835 39.2813 6.12999V8.89054C39.2813 10.344 38.8892 11.4315 38.105 12.153C37.3312 12.8641 36.2907 13.2196 34.9836 13.2196ZM34.9836 11.4315C35.7679 11.4315 36.343 11.2171 36.709 10.7884C37.0854 10.3597 37.2736 9.74799 37.2736 8.95328V6.03588C37.2736 5.23072 37.0645 4.62424 36.6463 4.21643C36.2384 3.79817 35.6842 3.58903 34.9836 3.58903C34.2621 3.58903 33.6975 3.80339 33.2897 4.23212C32.8923 4.66084 32.6936 5.26209 32.6936 6.03588V8.95328C32.6936 9.77936 32.8819 10.4015 33.2583 10.8198C33.6452 11.2276 34.2203 11.4315 34.9836 11.4315ZM46.6287 13.2196C45.7713 13.2196 45.0289 13.068 44.4015 12.7647C43.7845 12.4615 43.3088 12.0328 42.9741 11.4786C42.6395 10.9244 42.4722 10.2813 42.4722 9.54931V9.39246H44.5113V9.53363C44.5113 10.0565 44.6838 10.5061 45.0289 10.8825C45.3844 11.2485 45.9072 11.4315 46.5974 11.4315C47.2875 11.4315 47.8156 11.2485 48.1815 10.8825C48.558 10.5061 48.7462 10.0199 48.7462 9.42383V9.26698C48.7462 8.68141 48.558 8.21609 48.1815 7.87102C47.8156 7.52595 47.3555 7.35342 46.8013 7.35342C46.498 7.35342 46.2471 7.39525 46.0484 7.4789C45.8497 7.56255 45.6876 7.66712 45.5622 7.7926C45.4367 7.91808 45.3321 8.04356 45.2485 8.16904H42.8173V2.02054H50.3147V3.83999H44.825V6.52212H45.1073C45.2119 6.38618 45.353 6.25547 45.5308 6.12999C45.7086 6.00452 45.9386 5.89995 46.2209 5.8163C46.5033 5.73264 46.8379 5.69082 47.2248 5.69082C47.8731 5.69082 48.4639 5.82675 48.9972 6.09862C49.5305 6.3705 49.9539 6.77308 50.2676 7.30637C50.5918 7.8292 50.7539 8.47751 50.7539 9.2513V9.43952C50.7539 10.2133 50.5866 10.8825 50.252 11.4472C49.9278 12.0118 49.4573 12.451 48.8403 12.7647C48.2234 13.068 47.4862 13.2196 46.6287 13.2196ZM55.4219 13.2196C55.0036 13.2196 54.6481 13.0837 54.3553 12.8118C54.073 12.5295 53.9318 12.1687 53.9318 11.7295C53.9318 11.2903 54.073 10.9348 54.3553 10.6629C54.6481 10.3806 55.0036 10.2394 55.4219 10.2394C55.8506 10.2394 56.2061 10.3806 56.4884 10.6629C56.7708 10.9348 56.9119 11.2903 56.9119 11.7295C56.9119 12.1687 56.7708 12.5295 56.4884 12.8118C56.2061 13.0837 55.8506 13.2196 55.4219 13.2196ZM60.2191 13V11.6825C60.2191 10.9191 60.3446 10.2865 60.5956 9.78459C60.8465 9.27221 61.2073 8.85395 61.6778 8.52979C62.1588 8.19518 62.7444 7.92331 63.4345 7.71417L64.4854 7.38479C64.8723 7.25931 65.1965 7.10769 65.4579 6.92993C65.7193 6.74171 65.918 6.51689 66.0539 6.25547C66.2003 5.99406 66.2735 5.69604 66.2735 5.36143V5.29869C66.2735 4.77586 66.0958 4.36282 65.7402 4.05958C65.3847 3.74588 64.8985 3.58903 64.2815 3.58903C63.675 3.58903 63.1836 3.75634 62.8071 4.09095C62.4412 4.41511 62.2582 4.88566 62.2582 5.5026V5.78493H60.2505V5.53397C60.2505 4.73926 60.4283 4.06481 60.7838 3.51061C61.1393 2.95641 61.6203 2.53291 62.2268 2.24013C62.8437 1.94734 63.5287 1.80095 64.2815 1.80095C65.0344 1.80095 65.7141 1.94734 66.3206 2.24013C66.9271 2.52246 67.4028 2.92504 67.7479 3.44787C68.1034 3.96024 68.2812 4.56673 68.2812 5.26732V5.42417C68.2812 6.12477 68.1348 6.72079 67.842 7.21226C67.5597 7.69326 67.1728 8.09061 66.6813 8.40431C66.1899 8.70755 65.6304 8.95851 65.003 9.15719L63.9992 9.47089C63.5496 9.60682 63.1993 9.75844 62.9483 9.92575C62.6973 10.0826 62.5196 10.2604 62.415 10.459C62.3209 10.6473 62.2739 10.8773 62.2739 11.1492V11.2119H68.1871V13H60.2191ZM75.759 13.2196C74.4624 13.2196 73.4219 12.8641 72.6377 12.153C71.8534 11.4315 71.4613 10.344 71.4613 8.89054V6.12999C71.4613 4.71835 71.8534 3.64655 72.6377 2.91458C73.4219 2.17216 74.4624 1.80095 75.759 1.80095C77.0661 1.80095 78.1065 2.17216 78.8803 2.91458C79.6645 3.64655 80.0567 4.71835 80.0567 6.12999V8.89054C80.0567 10.344 79.6645 11.4315 78.8803 12.153C78.1065 12.8641 77.0661 13.2196 75.759 13.2196ZM75.759 11.4315C76.5432 11.4315 77.1183 11.2171 77.4843 10.7884C77.8608 10.3597 78.049 9.74799 78.049 8.95328V6.03588C78.049 5.23072 77.8399 4.62424 77.4216 4.21643C77.0138 3.79817 76.4596 3.58903 75.759 3.58903C75.0375 3.58903 74.4728 3.80339 74.065 4.23212C73.6677 4.66084 73.469 5.26209 73.469 6.03588V8.95328C73.469 9.77936 73.6572 10.4015 74.0336 10.8198C74.4205 11.2276 74.9957 11.4315 75.759 11.4315ZM83.3103 13V11.6825C83.3103 10.9191 83.4358 10.2865 83.6867 9.78459C83.9377 9.27221 84.2985 8.85395 84.769 8.52979C85.25 8.19518 85.8356 7.92331 86.5257 7.71417L87.5766 7.38479C87.9635 7.25931 88.2877 7.10769 88.5491 6.92993C88.8105 6.74171 89.0092 6.51689 89.1451 6.25547C89.2915 5.99406 89.3647 5.69604 89.3647 5.36143V5.29869C89.3647 4.77586 89.1869 4.36282 88.8314 4.05958C88.4759 3.74588 87.9896 3.58903 87.3727 3.58903C86.7662 3.58903 86.2748 3.75634 85.8983 4.09095C85.5323 4.41511 85.3493 4.88566 85.3493 5.5026V5.78493H83.3417V5.53397C83.3417 4.73926 83.5194 4.06481 83.875 3.51061C84.2305 2.95641 84.7115 2.53291 85.318 2.24013C85.9349 1.94734 86.6198 1.80095 87.3727 1.80095C88.1256 1.80095 88.8053 1.94734 89.4117 2.24013C90.0182 2.52246 90.494 2.92504 90.8391 3.44787C91.1946 3.96024 91.3724 4.56673 91.3724 5.26732V5.42417C91.3724 6.12477 91.226 6.72079 90.9332 7.21226C90.6509 7.69326 90.264 8.09061 89.7725 8.40431C89.281 8.70755 88.7216 8.95851 88.0942 9.15719L87.0904 9.47089C86.6407 9.60682 86.2904 9.75844 86.0395 9.92575C85.7885 10.0826 85.6108 10.2604 85.5062 10.459C85.4121 10.6473 85.365 10.8773 85.365 11.1492V11.2119H91.2783V13H83.3103ZM98.5365 13.2196C97.7104 13.2196 96.9784 13.0732 96.3406 12.7804C95.7027 12.4876 95.2008 12.0694 94.8348 11.5256C94.4793 10.9714 94.3015 10.3179 94.3015 9.565V9.28267H96.3092V9.50226C96.3092 10.0878 96.5131 10.5584 96.9209 10.9139C97.3287 11.259 97.8672 11.4315 98.5365 11.4315C99.2161 11.4315 99.739 11.2694 100.105 10.9453C100.481 10.6211 100.67 10.2133 100.67 9.72185V9.565C100.67 9.23039 100.586 8.95851 100.419 8.74938C100.251 8.54025 100.027 8.38863 99.7442 8.29452C99.4619 8.18995 99.1429 8.13767 98.7874 8.13767H96.5915V5.94178L100.136 4.05958V3.80862H94.5839V2.02054H102.364V4.68698L99.0541 6.44369V6.69465H99.6344C100.126 6.69465 100.602 6.79399 101.062 6.99267C101.532 7.19134 101.919 7.49981 102.222 7.91808C102.526 8.32589 102.677 8.85917 102.677 9.51794V9.70616C102.677 10.4172 102.505 11.0394 102.16 11.5727C101.815 12.0955 101.328 12.5033 100.701 12.7961C100.084 13.0784 99.3625 13.2196 98.5365 13.2196Z" fill="white"/>
<path d="M5.65725 126.033C4.82584 126.033 4.07869 125.864 3.41581 125.527C2.75292 125.19 2.23048 124.701 1.84848 124.061C1.46648 123.421 1.27548 122.651 1.27548 121.752V121.483C1.27548 120.584 1.46648 119.814 1.84848 119.174C2.23048 118.533 2.75292 118.045 3.41581 117.707C4.07869 117.37 4.82584 117.202 5.65725 117.202C6.48867 117.202 7.23581 117.37 7.8987 117.707C8.56158 118.045 9.08402 118.533 9.46602 119.174C9.84803 119.814 10.039 120.584 10.039 121.483V121.752C10.039 122.651 9.84803 123.421 9.46602 124.061C9.08402 124.701 8.56158 125.19 7.8987 125.527C7.23581 125.864 6.48867 126.033 5.65725 126.033ZM5.65725 124.145C6.3089 124.145 6.8482 123.937 7.27514 123.522C7.70208 123.095 7.91555 122.488 7.91555 121.702V121.533C7.91555 120.747 7.70208 120.146 7.27514 119.73C6.85943 119.303 6.32014 119.089 5.65725 119.089C5.00561 119.089 4.46631 119.303 4.03937 119.73C3.61243 120.146 3.39896 120.747 3.39896 121.533V121.702C3.39896 122.488 3.61243 123.095 4.03937 123.522C4.46631 123.937 5.00561 124.145 5.65725 124.145ZM11.4935 125.797V114H13.617V125.797H11.4935ZM18.6666 125.797C18.116 125.797 17.6666 125.628 17.3183 125.291C16.9813 124.943 16.8127 124.482 16.8127 123.909V119.191H14.723V117.438H16.8127V114.842H18.9362V117.438H21.2282V119.191H18.9362V123.539C18.9362 123.876 19.0935 124.044 19.4081 124.044H21.026V125.797H18.6666ZM22.6448 125.797V117.438H24.7346V118.382H25.0379C25.1615 118.045 25.3637 117.797 25.6446 117.64C25.9367 117.483 26.2738 117.404 26.6558 117.404H27.667V119.292H26.6221C26.0828 119.292 25.639 119.438 25.2907 119.73C24.9424 120.011 24.7683 120.449 24.7683 121.044V125.797H22.6448ZM32.3337 126.033C31.5022 126.033 30.7663 125.859 30.1259 125.51C29.4967 125.151 29.0024 124.651 28.6429 124.01C28.2946 123.359 28.1204 122.595 28.1204 121.718V121.516C28.1204 120.64 28.2946 119.881 28.6429 119.241C28.9912 118.589 29.4799 118.089 30.1091 117.741C30.7382 117.382 31.4685 117.202 32.3 117.202C33.1201 117.202 33.8336 117.387 34.4403 117.758C35.047 118.118 35.5189 118.623 35.8559 119.275C36.193 119.915 36.3615 120.662 36.3615 121.516V122.241H30.2776C30.3001 122.814 30.5135 123.28 30.918 123.64C31.3225 123.999 31.8168 124.179 32.4011 124.179C32.9965 124.179 33.4347 124.05 33.7156 123.791C33.9965 123.533 34.21 123.246 34.356 122.932L36.0919 123.842C35.9346 124.134 35.7043 124.454 35.4009 124.803C35.1088 125.14 34.7155 125.432 34.2212 125.679C33.7268 125.915 33.0977 126.033 32.3337 126.033ZM30.2945 120.657H34.2043C34.1594 120.174 33.9628 119.786 33.6145 119.494C33.2774 119.202 32.8336 119.056 32.2831 119.056C31.7101 119.056 31.2551 119.202 30.918 119.494C30.581 119.786 30.3731 120.174 30.2945 120.657Z" fill="white"/>
<path d="M1.17971 144.152V132.355H3.30318V144.152H1.17971ZM5.30237 137.529V136.383H5.95963C6.47646 136.383 6.73487 136.125 6.73487 135.608V135.069H6.44837C5.99896 135.069 5.62257 134.934 5.31922 134.664C5.0271 134.394 4.88104 134.052 4.88104 133.636C4.88104 133.187 5.0271 132.822 5.31922 132.541C5.62257 132.26 5.99896 132.119 6.44837 132.119C6.90902 132.119 7.2854 132.265 7.57752 132.557C7.86964 132.838 8.01569 133.22 8.01569 133.704V135.642C8.01569 136.9 7.38652 137.529 6.12816 137.529H5.30237ZM9.59895 144.152V135.793H11.7224V144.152H9.59895ZM10.6607 134.816C10.2787 134.816 9.95286 134.692 9.68322 134.445C9.4248 134.198 9.2956 133.872 9.2956 133.468C9.2956 133.063 9.4248 132.737 9.68322 132.49C9.95286 132.243 10.2787 132.119 10.6607 132.119C11.0539 132.119 11.3797 132.243 11.6382 132.49C11.8966 132.737 12.0258 133.063 12.0258 133.468C12.0258 133.872 11.8966 134.198 11.6382 134.445C11.3797 134.692 11.0539 134.816 10.6607 134.816ZM13.5699 144.152V135.793H15.6597V136.703H15.9631C16.1091 136.422 16.3507 136.181 16.6877 135.979C17.0248 135.765 17.4686 135.658 18.0191 135.658C18.6146 135.658 19.0921 135.776 19.4516 136.012C19.8111 136.237 20.0864 136.535 20.2774 136.906H20.5808C20.7718 136.546 21.0414 136.248 21.3897 136.012C21.738 135.776 22.2324 135.658 22.8728 135.658C23.3896 135.658 23.8559 135.771 24.2716 135.996C24.6985 136.209 25.0356 136.54 25.2827 136.99C25.5412 137.428 25.6704 137.984 25.6704 138.658V144.152H23.5469V138.81C23.5469 138.349 23.4289 138.007 23.193 137.782C22.957 137.546 22.6256 137.428 22.1987 137.428C21.7155 137.428 21.3392 137.585 21.0695 137.9C20.8111 138.203 20.6819 138.641 20.6819 139.214V144.152H18.5584V138.81C18.5584 138.349 18.4404 138.007 18.2045 137.782C17.9686 137.546 17.6371 137.428 17.2102 137.428C16.7271 137.428 16.3507 137.585 16.081 137.9C15.8226 138.203 15.6934 138.641 15.6934 139.214V144.152H13.5699ZM27.4486 144.152V135.793H29.5384V136.703H29.8417C29.9878 136.422 30.2294 136.181 30.5664 135.979C30.9035 135.765 31.3473 135.658 31.8978 135.658C32.4933 135.658 32.9708 135.776 33.3303 136.012C33.6898 136.237 33.9651 136.535 34.1561 136.906H34.4595C34.6505 136.546 34.9201 136.248 35.2684 136.012C35.6167 135.776 36.111 135.658 36.7515 135.658C37.2683 135.658 37.7345 135.771 38.1503 135.996C38.5772 136.209 38.9143 136.54 39.1614 136.99C39.4198 137.428 39.5491 137.984 39.5491 138.658V144.152H37.4256V138.81C37.4256 138.349 37.3076 138.007 37.0717 137.782C36.8357 137.546 36.5043 137.428 36.0773 137.428C35.5942 137.428 35.2178 137.585 34.9482 137.9C34.6898 138.203 34.5606 138.641 34.5606 139.214V144.152H32.4371V138.81C32.4371 138.349 32.3191 138.007 32.0832 137.782C31.8472 137.546 31.5158 137.428 31.0889 137.428C30.6057 137.428 30.2294 137.585 29.9597 137.9C29.7013 138.203 29.5721 138.641 29.5721 139.214V144.152H27.4486ZM43.9227 144.388C43.3272 144.388 42.7935 144.287 42.3216 144.085C41.8497 143.871 41.4734 143.568 41.1925 143.175C40.9228 142.77 40.788 142.282 40.788 141.709C40.788 141.136 40.9228 140.658 41.1925 140.276C41.4734 139.883 41.8554 139.591 42.3385 139.4C42.8328 139.198 43.3946 139.096 44.0238 139.096H46.3158V138.625C46.3158 138.231 46.1922 137.911 45.945 137.664C45.6978 137.406 45.3046 137.276 44.7653 137.276C44.2372 137.276 43.844 137.4 43.5856 137.647C43.3272 137.883 43.1587 138.192 43.08 138.574L41.1251 137.917C41.2599 137.49 41.4734 137.102 41.7655 136.754C42.0688 136.394 42.4677 136.108 42.962 135.894C43.4676 135.67 44.08 135.557 44.799 135.557C45.9001 135.557 46.7708 135.833 47.4112 136.383C48.0516 136.934 48.3718 137.731 48.3718 138.776V141.894C48.3718 142.231 48.5291 142.4 48.8437 142.4H49.5178V144.152H48.1022C47.6865 144.152 47.3438 144.051 47.0742 143.849C46.8045 143.647 46.6697 143.377 46.6697 143.04V143.023H46.3495C46.3045 143.158 46.2034 143.338 46.0461 143.562C45.8888 143.776 45.6417 143.967 45.3046 144.135C44.9675 144.304 44.5069 144.388 43.9227 144.388ZM44.2934 142.669C44.8889 142.669 45.372 142.506 45.7428 142.181C46.1248 141.843 46.3158 141.4 46.3158 140.849V140.681H44.1755C43.7822 140.681 43.4732 140.765 43.2485 140.933C43.0238 141.102 42.9115 141.338 42.9115 141.641C42.9115 141.945 43.0295 142.192 43.2654 142.383C43.5013 142.574 43.844 142.669 44.2934 142.669ZM49.9958 140.007V139.737C49.9958 138.861 50.1699 138.113 50.5182 137.495C50.8665 136.866 51.3272 136.389 51.9002 136.063C52.4844 135.726 53.1192 135.557 53.8046 135.557C54.5686 135.557 55.1472 135.692 55.5404 135.962C55.9336 136.231 56.2201 136.512 56.3999 136.804H56.7033V135.793H58.793V145.635C58.793 146.208 58.6245 146.663 58.2874 147C57.9504 147.349 57.501 147.523 56.9392 147.523H51.344V145.669H56.1977C56.5123 145.669 56.6696 145.501 56.6696 145.164V142.989H56.3662C56.2539 143.169 56.0966 143.355 55.8943 143.546C55.6921 143.725 55.4224 143.877 55.0854 144.001C54.7483 144.124 54.3214 144.186 53.8046 144.186C53.1192 144.186 52.4844 144.023 51.9002 143.697C51.3272 143.36 50.8665 142.883 50.5182 142.265C50.1699 141.636 49.9958 140.883 49.9958 140.007ZM54.4113 142.332C55.0629 142.332 55.6078 142.124 56.046 141.709C56.4842 141.293 56.7033 140.709 56.7033 139.956V139.787C56.7033 139.023 56.4842 138.439 56.046 138.035C55.6191 137.619 55.0741 137.411 54.4113 137.411C53.7596 137.411 53.2147 137.619 52.7765 138.035C52.3383 138.439 52.1193 139.023 52.1193 139.787V139.956C52.1193 140.709 52.3383 141.293 52.7765 141.709C53.2147 142.124 53.7596 142.332 54.4113 142.332ZM60.6417 144.152V135.793H62.7652V144.152H60.6417ZM61.7035 134.816C61.3215 134.816 60.9956 134.692 60.726 134.445C60.4676 134.198 60.3384 133.872 60.3384 133.468C60.3384 133.063 60.4676 132.737 60.726 132.49C60.9956 132.243 61.3215 132.119 61.7035 132.119C62.0967 132.119 62.4225 132.243 62.6809 132.49C62.9393 132.737 63.0686 133.063 63.0686 133.468C63.0686 133.872 62.9393 134.198 62.6809 134.445C62.4225 134.692 62.0967 134.816 61.7035 134.816ZM64.6127 144.152V135.793H66.7025V136.889H67.0058C67.1407 136.597 67.3934 136.321 67.7642 136.063C68.135 135.793 68.6967 135.658 69.4495 135.658C70.1012 135.658 70.6685 135.81 71.1517 136.113C71.646 136.406 72.028 136.816 72.2977 137.344C72.5673 137.861 72.7021 138.467 72.7021 139.164V144.152H70.5787V139.332C70.5787 138.703 70.4214 138.231 70.1068 137.917C69.8034 137.602 69.3652 137.445 68.7922 137.445C68.1406 137.445 67.635 137.664 67.2755 138.102C66.9159 138.529 66.7362 139.13 66.7362 139.905V144.152H64.6127ZM77.0875 144.388C76.492 144.388 75.9583 144.287 75.4864 144.085C75.0145 143.871 74.6382 143.568 74.3573 143.175C74.0876 142.77 73.9528 142.282 73.9528 141.709C73.9528 141.136 74.0876 140.658 74.3573 140.276C74.6382 139.883 75.0202 139.591 75.5033 139.4C75.9976 139.198 76.5594 139.096 77.1886 139.096H79.4806V138.625C79.4806 138.231 79.357 137.911 79.1098 137.664C78.8626 137.406 78.4694 137.276 77.9301 137.276C77.402 137.276 77.0088 137.4 76.7504 137.647C76.492 137.883 76.3235 138.192 76.2448 138.574L74.2899 137.917C74.4247 137.49 74.6382 137.102 74.9303 136.754C75.2336 136.394 75.6325 136.108 76.1268 135.894C76.6324 135.67 77.2448 135.557 77.9638 135.557C79.0649 135.557 79.9356 135.833 80.576 136.383C81.2164 136.934 81.5366 137.731 81.5366 138.776V141.894C81.5366 142.231 81.6939 142.4 82.0085 142.4H82.6826V144.152H81.267C80.8513 144.152 80.5086 144.051 80.239 143.849C79.9693 143.647 79.8345 143.377 79.8345 143.04V143.023H79.5143C79.4693 143.158 79.3682 143.338 79.2109 143.562C79.0536 143.776 78.8065 143.967 78.4694 144.135C78.1323 144.304 77.6717 144.388 77.0875 144.388ZM77.4582 142.669C78.0537 142.669 78.5368 142.506 78.9076 142.181C79.2896 141.843 79.4806 141.4 79.4806 140.849V140.681H77.3403C76.947 140.681 76.638 140.765 76.4133 140.933C76.1886 141.102 76.0763 141.338 76.0763 141.641C76.0763 141.945 76.1943 142.192 76.4302 142.383C76.6661 142.574 77.0088 142.669 77.4582 142.669ZM83.7296 144.152V135.793H85.8194V136.737H86.1228C86.2463 136.4 86.4486 136.153 86.7295 135.996C87.0216 135.838 87.3586 135.76 87.7406 135.76H88.7518V137.647H87.7069C87.1676 137.647 86.7238 137.793 86.3756 138.085C86.0273 138.366 85.8531 138.804 85.8531 139.4V144.152H83.7296ZM89.906 144.152V135.793H92.0295V144.152H89.906ZM90.9677 134.816C90.5857 134.816 90.2599 134.692 89.9903 134.445C89.7318 134.198 89.6026 133.872 89.6026 133.468C89.6026 133.063 89.7318 132.737 89.9903 132.49C90.2599 132.243 90.5857 132.119 90.9677 132.119C91.361 132.119 91.6868 132.243 91.9452 132.49C92.2036 132.737 92.3328 133.063 92.3328 133.468C92.3328 133.872 92.2036 134.198 91.9452 134.445C91.6868 134.692 91.361 134.816 90.9677 134.816ZM97.8543 144.388C97.0229 144.388 96.2757 144.22 95.6128 143.883C94.9499 143.546 94.4275 143.057 94.0455 142.416C93.6635 141.776 93.4725 141.006 93.4725 140.108V139.838C93.4725 138.939 93.6635 138.17 94.0455 137.529C94.4275 136.889 94.9499 136.4 95.6128 136.063C96.2757 135.726 97.0229 135.557 97.8543 135.557C98.6857 135.557 99.4328 135.726 100.096 136.063C100.759 136.4 101.281 136.889 101.663 137.529C102.045 138.17 102.236 138.939 102.236 139.838V140.108C102.236 141.006 102.045 141.776 101.663 142.416C101.281 143.057 100.759 143.546 100.096 143.883C99.4328 144.22 98.6857 144.388 97.8543 144.388ZM97.8543 142.501C98.5059 142.501 99.0452 142.293 99.4722 141.877C99.8991 141.45 100.113 140.844 100.113 140.057V139.889C100.113 139.102 99.8991 138.501 99.4722 138.085C99.0564 137.658 98.5172 137.445 97.8543 137.445C97.2026 137.445 96.6633 137.658 96.2364 138.085C95.8094 138.501 95.596 139.102 95.596 139.889V140.057C95.596 140.844 95.8094 141.45 96.2364 141.877C96.6633 142.293 97.2026 142.501 97.8543 142.501Z" fill="white"/>
<path d="M11.6345 46.6364C9.57652 46.6364 7.75495 46.2054 6.16977 45.3433C4.6124 44.4533 3.38875 43.2158 2.49883 41.6306C1.63671 40.0176 1.20565 38.1265 1.20565 35.9573V35.4567C1.20565 33.2876 1.63671 31.4104 2.49883 29.8252C3.36094 28.2122 4.57069 26.9746 6.12806 26.1125C7.68543 25.2226 9.49309 24.7776 11.551 24.7776C13.5812 24.7776 15.3471 25.2365 16.8489 26.1542C18.3506 27.0442 19.5187 28.2956 20.353 29.9086C21.1873 31.4938 21.6044 33.3432 21.6044 35.4567V37.2505H6.54521C6.60083 38.6688 7.12922 39.8229 8.13039 40.7129C9.13156 41.6028 10.3552 42.0478 11.8013 42.0478C13.2753 42.0478 14.3599 41.7279 15.0551 41.0883C15.7504 40.4487 16.2788 39.7395 16.6403 38.9608L20.937 41.2135C20.5476 41.9365 19.9775 42.7291 19.2267 43.5912C18.5036 44.4255 17.5302 45.1486 16.3066 45.7604C15.0829 46.3444 13.5256 46.6364 11.6345 46.6364ZM6.58692 33.3293H16.2649C16.1536 32.1334 15.6669 31.174 14.8048 30.4509C13.9705 29.7279 12.872 29.3663 11.5093 29.3663C10.091 29.3663 8.96469 29.7279 8.13039 30.4509C7.29608 31.174 6.7816 32.1334 6.58692 33.3293Z" fill="white"/>
<path d="M22.6858 46.0524L30.1945 35.6236L22.7692 25.3617H28.8596L33.5734 32.2447H34.3243L39.0381 25.3617H45.1286L37.7033 35.6236L45.212 46.0524H39.0381L34.3243 39.086H33.5734L28.8596 46.0524H22.6858Z" fill="white"/>
<path d="M56.7169 46.0524C55.3542 46.0524 54.2418 45.6353 53.3797 44.801C52.5454 43.9389 52.1283 42.7986 52.1283 41.3803V29.7H46.9556V25.3617H52.1283V18.9375H57.3844V25.3617H63.0577V29.7H57.3844V40.4626C57.3844 41.2969 57.7737 41.714 58.5524 41.714H63.0577V46.0524H56.7169Z" fill="white"/>
<path d="M67.0646 46.0524V25.3617H72.2373V27.6977H72.9882C73.2941 26.8634 73.7947 26.2516 74.4899 25.8622C75.213 25.4729 76.0473 25.2782 76.9929 25.2782H79.4958V29.9503H76.9094C75.5745 29.9503 74.476 30.3119 73.6139 31.0349C72.7518 31.7302 72.3207 32.8148 72.3207 34.2887V46.0524H67.0646Z" fill="white"/>
<path d="M89.1222 46.6364C87.6483 46.6364 86.3273 46.3862 85.1593 45.8856C83.9912 45.3572 83.0596 44.6063 82.3643 43.6329C81.6969 42.6318 81.3632 41.422 81.3632 40.0037C81.3632 38.5854 81.6969 37.4035 82.3643 36.4579C83.0596 35.4846 84.0051 34.7615 85.201 34.2887C86.4246 33.7881 87.8151 33.5378 89.3725 33.5378H95.0458V32.3698C95.0458 31.3965 94.7399 30.6039 94.1281 29.992C93.5162 29.3524 92.5429 29.0326 91.208 29.0326C89.9009 29.0326 88.9275 29.3385 88.2879 29.9503C87.6483 30.5343 87.2311 31.2991 87.0365 32.2447L82.1975 30.6178C82.5312 29.561 83.0596 28.6015 83.7827 27.7394C84.5335 26.8495 85.5208 26.1403 86.7444 25.6119C87.9959 25.0557 89.5116 24.7776 91.2914 24.7776C94.0168 24.7776 96.1721 25.459 97.7573 26.8217C99.3425 28.1844 100.135 30.1589 100.135 32.7453V40.4626C100.135 41.2969 100.524 41.714 101.303 41.714H102.972V46.0524H99.4676C98.4386 46.0524 97.5904 45.8021 96.923 45.3016C96.2555 44.801 95.9218 44.1335 95.9218 43.2992V43.2575H95.1292C95.018 43.5912 94.7677 44.0362 94.3783 44.5924C93.989 45.1208 93.3772 45.5936 92.5429 46.0107C91.7086 46.4279 90.5684 46.6364 89.1222 46.6364ZM90.04 42.3815C91.5139 42.3815 92.7097 41.9782 93.6275 41.1717C94.573 40.3374 95.0458 39.2389 95.0458 37.8762V37.4591H89.7479C88.7746 37.4591 88.0098 37.6677 87.4536 38.0848C86.8974 38.502 86.6193 39.086 86.6193 39.8369C86.6193 40.5877 86.9113 41.1996 87.4953 41.6723C88.0793 42.1451 88.9275 42.3815 90.04 42.3815Z" fill="white"/>
<path d="M10.9292 77.5057C8.87127 77.5057 7.02189 77.0886 5.38109 76.2543C3.74029 75.42 2.44712 74.2102 1.50157 72.6251C0.556025 71.0399 0.083252 69.1349 0.083252 66.9101V66.2426C0.083252 64.0178 0.556025 62.1128 1.50157 60.5276C2.44712 58.9424 3.74029 57.7327 5.38109 56.8984C7.02189 56.0641 8.87127 55.6469 10.9292 55.6469C12.9872 55.6469 14.8366 56.0641 16.4774 56.8984C18.1182 57.7327 19.4113 58.9424 20.3569 60.5276C21.3024 62.1128 21.7752 64.0178 21.7752 66.2426V66.9101C21.7752 69.1349 21.3024 71.0399 20.3569 72.6251C19.4113 74.2102 18.1182 75.42 16.4774 76.2543C14.8366 77.0886 12.9872 77.5057 10.9292 77.5057ZM10.9292 72.8336C12.5422 72.8336 13.8771 72.3191 14.9339 71.2902C15.9907 70.2334 16.5191 68.7316 16.5191 66.7849V66.3678C16.5191 64.4211 15.9907 62.9332 14.9339 61.9042C13.9049 60.8474 12.57 60.319 10.9292 60.319C9.31623 60.319 7.98134 60.8474 6.92456 61.9042C5.86777 62.9332 5.33938 64.4211 5.33938 66.3678V66.7849C5.33938 68.7316 5.86777 70.2334 6.92456 71.2902C7.98134 72.3191 9.31623 72.8336 10.9292 72.8336Z" fill="white"/>
<path d="M26.9189 76.9217V56.231H32.0916V58.567H32.8424C33.1484 57.7327 33.6489 57.1209 34.3442 56.7315C35.0673 56.3422 35.9016 56.1475 36.8471 56.1475H39.35V60.8196H36.7637C35.4288 60.8196 34.3303 61.1812 33.4682 61.9042C32.6061 62.5995 32.175 63.6841 32.175 65.158V76.9217H26.9189Z" fill="white"/>
<path d="M50.6927 77.5057C49.0519 77.5057 47.5084 77.1025 46.0623 76.296C44.644 75.4617 43.5037 74.2519 42.6416 72.6668C41.7795 71.0816 41.3485 69.1627 41.3485 66.9101V66.2426C41.3485 63.99 41.7795 62.0711 42.6416 60.4859C43.5037 58.9007 44.644 57.7049 46.0623 56.8984C47.4806 56.0641 49.0241 55.6469 50.6927 55.6469C51.9441 55.6469 52.987 55.7999 53.8213 56.1058C54.6834 56.3839 55.3787 56.7454 55.9071 57.1904C56.4355 57.6354 56.8387 58.1081 57.1168 58.6087H57.8677V50.0571H63.1238V76.9217H57.9511V74.4188H57.2003C56.7275 75.1975 55.9905 75.9067 54.9893 76.5463C54.016 77.1859 52.5838 77.5057 50.6927 77.5057ZM52.2779 72.9171C53.8908 72.9171 55.2396 72.4026 56.3242 71.3736C57.4088 70.3168 57.9511 68.7873 57.9511 66.7849V66.3678C57.9511 64.3654 57.4088 62.8498 56.3242 61.8208C55.2674 60.764 53.9187 60.2356 52.2779 60.2356C50.6649 60.2356 49.3161 60.764 48.2315 61.8208C47.1469 62.8498 46.6046 64.3654 46.6046 66.3678V66.7849C46.6046 68.7873 47.1469 70.3168 48.2315 71.3736C49.3161 72.4026 50.6649 72.9171 52.2779 72.9171Z" fill="white"/>
<path d="M70.2444 76.9217V56.231H75.5005V76.9217H70.2444Z" fill="white"/>
<path d="M1.08442 105.789V85.0979H6.25711V87.8094H7.00799C7.34171 87.0863 7.96744 86.405 8.88517 85.7654C9.80291 85.0979 11.1934 84.7642 13.0567 84.7642C14.6697 84.7642 16.0741 85.1396 17.2699 85.8905C18.4936 86.6136 19.4391 87.6286 20.1066 88.9357C20.774 90.215 21.1077 91.7167 21.1077 93.441V105.789H15.8516V93.8581C15.8516 92.3008 15.4623 91.1327 14.6836 90.354C13.9327 89.5754 12.8481 89.186 11.4298 89.186C9.81682 89.186 8.56536 89.7283 7.67543 90.8129C6.78551 91.8697 6.34054 93.3575 6.34054 95.2765V105.789H1.08442Z" fill="white"/>
<path d="M34.1734 106.373C32.6995 106.373 31.3785 106.122 30.2105 105.622C29.0424 105.093 28.1108 104.343 27.4156 103.369C26.7481 102.368 26.4144 101.158 26.4144 99.74C26.4144 98.3217 26.7481 97.1397 27.4156 96.1942C28.1108 95.2208 29.0564 94.4978 30.2522 94.025C31.4758 93.5244 32.8663 93.2741 34.4237 93.2741H40.097V92.1061C40.097 91.1327 39.7911 90.3401 39.1793 89.7283C38.5674 89.0887 37.5941 88.7689 36.2592 88.7689C34.9521 88.7689 33.9788 89.0748 33.3391 89.6866C32.6995 90.2706 32.2823 91.0354 32.0877 91.9809L27.2487 90.354C27.5824 89.2973 28.1108 88.3378 28.8339 87.4757C29.5847 86.5858 30.572 85.8766 31.7957 85.3482C33.0471 84.792 34.5628 84.5139 36.3426 84.5139C39.068 84.5139 41.2233 85.1953 42.8085 86.558C44.3937 87.9207 45.1863 89.8952 45.1863 92.4815V100.199C45.1863 101.033 45.5756 101.45 46.3543 101.45H48.0229V105.789H44.5188C43.4898 105.789 42.6416 105.538 41.9742 105.038C41.3067 104.537 40.973 103.87 40.973 103.035V102.994H40.1804C40.0692 103.327 39.8189 103.772 39.4296 104.329C39.0402 104.857 38.4284 105.33 37.5941 105.747C36.7598 106.164 35.6196 106.373 34.1734 106.373ZM35.0912 102.118C36.5651 102.118 37.7609 101.715 38.6787 100.908C39.6242 100.074 40.097 98.9752 40.097 97.6125V97.1954H34.7992C33.8258 97.1954 33.061 97.4039 32.5048 97.8211C31.9486 98.2382 31.6705 98.8222 31.6705 99.5731C31.6705 100.324 31.9625 100.936 32.5465 101.409C33.1305 101.881 33.9788 102.118 35.0912 102.118Z" fill="white"/>
<path d="M52.8254 105.789V85.0979H57.9981V87.434H58.7489C59.0548 86.5997 59.5554 85.9878 60.2507 85.5985C60.9738 85.2092 61.8081 85.0145 62.7536 85.0145H65.2565V89.6866H62.6702C61.3353 89.6866 60.2368 90.0481 59.3747 90.7712C58.5126 91.4665 58.0815 92.551 58.0815 94.025V105.789H52.8254Z" fill="white"/>
<path d="M70.3243 105.789V85.0979H75.5804V105.789H70.3243Z" fill="white"/>
<path d="M92.2091 106.373C90.1512 106.373 88.3018 105.956 86.661 105.121C85.0202 104.287 83.727 103.077 82.7815 101.492C81.836 99.9068 81.3632 98.0018 81.3632 95.777V95.1096C81.3632 92.8848 81.836 90.9798 82.7815 89.3946C83.727 87.8094 85.0202 86.5997 86.661 85.7654C88.3018 84.9311 90.1512 84.5139 92.2091 84.5139C94.2671 84.5139 96.1165 84.9311 97.7573 85.7654C99.3981 86.5997 100.691 87.8094 101.637 89.3946C102.582 90.9798 103.055 92.8848 103.055 95.1096V95.777C103.055 98.0018 102.582 99.9068 101.637 101.492C100.691 103.077 99.3981 104.287 97.7573 105.121C96.1165 105.956 94.2671 106.373 92.2091 106.373ZM92.2091 101.701C93.8221 101.701 95.157 101.186 96.2138 100.157C97.2706 99.1003 97.799 97.5986 97.799 95.6519V95.2347C97.799 93.288 97.2706 91.8002 96.2138 90.7712C95.1848 89.7144 93.8499 89.186 92.2091 89.186C90.5962 89.186 89.2613 89.7144 88.2045 90.7712C87.1477 91.8002 86.6193 93.288 86.6193 95.2347V95.6519C86.6193 97.5986 87.1477 99.1003 88.2045 100.157C89.2613 101.186 90.5962 101.701 92.2091 101.701Z" fill="white"/>
<defs>
<filter id="filter0_dddddd_5574_14395" x="26.0828" y="0.384289" width="131.548" height="132.05" filterUnits="userSpaceOnUse" color-interpolation-filters="sRGB">
<feFlood flood-opacity="0" result="BackgroundImageFix"/>
<feColorMatrix in="SourceAlpha" type="matrix" values="0 0 0 0 0 0 0 0 0 0 0 0 0 0 0 0 0 0 127 0" result="hardAlpha"/>
<feOffset/>
<feGaussianBlur stdDeviation="0.660859"/>
<feColorMatrix type="matrix" values="0 0 0 0 0.796078 0 0 0 0 0.886275 0 0 0 0 1 0 0 0 1 0"/>
<feBlend mode="normal" in2="BackgroundImageFix" result="effect1_dropShadow_5574_14395"/>
<feColorMatrix in="SourceAlpha" type="matrix" values="0 0 0 0 0 0 0 0 0 0 0 0 0 0 0 0 0 0 127 0" result="hardAlpha"/>
<feOffset/>
<feGaussianBlur stdDeviation="1.32172"/>
<feColorMatrix type="matrix" values="0 0 0 0 0.796078 0 0 0 0 0.886275 0 0 0 0 1 0 0 0 1 0"/>
<feBlend mode="normal" in2="effect1_dropShadow_5574_14395" result="effect2_dropShadow_5574_14395"/>
<feColorMatrix in="SourceAlpha" type="matrix" values="0 0 0 0 0 0 0 0 0 0 0 0 0 0 0 0 0 0 127 0" result="hardAlpha"/>
<feOffset/>
<feGaussianBlur stdDeviation="4.62602"/>
<feColorMatrix type="matrix" values="0 0 0 0 0.796078 0 0 0 0 0.886275 0 0 0 0 1 0 0 0 1 0"/>
<feBlend mode="normal" in2="effect2_dropShadow_5574_14395" result="effect3_dropShadow_5574_14395"/>
<feColorMatrix in="SourceAlpha" type="matrix" values="0 0 0 0 0 0 0 0 0 0 0 0 0 0 0 0 0 0 127 0" result="hardAlpha"/>
<feOffset/>
<feGaussianBlur stdDeviation="9.25203"/>
<feColorMatrix type="matrix" values="0 0 0 0 0.796078 0 0 0 0 0.886275 0 0 0 0 1 0 0 0 1 0"/>
<feBlend mode="normal" in2="effect3_dropShadow_5574_14395" result="effect4_dropShadow_5574_14395"/>
<feColorMatrix in="SourceAlpha" type="matrix" values="0 0 0 0 0 0 0 0 0 0 0 0 0 0 0 0 0 0 127 0" result="hardAlpha"/>
<feOffset/>
<feGaussianBlur stdDeviation="15.8606"/>
<feColorMatrix type="matrix" values="0 0 0 0 0.796078 0 0 0 0 0.886275 0 0 0 0 1 0 0 0 1 0"/>
<feBlend mode="normal" in2="effect4_dropShadow_5574_14395" result="effect5_dropShadow_5574_14395"/>
<feColorMatrix in="SourceAlpha" type="matrix" values="0 0 0 0 0 0 0 0 0 0 0 0 0 0 0 0 0 0 127 0" result="hardAlpha"/>
<feOffset/>
<feGaussianBlur stdDeviation="27.7561"/>
<feColorMatrix type="matrix" values="0 0 0 0 0.796078 0 0 0 0 0.886275 0 0 0 0 1 0 0 0 1 0"/>
<feBlend mode="normal" in2="effect5_dropShadow_5574_14395" result="effect6_dropShadow_5574_14395"/>
<feBlend mode="normal" in="SourceGraphic" in2="effect6_dropShadow_5574_14395" result="shape"/>
</filter>
<linearGradient id="paint0_linear_5574_14395" x1="93.4538" y1="72.3562" x2="141.617" y2="30.0836" gradientUnits="userSpaceOnUse">
<stop stop-color="#D7F5FF"/>
<stop offset="0.630208" stop-color="#3870FF" stop-opacity="0.015625"/>
<stop offset="1" stop-color="#356EFF" stop-opacity="0"/>
</linearGradient>
<radialGradient id="paint1_diamond_5574_14395" cx="0" cy="0" r="1" gradientUnits="userSpaceOnUse" gradientTransform="translate(88.0087 72.9798) rotate(-65.4117) scale(23.1211 22.7635)">
<stop stop-color="#E9F2FF"/>
<stop offset="1" stop-color="#BCDBFF"/>
</radialGradient>
</defs>
</svg>
