<svg width="1840" height="792" viewBox="0 0 1840 792" fill="none" xmlns="http://www.w3.org/2000/svg">
<path d="M857 72.1262L568.762 443.272L504.161 378.146L792.399 6.99996L857 72.1262Z" fill="url(#paint0_linear_5356_14574)"/>
<g filter="url(#filter0_dddddd_5356_14574)">
<path fill-rule="evenodd" clip-rule="evenodd" d="M550.187 459.14C541.37 458.804 533.362 454.503 525.457 450.614C517.756 446.825 510.289 442.62 504.257 436.544C498.1 430.342 492.358 423.309 490.02 414.92C487.706 406.615 489.884 397.907 491.112 389.377C492.308 381.06 493.04 372.516 497.177 365.184C501.332 357.821 508.214 352.584 514.852 347.306C521.698 341.864 528.315 335.34 536.911 333.595C545.498 331.853 554.017 335.858 562.601 337.617C571.223 339.385 580.623 339.146 587.907 344.05C595.227 348.978 599.482 357.202 603.387 365.075C607.159 372.681 609.098 380.878 610.331 389.265C611.595 397.863 613.148 406.691 610.73 415.042C608.291 423.469 602.539 430.482 596.537 436.92C590.576 443.314 583.683 448.743 575.778 452.533C567.754 456.38 559.092 459.48 550.187 459.14Z" fill="url(#paint1_diamond_5356_14574)"/>
</g>
<path d="M873.372 645.608C864.857 645.608 858.025 643.273 852.875 638.604C847.725 633.866 845.15 626.724 845.15 617.18V599.052C845.15 589.782 847.725 582.743 852.875 577.937C858.025 573.061 864.857 570.624 873.372 570.624C881.955 570.624 888.788 573.061 893.869 577.937C899.019 582.743 901.594 589.782 901.594 599.052V617.18C901.594 626.724 899.019 633.866 893.869 638.604C888.788 643.273 881.955 645.608 873.372 645.608ZM873.372 633.866C878.522 633.866 882.299 632.458 884.702 629.643C887.174 626.827 888.41 622.81 888.41 617.592V598.434C888.41 593.146 887.037 589.164 884.29 586.486C881.612 583.739 877.973 582.366 873.372 582.366C868.634 582.366 864.926 583.773 862.248 586.589C859.639 589.404 858.334 593.352 858.334 598.434V617.592C858.334 623.016 859.57 627.102 862.042 629.849C864.583 632.527 868.359 633.866 873.372 633.866ZM940.264 645.608C934.771 645.608 929.998 644.578 925.947 642.518C921.896 640.458 918.771 637.608 916.574 633.969C914.377 630.329 913.278 626.141 913.278 621.403V596.786C913.278 590.949 914.445 586.108 916.78 582.263C919.183 578.349 922.445 575.43 926.565 573.508C930.754 571.585 935.526 570.624 940.882 570.624C946.238 570.624 950.873 571.516 954.787 573.302C958.77 575.087 961.825 577.662 963.954 581.027C966.151 584.391 967.25 588.408 967.25 593.078H953.86C953.86 590.194 952.864 587.687 950.873 585.559C948.882 583.43 945.551 582.366 940.882 582.366C936.281 582.366 932.711 583.567 930.17 585.971C927.698 588.374 926.462 591.704 926.462 595.962V603.378H928.316C929.483 602.004 931.269 600.7 933.672 599.464C936.075 598.228 939.577 597.61 944.178 597.61C948.367 597.61 952.212 598.502 955.714 600.288C959.285 602.073 962.169 604.682 964.366 608.116C966.563 611.48 967.662 615.566 967.662 620.373V621.609C967.662 626.347 966.529 630.535 964.263 634.175C961.997 637.745 958.804 640.561 954.684 642.621C950.564 644.612 945.757 645.608 940.264 645.608ZM940.47 633.866C944.796 633.866 948.195 632.733 950.667 630.467C953.208 628.201 954.478 625.179 954.478 621.403V620.579C954.478 618.038 953.894 615.841 952.727 613.987C951.628 612.133 950.015 610.691 947.886 609.661C945.826 608.631 943.354 608.116 940.47 608.116C937.655 608.116 935.183 608.631 933.054 609.661C930.925 610.691 929.277 612.133 928.11 613.987C927.011 615.841 926.462 618.038 926.462 620.579V621.403C926.462 625.179 927.698 628.201 930.17 630.467C932.711 632.733 936.144 633.866 940.47 633.866ZM988.284 645.608C985.537 645.608 983.202 644.715 981.28 642.93C979.426 641.076 978.499 638.707 978.499 635.823C978.499 632.939 979.426 630.604 981.28 628.819C983.202 626.965 985.537 626.038 988.284 626.038C991.099 626.038 993.434 626.965 995.288 628.819C997.142 630.604 998.069 632.939 998.069 635.823C998.069 638.707 997.142 641.076 995.288 642.93C993.434 644.715 991.099 645.608 988.284 645.608ZM1037.12 645.608C1028.6 645.608 1021.77 643.273 1016.62 638.604C1011.47 633.866 1008.9 626.724 1008.9 617.18V599.052C1008.9 589.782 1011.47 582.743 1016.62 577.937C1021.77 573.061 1028.6 570.624 1037.12 570.624C1045.7 570.624 1052.54 573.061 1057.62 577.937C1062.77 582.743 1065.34 589.782 1065.34 599.052V617.18C1065.34 626.724 1062.77 633.866 1057.62 638.604C1052.54 643.273 1045.7 645.608 1037.12 645.608ZM1037.12 633.866C1042.27 633.866 1046.05 632.458 1048.45 629.643C1050.92 626.827 1052.16 622.81 1052.16 617.592V598.434C1052.16 593.146 1050.78 589.164 1048.04 586.486C1045.36 583.739 1041.72 582.366 1037.12 582.366C1032.38 582.366 1028.67 583.773 1026 586.589C1023.39 589.404 1022.08 593.352 1022.08 598.434V617.592C1022.08 623.016 1023.32 627.102 1025.79 629.849C1028.33 632.527 1032.11 633.866 1037.12 633.866ZM1103.08 645.608C1097.45 645.608 1092.58 644.612 1088.46 642.621C1084.41 640.629 1081.28 637.814 1079.09 634.175C1076.89 630.535 1075.79 626.312 1075.79 621.506V620.476H1089.18V621.403C1089.18 624.836 1090.31 627.789 1092.58 630.261C1094.91 632.664 1098.35 633.866 1102.88 633.866C1107.41 633.866 1110.88 632.664 1113.28 630.261C1115.75 627.789 1116.99 624.596 1116.99 620.682V619.652C1116.99 615.806 1115.75 612.751 1113.28 610.485C1110.88 608.219 1107.86 607.086 1104.22 607.086C1102.23 607.086 1100.58 607.36 1099.27 607.91C1097.97 608.459 1096.9 609.146 1096.08 609.97C1095.26 610.794 1094.57 611.618 1094.02 612.442H1078.06V572.066H1127.29V584.014H1091.24V601.627H1093.09C1093.78 600.734 1094.71 599.876 1095.87 599.052C1097.04 598.228 1098.55 597.541 1100.41 596.992C1102.26 596.442 1104.46 596.168 1107 596.168C1111.26 596.168 1115.14 597.06 1118.64 598.846C1122.14 600.631 1124.92 603.275 1126.98 606.777C1129.11 610.21 1130.17 614.467 1130.17 619.549V620.785C1130.17 625.866 1129.07 630.261 1126.88 633.969C1124.75 637.677 1121.66 640.561 1117.61 642.621C1113.56 644.612 1108.72 645.608 1103.08 645.608ZM1150.32 645.608C1147.57 645.608 1145.24 644.715 1143.32 642.93C1141.46 641.076 1140.54 638.707 1140.54 635.823C1140.54 632.939 1141.46 630.604 1143.32 628.819C1145.24 626.965 1147.57 626.038 1150.32 626.038C1153.14 626.038 1155.47 626.965 1157.33 628.819C1159.18 630.604 1160.11 632.939 1160.11 635.823C1160.11 638.707 1159.18 641.076 1157.33 642.93C1155.47 644.715 1153.14 645.608 1150.32 645.608ZM1171.32 644.166V635.514C1171.32 630.501 1172.14 626.347 1173.79 623.051C1175.44 619.686 1177.81 616.939 1180.9 614.811C1184.06 612.613 1187.9 610.828 1192.43 609.455L1199.33 607.292C1201.87 606.468 1204 605.472 1205.72 604.305C1207.44 603.069 1208.74 601.592 1209.63 599.876C1210.6 598.159 1211.08 596.202 1211.08 594.005V593.593C1211.08 590.159 1209.91 587.447 1207.57 585.456C1205.24 583.396 1202.05 582.366 1198 582.366C1194.01 582.366 1190.79 583.464 1188.31 585.662C1185.91 587.79 1184.71 590.88 1184.71 594.932V596.786H1171.52V595.138C1171.52 589.919 1172.69 585.49 1175.03 581.851C1177.36 578.211 1180.52 575.43 1184.5 573.508C1188.55 571.585 1193.05 570.624 1198 570.624C1202.94 570.624 1207.4 571.585 1211.39 573.508C1215.37 575.362 1218.49 578.005 1220.76 581.439C1223.09 584.803 1224.26 588.786 1224.26 593.387V594.417C1224.26 599.017 1223.3 602.931 1221.38 606.159C1219.52 609.317 1216.98 611.927 1213.75 613.987C1210.53 615.978 1206.85 617.626 1202.73 618.931L1196.14 620.991C1193.19 621.883 1190.89 622.879 1189.24 623.978C1187.59 625.008 1186.42 626.175 1185.74 627.48C1185.12 628.716 1184.81 630.226 1184.81 632.012V632.424H1223.64V644.166H1171.32ZM1262.86 645.608C1254.34 645.608 1247.51 643.273 1242.36 638.604C1237.21 633.866 1234.64 626.724 1234.64 617.18V599.052C1234.64 589.782 1237.21 582.743 1242.36 577.937C1247.51 573.061 1254.34 570.624 1262.86 570.624C1271.44 570.624 1278.27 573.061 1283.36 577.937C1288.51 582.743 1291.08 589.782 1291.08 599.052V617.18C1291.08 626.724 1288.51 633.866 1283.36 638.604C1278.27 643.273 1271.44 645.608 1262.86 645.608ZM1262.86 633.866C1268.01 633.866 1271.79 632.458 1274.19 629.643C1276.66 626.827 1277.9 622.81 1277.9 617.592V598.434C1277.9 593.146 1276.52 589.164 1273.78 586.486C1271.1 583.739 1267.46 582.366 1262.86 582.366C1258.12 582.366 1254.41 583.773 1251.74 586.589C1249.13 589.404 1247.82 593.352 1247.82 598.434V617.592C1247.82 623.016 1249.06 627.102 1251.53 629.849C1254.07 632.527 1257.85 633.866 1262.86 633.866ZM1301.94 644.166V635.514C1301.94 630.501 1302.77 626.347 1304.41 623.051C1306.06 619.686 1308.43 616.939 1311.52 614.811C1314.68 612.613 1318.52 610.828 1323.06 609.455L1329.96 607.292C1332.5 606.468 1334.63 605.472 1336.34 604.305C1338.06 603.069 1339.36 601.592 1340.26 599.876C1341.22 598.159 1341.7 596.202 1341.7 594.005V593.593C1341.7 590.159 1340.53 587.447 1338.2 585.456C1335.86 583.396 1332.67 582.366 1328.62 582.366C1324.64 582.366 1321.41 583.464 1318.94 585.662C1316.53 587.79 1315.33 590.88 1315.33 594.932V596.786H1302.15V595.138C1302.15 589.919 1303.31 585.49 1305.65 581.851C1307.98 578.211 1311.14 575.43 1315.13 573.508C1319.18 571.585 1323.67 570.624 1328.62 570.624C1333.56 570.624 1338.03 571.585 1342.01 573.508C1345.99 575.362 1349.12 578.005 1351.38 581.439C1353.72 584.803 1354.88 588.786 1354.88 593.387V594.417C1354.88 599.017 1353.92 602.931 1352 606.159C1350.15 609.317 1347.6 611.927 1344.38 613.987C1341.15 615.978 1337.48 617.626 1333.36 618.931L1326.76 620.991C1323.81 621.883 1321.51 622.879 1319.86 623.978C1318.22 625.008 1317.05 626.175 1316.36 627.48C1315.74 628.716 1315.43 630.226 1315.43 632.012V632.424H1354.27V644.166H1301.94ZM1391.42 645.608C1386 645.608 1381.19 644.646 1377 642.724C1372.81 640.801 1369.52 638.054 1367.11 634.484C1364.78 630.844 1363.61 626.553 1363.61 621.609V619.755H1376.8V621.197C1376.8 625.042 1378.14 628.132 1380.81 630.467C1383.49 632.733 1387.03 633.866 1391.42 633.866C1395.89 633.866 1399.32 632.801 1401.72 630.673C1404.19 628.544 1405.43 625.866 1405.43 622.639V621.609C1405.43 619.411 1404.88 617.626 1403.78 616.253C1402.68 614.879 1401.21 613.884 1399.35 613.266C1397.5 612.579 1395.41 612.236 1393.07 612.236H1378.65V597.816L1401.93 585.456V583.808H1365.47V572.066H1416.55V589.576L1394.82 601.112V602.76H1398.63C1401.86 602.76 1404.98 603.412 1408.01 604.717C1411.1 606.021 1413.64 608.047 1415.63 610.794C1417.62 613.472 1418.61 616.974 1418.61 621.3V622.536C1418.61 627.205 1417.48 631.291 1415.22 634.793C1412.95 638.226 1409.76 640.904 1405.64 642.827C1401.59 644.681 1396.85 645.608 1391.42 645.608Z" fill="white"/>
<path d="M889.628 251.417C881.501 251.417 874.198 249.77 867.719 246.475C861.239 243.181 856.133 238.404 852.399 232.144C848.665 225.884 846.798 218.361 846.798 209.576V206.94C846.798 198.154 848.665 190.632 852.399 184.372C856.133 178.112 861.239 173.335 867.719 170.04C874.198 166.746 881.501 165.098 889.628 165.098C897.755 165.098 905.058 166.746 911.537 170.04C918.016 173.335 923.123 178.112 926.857 184.372C930.591 190.632 932.458 198.154 932.458 206.94V209.576C932.458 218.361 930.591 225.884 926.857 232.144C923.123 238.404 918.016 243.181 911.537 246.475C905.058 249.77 897.755 251.417 889.628 251.417ZM889.628 232.967C895.997 232.967 901.269 230.936 905.442 226.872C909.615 222.699 911.702 216.769 911.702 209.081V207.434C911.702 199.747 909.615 193.871 905.442 189.808C901.379 185.635 896.107 183.548 889.628 183.548C883.258 183.548 877.987 185.635 873.814 189.808C869.641 193.871 867.554 199.747 867.554 207.434V209.081C867.554 216.769 869.641 222.699 873.814 226.872C877.987 230.936 883.258 232.967 889.628 232.967Z" fill="white"/>
<path d="M946.675 249.111V126.066H967.431V249.111H946.675Z" fill="white"/>
<path d="M1016.79 249.111C1011.41 249.111 1007.01 247.464 1003.61 244.169C1000.32 240.765 998.668 236.262 998.668 230.661V184.537H978.241V167.405H998.668V142.036H1019.42V167.405H1041.83V184.537H1019.42V227.037C1019.42 230.332 1020.96 231.979 1024.04 231.979H1039.85V249.111H1016.79Z" fill="white"/>
<path d="M1055.67 249.111V167.405H1076.1V176.629H1079.07C1080.27 173.335 1082.25 170.919 1085 169.381C1087.85 167.844 1091.15 167.075 1094.88 167.075H1104.76V185.525H1094.55C1089.28 185.525 1084.94 186.953 1081.54 189.808C1078.13 192.553 1076.43 196.836 1076.43 202.657V249.111H1055.67Z" fill="white"/>
<path d="M1150.38 251.417C1142.25 251.417 1135.06 249.715 1128.8 246.311C1122.65 242.796 1117.82 237.909 1114.3 231.65C1110.9 225.28 1109.2 217.812 1109.2 209.246V207.269C1109.2 198.703 1110.9 191.291 1114.3 185.031C1117.71 178.661 1122.48 173.774 1128.63 170.37C1134.78 166.855 1141.92 165.098 1150.05 165.098C1158.07 165.098 1165.04 166.91 1170.97 170.534C1176.9 174.049 1181.51 178.991 1184.81 185.36C1188.1 191.62 1189.75 198.923 1189.75 207.269V214.353H1130.28C1130.5 219.954 1132.59 224.511 1136.54 228.025C1140.49 231.54 1145.33 233.297 1151.04 233.297C1156.86 233.297 1161.14 232.034 1163.89 229.508C1166.63 226.982 1168.72 224.182 1170.15 221.107L1187.11 230.002C1185.58 232.858 1183.32 235.987 1180.36 239.392C1177.5 242.687 1173.66 245.542 1168.83 247.958C1164 250.264 1157.85 251.417 1150.38 251.417ZM1130.45 198.868H1168.66C1168.22 194.146 1166.3 190.357 1162.9 187.502C1159.6 184.646 1155.27 183.219 1149.88 183.219C1144.28 183.219 1139.84 184.646 1136.54 187.502C1133.25 190.357 1131.21 194.146 1130.45 198.868Z" fill="white"/>
<path d="M848.1 411.054V287.688H868.856V411.054H848.1Z" fill="white"/>
<path d="M933.799 411.054V329.347H954.555V411.054H933.799ZM944.177 319.793C940.443 319.793 937.258 318.585 934.623 316.169C932.097 313.753 930.834 310.568 930.834 306.615C930.834 302.661 932.097 299.476 934.623 297.06C937.258 294.644 940.443 293.436 944.177 293.436C948.021 293.436 951.206 294.644 953.732 297.06C956.257 299.476 957.52 302.661 957.52 306.615C957.52 310.568 956.257 313.753 953.732 316.169C951.206 318.585 948.021 319.793 944.177 319.793Z" fill="white"/>
<path d="M972.614 411.054V329.347H993.04V338.243H996.006C997.433 335.497 999.794 333.136 1003.09 331.159C1006.38 329.073 1010.72 328.03 1016.1 328.03C1021.92 328.03 1026.59 329.183 1030.1 331.489C1033.62 333.685 1036.31 336.596 1038.18 340.22H1041.14C1043.01 336.705 1045.64 333.795 1049.05 331.489C1052.45 329.183 1057.29 328.03 1063.55 328.03C1068.6 328.03 1073.15 329.128 1077.22 331.324C1081.39 333.411 1084.69 336.65 1087.1 341.043C1089.63 345.326 1090.89 350.762 1090.89 357.352V411.054H1070.13V358.834C1070.13 354.332 1068.98 350.982 1066.68 348.786C1064.37 346.479 1061.13 345.326 1056.96 345.326C1052.23 345.326 1048.55 346.864 1045.92 349.939C1043.39 352.904 1042.13 357.187 1042.13 362.788V411.054H1021.37V358.834C1021.37 354.332 1020.22 350.982 1017.91 348.786C1015.61 346.479 1012.37 345.326 1008.2 345.326C1003.47 345.326 999.794 346.864 997.159 349.939C994.633 352.904 993.37 357.187 993.37 362.788V411.054H972.614Z" fill="white"/>
<path d="M1108.27 411.054V329.347H1128.7V338.243H1131.66C1133.09 335.497 1135.45 333.136 1138.75 331.159C1142.04 329.073 1146.38 328.03 1151.76 328.03C1157.58 328.03 1162.25 329.183 1165.76 331.489C1169.28 333.685 1171.97 336.596 1173.83 340.22H1176.8C1178.67 336.705 1181.3 333.795 1184.71 331.489C1188.11 329.183 1192.94 328.03 1199.2 328.03C1204.26 328.03 1208.81 329.128 1212.88 331.324C1217.05 333.411 1220.34 336.65 1222.76 341.043C1225.29 345.326 1226.55 350.762 1226.55 357.352V411.054H1205.79V358.834C1205.79 354.332 1204.64 350.982 1202.33 348.786C1200.03 346.479 1196.79 345.326 1192.61 345.326C1187.89 345.326 1184.21 346.864 1181.58 349.939C1179.05 352.904 1177.79 357.187 1177.79 362.788V411.054H1157.03V358.834C1157.03 354.332 1155.88 350.982 1153.57 348.786C1151.27 346.479 1148.03 345.326 1143.85 345.326C1139.13 345.326 1135.45 346.864 1132.82 349.939C1130.29 352.904 1129.03 357.187 1129.03 362.788V411.054H1108.27Z" fill="white"/>
<path d="M1269.3 413.36C1263.48 413.36 1258.26 412.372 1253.65 410.395C1249.04 408.308 1245.36 405.343 1242.61 401.499C1239.98 397.546 1238.66 392.769 1238.66 387.168C1238.66 381.567 1239.98 376.9 1242.61 373.166C1245.36 369.322 1249.09 366.467 1253.81 364.6C1258.65 362.623 1264.14 361.635 1270.29 361.635H1292.69V357.022C1292.69 353.178 1291.48 350.049 1289.07 347.633C1286.65 345.107 1282.81 343.844 1277.54 343.844C1272.37 343.844 1268.53 345.052 1266 347.468C1263.48 349.774 1261.83 352.794 1261.06 356.528L1241.95 350.104C1243.27 345.93 1245.36 342.142 1248.21 338.737C1251.18 335.223 1255.08 332.422 1259.91 330.336C1264.85 328.139 1270.84 327.041 1277.86 327.041C1288.63 327.041 1297.14 329.732 1303.4 335.113C1309.66 340.494 1312.79 348.291 1312.79 358.505V388.98C1312.79 392.275 1314.33 393.922 1317.4 393.922H1323.99V411.054H1310.15C1306.09 411.054 1302.74 410.065 1300.1 408.089C1297.47 406.112 1296.15 403.476 1296.15 400.182V400.017H1293.02C1292.58 401.335 1291.59 403.092 1290.06 405.288C1288.52 407.375 1286.1 409.242 1282.81 410.889C1279.51 412.536 1275.01 413.36 1269.3 413.36ZM1272.92 396.558C1278.74 396.558 1283.47 394.965 1287.09 391.78C1290.82 388.486 1292.69 384.148 1292.69 378.767V377.119H1271.77C1267.93 377.119 1264.91 377.943 1262.71 379.59C1260.51 381.238 1259.42 383.544 1259.42 386.509C1259.42 389.474 1260.57 391.89 1262.87 393.757C1265.18 395.624 1268.53 396.558 1272.92 396.558Z" fill="white"/>
<path d="M1328.66 370.53V367.894C1328.66 359.328 1330.36 352.025 1333.77 345.985C1337.17 339.835 1341.67 335.168 1347.28 331.983C1352.99 328.689 1359.19 327.041 1365.89 327.041C1373.36 327.041 1379.01 328.359 1382.86 330.995C1386.7 333.63 1389.5 336.376 1391.26 339.231H1394.22V329.347H1414.65V425.55C1414.65 431.151 1413 435.599 1409.71 438.893C1406.41 442.298 1402.02 444 1396.53 444H1341.84V425.88H1389.28C1392.36 425.88 1393.89 424.232 1393.89 420.938V399.687H1390.93C1389.83 401.445 1388.29 403.257 1386.32 405.124C1384.34 406.881 1381.7 408.363 1378.41 409.571C1375.12 410.779 1370.94 411.383 1365.89 411.383C1359.19 411.383 1352.99 409.791 1347.28 406.606C1341.67 403.311 1337.17 398.644 1333.77 392.604C1330.36 386.454 1328.66 379.096 1328.66 370.53ZM1371.82 393.263C1378.19 393.263 1383.52 391.231 1387.8 387.168C1392.08 383.105 1394.22 377.394 1394.22 370.036V368.389C1394.22 360.921 1392.08 355.21 1387.8 351.257C1383.63 347.193 1378.3 345.162 1371.82 345.162C1365.45 345.162 1360.12 347.193 1355.84 351.257C1351.56 355.21 1349.42 360.921 1349.42 368.389V370.036C1349.42 377.394 1351.56 383.105 1355.84 387.168C1360.12 391.231 1365.45 393.263 1371.82 393.263Z" fill="white"/>
<path d="M1432.72 411.054V329.347H1453.48V411.054H1432.72ZM1443.1 319.793C1439.36 319.793 1436.18 318.585 1433.54 316.169C1431.02 313.753 1429.76 310.568 1429.76 306.615C1429.76 302.661 1431.02 299.476 1433.54 297.06C1436.18 294.644 1439.36 293.436 1443.1 293.436C1446.94 293.436 1450.13 294.644 1452.65 297.06C1455.18 299.476 1456.44 302.661 1456.44 306.615C1456.44 310.568 1455.18 313.753 1452.65 316.169C1450.13 318.585 1446.94 319.793 1443.1 319.793Z" fill="white"/>
<path d="M1471.54 411.054V329.347H1491.96V340.055H1494.93C1496.25 337.2 1498.72 334.509 1502.34 331.983C1505.96 329.347 1511.46 328.03 1518.81 328.03C1525.18 328.03 1530.73 329.512 1535.45 332.477C1540.28 335.333 1544.02 339.341 1546.65 344.503C1549.29 349.554 1550.61 355.485 1550.61 362.294V411.054H1529.85V363.941C1529.85 357.791 1528.31 353.178 1525.24 350.104C1522.27 347.029 1517.99 345.491 1512.39 345.491C1506.02 345.491 1501.08 347.633 1497.56 351.916C1494.05 356.089 1492.29 361.964 1492.29 369.542V411.054H1471.54Z" fill="white"/>
<path d="M1593.47 413.36C1587.65 413.36 1582.43 412.372 1577.82 410.395C1573.21 408.308 1569.53 405.343 1566.78 401.499C1564.15 397.546 1562.83 392.769 1562.83 387.168C1562.83 381.567 1564.15 376.9 1566.78 373.166C1569.53 369.322 1573.26 366.467 1577.99 364.6C1582.82 362.623 1588.31 361.635 1594.46 361.635H1616.86V357.022C1616.86 353.178 1615.65 350.049 1613.24 347.633C1610.82 345.107 1606.98 343.844 1601.71 343.844C1596.55 343.844 1592.7 345.052 1590.18 347.468C1587.65 349.774 1586 352.794 1585.23 356.528L1566.13 350.104C1567.44 345.93 1569.53 342.142 1572.39 338.737C1575.35 335.223 1579.25 332.422 1584.08 330.336C1589.02 328.139 1595.01 327.041 1602.04 327.041C1612.8 327.041 1621.31 329.732 1627.57 335.113C1633.83 340.494 1636.96 348.291 1636.96 358.505V388.98C1636.96 392.275 1638.5 393.922 1641.57 393.922H1648.16V411.054H1634.32C1630.26 411.054 1626.91 410.065 1624.28 408.089C1621.64 406.112 1620.32 403.476 1620.32 400.182V400.017H1617.19C1616.75 401.335 1615.76 403.092 1614.23 405.288C1612.69 407.375 1610.27 409.242 1606.98 410.889C1603.68 412.536 1599.18 413.36 1593.47 413.36ZM1597.09 396.558C1602.92 396.558 1607.64 394.965 1611.26 391.78C1615 388.486 1616.86 384.148 1616.86 378.767V377.119H1595.94C1592.1 377.119 1589.08 377.943 1586.88 379.59C1584.69 381.238 1583.59 383.544 1583.59 386.509C1583.59 389.474 1584.74 391.89 1587.05 393.757C1589.35 395.624 1592.7 396.558 1597.09 396.558Z" fill="white"/>
<path d="M1658.4 411.054V329.347H1678.82V338.572H1681.79C1683 335.278 1684.97 332.862 1687.72 331.324C1690.57 329.787 1693.87 329.018 1697.6 329.018H1707.49V347.468H1697.27C1692 347.468 1687.66 348.895 1684.26 351.751C1680.85 354.496 1679.15 358.779 1679.15 364.6V411.054H1658.4Z" fill="white"/>
<path d="M1718.77 411.054V329.347H1739.52V411.054H1718.77ZM1729.14 319.793C1725.41 319.793 1722.23 318.585 1719.59 316.169C1717.06 313.753 1715.8 310.568 1715.8 306.615C1715.8 302.661 1717.06 299.476 1719.59 297.06C1722.23 294.644 1725.41 293.436 1729.14 293.436C1732.99 293.436 1736.17 294.644 1738.7 297.06C1741.22 299.476 1742.49 302.661 1742.49 306.615C1742.49 310.568 1741.22 313.753 1738.7 316.169C1736.17 318.585 1732.99 319.793 1729.14 319.793Z" fill="white"/>
<path d="M1796.46 413.36C1788.33 413.36 1781.03 411.713 1774.55 408.418C1768.07 405.124 1762.96 400.346 1759.23 394.087C1755.49 387.827 1753.63 380.304 1753.63 371.518V368.883C1753.63 360.097 1755.49 352.574 1759.23 346.315C1762.96 340.055 1768.07 335.278 1774.55 331.983C1781.03 328.689 1788.33 327.041 1796.46 327.041C1804.58 327.041 1811.89 328.689 1818.37 331.983C1824.85 335.278 1829.95 340.055 1833.69 346.315C1837.42 352.574 1839.29 360.097 1839.29 368.883V371.518C1839.29 380.304 1837.42 387.827 1833.69 394.087C1829.95 400.346 1824.85 405.124 1818.37 408.418C1811.89 411.713 1804.58 413.36 1796.46 413.36ZM1796.46 394.91C1802.83 394.91 1808.1 392.879 1812.27 388.815C1816.45 384.642 1818.53 378.712 1818.53 371.024V369.377C1818.53 361.69 1816.45 355.814 1812.27 351.751C1808.21 347.578 1802.94 345.491 1796.46 345.491C1790.09 345.491 1784.82 347.578 1780.64 351.751C1776.47 355.814 1774.38 361.69 1774.38 369.377V371.024C1774.38 378.712 1776.47 384.642 1780.64 388.815C1784.82 392.879 1790.09 394.91 1796.46 394.91Z" fill="white"/>
<path d="M890.394 334.026V324.238H896.007C900.422 324.238 902.629 322.031 902.629 317.617V313.011H900.182C896.343 313.011 893.129 311.86 890.538 309.557C888.043 307.254 886.796 304.327 886.796 300.777C886.796 296.939 888.043 293.82 890.538 291.421C893.129 289.022 896.343 287.823 900.182 287.823C904.116 287.823 907.33 289.07 909.825 291.565C912.32 293.964 913.568 297.226 913.568 301.353V317.905C913.568 328.653 908.194 334.026 897.447 334.026H890.394Z" fill="white"/>
<path d="M69.7266 291.666C57.3932 291.666 46.4766 289.082 36.9766 283.916C27.6432 278.582 20.3099 271.166 14.9766 261.666C9.8099 251.999 7.22656 240.666 7.22656 227.666V224.666C7.22656 211.666 9.8099 200.416 14.9766 190.916C20.1432 181.249 27.3932 173.832 36.7266 168.666C46.0599 163.332 56.8932 160.666 69.2266 160.666C81.3932 160.666 91.9766 163.416 100.977 168.916C109.977 174.249 116.977 181.749 121.977 191.416C126.977 200.916 129.477 211.999 129.477 224.666V235.416H39.2266C39.5599 243.916 42.7266 250.832 48.7266 256.166C54.7266 261.499 62.0599 264.166 70.7266 264.166C79.5599 264.166 86.0599 262.249 90.2266 258.416C94.3932 254.582 97.5599 250.332 99.7266 245.666L125.477 259.166C123.143 263.499 119.727 268.249 115.227 273.416C110.893 278.416 105.06 282.749 97.7266 286.416C90.3932 289.916 81.0599 291.666 69.7266 291.666ZM39.4766 211.916H97.4766C96.8099 204.749 93.8932 198.999 88.7266 194.666C83.7266 190.332 77.1432 188.166 68.9766 188.166C60.4766 188.166 53.7266 190.332 48.7266 194.666C43.7266 198.999 40.6432 204.749 39.4766 211.916Z" fill="white"/>
<path d="M135.957 288.166L180.957 225.666L136.457 164.166H172.957L201.207 205.416H205.707L233.957 164.166H270.457L225.957 225.666L270.957 288.166H233.957L205.707 246.416H201.207L172.957 288.166H135.957Z" fill="white"/>
<path d="M339.906 288.166C331.74 288.166 325.073 285.666 319.906 280.666C314.906 275.499 312.406 268.666 312.406 260.166V190.166H281.406V164.166H312.406V125.666H343.906V164.166H377.906V190.166H343.906V254.666C343.906 259.666 346.24 262.166 350.906 262.166H377.906V288.166H339.906Z" fill="white"/>
<path d="M401.92 288.166V164.166H432.92V178.166H437.42C439.253 173.166 442.253 169.499 446.42 167.166C450.753 164.832 455.753 163.666 461.42 163.666H476.42V191.666H460.92C452.92 191.666 446.337 193.832 441.17 198.166C436.003 202.332 433.42 208.832 433.42 217.666V288.166H401.92Z" fill="white"/>
<path d="M534.111 291.666C525.278 291.666 517.361 290.166 510.361 287.166C503.361 283.999 497.778 279.499 493.611 273.666C489.611 267.666 487.611 260.416 487.611 251.916C487.611 243.416 489.611 236.332 493.611 230.666C497.778 224.832 503.445 220.499 510.611 217.666C517.945 214.666 526.278 213.166 535.611 213.166H569.611V206.166C569.611 200.332 567.778 195.582 564.111 191.916C560.445 188.082 554.611 186.166 546.611 186.166C538.778 186.166 532.945 187.999 529.111 191.666C525.278 195.166 522.778 199.749 521.611 205.416L492.611 195.666C494.611 189.332 497.778 183.582 502.111 178.416C506.611 173.082 512.528 168.832 519.861 165.666C527.361 162.332 536.445 160.666 547.111 160.666C563.445 160.666 576.361 164.749 585.861 172.916C595.361 181.082 600.111 192.916 600.111 208.416V254.666C600.111 259.666 602.445 262.166 607.111 262.166H617.111V288.166H596.111C589.945 288.166 584.861 286.666 580.861 283.666C576.861 280.666 574.861 276.666 574.861 271.666V271.416H570.111C569.445 273.416 567.945 276.082 565.611 279.416C563.278 282.582 559.611 285.416 554.611 287.916C549.611 290.416 542.778 291.666 534.111 291.666ZM539.611 266.166C548.445 266.166 555.611 263.749 561.111 258.916C566.778 253.916 569.611 247.332 569.611 239.166V236.666H537.861C532.028 236.666 527.445 237.916 524.111 240.416C520.778 242.916 519.111 246.416 519.111 250.916C519.111 255.416 520.861 259.082 524.361 261.916C527.861 264.749 532.945 266.166 539.611 266.166Z" fill="white"/>
<path d="M65.5 476.666C53.1667 476.666 42.0833 474.166 32.25 469.166C22.4167 464.166 14.6667 456.916 9 447.416C3.33333 437.916 0.5 426.499 0.5 413.166V409.166C0.5 395.832 3.33333 384.416 9 374.916C14.6667 365.416 22.4167 358.166 32.25 353.166C42.0833 348.166 53.1667 345.666 65.5 345.666C77.8333 345.666 88.9167 348.166 98.75 353.166C108.583 358.166 116.333 365.416 122 374.916C127.667 384.416 130.5 395.832 130.5 409.166V413.166C130.5 426.499 127.667 437.916 122 447.416C116.333 456.916 108.583 464.166 98.75 469.166C88.9167 474.166 77.8333 476.666 65.5 476.666ZM65.5 448.666C75.1667 448.666 83.1667 445.582 89.5 439.416C95.8333 433.082 99 424.082 99 412.416V409.916C99 398.249 95.8333 389.332 89.5 383.166C83.3333 376.832 75.3333 373.666 65.5 373.666C55.8333 373.666 47.8333 376.832 41.5 383.166C35.1667 389.332 32 398.249 32 409.916V412.416C32 424.082 35.1667 433.082 41.5 439.416C47.8333 445.582 55.8333 448.666 65.5 448.666Z" fill="white"/>
<path d="M161.326 473.166V349.166H192.326V363.166H196.826C198.66 358.166 201.66 354.499 205.826 352.166C210.16 349.832 215.16 348.666 220.826 348.666H235.826V376.666H220.326C212.326 376.666 205.743 378.832 200.576 383.166C195.41 387.332 192.826 393.832 192.826 402.666V473.166H161.326Z" fill="white"/>
<path d="M303.803 476.666C293.969 476.666 284.719 474.249 276.053 469.416C267.553 464.416 260.719 457.166 255.553 447.666C250.386 438.166 247.803 426.666 247.803 413.166V409.166C247.803 395.666 250.386 384.166 255.553 374.666C260.719 365.166 267.553 357.999 276.053 353.166C284.553 348.166 293.803 345.666 303.803 345.666C311.303 345.666 317.553 346.582 322.553 348.416C327.719 350.082 331.886 352.249 335.053 354.916C338.219 357.582 340.636 360.416 342.303 363.416H346.803V312.166H378.303V473.166H347.303V458.166H342.803C339.969 462.832 335.553 467.082 329.553 470.916C323.719 474.749 315.136 476.666 303.803 476.666ZM313.303 449.166C322.969 449.166 331.053 446.082 337.553 439.916C344.053 433.582 347.303 424.416 347.303 412.416V409.916C347.303 397.916 344.053 388.832 337.553 382.666C331.219 376.332 323.136 373.166 313.303 373.166C303.636 373.166 295.553 376.332 289.053 382.666C282.553 388.832 279.303 397.916 279.303 409.916V412.416C279.303 424.416 282.553 433.582 289.053 439.916C295.553 446.082 303.636 449.166 313.303 449.166Z" fill="white"/>
<path d="M420.977 473.166V349.166H452.477V473.166H420.977Z" fill="white"/>
<path d="M6.5 646.166V522.166H37.5V538.416H42C44 534.082 47.75 529.999 53.25 526.166C58.75 522.166 67.0833 520.166 78.25 520.166C87.9167 520.166 96.3333 522.416 103.5 526.916C110.833 531.249 116.5 537.332 120.5 545.166C124.5 552.832 126.5 561.832 126.5 572.166V646.166H95V574.666C95 565.332 92.6667 558.332 88 553.666C83.5 548.999 77 546.666 68.5 546.666C58.8333 546.666 51.3333 549.916 46 556.416C40.6667 562.749 38 571.666 38 583.166V646.166H6.5Z" fill="white"/>
<path d="M204.803 649.666C195.969 649.666 188.053 648.166 181.053 645.166C174.053 641.999 168.469 637.499 164.303 631.666C160.303 625.666 158.303 618.416 158.303 609.916C158.303 601.416 160.303 594.332 164.303 588.666C168.469 582.832 174.136 578.499 181.303 575.666C188.636 572.666 196.969 571.166 206.303 571.166H240.303V564.166C240.303 558.332 238.469 553.582 234.803 549.916C231.136 546.082 225.303 544.166 217.303 544.166C209.469 544.166 203.636 545.999 199.803 549.666C195.969 553.166 193.469 557.749 192.303 563.416L163.303 553.666C165.303 547.332 168.469 541.582 172.803 536.416C177.303 531.082 183.219 526.832 190.553 523.666C198.053 520.332 207.136 518.666 217.803 518.666C234.136 518.666 247.053 522.749 256.553 530.916C266.053 539.082 270.803 550.916 270.803 566.416V612.666C270.803 617.666 273.136 620.166 277.803 620.166H287.803V646.166H266.803C260.636 646.166 255.553 644.666 251.553 641.666C247.553 638.666 245.553 634.666 245.553 629.666V629.416H240.803C240.136 631.416 238.636 634.082 236.303 637.416C233.969 640.582 230.303 643.416 225.303 645.916C220.303 648.416 213.469 649.666 204.803 649.666ZM210.303 624.166C219.136 624.166 226.303 621.749 231.803 616.916C237.469 611.916 240.303 605.332 240.303 597.166V594.666H208.553C202.719 594.666 198.136 595.916 194.803 598.416C191.469 600.916 189.803 604.416 189.803 608.916C189.803 613.416 191.553 617.082 195.053 619.916C198.553 622.749 203.636 624.166 210.303 624.166Z" fill="white"/>
<path d="M316.584 646.166V522.166H347.584V536.166H352.084C353.917 531.166 356.917 527.499 361.084 525.166C365.417 522.832 370.417 521.666 376.084 521.666H391.084V549.666H375.584C367.584 549.666 361.001 551.832 355.834 556.166C350.667 560.332 348.084 566.832 348.084 575.666V646.166H316.584Z" fill="white"/>
<path d="M421.455 646.166V522.166H452.955V646.166H421.455Z" fill="white"/>
<path d="M552.611 649.666C540.278 649.666 529.195 647.166 519.361 642.166C509.528 637.166 501.778 629.916 496.111 620.416C490.445 610.916 487.611 599.499 487.611 586.166V582.166C487.611 568.832 490.445 557.416 496.111 547.916C501.778 538.416 509.528 531.166 519.361 526.166C529.195 521.166 540.278 518.666 552.611 518.666C564.945 518.666 576.028 521.166 585.861 526.166C595.695 531.166 603.445 538.416 609.111 547.916C614.778 557.416 617.611 568.832 617.611 582.166V586.166C617.611 599.499 614.778 610.916 609.111 620.416C603.445 629.916 595.695 637.166 585.861 642.166C576.028 647.166 564.945 649.666 552.611 649.666ZM552.611 621.666C562.278 621.666 570.278 618.582 576.611 612.416C582.945 606.082 586.111 597.082 586.111 585.416V582.916C586.111 571.249 582.945 562.332 576.611 556.166C570.445 549.832 562.445 546.666 552.611 546.666C542.945 546.666 534.945 549.832 528.611 556.166C522.278 562.332 519.111 571.249 519.111 582.916V585.416C519.111 597.082 522.278 606.082 528.611 612.416C534.945 618.582 542.945 621.666 552.611 621.666Z" fill="white"/>
<path d="M735 127.666V646.166" stroke="white" stroke-width="14"/>
<defs>
<filter id="filter0_dddddd_5356_14574" x="156.315" y="0.480713" width="788.37" height="791.37" filterUnits="userSpaceOnUse" color-interpolation-filters="sRGB">
<feFlood flood-opacity="0" result="BackgroundImageFix"/>
<feColorMatrix in="SourceAlpha" type="matrix" values="0 0 0 0 0 0 0 0 0 0 0 0 0 0 0 0 0 0 127 0" result="hardAlpha"/>
<feOffset/>
<feGaussianBlur stdDeviation="3.96054"/>
<feColorMatrix type="matrix" values="0 0 0 0 0.796078 0 0 0 0 0.886275 0 0 0 0 1 0 0 0 1 0"/>
<feBlend mode="normal" in2="BackgroundImageFix" result="effect1_dropShadow_5356_14574"/>
<feColorMatrix in="SourceAlpha" type="matrix" values="0 0 0 0 0 0 0 0 0 0 0 0 0 0 0 0 0 0 127 0" result="hardAlpha"/>
<feOffset/>
<feGaussianBlur stdDeviation="7.92107"/>
<feColorMatrix type="matrix" values="0 0 0 0 0.796078 0 0 0 0 0.886275 0 0 0 0 1 0 0 0 1 0"/>
<feBlend mode="normal" in2="effect1_dropShadow_5356_14574" result="effect2_dropShadow_5356_14574"/>
<feColorMatrix in="SourceAlpha" type="matrix" values="0 0 0 0 0 0 0 0 0 0 0 0 0 0 0 0 0 0 127 0" result="hardAlpha"/>
<feOffset/>
<feGaussianBlur stdDeviation="27.7238"/>
<feColorMatrix type="matrix" values="0 0 0 0 0.796078 0 0 0 0 0.886275 0 0 0 0 1 0 0 0 1 0"/>
<feBlend mode="normal" in2="effect2_dropShadow_5356_14574" result="effect3_dropShadow_5356_14574"/>
<feColorMatrix in="SourceAlpha" type="matrix" values="0 0 0 0 0 0 0 0 0 0 0 0 0 0 0 0 0 0 127 0" result="hardAlpha"/>
<feOffset/>
<feGaussianBlur stdDeviation="55.4475"/>
<feColorMatrix type="matrix" values="0 0 0 0 0.796078 0 0 0 0 0.886275 0 0 0 0 1 0 0 0 1 0"/>
<feBlend mode="normal" in2="effect3_dropShadow_5356_14574" result="effect4_dropShadow_5356_14574"/>
<feColorMatrix in="SourceAlpha" type="matrix" values="0 0 0 0 0 0 0 0 0 0 0 0 0 0 0 0 0 0 127 0" result="hardAlpha"/>
<feOffset/>
<feGaussianBlur stdDeviation="95.0529"/>
<feColorMatrix type="matrix" values="0 0 0 0 0.796078 0 0 0 0 0.886275 0 0 0 0 1 0 0 0 1 0"/>
<feBlend mode="normal" in2="effect4_dropShadow_5356_14574" result="effect5_dropShadow_5356_14574"/>
<feColorMatrix in="SourceAlpha" type="matrix" values="0 0 0 0 0 0 0 0 0 0 0 0 0 0 0 0 0 0 127 0" result="hardAlpha"/>
<feOffset/>
<feGaussianBlur stdDeviation="166.343"/>
<feColorMatrix type="matrix" values="0 0 0 0 0.796078 0 0 0 0 0.886275 0 0 0 0 1 0 0 0 1 0"/>
<feBlend mode="normal" in2="effect5_dropShadow_5356_14574" result="effect6_dropShadow_5356_14574"/>
<feBlend mode="normal" in="SourceGraphic" in2="effect6_dropShadow_5356_14574" result="shape"/>
</filter>
<linearGradient id="paint0_linear_5356_14574" x1="560.069" y1="431.805" x2="848.711" y2="178.465" gradientUnits="userSpaceOnUse">
<stop stop-color="#D7F5FF"/>
<stop offset="0.630208" stop-color="#3870FF" stop-opacity="0.015625"/>
<stop offset="1" stop-color="#356EFF" stop-opacity="0"/>
</linearGradient>
<radialGradient id="paint1_diamond_5356_14574" cx="0" cy="0" r="1" gradientUnits="userSpaceOnUse" gradientTransform="translate(527.437 435.541) rotate(-65.4117) scale(138.565 136.422)">
<stop stop-color="#E9F2FF"/>
<stop offset="1" stop-color="#BCDBFF"/>
</radialGradient>
</defs>
</svg>
